<mxfile host="app.diagrams.net" modified="2023-01-11T07:19:53.846Z" agent="5.0 (Windows NT 10.0; Win64; x64) AppleWebKit/537.36 (KHTML, like Gecko) Chrome/108.0.0.0 Safari/537.36" etag="tdronQ8xspyA2IFqXqrW" version="20.7.4" type="github">
  <diagram id="YcJ9z-As0BGaH61ilMCl" name="Page-1">
    <mxGraphModel dx="794" dy="413" grid="1" gridSize="10" guides="1" tooltips="1" connect="1" arrows="1" fold="1" page="1" pageScale="1" pageWidth="850" pageHeight="1100" math="0" shadow="0">
      <root>
        <mxCell id="0" />
        <mxCell id="1" parent="0" />
        <mxCell id="Aaq_TbK8YNV64IDZXaT_-1" value="" style="rounded=0;whiteSpace=wrap;html=1;strokeColor=none;" parent="1" vertex="1">
          <mxGeometry x="40" y="40" width="680" height="390" as="geometry" />
        </mxCell>
        <mxCell id="Aaq_TbK8YNV64IDZXaT_-3" value="" style="shape=image;verticalLabelPosition=bottom;labelBackgroundColor=default;verticalAlign=top;aspect=fixed;imageAspect=0;image=data:image/png,iVBORw0KGgoAAAANSUhEUgAAASQAAAIICAYAAADHf5M8AAAAAXNSR0IArs4c6QAAIABJREFUeF7svfeXXNd1Jbwrh84ZOYMASCQCIAiSIhU59khWsGX78++zPv9zM2OPNAqmvUQxBwAEAwKRM9A5d1cOs/Y+976q7q7qbjQpCRSrbIhA96sX7rt33332SaF//dd/raL1aY1AawRaI/AUjECoBUhPwVto3UJrBFojoBFoAVJrIrRGoDUCT80IrAuQqtUqQqEQ/H9Xu/tmx9SfQ0gYCuk06zln/fUKhQIWFhZQKpXQ2dmJRCIRnOupGdVv2I0sfwdr/bv+8RrNjSd9p/58G/3eN2y4v/G3yzU4MjKCTCaj9dvo0+hdcs3H43Fs2bIFyWSy4fcaAhIvODMzg/7+foTDYX1xcnISHR0dOuFagETA4Pf54Xe6urpQLBb1APw7f8cb4h8PTIuLi+CfwcHBFafn+YaHh3Ht2jWMj4+jXC5rIHhv3d3d2L17t/7w3P5+v/Fv/c/0ALlcDtPT06hUKroiAb63tzcYRz/h5ubm9H42bdqkd5bP5/U9/ozvoKenR9/x75MbxujoqNHwUEjvmsdwHkxNTaG9vV1//IfvNRqN6lz+HH+mIWhd5glGgGuP74rzJJvNai0uf1+RSAQDAwN6n8s3L36H3ycoxWKxFVduCEhEv7fffhunT5/WQufnjTfewLFjxzQhV/twor777rsCFk7Qx48f48UXXwQn/o0bN3DmzBn9nhOP5+MxnPQffPCBUPeXv/ylTu8RdmxsDBcuXMDDhw/R1tamByHI8XtcDHy4iYkJTfYTJ05g165drQn9BBPs7t27+PTTTzWB+OE4Hjp0SJONwLF582aN/eXLl7Up/cu//IuO+/zzzwVI3AR43HPPPYft27cHY89N53//7/+tnxGMeMzzzz+PVCqFN998U/Pou9/9ro7nBvg//+f/1LEvvfRSw4n6BI/UOvRPOAKerHDtvfXWW9pgln8INK+//jq2bdvW8E64UXEtc0NazqQaAhLZyKVLl7QLfuc739GkqwekL7/8Eg8ePNAk5uTlJPMfXuzs2bP4yU9+oslGsEin0zKzrl+/LkDi7zm5f/zjHwtFZ2dn8dFHH4G78D/90z8F5+LNXrlyRcc/88wzmvTceXlO/o73RbONC+bcuXPYu3evwI8I3fqsbwT4TrgREAg86+Q74UZCRsr39cUXX2gT4Jz4xS9+IbB655138MILL4hFcz5w4yDA+F2RYPXv//7vesdkXHyHfL8nT57UROZ7/NnPfqbzXr16FR9//LE2k5dffrkFSOt7dX+Ro4gJfI+cH3xnzT7EjWeffbbhr0ki+OFGxfdfD0pNAenmzZtiR/fv38epU6e0q5HRzM/PCxA4sTiZ+SFQeFOJiEnwIgPauXMn+vr6BFgEKjIkTvyLFy/qHAcOHNCuyAlJ8OLP6wHJMyV+l+cj6PC+SBP977jT8uEJQjQnm9mmf5G39w24KEGGgE6QIUgcP35cwO7fp58snERkzT/96U/FaAhIhw8fFhMme+I5CD7epCdD+rd/+zf87d/+rQCJGw7nxtGjR/H++++LeXGX5Nz51a9+JcbE37cA6emeNB6QHj16pE2m2eeVV17Ru2304VyiRMA1v1yiWRWQCB7cHclECD4EJALUvn37tDOS5RBkaNrVT2BOLN4wd00CD39PEKkHJDIbnpO7KlkQd8c//vGPKwDJAw8ZmTf1vDnISc+f8344kVv60ZNPZo4f3yPHkMyY4OLZLYGHmwknjgckshqCPzeGe/fuCVRI3zlRCT5eF+C7+V//639hx44dAikew02M5yIgff/738cnn3yi984NiUyboNYCpCd/h3/Ob3xdgMR75rwgttR/VgWkV199VeYUNRxOWqIeJ83WrVul5RBwqEGQQXGi8Q+Po17EY7i7EkU5qQki9YBEZsTJT+bD42iS/eY3v8E///M/rxhf/p6AxutRTOPi4G7Oc/JaZGFcGK3Pk48AAYljSTbM8aWWR0DiRsL3RbOMrJP/JkMiIPE9cx7QFOekIjARgDhfvLDtNSTOGc+SqRmQ7RKQfv7zn+u/vCa1JZ6T99ICpCd/h3/ObxCQiAk0yTkfmn1++MMfimk3Y0icU1yzy0nEmoDEE5IV0QwjXefn/Pnz2lFpR3IH5N/9hzvhb3/7W+141BM+++wzCVwEFDIib7Lxe/w9j+WkJWX/9a9/jX/8x39cIUrX25g8H3dWUj6CGDUOglTrs7ER8MyTGwgnGUVtAgtZLt8ldzAyIm4CNNM4BwgenANkVAQbzgO+V5ro3uPiNSQCGNm0/3hA+od/+AdpVHyfBCeeowVIG3uHf85vcfPiXOB7v3XrlrTh5R9uPJRjGlksXMt8z0NDQw3XbUNAop5A4YoMxMcfkQkRNMh2ONk4sTh5fWhAveuPN8ldkxen0s5JTSbDc1II5/d509xdOan5M948b5QUfvmnHpAIbNQjqGVxESynfH/Ol/PXcC2OLScY3wN3LDJXAvxy7wffH985f893RXOO74tMiGyZE6x+AvL3nAPey+bHinOLrIjgxTAQzhXOofqwj5bp/XTPLK49sqSNEAEyLGIIAa3RZ12BkU/b8BCUuEBaZtrT9mZa9/NtGQEyaLKlZoGRDcEmFAqcT83G6RsJSN+Wl956ztYIfNtGoAVI37Y33nre1gg8xSPQAqSn+OW0bq01At+2EWgB0rftjbeetzUCT/EItADpKX45rVtrjcC3bQRagPRte+Ot522NwFM8Ai1AeopfTuvWWiPwbRuBFiB9295463lbI/AUj0ALkJ7il9O6tdYIfNtGoAVI37Y33nre1gg8xSPQAqSn+OW0bq01At+2EWgB0rftjbeetzUCT/EIrBuQ2FsgpP8BSmVgdK6CWCSE/o4QwqEn7x7yZGPiLlz/pQY/erJzLj26iir4/6pawL+G9Kitz4ZG4Gt+ORu6h9aXvo4R4LoIVauo5BdQmnmE0twoqoVFoFICYklE2voR7dmOcKob4ejqDUDWcz/rBiQ7WRX5InBtpKI/m7vCeGFPBImlzQXWc92n8JhGi6i1sJ78Rfm2OC04f/Kxe/q+USmXUJq6g+L4baBcQLVaQSgcAcIxoJABwlFt3pHOTUgMPoNwspO7+oYfZF2AZLVxgEIJuPyogltjZUQjIZzaHcGW7jBCRFHdw8ZvZLUnYOunbKGKYgVIx0KIRqxP3Nf9qVSBXBEolqtoSwBRUr/W54lG4PLlK6qLtH//PpWa+FO8pye6odbBGxwBcSMURq6gNHYT4bY+xPp3IXfvHGK9uxHpGEDuzseIdm9FOJ5CYewmIu39iG87hghBaYOfVQDJ2y0yZlCthnDxAZlRGWzq8cq+CDZ1Wc+2xp8QHk2V8dHtskw6wVUI6G0Hjm2PoitpNtG/nS+JedXjy/beMJ7fGUY4FMLUYhWf3y9jJqO7QCQSwp7BMJ7dHEE4TDoZwsWHZWQKwIt7l3YbuTtR0Xd/+nwMo7MVfHyrrEGWTcb/soBcXxgv7I4gW6jg7J0yJuaNCfLax3ZEsKs/jNlsBX/8kvfJ74RA4AqH7J55pn84ubK/1Abfx7q/dv36DXzyyQX83d/9WJ0bln8aNXu0d7AekGVTUCvC3vy8NfZYf6033vhPpFJpnD59yjVcqHKY3bmWM871sykWkfvgg4+wZctmnDp1EufOncetW7fdvLIGhCz09txzz6K3t2edz7nu4f5WHliceYT83bOI9mxFYusxFMdvojh1H8mdpxBpH0Du1oeoVPJI7nwB5YVJ5B9+imj3NsS3HUU4TLNpPXNt6dA2B6SqISTnZLYAXB0u4+ZoBe3JEI7vjGBz19oXezhVxYe3SvjugajOU6pAILWQB07tiqA9Cfz60zIObA6jOx0Kbj8RAzqTIcxkq7hwt4yethB2D4QRiwCTC1V8OVxBf3sIx7aHEQsDFx9WsFgAzjQApE/vlfHz52MYma3io1slvPxMFPUwmowD6TjwzrWyzn9ocxi8/sQCcGOkgue2RjDYCUxnhF+YylRw6UFF10rEbAwGO9Yei697Rl+7dl2L8uc//+mK/lYsnhWJRBGJLN0wWPa3VCoiHI6saOLH++P3CC4s1F/fWZjfI+vxDTp9IX/+u1yuIBYzm53fYRXISqWKtra0fua/a9cu6dzLK0LyuvwuSxrzOI6zv3dfAIyA9P77HwqQTp9+AR9/fBY3b95SGWMem8vlMTExiXK5hBdeOKlKpesD36/7zfx1nK9azCN7611UiznEBvYhlGxH4fFFIBRBnP+OJlCaG0F55hFiQwcQjrehOHkH5cw0UnteQbitd0Pj3xSQjBeFZCpdelgB2UYHwWgHmRGBam195eFUBR/eLOGXp+LGkkI0iap493oZh7eFpUH99vOSGMpgZ92idqf+/EEZuQLw/C6Ckf2e/0tQIts5uTuCoc4QvnhQQaZQbQpIvzgRw/BsFR/eLOLvT8QRCi/F7myxiv+8WBLQ7uyzG+WiGJmtIBUPCSy90E1ge/96CT85FtXv/lIfAtL585/gZz/7O4RCYXXu2LRpCJOTU5iZYXnROA4dOhiU+GWRfjIKlpClKbVt29agqSYBgfXOJyenxYxYXnj//v3o7OzQd8bHxrFl62Y8evRYoMXvsnQwAYFAMDDQp4LuLGn6xRcXxVb27t2j8rTXrt3Ali2bMDw8ilwui87OLhw8+IzKmBKg7t27j8ePhxEOh9QYgiVxec4zZ04vGdrR0TF8+OGHap9kgHRONZ3/4R9+rnMRBNlg4oMPPkRHRydeeeVljUHrs7ERoICdu3+eO0rtBNWK04c8eTCUWLqaqoj27UZy+/MbuvCqGlKhDJBh3J+ogDrW9w5G0Usms8516BnSL0/FxEp4+/ky2UgJR7dHsakz1BiQnFH1h8slmWd7Blaahm9fKwsYDwyFZUouFtcGpI9ulkBwUndw9SQPoUpgrYbwX5dLMgFP7Y6iK1UbYjuq9sAEtqcNkIrFEt5++x1NgK6uTjEQLmACy49//LeYnp7B++9/gGw2hx07tmF+fkHAdfr0SezevQsffXRW9a8HBgYFKqyV3d/fh+985xVcvHhJwNPT062mnAQlMo/29jb9e3Z2DnNzs2q2sGvXTrzxxn8hlUrixRdP6xq8r3QqjYHBfoEh74v93I4ePazmEWQ60WgMQ0ODmJuzWs08/z//8z8umdDWEYUMaQteeOFUHSD9ImhUSjbFjrpXr17H3/3dT3SPrc/GRqAwfBn5setI73tN7Kc0P4b8/U8Q33wIsV6re0/2lHvwCSLpHsQ3PYtqpYT8o4uo5OfQduhvNnThVQHpxmgZF+6VZRZ9/1AM3W31S3Pt6xGQaCa9diCiRV2sVHFvoopKtYrnd0bEMP79fBFtiRDE+t263z8YxrbeMP7jCwJXBFt76hHQIOLs7bJMrcPbIgZI62RIPW0Gbl6D99ciw/r4dhmLuapMMZqE2/vC6EmHIHLmbuFpBiQ2ZHzttVdRqZTx3nsfCFj+/u9/jtu3b+PSxct45TuvYMeO7eqh9t5776tJA7u/vPvue+joaFOvNILZpUuXceXKl1r4ZFa3b93Bi2deUKukW7fuqGPp4cPP6Q+L+f/617/BwYMH9O//+q8/CCBefPEFAdJbb72N558/rt9nsxmZXWRo3/3ua2rWMD4+gddf/5Hqo4+NjeOD9z9AoVjcECDxvZI1EWB/8pP/LhbXMtvWXqeNjsg//AzFidtoO/oLhMJhFKcfIH//PBLbTyDWu9MAqZRD7u5ZhBLtSG4/oU0+9+BTlGcfou3wzzYiIWFVQHo8U8H5O2XFHR3aEsH+oTCiT9Cl2gPSlh5jVePzVYUIvLQ3io5USHFNv/6shGc2hdBFs8h9qB8RpP7jUgnPbgljR+9KhvThzTK60sCzW9YPSGRI0pkoSDtY6kzZtTiY5WoI04tVzGarmFqoYmKxiqPbwtjSY55EjvDTDEgHDuxX+2IyBXb5vXHjFv77f/9b9Ve7fes2/vn/+6cVbcaNpZyTeUdA4Yes5ze/+S2OHTuKxcWMeu/98Iffl2jMziN//OM7OHXqeezbt1cm3O9+94a6ixw/fnQFIBHsXn75JWzfvk1AePbsOWQyWZ3vzTf/KEbG31NbIrj94Q9/VEeZjTAk3jtN1wsXPsNPf/qThmL/xpbnt+9bhUdfoDB+C+nDP0aYehFNuHtnkdh2HLG+3QFDyt79CJFUt35erZSRJyDNj6Lt8E82NGirAhLt8nuTVVx8UBa72T8UEQBEiQ/rMNs8IP30OEVS4P5kGVeHK3j1AM0iW+K/a6QhyaKq4v2bFfS2mdAMhDG5WBGgkRn91+UyDm4OY1dfGFeGKwIQgk09YH75uIwboxX87HgMj2eMrf1CGhLt4toD0EzOlytIkwo6c5Hdur94WNZRR7eHEXGuwqcZkA4dOoCDBw/qGQhI16/fFCCxyyzNrn/6p19q4XuvGP/Lho8ff3QOzxzYj6NHj+i7U1NT+P3v38Dx48ewsLAoc44AwtY1BKS33noHJ08SkPY5QPqPpoDEZpBsV0XdiYBDE42A9KMf/QBvv/0uisUCvv/97yEej+lab7/1DhYzmXUBEp/pl7+sN9kqePutdzE3P4/XX/9hYMptaGV8y79Ej1ru8SWBDeOOqqUCytlZRJLtCMVS5quuVFDJzQKRGMKJdm3qlfw8QslOpPe9uqERXFcc0p1xMqWSQIVM6eDmCOTAWUPX9oBEt7iJ4MB/XilhqCMsU4yQ9LvPyzi1J4LBjrCdT/YUXeoEQ+Da4zJe2hdBWzKMuxNl8F6628KYmKvglWciaE+EMDZfxSd3yzi9O4LeNgsnYMzUBzdKiMdCeGVfGI9nADKkn1FDcuyI12BQ18Sc6ULfezaK7pTFJ5QrwGf3zfN2ZGvYdKennCE1AiRqKey59tlnn+PYsSPyStET9sZ//Cc2bR7Cc88dFjBEo2H86Ec/lMfs/PkLeHD/AU6/eArDw2PrAiSagmRUy022ZoD03/7bj2QWfv7ZFzhw8BnpTwSY27fviMWtiyHdvImf/+JngUBOvYtiP9ke74XnaX02NgKVzDSyt95HpVSQyUZPEDUiSi+hEK0MCw1BtQyE6EXnv8tEKSS2HUOsf++K3n7ruZPmXjYFQ9ZiduhlY7xPvgQxk2c2hRF3nq9mF6oHJArGjGUanavqPCd2RNDXDvz7pyV5ytJ1HivqNtv7QiiWQrj8qIzpTFUxT9zR70xUFIbACPHd/WFhWLlSxYV7FcxnqxjoCCEeBcbmqiiWQzi9J4yOJMSQaObtHmCwnke+KnrbwtjWE5JWNrUIbO4OIRmlm7+K+SwUi0Q9yXsVv2kMiYAUjUbkkaOg3N3dJdOJ4Er3OBs8fvnll1rIZE8UmNnQk9rSiRPH8emnn/9JAOlv/uZ1NYe8dOmSdCTOtcHBIYEne+6tDUhncevmbQsvCIVQKhYRjkTkaTxy5Ag6OtrXM/9bxzQZAa61/P0LKM8NI77lKKK9W5G7/YGYEuOOyIKKw1dQmr6P5O4zYkn5BxdQKRaQ2vuKwgI2ot+tiyF5M4ZufJpvFJD3DETw3NYwkjEiY+PI6cV8VQBE4PCeOTIPalN0pTOM4PY4UXbpqDDWicDC7zBVhQyIwYn8Lk2222MV7B4M4+Amgot57xhhPT5XxWzGRHPqQoOdYVAj4ifj7oVBjQHMhiCGxTgiRmeP8PvZqjSzVBwYaA+JjdUHbFP8Hp2tCjD/kpHc9EZxIe/cuUOxO8PDIwKb7u5uPS/jdqgFkbnQDc/FT0DKZXOIxWOgAN7X16tjKYLzdwwX4LnonePCpr5DoXlhYV7eLfZjp6eMbvqBgX552Xg8xfO2tnad79GjR4qBGhwcEPCNjIzKg0bRmnFLvK9SqSwTjvdEvYhASDbD71FzyucL+Pu//9mSSeE9dOl0Wuem143PJzcLUxciEaSSSfT09rbc/V8TzFYKWeTvnUW1kEVsaD/C8TRyd88hvvUIop2bkL3xNsLpHkR7dihospKbR3zLYUR7GAO2WtB08xtcHyA5wKDyMuyE7mIJ2DNkppcWpsJxv6aRaHAaAgkvwUvNZIC5bFVshiaVj/QmA9OtulQXP1nXuisXAWCBCTyHu46b62t9/Rv1+2abhw2biypZb1zHV3xyxiB98sknij8imBFg7997gOcOPxsI7F/xEq2vf4UR4HygJiTmk5mVniSNKJ5GKN4m9sS/o1xEpZxHcusxpZU4fWNDV14XIGmihugVM9AZnmEEdUVpIHTf002+jjjJDd2gvuSyWPwJLHTI0kY8CPp8Ox+oJWiSxrVelPS8yUtjawd+bvyBns5vrgZWf4o7ZvwUBfc7d+6Af4/HYti5awcOHXp2/a/tT3FjrXPasnPrntn9xZFrKM6NIFQpyZum9YcwQuGYorjjm59FtL1/fd6uVcZ3XYBkmOBd5fxXSKYNhW2aPC5Z6c/zGv9MpUG+fXBkr+/PDUr+mjTvmDrCP63PUzYC2turqGRnUclOg2klFK8RiSq7P9LWp6z/jWhGy5903YD0lA1R63ZaI9Aagb/CEWgB0l/hS209UmsEvqkj0AKkb+qba913awT+CkegBUh/hS+19UitEfimjkALkL6pb651360R+CscgRYg/RW+1NYjtUbgmzoCLUD6pr651n23RuCvcARagPRX+FJbj9QagW/qCLQA6Zv65lr33RqBv8IRCP2P//H/VxmdawXby6pZw6jZvu52RJcViefz+3yn1caC9W5+/avfK3LTyhIwR4yR3hFE4yyyz4Jn/MPf+zomdQHfLPheBSohZs+VkErEVJNlIbuA7s42DPZ2Ih1nXZ8QMrk8pjKLyBeKKJUqSrJk4XmenTk1vG48FleiKH+WiFmx+kKhhFy+gGK5gnypoLo8/BYTTZW3wITNECsHsOh/FDHWhKlWkcnnkSux4kABqISRjMYRY28qK4irTBYm9zK0vlxhPSVX2k1ZwHpiS7OpH0uOkQu6t0qWVplz976dOHbCiqapkK7SYKzMg8bTaqLYO2FRJwXNh5TwytpCt27fQT6XU9mRd977UAmtB/bvxScXPkcun8fLL7Gq47RqYmcWF/H+h+fULaSvrwf/9zf/geeePYhNmzarINv+/XuQSibw2ecX8dJLp9VV4sMPP8KBZ/ZjMZtTYu/2bVvB+gvlahXzC4tKzB0bHcXJE8cwNT2HS5ev4OiRI6pC+ejxY/zwB9/Hl19e1XGvvfYdlce9ePEifv6LX+gZCoW8yu1e/OKiqlXu2bd3ybTTGFQrLkOI72z1hE7LhHApRRq3sitQHLYkyQ1/ah16lhY/diV6fBqT4p39y2f0c8USvUMsxWPv+OvNmal7Vl5Lc9tKiQTZFSGtFCsnYpPpa4m4Xm0o+W4XF7NBZD7ntW/88CcHJH9jvIlIOIpINKoWQwQnv8AsWc3ly7lOJ5FqWIDEhR2uVlGqlFGolpBKxtCVjmGwtwuRaAwTU7OYWczapOS8Qgjt6TQqpYrq5DA/itnuyWQCERYGr5ZRJHgVCgKkHP9bLCCbzynjv1SpoFhkuySrpR0JEdCYxBtTlnquWBKIFUslRMMxJCJxRBBGWbl1Nq850SpcKA6AfE5Q3Vy0uefnplsL/t8cH35nz76dOHLiEMKu3ozmC/9Phdf5ZV9FgSBkQMpnZJH8y1e+xJ2793HowH6wTtLlL6/i7t17Kls7MzOnkiR/8/r3dR1uQgQpAviJE8eQjCcESIeePahqAu+/94Ey89mthNf/3vdeQz6Xx9lz59De3oG2dBqPh4dx/NgRbN40qDZRX3xxCQ8ePFSlyCNHDiuD/49vva3NgZn7g0ODKtY/MT6Os2fPq/oAzzk1PYVf/P3PEI3GlWx7+dIlNQs489IZDAwOusRGNxLa5NwiXitn0SUOWy11m2uGAbZRfJXEcM0VW81uunMDJth4kONir/1OaRe8pttQvo57WBtL60pqiCBwAwsL0G0DtjLTX3Eo1r4N14nmLwJI9r5rDCkSjiES5fLlQuIfYwz1L0vMie9KgGSTx2E4iigjFCkjnQijsy2Jro5OzM0sYDqT1bl47kQsgrZUElGCH/Nrwlyk/MNEQOv1Vi6VUC1XldBJdpTN5ZEvFlAolfSnGuICt0nLHT8aMnaULxZRKJdRLJVFSBLRBBKslufA05feFmgwU9qBbD0Q2Y5YY0g2Bi6HzIGgnzoEpGMnD+v57Wd2Tl1Hk8iNX12WPsGlzFZClYoW9PUbt/DSmdMC5Nm5eeTzWTweHsPc7Bx+8P1XxZQuXPgC0zOzeOWVF9VphMP+f3/7Bp599iBS6RTOfnwOL595Acl0Gm+99Z66huzduwu5XAHRWFRJ1x+f/UTfZV+0UtkYXGZ+Hhc+u4hTL5zE/Xv3xYxOv/iCivnznGRFbB6QyeYxr3vLqT7ST376d2LpBEBuZJ9/9rk2lyNHjxiRESsyRmTzyzGfZqiiBUg2RNwJoxr2yeC1el/rWklNDrJCZbwj/5a4V5gF4HEQZes/WI1E7S6DxG+XC+oI0le5j2bfbZSfGGyS3MiqLL7Iomu2Lu3WvgpjXP0pNsSQervaEGtQq7a5yVZLR/Ummwck32srGolpB+dDh4nIWlMcAF8TKeRaFHmQMvoYqvDnMgZQQgGJeBixaAiDrH0TiuLx9LRq/LDaIXE+jIqYUSqZFi1k3y5eW0vfzZBKsYxsIY9cPoe5xUWUykWUypzovBuDSC0IFkdi59xcAflyEQUyqHxR95+MpRAT5V26w3JB8xw0Xfh/YjzuHalPut+YhUw2bt7Y0HGOPe3ZvxPHTxx2UGQs0iYXm2R6c63iep8Z47x9975aGpGtsGbS7Tv38cpLp3H12g2ZUSeOH8UXFy+rbtC+fbtx4cLnmJyaMsBJpgTo0XgcvyEgHTqAWDSKTz79Ai+/fEag9ibNt727sHXLZnx87gJ27NyOvt5efP75Rezdt1d1rM8X3mQxAAAgAElEQVSfO4/nnz8mwGSBN3YguXXzpuoXnXnpRTG0sx+fxXdefUWs88L5C3j5lTOYGJ8Q0/reD36AD957H4lkAgcOHcKn5z9RwbVjx4+pXZLM/PXW2xFTdaPvAOwrL3qdzrUHcu/Y5rpVUgy4Ehe7K2kD1CorPun1l1bbcN1Jg/IaDgSDZpxPenZP6qoqI2LELeZYkwf7dZyzSTb6kh/7tVcpYzFTS6Zel8lGQKKGtBwpn0RDWgpIVcQicS3yMCcGdxCniQQv1xQWxy7KerdiOWJNtnjLYOmDEhLxENpTCQz29iCTK6JcKiKdTqk2EzUfgwnTBjjArCYoqOL7rJRRLpVRICsqGDvicxXLJbEmaj9a8NUQigWaaQWxozy/UyqhXCwjEU8gHklQMNLbIgPzHz9Gpfrur/7NaALXM8ea9eBLSpmcEUINkKxYHX8voKzbvbg728/s+gTYS5euYHZuQTvxtm1bsGf3LizMz+PS1eso5PMCnuPHaEbl8Nnnl4116V7DeO65Qyq+9s57H2DPrh0YGhzAxUtXMT07q/FPp1JqYUTGcufOPRVnI5ukhsRKjTQdr129Zj3eQsDmzZuwb+8emWkXL12RWcYRGBwYwLPPPScwvXL5CqampxENh7H3mf0qBscCbNeuXpU5ycJrzxx4BgP9A8FCWW2JmF5pm4GtW25m62/fVX/ugPM4EPKmmTE0M+tNk7GNRO/elQarVIvu9zWgWsfSbnyILwUSmIK1cjkCQDdn6q3RJ72WZmbFm5oGuCF1oHUa0zr1pZrFY6asVQqxcdGGXwUyTwpIPZ1kFzXBeYmRvaQYm0Psuqfn5PvV//m9zKVqxepW87/UYaJkSFq8zmTTQqprRseStI7yWzfTmC02Z/ZT3SmDDKWMzvYEejs7EIuySFwYqUQCrNfmeu6KpbBbLksjVKthgQqbE5Ix8Rpc4WJGFLR5TWdq2QvgPYeRyeaQK5AZsSplCcWC1RVuS6QQCYUFbOVqGREyPtF0pySICdXAJ1Ct6yYuFyMFeOo57q27S9sT7N+/G8+fOuKcAr61tXMU6F5t8vjqfDJwKyWxjmy+IJDkYiar4APlS0XpZ6zQGI8nBAYEMI0YTYpQGMlEUqySongsHpf+RhOM3UdQKYEVG/lzag7U43KZDA1pJBOJwAlSKld1Xr6/RNyx4nAU+UIeWWpR0ZgYj4EoxX9/fBjJVFImvXr45bL6DsE/kWSzPGfeNqu643ZgGxcu0prGtrGyKk7bDBiWN8r9DdScEQaCnMo0Vys259xhGzOBvCPIzSin+Vhda87piGmJfFaBhmPQXF/BWnwykTxgM9o0K67+mdtoxUqbtEEL7FJBo2OkBuUBYLvR0JkrVWQyua9T1Pb7Rk3Fr0djmmz/R162sMRdDlEZFSQiCWeq2SKSuB2KoFwpBJqIQKJEdmTDGoux660DJGdOlUNllCtF1c7u7mhDV1sK6VQCyVhcnjF+k4I4TbDxyWnM5wooVcMyoUrFkgCAk4asKlSuIJWMSwjngpQ47NA8Xywhky8gXyohX6RnjqAVQpJidjSm4whwxWoZYbDxgWdJBhrysml3rnku/MKo92zy2Fg0Fph1YlwhMqRdeP4kWYeJ2GSXNRZGU4Qtrik01+kQ7oBgMXAC0/R09xZ2+hJr2QS0Syaz+4YDCbJIFt+yn2pEA7VPXSi4QXiNzHn+uBhVF0feTb+xymi1cagUTWuhSeCe1sycpZzE9jsT7/X7Jh4wG0vzLPJ8uh+/c63XpNMacrudTGLPWN0C9yOg8Wusq3Cz5QzXfZhXY3Vv2VI7prYZufdMDVMeMZ6IwFYm0+KkaFxzKPBi8+Z5n/wugTHCcTYFUuf0czFQu1YMff2+aH+vVlAp5RGm5KH3JtStg1obvyWsSPO0uQa1IQ2pmdvfI6Dzb9TPpODvAqRf/876tWviA4VCEXGK2k4440Szetj8Hxt8Dhh7s9vaYKcP6/cuk00T3CZcKQSxklIpi3Qigv6eTnSkkkgnk4hFqK8YNtPsWswVMDo5i4VsHsVqSOEBtORCboG1JxNoTyXFmng/NMdM86pKY8oWaKqVkKVZWK5Ki0rGk6BRyJdVIiPhRHI6F4HETxCaQgxDMDbtdlNnsum1st89mUkV0mrcMjRjMxTC3md24/iJ59wi8W5/vv9aG6fAacAJyKXP8fYiVIXX9F4UP3xcccZQDXjdxA9+xvdBAdZ1mtCwWzsoCbU8TovFm0IOmAQE9h1dlQxU3WOoR5iZzEntvVymlTlT3NP6wC414A/qMjcSWOtMYFsQZnLafdUxmYYzdOkPdSoPZu5e3APbxthMH5GpS6udAFBCSHN9nZ1O/HUcs9FtexCK1FpV+WUd3MKaWnOtgqGZj5ybVVTdhmRfN7bjx6qePdY/amCuCnAdIw+cKbZ2bW7XnW8d4/0nAKTVr5rJZvF/f/OGTDayhK1btsrDk5vPOv3DBsMvJh6nee+AwKndAi+GCbBUrf1fbVcuhSoolvOaCG2pGHq7OtCRpJAdF2iQrfC0XEoEo5HJGSxk2ZkiirLMmgJikTA6UmmkUgwJEELIPKHJkc8XsVjIKc4pVzCQ4jlj8QTSbYzRimky0jxlz3p62mwC1EIY+G+aR0tEby8EqVsKGxeUxSJlyrpdzM+Vfft3uTgkgqtNdAM7Y162C9kU0g4lD7YDb8fOKk57s+7hJqzarmkMyxiFeVjMHW0bA3dUr8UIkPg96WreZewWvTuH99IEpoN2a/MoVSsFuyYXrHc31zGYABCC+3HPtpqnJwAQt2zc2DVFj0ZT1p3Dm758Zj8v3WptPtE5DuWi/T7QWfTttZekv3ceKVOZX7MNuv6d+hM9ERi56zf0rImB8Y+Z29okNR/qruTZad1Pg/uSg8CZiM7Du5G4qa8ZkPyiaB5AxR7yv/39H1AsFVAqFdHV3YPenj5MjI4r/ocLUTE+EVPxa/t9DZ89S6CGJLbkuotwwkmviYURS0ZRKeQwMzuF9lQa3Z3tAqZ0gkzMQi9LYDBjERMzC/RzoKujC4uZRczOz2lxRaWbGCD5sACaatRMZrNZMTu+RzYypMgfjkbR0dUrYKNQHgtFFFRI0y27mEG5WFT3DJ6bOpVKstaFvXhhj/OGepQYp6tXvlx43X9gD06dPhbEychwcgGQDp6dzU4WZKaNRlDaAl3MLraEI1yh4eRYiTDTT0gnuIp81swE3bTTlULsb6bvOLPNsQAK4RW+G3desTG5twk+NPdqHYLdlmMLrs4BEJiKAkgXi7YcrNziqDEZxxIlKq+1O6+kN3oOmXmOidWZ2quhiZmppndqA/D2XRPzsGae18xA/YzskbOR9ag9fv0J3ex+I1vybH7j9M/i3qEM9OXjv+TeHFOSeU4zzsKBa+re2nj8tQLSerxshWIJ5z+5jJGRR8jmMhIkd+3Yg+HHj1GUl8WimY0G+sllO64xGxPDOQ7SVjTjq2jvaENPfx86O7swNj6KUjGHSo6ibAmTDPaLxTDU14uethTYB44eskWCSqkKery4G7SnkwKSmdlZEDhLCoKsSgxnNDcXSzaXw2Iui0LRJl2aQivnfZWsrIqOnh4kUu0SEynaJmIxARgZE71Zi3PzWlyxSFSdXXkOsj0ncUvkl6BNM0vP6cw8b204/WX/gb144fTxYDlaMJvbTckayQDFhHxwoAvQY+cU/cxpfPKgmdzvFxFFbGlBXsNh9LfZsnYJJ87SQ0mWJaZDLYNswHmTZOY4XUMLjZ1Mne6hm3a7vxdd693iflHrFgWOzhxsYB654XAWuzcXbb7UWMXqC8Esfvf8bgu08IF1MBr3VUOikpmsGoe1TcMg3kfjQzbE75g8UK8trr2Mn+yIZuu0/ufe3JJQ7hht8EzBswWjv4RJSd/zZrrAzEswa3PErxWQGqLtsrEiIF2/PYyRkYcYHx1DOpXG4KYtGH88LMbk2Y9NSr5fi6Xhh7qPdBfqD+EwOjo7FBWdSMawbcd2LGQW1ciQMSrlYh7FhXl0pOJYVJTvnL7X092pOKQcza5sTmYfxXFeW4GZ4QgKitIuoSDAsMhZ085DCgWg541ewWQiLi+eVIpyRYGRJWo+yTTaO7vl7ma0srx0VUaVh5QuMT87h0IuZ4K8GMtSDlzz6Nn+ovtwz8/v8Pf7n9mDE6eOBgKwTWDnwg4EXJpXdu6wvLZcLD5Ohz8wb2LQbXSJHOkEdz0/qTif04RMM9t8j18nbtbvhBKnOWbO20NzWx5UsinnNdW9mKnJ6y+JAhZWWoyXgKWeNa1Ye87jpJQctxvXhz6sZigFgqvpPcH37abWucptHH0wwXIW0fQkzgS29+bFcwdGXzVuyG9TSzxctTtpZLI1DnZ0mpOboFyHtsF5sG40RoGAp7kt54oY8foCKjcISG0uiHHlcK9E36XbWrFUwe3H07h3+wamJsfQ0d6Jbdt349Gdu3LlGjK7SSgZw1R6P4gakAjQ19+Hnt4ejE+MY/OWTXIJL8wvKmalUC4gEQ2jmsmhp526UcTy2qZnsZgvIhKPa/KxuaSiwhWgWFUskaV4mNdNKR5Ou9KEI7CUi0gl4kjSTHPxUjQzlTJSpohdRSUURaq9E/v27xfIcZnQbGMUOAF0amIS2YUFZBYWdT2fFuKf3QOUScuWsiJQ0USwMdnrASkI7/cBo/TCWFCBBxHtcJpbte8LWGQSerPMCdZOI9LCqtMzdG/uXXgmpHNWigYogWblgwDdliJzz3mEeJQHRQ9gmuAGPHaJmlfP9MO6Sb9EVbV5wXs0MFuF0dTcY044t3sL5uoTaB5LRF5vopFRyixeTwPEGhMTk/DOgHXAn79fPyJ1S78uj9SLHJooTqNc2v1nCfiY29K0xmUdqZffUjBejgFVZFau0VkocLLYhiltapWYpQ0BUm9nGpGop8XLJox38plR7+XmYGIxteLLuyN4cOcW5mZmcOLkSVQqIdz68ksUC+bi90Kv8mcZsEizJhpSzhpjZzZvH5IJRjNqYmoSmzfbvyOhGKZmp3D79k0BRzocxabuNoEHTT26t0cm5jAxO4siE4Yp31I/oaYUIUCFxGa48Gm6MTiSQEUgoYeuLZGQiWZdwn0sBkCQLZaqKDKoUl6LCDq7e7F1x04kUyl9n8xuMZMRy5uZmUYpX0CZoQMLGSzOzwegJLPIpTNphJWq4iN/3c4dAvYxDukk45Bcwq9nG054VLSNfzUukde8PFyIpk8BnFAO9viudF0PWjQZGQRqZhhXvRa+o+smalvsZ4AnFHLDUQs3EJjTu0R3sDMJA7NQBrgT2u0mLVLe4nRCtMMJRstYio8hEzBqt/bjsQYQ+I1er808fKbdeWa2XjbkgZPXp/esiGo4vm7T0ERRKpe2WfiA3kaGzMqN3Xv0jFHr+s4cD1Ovc/pOkBTMjcWlxMhZ4Y4XSw3+7lJBHLIFOt1a4Ci2TbO+LjDSe9UafVf3y7UdgTRHlzbTiIRuCJD6usmQ/P7d5A7cBum4cDC5GP9z++EE7ty8iUQsrhwomm6lnAXLBRIYTRwtIEsfqYTK6OnrQSgSUgY6A/AWFxa0wNkimgI3TRvqJhNjoxgfHUGkUsW2/i6kkwzMswnOrP1CuYL5hQwWMhmZbvIvSKel+5nxRsaM6FULRcMCo/ZEwjL7I2QDRkV5DMGyWA4pGZfHcyHxRXX1D6K9q0f3yZimRCotUCoVihL0xx6PKp2F0cYLc/PSz+SCXWZi2MKv7YnOinGA5Ew277bVXPVZ294TptcfuPLN7PImiQs81cR13jStVPmr7U78rKE3zWsjAgQLlqwX2yVhu4BX76kxzx2PN7AKNpzl8S6ebThAbBhm5xlaENHOe24gLK3Y2h3rCsy6etf2Wqtv2e+d1qSqCsInDyx2XMPd33sf7Ygl6UKrXX05KNWqFxjYcIykB4rJMsPBWFHN/rWGqQo+Dl686Z1275ZAq/MoaLJ+d1nHuDgZQLPTxxc1M3UDz6cLwaiLm6u/0gYBqXH5EX/ipQO5VPiimfR4KoOrFy8is7iAbDajnTkeiQdgpNfm1iAz+pmk2d7VLtOMGd+86YG+fv2c3ir+O51uU7Cjrc0qbl6/joXpGWzqaUNvd6dKi/iBlyZUqaIcCiGfK5gbWzqQ7AuZVfwvz8fUETIoMjN60nw2PcGHmgyjqQtlIJOlh7AsT1soGkff4JCSJQlCirtBCN19vWJf2cwiRh+PCMwYGtCWSgmU6InzRoq9v5XeSs9M9jIwkhqSByN3vE00JzRrJzSz1Pu0TLiuj4dxWo3c9n6yMpqYek+NOQRsxOkS9o5d/JNz15saS7DmXPdmHI9ygOBjkeonrcsns0ndJMDQ5elZAKYDk4YTvwE4BflqTuR+kqBIj91uYmtsSwXDcx/TFUx6swjMOrTNwD4s7WE6nEreLHP9N9ZuauNuwGPGl8V8+XIoT8LqmoGL23g8xa1nVD71RfOpOTjZY5qZKHYbhIm47yz7rqL+OSbKH3VsvO70fxJA8jtFo8egSfNoYh7XL13G9NSkAsciFIIjSYtmDZENVSUWM6aH6Ru9/X1oa08rY3x+YR7TzG2KRFUugx96q/hiO7u6sbi4gI72doyNjKikRqycx9ZNg+hIx8RugrQUgZ6ZQ5w8xpKcGUIdqGpZ+9R+yMLo0SNslUmPKwQrAySCGEMB5rN5MSyajtVYAj39g8jm8wqq7OrqxsTEFDZv3YJ4NIqpqUlMT88om573mkqmMDM5JQCiGZrJZJDNZGTCBsAUxFrxdVawf99uHH/hmDEyt2AJdtrvnMfNYom8iM2fczLYbmibtZ/sHghoLhHETA+hl09BfWRGAiw+e0nMVaadZ28+Vkzswa7JBauIbjIJhWa4+3ABr6ab2dgHQumyCWPuc4sBCwBLZKDxCvEQoCRliqk6n7GIxgt/HSzAH8J3rbG157EAUm9u2nPLhPXwobHyXk67E5/0vAo82LfFTm0cZfbyWs4ise9+HWC09C78Ruc3GmO4Jl2s9+M33nqNcfmt6vxOVhAjcxuX31/+7IDE1I9PLl7Do7t3xRwoCJO7WNS2mYHtne3o6+vVxOPCTbelMTg4qOhslryYm53F8PCw4nhYK6etrU01eRKpFEr5onKckskkxsfG8fjBHfR3dmCot8sFRjoXMnUjl8LhcmAtPohmkwDKbHVOIt4fLT4CpqLAyYqKBY01j88USlhYyNiuGI0h3taJWDylnK2t27Ygm8lhfGpKQaBkWVOTk5iZnZOXkBnw1JJGHg9r0Qxt3qQaQlzALLPBrHyyQgrgCgNw9ycN6QVnsvEBnCfMgMbmrAIWNMP5AzPLzJPk2Bf1DFcKwwTr+oTJmk7hI5JruoXRewX/1XnPVONJXjxbMLYbUi9x7za4toGhjnE5ZZ5Z1E9+6UTOq1dxAvfqS9EEYwNiM6cCtujA7UmByUIWGKBKk5Xns3IztRoNXuy3gRcLd4m7NJ9NK7LA2LWubWDgvHbyVJpGU4t6Xi80bOy4JW5/nzWgODhjd/UxSI2u4L+veSLvqA9/qB1tOpXT8phWFWbuY40p/dkBiazg7fc+lszJ1Ahm0NPOpRBKgOnq7kSqPS19heYYaR2DFclKenv70N6eFmsZHx/XDsQETy3qchmJZFIxP1OTU/p7d1c37t+7jfnpCfR1ptHT2Y50gqkgrIdkqQleMPaTxTtkzLNl4QUWyWz/Q1Ge900glWLDCnfZvEomUN+iTtK3eXvw7x3btqnGz9jEBLZv34FSsYhHD+6D4Q8DAwOIJxL62cjwsO65s7tLLImMjEK7qh8o6jujukAs08Ek1B3bt+DEicNWV0lT1rviqRvYhGBslWGTufcDzUc/XWbeuIVvxziAc3FI2rEdcxLgeLPNXdeEcjoDIqgyv0rMqK64l0wVt687wDAroYlnzOs0LpQhSK1pSi2cx8xPduea9rFsq6V4NF26nsF5j6Vj1AEnCrxTJsh7oKcnluxGzoC6MV61uJkT6bVY6zx1AYCtQybbGAQ1hBWbKo6J1eaCT73xHs3mV5RnWh7EaEN26p0TQRAqNRsXa7YxQGL5kSALfZUbC+zo2jFkSHcePNL3s5msFitNLtZCoqBMzSWeiOtVMkqaA5MvFDA6Ooqenj709fUpzogviyVY6dLnhGXUNOchC6pNTE5o4R469CwWZqYwNjKMYj6DznRCybYst8rYI5ae5ej7zHsGKPIkvBeaZuaoMguek4V6EQGUgMSAQIIaPWjzi1nFOjH6eWDzFkTiaYUYDA4OIBmLYW6egFpBb1+fhPh79+7J6ti0aVMQYzM1NSVNrKurS2Ak7cmVKGHcFOOcfPjDwvwCOjtS2Llts714xy79C6buZlPKV0vw/zajwrxnBAmfs8bdrM79viQfzUXfarFY6Rbz0rnob1/yoi42JUj4FDuoS5D1YORjWRybqw8CXOL290GdbmHLiZCZRCiWRDjRUdNpPCNymlYADm7+LUnPWTJdAyrp5DIThH1ulkIa+KO69I+gOtUSHcwCOG2u+NIcbmybmVeBFmcF5RynXF8tJ1k9XsNzD1QPWnV/9xtsPXPeKHiZfmqpQkHAbZOT+Q3cvMA+Bq2JtUmHhzPzNwZITWpqL7+3la5LyBP2xeWrKujV3cVUjQxGhkc0ucgW/K5AU0w019Uimp2Z17Fbt25F/0CvwCGXZeVAM21YDiWVbtPCHRkdxfDwiBb1nr27FT90//ZNlPMZJdqmUnEFZKZZLYBCNbP7KxWZjRZ8SZvdPDi2AC3Vg2K3AIklalk6IxTSv6fn55HJlZDs6MCuvQcwNjGj2krdnR0yC1k2lkyO98Nz3b59G+3t7ejoaLPEYnriymVMTk6ip6cLHR2dllxbZGoKzUM7hnWGBFSVCjraUujtbjdApfeKuxo9X7xfJd85vYOTyNnp/Gk5N4vi2HVUFmcQiqcQ7duJaNcWl73PNBInaEuj5WKpEyqd2eNLnJoI7gIc5U52QZRkWfUU30fcB6I0WVYJ+YefIZToQHxwv7MxXfzUkmJmtRSTaiGLxav/hVjvdiS2Hq9za1sddgKxYbGrxiiM9aDj/rtcZA2Ym49/cgGkvgpDKGbnrfN0Lq/lKhPFma+cT84WbSD11JCCjF/35gJEHbw8sTzk11gQjxVkN9RH37uASxf3tP6gz2YMiukEfO8kdPX5bvWmmbPMpIFx0FfGaYmEOj1JhLlKCcdq4dNaUvL8empq93axHpKLsnXUbj1gxGO4uC5e+lLucAISKSq1ntm5WYGBByRvijHTnQyJTIpR2KyVffDgQU0PAgOPJ1CoCiRjfiplsSOek8GKpUoRe/fuw/jwMOYmxjRxkvEoksk4Oli/Rw9tciijmRXPFIm4iHCakgZIDHpk8X+66QkIrEJJ4GLzgEmCZS6Poe27kEh1YGZ+XroWQZdVJckAVbspTAAriu3xGoz6ZsEzFkWjBqZnKRb0HBwLjgH/8JpWtzqs8zK6XGV6O9vrCoA5fSkwhXyGuNNpaF7m51G4f8GE0ngbqiVLQE5sP45IWz8quQWUM5Pa0aJtfUA0gXJmSp6lUDyNSmER4XgakVS3lWMpZFBemJBOEm7rNYpezNpxiU6dP9Lej/LiJKr5BYSTnVauIp6W5pW/d07njQ7uR5TXz8+jkp1Vkm+kvS84jtfgeRFNInf7A8R6dyCxjWkzZipVixmUF6cQYoBiW49dJ7+ASm4WoWgSKOYA1jfnPSouyllTLktdQ+YmsFip29XJjJZrVkusJzE+q4GlcwQxXM10Z/PCyTGgezfQWEtbWrq23B24KOjad+3nzi3jwjgsZaemEzqHhdQHl4TtnBPrAakA/AgwnkUH0fbN1T1FkTiPryUbB3ywbnwZd0NAKiGbZx2wJwKkNiW/LpchVuCpM0ZryZ4MIizixq17YiRdnZ1IJOISrkfHxgJA4oLnH8YXtafbRE8nJqcwMzMrwGhvb0N/3wDSbSkxBArYHCwCFDUk5puxIwVBTou3q1vlRyqFPMaGH6FczCERiSAZj6MtnUI8ziJtFQVBkiVpMMSWfLkSoFAqqk60am4DrvxtRKkiY5MzKIXC2Lxjj8qQMICzs6NTpl2GxcuqVTEisiACy/z8vP6eTCXQ2dEhkCHocLjU4aRS0fEEI/6dIMb/Wi3psACrq6MN3V0dxoRcmoWlc5iJ6TPn/erjVC1O3EZh4jYSW44gkuoScFQyMwgluxCKJVB4dNHldJWBaFzH8Tul6UcIpzpQLRVRLeeR2HoMoVgKhcfueFmHUYFEeXECheHLAgIu/lj/PhSGLxkw8E0WMoj270E43ob844sCsWj3FkS6Ntv1OcEJgIl2JLYdQ3l+FIXHdj7mxlWyM4j27kRy+wmLK8tnkH/wiZ5FNZoIsNuOoZqdQ37kCsIJxyILC4hveg7xwX02b72c4JKOLTDHpfEEpmLzRSaTSRHaFuTYlNo4R6G9E0sQNudALZhzfYBkm6b/rgWS+nQZTzXWEylusVI2PxyQMvXFFW8z8d0FrTqIW8vvb1n+q4je3sTUmPuEyEbeOwtCZjmfJwKkWj0kG6SlN+yQ2seOmEsnwCqaOFeu3pTbnIuuLd0m0ZoiNQGFi5OLLpfLob2Ni65TrIheKZphqXRax/DGKf5KGI7HtVi5mMk2yMLIpkbGxlT7mwNMXWjzpk2Ym53G8P27qJJVRbi4E0oFYSQ4S9xS8CZrko4jQDKvicrU5lnW1ioSEKzIcmbmF7GQL2LLjt2Iptr0sqkFcbLwu2NjEwJVltDl92dmZgQwBNtEMi4dis+hionZnMIAfGwVf85rqEyJmzz8Ln/f1dmBrs42t7icV0MlI9zu5SoTGhW2yUcAKGemkdh+AqXJuwIP5Q5y0UYTKM0Oy3xTLaeZB1rAlfwcSjOPBE4EmNz9C4h0DgpQCuO3EB/Yi2oxh9LcMOJDhwAyv0cXER86KFxjracAACAASURBVHZUHL8pdpPYfhKV4iJy988j1rtLQJW7/b7YDM9N8CjPjSLas12AVJx5gMT251EYuap1k9h5CpXsgsCH30/sOGFOhsm7AkY+UzjVhdzdj8XgQok2FEavI77pAKIdQ8jeeBvh9j4kd74YxBAFMUFylxZdQqsPEF1prnjvmRW+r8tkX8315xej7wbjF/s6vW7mJCWbsZxJcwaolox5UuurRay85eY/CZauT2VxcURKNPfeSR60MlZoyUnd83nPbZD2VX9Q3U0qH85VA2iUakMm9cQlbJcC0iq7iI+srSNmMtmuXJMJQ4pL9z7NrNHREcxMz4rtmKmSEHvhQqYGMzfP+KMZmYqDg0P6Dt3/nBjUlehtspKsNoB0QTPPbfjRI5UDYa4bdaOenl6MjTzCpCK5K4izGwn7qxEcIqzOGFEmPsVy6UkqAkd3v0Vu0zxkZcnFfAGzZGzxONp7+jG4dQdmFxbR0UbBPwrWfaIISO9Ye3unQIRmJ2Oo2E1DgJRIOHew7Vps6eNNVc+ieAzjrfg7gm5nZ6deNSsJdLQlXLKrpUCYPW4tlrQTu6R+aUHhiMChOH5LCz0cTaJaWEBh/KaJjtEEKouTCLf1uaYJIUS7NqM8NyygSO55WSZT9tofzPRJtKM0cQeR7i0u4reKSNcmsaji2FUkd78s0MrdOysGkdhxCpViFrnbHyLavRnxwYPI3npPTI2MJnv3LCqZaYTbB4LCZ5GerTIxaV6m972KcmEB2WtvBoDE5VIavYb8+A2keD0C0u0PxKTCyS6UJm8jvu15RDs3Ifvlfxrr2nVaz2p0w8dNORqzRoa/ratKUNJX5X+dZtVw5VPfc7FIVhnTX3ZtM00Csjte789nzLtKDp75BubPOgBu+T36UAQLY/AA59Qsmq1u3tRaajV6yhrZUHIoP0qAb4YLDBcxr9ryQFgR168GSKtDciNRm3rQhc8vo62tXWykt69HlSCnJqddbFFMoENmQNOM5gkXJcGIi5TMhJ6oQjGHXDanOs7qgxaNyIuVSqRcve+QTLeZ6Rkl3JI5EcS6unulIc3PTGFqbBQVpnVEWFyNnUksTcS3Rorz76oGYNnKFCLnMxksLC6qljbPGYkSkHqR7OgRc0qwzjTL2ubzGhyCE+95YWEejx490rOwRAqL6BOUCEAEPgIW/8ugSP6Moj5fKhkZhcNiMQ964jhuDIloT6fQ05ky+u3zzVxVQWk5QmVXlN2ZINR88nfP6ueRjkGns8wjvuWI3PqF4Sv6ufKtykXEhg6ISZXmRpDa+zIQSSB79U1EOvoQ7domZkJTS6EC+QUBHY8tjl5Hcs8rCCfbJaAT9GI921Ep5lCeG0FsYA8SQ4eQvXcO1fwiYjSjqC+OXkO0ayuqJQNzsqzCxE1UZh4jQuZWyqE0P1bHkCDNi6wonO6RGVmafiiRXCb8xE0ktp0QsGau/F4CenL3GUBRwpr9rpAaE7Z9CdalczpYbhxLOg2cO391M8uHIXjxd41SJsKAwLYzjBMIrWyk8SQk6Csd60IvzEHg47rWvp8glkoxabVmsMvHi8cZ6Jq31utwVlP7a2oU2QiBlweEEZA++fSiYm4INh2dnRKHyY5GR0ZFS7nguCgJBGRIjHSmOcNuEwShgaEhMZnJyQnVU2K3CxWOV6hAUmU/ZNPK3ApjamJC5hsZVJLmUyqhBT0/N4ex4cfSi9pZWF7pIyUU8zmVL0lGo9K4pOWgiumZORX2T6XSSMRZ7xtItncg3dkvDUmtlsIUuumNI2Al9V8yPHrQ5uZmsWXLVoESAYpjY+J3UsyH/yboKuq8s1P/JVBRD+M4EKxoyioYNJVEe9oWkSuv5jqv1vKb6qOuLaWjKtG4NPtYQMAUl0jnJkQ7BrUIStMPUF4YMxO3Y1B/aK5RZ4oPHZBZV3j0hZhGrH+PzlOZG5XuQxYS6d6K8vyYmXibn5UXjyBIHaqSm5PQTXMs0tGPaM8OXas4/VBu/PjgMzK/ygvjMg0JIpGOTQKM4vh1aU/hdC8qi1OIdA7p+oYpFZTnHus8BNJo+yAiPdslxpdnHyM+sA/hdDfyDz7V/RPkrCyKq53kAw+b7uieSbnebWtk9Af6jLyVdR6oJoQhWB8+oLPe1Db77Cvhylf6slfwfZ6hC4nwSb3L13ZwraByqW/a0fgualVga8HKNOm+tiL/jQBp+c8ESJ9dcqZZCj3sMhsOayGyeSGZAwMd4/GkPGEEBL4ULvKpqWktSMYi8RgCFDtlDG4a0jloJuUy9FaFpU/19/cp6ZXhAvz+5MSEtCAu9i2bNyl0YHp6UoDBKOpiIYcKtaloRNHUTNIl8JG5TM9MKcWDgCdXZLWESiSKzTt3oxqhgBtF3GlHQn+XBkJ9bHpqGqOjY9i2bZtYEQGYDJCMifdJxsd/89kMgObF/AhUFoZgOXEch/v372LHzh2IR0PSvoLysnSp+0Lrxn1NuXOBjFaT2WXzq86zLRgf6OjrKVn9JydR+BrYQWZ5HCFmuFdLMvmkLwRBmAaNFsXj8ud8HTjVXWIyrit1Isbm3NI+AJVBnL7+tHbNuvZArjxq8Kw+J05MwtJ8fI4h2WHwTE67kPeLpWNkyRoYKTnYRZkv8Zwtm7CKqXL5gKbdOM7UBMAUaBukw6zdu0wA5koKu9QAFwLxl8WiQPZdZmZajBkZZQN3f/1AurIjPkSkadoMn5+18nnOqDlxNgBI7Mu2do5LwzikQhFnL3yuRc2FyKRYzr9chgzIC9tpxGMJRGMRARLjcviZmGAO2DRSqST6+wfEgCbGCShZ9A/0K+WCUcUEp7n5BUVOUxSnaUUPHT18ZDgMLBwaGtTEpSeMVRwZgpBqSyiuiDYuB31mdkaJsAQmPi0LslEIj8UiavscTbehvbcf6TZ61Oils/NZKIGFC7AjK9389PRtGmIraebp2cukvkShm0yRx9O8U7yTBPS82BNZIou8kX1ls3lpbRyTvp5udHbQA6kCLQYCvohafQ6Vo95auN57JNc2A/5cJT95ixhlbovV6iRR43OLT94c16HC55U5E0ffU4EyF0QaMAg3O1XBwHeKqUsr8Ys2SJx1Zwg8XM339iDHze3cWiDrqUXkC7L5ci5NMs4NuYXqYl0m1C6d7xqZ4BksUFGVNgNtZC1u4sRkjY9lBFjlhNUZ0RI3UhAxz3thQwg3Dr4+ttpRuedwralEuBjY6G/PsbCgtMtatx3EonlHivPIrRDX/ft3WQK+K++ygFJTFhxbDXP+U3fdQBwSmcN66ORyUKLec/XGHWkjNF0oNquqYqWCsdExJZ620xVOdz+DJVkGNmFMgWA0OzOjAEgGEPIl0oxhaViZd4rfCSFNbxes1RH1KcYoUXxmDy8K00zBIPCoBlKZfdM4pStoo5nE+J9YHPmCdTjhz2empzH84L7iajpoQra3SbhLtnch3tGpXvOakhUovkrBjAXzyA2PjEigJzPimDH1hHOAIQsUxwk8zPgnKJEV0TzkAXLxh8Iy1ciQGHCnoMxiEQ8fPsbO7VvR3dXmlGxngzthO3C9yMVsnUusfbP7WPlLH//sf2j/lQeElICeQqt0aWzG8sqshEhdoa36UhZLJlutB5dVG3C1lOp2UVH+esaxihAauJSc+zwAwPUAmL+GmJo3perqRa2g9hbN7qORVwUJ4YotejNh1vBKuWtZrztf3sXHMa1hngUR2i64w3ci4cbic8982IeuE0yIoPyMXZ4/rzVxCLr2uAaowSGrgJOelRuRT9NZy+T1lGuZLlYvrCt5u8w699SEnyAOqYeBkc6bVX/PS4ez8eByUV2+dlPAQeZDLYmLkNoQXfVkFPw3F6eCAwk07W1KI2GiKcMD+P4HhgbQlmK/tJA8UGQydPvTBOrtZh0itoshU6/KZGMQIkMGeFd8WKtTVMZCZsGyyV2VSC5tL4ATPBmbREY0PjKK8ZFhljRTkTbGEHX3D6Kzb0j94NkQgB5Eb64RlG7evKnX0NvXb+51ideMpoY8iARaHs9EXXoMe/uYKJzW5DaWRPZk8TucROEQxW0LzuTL27Z5wMycQNT2DSMt+lyOEx/7IvPKIrmtX5vtTEFNHb/jB00MzQNVq7djJhnraAfSgmNaqgxQ3yiw3ntVH3XdgBXVyomssTWLDRnoi7G4xWwT2i+yxufwuk4NMNZgIWq46EsCO5BpdGqn+wTn9TE2TR/Fg7RzOATAvqIW3Yoz+I1dmwKvu4SJ+uhwY2oamxU5I34aOZCqp1puYwhYsNh2k1Iw/s5k1rvMfW1KtWTglY9fyzX0TNPu0dn0PjCIGRGl4sYCI1UbyO88dXdQc206z8Gyu+OCunTlpkrEUgdSB9VUSguFWe2sN02BmeaceagYsRyTuTXFdkULLNgfxUD/oAFZPofZ2WkV7aeLlaZNd3evqgJYTpJNPoIF6y9RL2IOGQHFuoZYx1Uu0vn5xVowYqmkXDIyKOa+kZksOBGcKS7bt25FnADnTBceS8bD81v31ziuXLniYqUGkUgl1eTS03ylkoQJfkmBJrUzAnJXV6fuhTW+eW3FZrWnFBdF40w/o1lZLWPTUJ8xcm14TPtw8SrcMekp4+9UaN9vyxaPZOakfccmocW6cIKwUwjvS1qB0wmsMSQ1HovJYnyWz9ZfmiBrE9Tyump1i4LF5NdCXXGxoLNuM7e1E0jNIFynaeYf15WTIUsUQPuSq8vmZLBLqwpkWVUNvcm9hB3VBSL6jcewcDWAszmoe1fOluXGrWGZLa0O4JidysYIaNYXALkGxDdBb2PCVqKmUYvxlc/qAX9J77v6IMj6K/l8xiD52DFnd4xy2TKFJ2NIzRtFevpauwMD4hpPJyB9fvG6TBKJ1yoLm0K5WpLppVpHzPqnpuO0FS5evkC6/qkFcdPtpaudxfxdK2fmsJFV0CQjm0q3tQnIOBGoRSlhtkRTKo/5hYUgMJOmFCcrPVn8/ubNmzUZaUYR93PZrOzadDppulGE52GL7IrqZZOt+HrZjK2iB44fgtIXX3yBwaEhtXoi8Jr5Awu4VKUBRpfTrW8iNwGL9+E9bzyvAsnMR63r8R7M1GE0uHXU9UK0Lhw0nbROIcFuyd95N6xrDV7TEiyl4d79B3j08BFeOnNa+pvywwQe7CASx7Wr13Hv3l38t9d/FPRnswBBS1ow2mWaSNDosW5H9fWPdJtaXI2t/qBWtgk17rGWsbA1Vpvtla7mdlB5YJWFLHHZ2KuV2lgFZPiManbputGu4gmzxWrv3TcSsNe0+vlNW3Hudh8B6ebQWjrThoBoyXvy2qHv4uIBdBUzV8Ntm2KVwK+HbHAnQYI1veAr38fXDkh2C952tX/VMynqOjfvPFTEMuOMaLaQJXDy0Ls0OzeHQt7qGdH8Ijgp6RZQRPfM1LQ6wnZ1dqG9s0PMgaI2gU5/mN8GqGIAe7Sl0knFBjG7nwPA3Z8Lf3pmRuZhR3sHBocGFfvgTT6leThzxoqw1SpHSlVSagvjfygl8ZyW3MmJQk2LH0aQX7t2Tf9NptJiaKr/VLY8OOpJAkmWMlFAGU1D6k82DjTdqB1Z63D7jvVxM2CKqoolqyK4wvmi/75mtr2CIMvdezzYGHN+XqyQv+X5yf5YhKtSDQlA6RQ49vxRLC5Y7pxqiEtsBz766COZ6i+eeVExV2R0FOnNS2hlSfgsBHy+FzJdNwE0Lqx00NbeLkbKxUzAZegFP53O0+jDEyzK06p8Bt6ttWhF/fyXxelqh/vqlysWiINSmWj1Y9YcLHytHw/+ay3+wIvmu700AeHgPM7cDTby9Xa7XetG1vt73Z+7yaCKgoGN1YNqDuqBJuhbYQV6Wm08dUwAflZupR5g/0SAtPTp6wGJE/nh4zEBApkP2YB6niEsrxMBiZNUMUo06Sgep1IWb1IpYXpqRlUhucgZwUyWRECge58Mh6CiDZ0mZQhIJ1Na6AQoCc5MuC1aPSOyrcnxcRWA6+vvl9lE1zvDAmQuMlrbmoOZNuR2Kvu71daWlKGwBEZiz+netmzZIhH7/v37Ojdjpfhd3idLriQSBKSYzDKvP1gAJD14Md0rY7J8qRXqa1z4ZFWsB5UvZAVo7TJ1/ccVBpMZ5gqlmVAUFNdiFco//OGP5klECG1tSZw8cVIdXGi+vv/ee9i9axe2bN+G3/3mdxrbV159VeNBne7DDz7AgWcOqPLl5YuXcOfOHQHp1m3bcfzYEaX4vPPOu5iemhL4Hzp0CAcPPoPRkRGcPXs+iM0689IZdPf04NMLF3D/7j0BztDQEF544aSl3ai419pe3OVrzK8lY2hOoF/WjcSbZ8bk7N2p3rdz7a8I4KsrDuLTHsw7uRS0gvO6Ddimjau2Kb1kNR+Qgx/+x3k8g554zYCk4fkCda/pxbyHMtisVr+xGk5KDvCbnE/irWN6y+4nCA/w+maj53CyAqUBP55/EUB6NDIhFsBF39nVYQuWSaSFgkyWufk5sRB2km1rt+x2sgkv/jJSmqYRAyBVMrZaURIrWQgXG6OtCSYEMzINVmQUnLA9djt3bZuM/GQWs4pvYjrK7OyMdm3u+EpfSSQESAQSnpvnVUG0KlBiI1axG7rpSxLcCWZbWaY2HtezUYAn4NLLZhrWosrWkv0xSJOT2CoGlPQzlaRQBxQm2dKEXZDHkfFP6o6iNm6Wpc2GA/GYE0epYwV6nmsuSSbnJrfPg8ouLuCddz/EwUMHJaoL1Dq7BCT83dtvv4tTp06if2AAt27dxNUvr+G73/+eEoDZT+7cufP44Y9+qOoLH3/0EY4fPy5Q/eT8Jzjz8ssCoqtXr+HY8WMKRr19+y5+9PoPceP6ddWpev7553H+3Dl0dXfhucOH8e7b7+heONPPnz2Hl14+g4HBIUc+1vA4LZvgttDMW1pRrIyPZWqyojUBXIiD16eaXJKs0bYjF6C1ooRuTSE2BmAtpfS3VUzT2p0pHd6TyTrv2yq0pt7jtuy+zUJchhDeaAmMF/eX9bLOAOucDuqz9ps0WagxIffFBtepMSpjwZz7f3ZA4sIamZxWd1gWRKMHjSyGq5yLjdn6BCsrw8FE2g4xB8beKJufra5nzc1PLx13cYIPwYzgQG2Ki19dbiORAIDIYCh4U68ik+SD+7bd9GbRdZ9xjSY5MGQ5vAZNPF+CxJuiplW5AELA3W9RrK4+pojPoVIl1H1Y+7tQFAskWBEoTTuyMiZ6fqY7FK1lElkjKwMQbGVuqgwqk3rNU0dzLZ0wFzy9fCokzwWg1tZWVM0cLc7uV9XJPN7841vo7e1RzExPby/27NunXL7Hjx/jypc3ZI51tqUwMTWDjz76GK+99qpK7d69exe3bt3B977/PQEpvYIU4PlfHvfiSy/h8hfM3g/jO6++ikxmAb/77e91PkbjkxFyPM+dOyvAP3zkiJ6DwaosRzw1NaNjGe6xiiSzuuGhdAQuGPM8esG+0ZekzyhJ1orm+9SFFcfK9HNtxH01heXAVad1mXeTB7gzrrLgzXLwya28splDWsLrweM6fUoQpFIozpkgR4RrKuDqY1voBJ/FIqOVpa8a62sUk9NN+UAjHy/iziUgWemRWwrMfKAG+W1eqvLF7cLs+FNVw4wncvsvFbVrnRZWmy3ebCMIDE8wL21BgXcMjCQD8G2FaNJkFDCYt2oAzN1ioCEXYqUsk2d8YkKT2wvfPLfPkOf3qFfw3xbxzeJn5k70NYloEhFkeC/xaNx0J9b3oUnIWKdZVnscrEVVuzSU+gRE031COpbX9JHVBADrrsvCbDmXMJswDSgSDcCLx1taimX0ExTVWkehCuUA2Hh+ArGlllj6B58pmWCbbt/ksa6RptoQeXHRBcC5WKF8sYK33nwT27ZuVaAmNaOjRw9j+/Zt+Oyzz1VeRWZTJIzJ6Vl89OFHAqS2jnZc/OKixunEiZNWeqZSlXb33nsf6N6eP3kCb7/1toJTz7z0osD3V7/6NU6dfgG7d+/WIrtz+7bY0qlTLxgoVsq4fuMmbt64KQ2JgGQOjPWsRreWVZTN5VvJ9HJaWt05alzBC+9+Ua6eKm+5VrV2UktRws17h55OjXLhFrZI6824mmzi26PbOzI7aBXztJ7oBJn1DshM+XbnqL+ed/vzqvV6rv3daewBOOkefCtvxp+54V8zWNKFkaiCJM/c8LUZ+1P4iIC2AfgF5rN133piQOpVCVsnOK7TBlXhK2bNlyu4+3hUgMSW1N3dPU5DovfJqitS8KbewRgl6hsUpXkZdYgtFqU/+VIlBC17UAtypBZDDxnBgGYQs/v58XWFKKJzbLw5RyQmJdfvS3Zuxj6RMWzfvl2gJ1biAuVML7LIZuoqnHRkM95TpjrgoZCFJORymJ6ZRndXr5JjyYY4btJwqhUxQAM2uJpMVg+JY8BzynxTCEBBojsZITUkXoOlUuJxTkIuGCbmuh1IqRRmXnhzwXZtm/QVefVozkTx9ttvob+/F88+dxhv/McbAqrDR57Toqa29tFHZ/Hqd1/VpvHeO+9ix65dqsDJCUbv44cffqzxplnHeKn333tf9//aa6+p6cEbb7yBl195WWzzwYMHOH/uPI4ePYK9e3aLDWdzBcWG8fO73/wWJ0+dxJatWxsu5KabnbeWqjSfiwhHXDpNM0uNCy9w7TcTaA24aPr5XnIrT+cgyMfwqDuLBbUGC7pRKEMQSCn3iOmSTQC4Zgg68PVZiz4+zIVvrBvAVxlEH+TIVc21GqT5rCnC895cpH9dzFn9pczx4povNCnoZuK/dWrJFqpPxpBUMVINE/2QucsHIRINoNJpHDR17j4aE9PhZKaWwkhtsiUuav6MpUbybJyIqrxp6XZezwrWsw7SYjaDghiFsQXPhPhvggXP4ZNU+/td/za66hmV7eKnSA0Z8OhNLIYDVKsWDc4dn2BCDYjCsupcs9ytPHTmiufvrRKka37obGBODk83CYw0uwiaVj+JYGQ6F0GHFQrIlKyhgRWlM7AzzyRNHYKxSpcw6VbARbc/lDeXSrj8L+dG144st6vL5wriV6z7Qz6bxbvvvIehTZvQ3d0p1nP06FH0Dw7gd7/5PV48fULddnkB5vIRkF777nfF7t568484cfKE6oTz3Z09e05jRb2IIN/b043p6Sl88skFNTNgcTyC6Pe+9z2B0eeffqr4r127d2mjIbi++Yc39W++g0sXL+L0mRclbvsNZnX7zP1Wk9jy0qwK48q559mLlRuxQEorJ9RUNAoyLmrdepshnAtz0OxcPVzAQgAscj5oP74aGawzBY3B8EW7iouO+HhWsk5OueQhnJTuNC8fp0jG6RlNnfDUFDRdtL1qNrkuIw0Ff+9tVzCJtZJa/uFmWi4jky8/GSD1NSjyH9jD3n9aD1Z1ZjLRd2I6q4JkJuYmLDVEKVFsN8PKiAWxD/2eNbCTKXlfCILc/fl7AgJ/T02IMUcqWs+o54J529i/jXpbd0+3FrXvucbFLcJLr1UkrJglAgL/XSxWVOKDheHo2RsZGdGiGxgaRLvKfliUMoMkmU5CIPTX9WYaz+8rFXiTjYBm8US2fVII5jOQkfkCbGREvE8eYyEMBbnlrTyJleml29zqakdVbYAmW7CLGoq5KF4XN+Lc+8pRY2MC1Z0ax8NHj3V+CvkEhMePHuPTC5/iR6//QCYy73JuYRFXv7yKI0eOyMnwxWef4cWXXlTpFIYEXL50ua7jSQj79u+VJnXn9h3lF/J97dy1Ez3d3bh544ZiyBzSKBzg8OHD6ps3/PixTEzGa/FeOMbr+QRbISPfpRnFVhdemBSsmtJNMtDdhikPqgM4CztY+gm0EUkoFrfk20OvXGD1bMlar9t9N2dFSxGDJrrr5mJxHKu56lbhP/U1wdczuk7IChpH1t2vq7Xla3jXzlYzh1cND+AAqIux9Ug0x3WtPpSSa7Mbrhi5zoeri0Wi2TU+vaBdnx/v6iZbIHZSnKY3jfoEjyWroABs+k9EzIgLNpvLSACjecVJTAYlb1yE5lVF8TbUkhj34pNUvdZElkUw4rmoJyViCX2XgzExMR70eyOgTExOim2RaZE5qWbRYkY6l9zyCUZ8m6DOj2XlW3oKtSUCGsuFeI2LgCMWxMReeu7iMYEdP3pXroUMAZl1kBirFYnyWDI/Rm+bnhSPhhEBmQHjq5zoyBOISVraB7WVIF/KJ82CXr2C9Jto3Gp3n/34YwHG66//wAWrWbquGl9GYwIjlkt58cwZeTX54TMYspuGwfHz4KwW5K4rC3db/lutlHyXXccibROwJp98f9YKeu2PGI+rZ21UZ2m9oSXajQvZCLOwWqBhLF0EdkUCkddDm6vK1prawaFYS11Vgka3rnVKvciODRpsNtPJPCvyXXAd81qfyr3yBtayuFYdbQfSlvFgybR6hkCwXw7WPMLV6m4Kuk7v1Nmc6O7H09Uce2INabVI7WYPWBO1qxifttZHvmC+CcIJ5ftxF2e32lzeAgkLJZp1TDxl5rst9lLRvGkEDHrSqBVxR+ZzEbQIZjQXFhaNUXiTTm5FebK4IKkZMVfNPHhcUFwU1K8IZKxCSfe2L7ZG5kSh26e0EKS82MyFyD++DpLXkGiuEZAYk+Q/PkePAOXv08di+YBLMjZLumUBOpa/TYrFWfEqamsJ+WMSdPs76svIYaWxeIGSk0nhAJYoam5VL4Jb/JTqKFXLYkJMtdmxc1ct8M3tWgSU6zduSO/avmNH8By+u6o/zwodw2krUkmW5UX5ReLnhKK9113x0BkaYnzcWBKrMCMrbaGIbZVmCRqOrZimDJGQF9O1yG64kA0JgyjttVz61tLJnB/8+CTj5s9KHYW36RlEndi9PqxusvyWqFFrI77bHetSzVw2gMW0BUEFjUwzAVEVIW5CEQsYrgfTmvnsvIKuzXstDukre9nW93x6RhfJ+3B00ppAuhYnXGyKQlYLa9NSGK9D0KBpqvn07wAAIABJREFUR0+UQCcaEUhEwlGBFStC6jzMnmemPAMs1fGT7Me8bQwBoIZjOo6laGgBEPhKzH+z+tisvURTiMGNBJ9du3bpeAEY01MWmAeX08PyWhLD3SLiOT078IvMPy9rNpFd+dpGxi6KAkMGaSpFpVwWk+M5CYzeHWvtkxISvMVIVLKE2lsRPd2daG+zWKYgyM/nOrk2zDVXsBXhV/eHKhmJ6yTrFow2Ql+kPdihnQdHi9gcGPqVOpn67rC1JFf/vEY2RJ1clLUFqDY0fRwQ2WnXueJ8akqQK9Xse04n8EnGrsLByhux1eedLsYCHF3VjdXmt5lrFnC5pM1TMxhQpQVX0XMt549LHpYORX7qXenNkXHlVV3irea3sLMGhhZ7V4t69/KBaVDNtLS6XwV6li/J4tqr199FcK+aaG4jaMwgdTqVsnGlbdz7Zyfo7Fdz+z85ID0enw4SR7mQCTTJBIMj2T/dMrrVvtElt9L7StOIx8njRSDh70pWXoQThZqPvF0WGufqqmSRyWWRiMWXRF+r4SBNIzIwtsSWV4znZzZ9UX3dGAWu+tUOkAQkjHPK5WSu0a0tTcl1PSETk/6gYEerM0TAo6kzMDDkgI+eQEt6ZfoHn4Mgx4BJAiaBLkKm5zx5yttTJUpWp6y48iphCeVM6WAum/VT9y2wLQ7HbHiSnzpmpKjKWgdbLcNy3jXx8y2P3YxyZobNVdvh/JT1jRxt0i+t3yN3smJe/CRfXymOtWeQC0jU3KgrIdJMaJXHhoms5qVs6vVyZVQtU725693w1fVt8zFLja7tiIhvGtlIYF/yrI5xGXFzBfVWCQGoX+8GoyZAm9lsfQS1yF2nYHsL/s05cPLv1gG0tE2ltfjnd1dZVWy3elq6A4UtNKgt7kmZTD1fPHDpzmQbeq3qBHUlhujQ+/oV4pDWnk7+CDGkShUTMwu2iFzMjhiGC92nrsIxpOlGk4LpItR86FZmcJ1iipQTxoaNNN0K0h64mDmGZDR0SfPD6pBkSUy5oKlFwOLvmY9FcONE87ln4SgL/LOFNQuhZWW6scIjPzLJSD+l/zBWyOKByFR83JNnML4oP18WPWeMI/IVIfmzQGspV4J62rwHmoAUhfkQTBXhMy4sLIq10dUvncwVdhPgoWKitm80yAlFN3WdaUDdQhUUaYZUaOIwWt1aPNvCtt3bs5PAlHAF12wxu5kZNGzgAvAF2n0Un2MjPm7HFX5b7oRd/0xpcKTTM3zR/NVzqlz9azI76VINPG8+sl0xWmsURvP5ZT4IMAgSbHyfvlWRTGI1mWz8EdNUI0VLHF69w4cDZVlE1ORcKyX/fpbFXa28onHcmrnMq7myIGK91i/OBHoHTquEI+iZfOVRzikT6ILLirl7Nl2xcAw7pO4Yd7Q8w658yV8AkCoYnZgV25AJpcVugWS8VTIBH6pPIPJRr3S7M4aHjEamCAVI9V03gdUzCOXFyRR0Yejz1q3DF0DjNVVvOyi3asGWBKpEkgmtFul8/8EDxc9QWzHN2L1MVcAIy9zyaSQ+2EwtwSM082zgyX7YaYQMx/eOY60lViHwJp9ip4oFTE1OiUXRi0UTVvWZWExuYeH/sfeeXZZdx5VgpC/vCwWgCo4kDEGKBCSSkmg03WrN6qE0PfMjes3v654PI30atdSURAMaAPRAwRFAoVDeZ1baWbFNnPPuuy/LAITEpanVLaIqX95377nnhNmxYwfm16HJOI2SIiiohWNcrdm96myHAaWSAJ0X6RmUYs2Nn4ZrnZulr0yJLcdx3IyMzPLmj7x5VXlyVc9zxmgJu2ZYetCHBWOHkURJiEDuZbxqxPRV6gRal1mpYEaWSGzu1dqBgYySX7FpGz2oMvIT4nezwXFACyg+qAQ+vOZYqpYj0F0Aw713xnZgJKksMNsFlGlyQFQpmcx3/v69NJFw/4ItLU6nr+xvn9VFPe9whp1SbxZiuMdyCvSDRUiHc1CkeQQCsUb9QNljAWHJM8gq202EZfkOqC89D3A50zDmlhlJMQrBHstOeEh7sJmU4K+lGUJDFpNXtCTlABqN3IykENyEocnO/kyVEPXgsPKNpcFKA8lKHgHq5CDl9yWjGAdb0EgaoTSEyafKf3enfj4X0jSkUCRGgjGerSOL2fybQwiyT42s1jQ69CA5LXcRKWAanzRYxqjyPrJVJo1vpnQA5SUdsneZagEck53g7YZStYyeiPEgGsJ75loyfGfFBJGDOC2Mrl2Zkw53BfskXlbXvdaM+9d8Disl3icOdN+hEt8/X3o6p4w4xsmMNJpSetxNPkT7CUUArMEYH8aIC4FXJD6DSh4fv5A1qWt2hMKxZzTulZUoGKLdIxFeQuX0/F+NpaZW0e/hT39cc/+IpsIYb1x6BPQZhFecijtO9LQMDB1ApZEDfI7EyM1YXWeV+gFGaaemtl9kbefONnaLJUQTD6fhYSkPe/3WamwmoDyXBiDbLZhGoXCYJMYM4zDXip4eAxyF2ZiRndfM/28d6vzWrFgZWM7IKRco++aybM7hjCtoI4FkSBof8H424ubNG9Kuprha4jSZtqV8SMYEaTR4/mjF09AwypCkScrLbm2Q87TNabo3b9zCFNsceQ0fIeIjjFOOq15YqIVPQ5YRYaaEWRU0JpX3lqzxjJLyWZMmkNyp5aVORAzRiTWGqO2Mg5apXVajcFrzfSn6wYHNva5UQSkJ4qCur4uCgAk8ahz3REhO7IKVozZz7FM7JsZj1HNGUfmR1As4CjEeeGGrSc4wCBD4R9OrZHzHz1mrTHpQ4ii4rO8FeMyeOFrQccNMzEfRJkicPcYzfcON2mAJYoLVn4QMudv7mQwfaAx5D3nTbikZPhtDsUoHFalN4WdVhJDjG9Al7DDTIN1Ze0BiZLaOUFO7/aEnszuzbbd1Z7m0/kC2dTOu31xDFSyxCk57pWfKlwrBtTxMqsYl/wXscJytOXB42IM2h1Qm8RYA5GqgJRN7MbZ25qChnUYgowx22W+DZgDjgi76ubh5KxUEUpcphzAug+uUBik5RBlVgVSXUZxA5KyC5PcBPFY0l+cVTbtghHOKSD7HocM5zplWH/hXeoJNpqx5MDA+aYGqBWmQ8veSH+XpGdevXkPkdfLkCTC0MxKwZwerVpEXYyBGQ+Yf7WwyxS1gGnIkNmaOmIRzaKpqe08eVtgYyMRhuanymvfEXz6BhQKAnhNl0ZhJEuhotgQZi4x4dhEGc9qdCghOG2YFdCU0lt9LnafhF9NYW9QtDft4NbHb9IxwYiG2ZQyZ9Y4NjRRYDVoG34EHgXK9P8GiPuCvelyctc+tod32iOyvIa5c3zRPs4aAaG3xDrpIz+uQ5+XOw4/SvvfT9WXwiZezy6/yQKVnHgtN9TbwMtXhLo9Eb+7uY+M+GYW166BPJz9vEp6rJ/5MDVc00ChpiK7TOzvrqbmjCk51K6fB9Ocb76QqNK5YdSQzA8xmEBsHYXe0K+iMcLAZBWhCUjZxnpqKkQZtU1U2aQopdbNBMp0A8+rssezROmAXm0OY0kSqgkOY6YYtw6dVRRt4NlQnmL7vbvD60j73xUz6gCKjIbA6cbAKJ+uvM3n6fXC4lg6IdrMQTmsdGbWq3/QRkAM3FmbOz30aIEY4/L/UYxKsQd0a/azb11ywRhvZzdLp3c8jrHNqNnKIhY01KH+U86FCrEdmtQf8FLr9722UJiOpyShqGGVlT5slHECqsmeD9EaTMEBFAMBr9xkAvQ0TyHldKP3WZ1iZ2GZggFQM6S9SZL4YHHiE6TJiwBDy55qyAk/MplZ4rvw0St0MaUknSQB5AebRlQyXlY29AL/AX2R1OnlZRDPqikY1BQRHlZ4RHZngqOTAuX6nkIi0DSp/4hwJfyAOw2okgVWlGq2wX+L/VQr3pkWKhiduEdqDvf77+zTInNIT6rrPh7+Mtdlej7mF3RUCEMGqGrkr30lY25T8rr9YOQ32pyuK90pXzZCvaGBKqYhXJ3jKMj6cj0rqMxPA3ogbiGaTOP2t4W86Rjpivm8wx+HjrNHNn8wsBw4PqeEKMM9HrCX2KiVbENmOfkYFCMi/dAHDJ5cfub89dj9GqYWvrgH4Yekr3bzIVCtBXEUCM5i+jLRc7ElAOIH0xdhJ+Yz8AXg6rYTNsFQHDrk6dYbAufGiogNcUp440Cax0WC4QuXPzyfRMx9eL9+NiyVPkRgZUj9m4Uy7BD9nxIOQXsB1VlnyOpne4TBux1yK/5uoaMOURhOlPs5eQ3e7DZvTalQ+xDESkY6RXJOzmO96jYgX4UF4ry7rPvjr3/03lA626EhGe+y3FP4DK5txVfBstHt2NUZW2nTUoEhj1Aj233av/KlQeWNG4zeKfSEgmTgRnSWd4eTv9OgHUL5MyzGcIXstlTV0sik1TUSZp7MWBKIY7iDj1GOEuwZ9wpZMmB1ZA2JCvv9hlClEwb19He73mUdIcAb1kqZfDrAAWPdW4PRbKb5MlRv5oCZRZorHz5h5y7xeczXqECGxy4+lQcoqlYYgMv3Jw0/+CMcjdXKdqkTRgyliASYjYqFD5D7dYgDNTaVUDwMdnRalCcr+s7xgRgX4XU+EdRDFqC83LaOWeelFmxBJlUSK9qehoZel0XMYbx2epp1EHEqbpcTXHQ22c+D0ZNgz9mnaIm9glvfzNbTJqEOcxeJq2Ta0G4Cc1Vo21E62L0wZGRi2XPum3ODPtOok9xkIl2a614eGt5GFhXR+lHmZ+QebSAqMArnvByBiOsZpvazaOgXfJWWdcRN22tyeTPGcpu9GGyhipAsm5Qw7uA2WlSOlcvDolNdQVEiZZfaywiB9VsTI/iWPOjyXnjvWqPPgbDR1uoMDAi6RDJLoAsSPeGVEUfqLAUhHOrA1lVDxd/AZEAmVH+NeCELSADmcZghaoKaxF4Hb7tsilkTWNH0FU6Q8RMSJzGtiPIToyNWafACLjQGoNd+D2JenUZBXxJ+x89zCYH6OebUPNBC8OS0bWmEILvP2ZfDecWCRdq8KfSIDpWpOY5rPcNG4J1ZgES3uctDKSxuMG3pyA9N6Q6PERH2mQN2ZXr/NQ2ucrRm0Am5Q7l5ABE5t7rGCwierNWSI+90rWruvFySqjVLH4ryMH1immdihKvDYAbfDThhkFsXB6R32Fx3oZ9Jc2z/P7AhJgFz1OHVKiB0OhMqYvCMMDzZnw45YqYvYVqDDev12m0eu1ATpm4xa9f0UUunoRNT4Gk9seQwPWXS60MS22iVaVMLZ9q0jHmOXJW5O46XoqKNswvDlS0LlIiMpfnd6X4DeGn2NTmzhSkwZ+b3bO2mQ2EJR0b+NNNbYhz5TNUqZlhnQmjG60NoKQ7mvff0gH8J3JZPcqQP89NQVmKZmEzEjwVnRhBUzR+fPd1edZKs7rxt+raIseHnjirMCMzbzArPBNNnZABBabNTywRRtPNZr6Zkcj6gWqOgSxHiQlZ7xWTpMAwb4bxc97OCHGFM9G6kMSbyFBMwsMmVmPnlWBxFj7UsB+blnVx90cu3xI8lDat6pctIHsNBDo+QIgWAcoxYCcRkUKKooNKCFpglu57MkT6kiI4SA6jQmgsOMydZb14VlV+qWkQYqV/mKYeQ8EdZ9Ot3uQoCzgUmyBiDtBci3alIXlYqo6RfeDanElqIlhrX5b3OLOX1FB0CCdIyOCI9XdCR2L7ZRGqdcrxznbT1pA4UCOF21zk2zfu6XsXXjIxzmxRNfiOXjz8T65bdi6/r5WDrz1VjYd5TqfpCRYProIsPmlfdi4+LZWD79lVg4cLI2t0vjhfz5jNQXs2gwTL3wvmA/t9h3N2PMTqXHNswYmjn+p6qc2DgzFCFRopYQ2W6iarABAoC9V6bslfYFwP6I+a5qOW1R+cSW8wDAvIvkChwtKhDU8NotIvwUrNLEJfpqYuJM+d05RHRo/niPTCEZYc4irwrEzmk92LiTFthnLostq3cfUDEyBdqKqY3zp3DV6GFna9uuZbg/Kzoy/4iHgPaaUzOS7yP5VZXoGQ3xWgTxZLRwmNHh2TrUFdlYiJzbJjdF36clhTxHAr2wGTAYgd/GtQR+VxVKKRgOgEJQrjfnpJnHQhJhrzFcC0a8AX8wzgSVIxvp/BRxJmll5xqJnyLAhQc+gX5aZ0JgwJWS60RsbePK7+LuB6/F4rGnYmdjDddYOPZkbF56J7ZWr+Lfl058AQdm8/oHNPQrB2L77s2Y33s0Nq99EJtXP4jFo0/E0snPx9adK7jX5VPPxdbazdi89n4sHngk5lcOxOb1j2Jn/VbMreyPxUOPx9wSOV5T5xkC+nIZsxyawXan5LOMm8i0M6tktoBIkzqsZIQLxLQ6IzK1l8yqQml/4N14EsfUQ/of0rh5qu89KltVBWU6TzjiYaOh+9O9n23kXQx2wcPYbRfVVXuRSKIjzHY8MY5D08aq76TXQRCyitYRtlflMzv7mfuv//X/2slfZjMr9aqzzaLXQ2qW1MGX/1fer3tKRoF96cBRh0WblB65wlGRBplhnIPWjYJWImJ6ACej5hlsmi0WxqItcV1ewC2wIPFd8uB2ADCBb8erTLeY89MbVEe9gbsE7RT4egvpmGk2mia11hx0h//5AhP8NA2Amy/TNRsgavQIyE6i4IIIgMjNE7xu1+It83fz5YKDpTaZjevn4u57P4mFQ4/GwsFHYmH/MaSD6x++HttrN2Lh4CkYl/Xzv4Kxmd9zJHY212C80lBtr12LzRsfx+LBR2LpkWdj/dwvYmfjbuz/8l8j6lp954exfOoFrM36x2/E4rEziLwWH/lCLB1/piga3hLYmDCa+bwjUynqHG8Qc+mbfQenB85JEaGpIKMG0M5Dzdzjh1AtK1WkGBfsx0obD8Trm2U0uOdLtkU9aKOZhQ6m23IgazPEZWZZjioYOVbVxBT1Jboht1+f+zFydUprKIGoNhUJOzUV1qmKOMXoBmmrDf1YJAXVkuz2/wwVI9tadoYLJc8MC5e7H6N21jhEzpglhYHoQVUwLzC0lXNNMp3U59hk2Cp2xIC7htROrpRAo3lI/B0a8w5DEb+i8AREU4xCGP0wl0ZqVpU0pYYu5aoSyEZWzpxHqGtJVE2odcaDUBgGhtpPOLx4/sShcgCCJljk96NakVWenM8uNjkxVHjn9QtnY/PS2zBECwdPxPKZP46NC2/E5tXfxZ6n/xQ0gjtnvxdLhx+PlfzZpbOxfv43SNPSeNz96Bex95k/j/mDJ2PtjX+M2Lwb+778XRiqtXdpkPLP+vlfx+Lhx2Lx6JMxf+CkhM/KFImqIAs/0k9WgLQiWv/mxAHSZieOSCb9zD94/txR4mbt8kFW8ezFu6hkcLiw/ljz8bYWH0Y4PTHEx1K0PmtwGww5dveKiPK5Gw7o24MignrGxtNkYar0VNhTk2u3O1jo8e44VyNs83k4bQIk/Mx0ROWGWwLZvYTtZ2SQpqLYroLDm09guseBjGEoNTPJ0aCZKyQGaXHovAiKTTRUEVwchP2MdKqaYrBbI6h5j8jWVXbLv3MDFxakB3FljIxmk92SmLYZ8+CDCBvJ/zWQhxTTU1mVDqBSptwcwGAat5yEItlTt3nIWFVPlxuREdmpuRHnEf0rjOIykqpNvRPbd+/E9vqdmF9cifULb8bmzY9j5cxLsX37CgzSypNfi1hcjrWz34vFI2di5fEvx8aV95pB2t5EVLTy9Ndi8dBjsfrm92J7/Vbsff4vY/vGhbj74WswSItHHsfvba/ejO07l2P50S/G4onPdSRWtoSQwcfq6fDwwV3lgXeT8Hi4wxg5G477ab1TQAcjc+pDSe0Bjqq7qCMTfC8jT4Y1g4vVvs11ZkPzqGA9tlIetOY4vU9mHvf8gZqkdzWuum3DHGi1Egm2v9vZBo0RlLd7IxnDNLU2oxlGG83auT/R/jFtNCstG5uP5yxJkVIWlrY7va0s+38mEdKuBgmpWBfeabX6BW3hLQ9degGSGueCFllEQOX6bgospqhZ2A4Vx0LHocaMS7OKkJoULPubXKLmXpa8gkB5/lsaM/T4K3rSRBCAZCQ2moVNLwHrxShoQFLM6AkbH9UbYhHmzXgiBW2jmN/y8MXdSkG76x/DaCzsPQK8aXtjLVaeeDl21m7F2rnXY+HQY7F86vnYOPeL2Fq9Fov7TwA/2l5fjZXTXwFwvvbeK7Gw/wSMzOb1D2Pj0luxcOAEqizbd67H8qMvwKglAL6w/yRxpWNPx0r+u8b2ELiXcqWbV6c2iOVfnYKPnA4fRPr4WZQkMc9FTt01MsrKF/RlpDIw3WcGlwLcywDurAsKNHeYW5H99OfbXmXafu/IqLVF0WaKp/YJKm60szQ0veTwbveCIyTO22iVEFGpKs0TdBI7fsEVXcX0X9kgUdoi/yRwbaPD9K1FS7z9YVtIA9iKQ4Qprno5rCGz6RHVD40qtuFT6uVyOQy35nDRYwsfcPRk3R8RwCpN6kiRtCcW2WfkREgnAWfhZ/5+D+bL30drw4YiGlW10OrQi6d1w/ZAsFTqkdjatiptjh4r1zfextw+N9zWrYuxdfMiiwWHHomFfcfws42r7wMrWjz2JH62cfldGL35PYdj687VWDx6BoZs89qHsX33RiweOR1zy/thePL35vcciq0712Lx8KOxsPdobFz7IHZWrwHgXjj6RMwtp4CelAjyfeazzfLAqhZ6ekUjLWgjK8RA0QPr24YbTl3ShQBUXaf7yMrRwX9QVnkY8VRKoeioeDUjvCYtdDU5T7D8R563uuldhd3VqBBCIDaofX7PtG6mBZ5eKhVr6F+9fxsuNkz/aG9IZGbryTCnpVMm8XF6Kgx8JozgphwzdbxW734GGNKsCMnyFq6C5YqnSmR2v+MIqQSPAzTACNCDBmOjiEIAIBYOB1qLUOEhGeBZ8s3cm/Oh6JVQBpYRSwPClg820OKdwysKC/LD7KgiiHchUoHGMZlkiYhH0dTE/RAhaxGNWmFY3ckXm9GTMDV0vKexa20iKZuCUBeTMniQ0GMH/ENEyH6zOrWVbSK25jYZEUoLvXRZHDT3joDKD0xygLpN6DxAVVJ3ijvtYXlf0ihwONPJC8v2GzyWXe9i2z/8HX7OoP4wraIDM0vEtcwpb6+0jc3SatcYuSd+tzlG6s0aGILi8HivKfVBHaXDdbslqpYftOiMpK38Xt59c9aKpD9R1W22keqLVJM9pWOqBH3XhYXmJl8rQX+fGxet9P1VmWtV7M8M1B43SDodHSGvOvgNhKm07459lvqJLxUTW9hAAYZIz9THhb3kQ8rohdyeJGmJvCbqANMlvXx4CHWzwz6sc+SQQDiwuAvM1DbTc9CouH3DzGqDn2ZVz1MuVOmXe8QqXetTSwHlJGdxOoYnXgDo1oRbWnCJ3HUpjNtpiEByE5HOr9aLXbBTi7pNOm5XH4WfOS0ZK5/rMNMo92XjkS8VrYNRhY7i4Jo0RHrGXG8blcEGs1MCPleVqumD6Eom+WQsZEwbLjkIO7mx9FCQAZyadxnSdcGRg8e1I8mnvBe/yKA9+XnuRrgX4H3/kdFun+R3MwqahWthdUogcFoBAnfqdcH0l6F70RmlNqPK/g8g0PYgY5DGUH7YCDeEdmA2e2moPugqlZLq4jDx6PMzJFh1wuaOGOAd3bDK0n4PMGAMADYQK1Jg/4q6Tvvl/if3enVVHLvbLgoBtpTfAIVGUxiIfVQFxXo+SlvIYdJ0hnzhIEVKoRD3xmGP/P08gCrfZ5TRGwBNGTUG1+Zn0bum1pOfnYZSOG316M3e2E43H3ZrF36Zz7x5tykPKNKc6nsHBYAE1YlN2xkl7JvB+6rPFuCsCGmqemTPrCgLfWSKQmZyoMRHqv0xZki5J8kxYhQwqw/MgK+ffXeMxvEU7/te2FLbFn0cpv/2vh28zKoGV3fEtN5SXwX0r08XIdq99iB1/264cjq3w9RUQUNOj77zoEztY4dyDBC5L2PVkXvbbnKKeHhbWd19a0ViBB0gZ6d5KoayGQtWwft0AXH++yanXrBBUKV7lfaxWbxp7eSLEpD/IEEs8Yzced/G3igcJaLFTATRWJbYyaOBUUV7wxL8LQxffh5jiPIXNBqn3pSkRkCqZCmffJZW2keqJ0NszI3rTr5RcbP03cTOmi6Uvb6bJ01jYNvM78sgiQuTmc7OVrx/5VxcvH0VPYRH9x6JZ46ficWqXsrNSCZ6VhsFqjvWbvbpG1pLqIxq2qv4V1MG1WCsZFcFRE1+zNfP6BSbVDIuY9ZZaRqtvR2hVlbb07s096vvb9zAtFJ+4ooVQd0HVuSWKToeScp66geqy7k3/SwMLdNhcfVLWHam/9mSLnuL6CZTbux0nDVDIw1Wyp8ltLINPS2pZXRbjz9PuGYuVu8+4NSRVIwcSti2p7A0hbf62Ib3BszD1DdICqPo0zV5R2QrZl0X4O2ISh61mNs8aIgwEN5LspQX4dHGgc8/ai0RGxwbHhtQPixfoA0OflGEQ2xQRWjgIfFqjPykMa3PO8WigAAbX1HulDysu6tdvm0dSuYapUGSXrSMXRN3SLA/vzd719jmQIOsio3E2BypTlQuf68GiWtzc/VG/OLjN+PynWsl7Ja3uHdpJb7y2Bfj+L4jEpHSkEZsjck+tcJPEn/qmqpHe9kcQVktYPLM1DvCe4eDcMPj4BxaWqaqgDMMt9JzjILvjIZTyYooeFqLRrDb8S9hNe3Q3SMj6467OVsRWreEvPNGTdEKswdU3QOkr+zOfSJc0kQRx+6L70qGGeesW1djRj2+2/9Y2c6duw8oYcvWEYG9I/bUN+W9NepUFCG19gtGTH24bgXISjn0O008jQapJB7EZ2p/b7ottXl7sXh0mYhzgpdhnKOTbJV0bQUSTtVkfMAbSQDeBgk9WawgsXSvnYHqGrEbPyOMU/4cAD6pAMwgGAJCqlZ/2iZllztTF7XNGMyxreEAAAAgAElEQVRXy0tbU13LPrAz9AjVce3ZZMJhykbsydec6UjrB8nuf/3cr+LcjQsT5Lc8BGeOPBZrG2vx/COfiwNLK1RvmEFs9HQZp+qj34xzwDl03C/iy09VwjzJt5MuGdoaXwuOaZdR2VhAyYcYQqgX1oJPkh1pMFoT+LiByzUmAZZa82MRrG1s8YGQTvbXu3e006+heYCmnBirmviM4XUYJT4LhkxMRdjcVVktwz31PKUue7RRtJSP7z6DDraO/J4wpFFjJCvqtMORBXLwLvphq4inFKiVohNabGrnehz3RRmDQIiZ1Si1JSj6MTWAHAl5D82Q4qZWuifRrMJzOn0kKluyFaWkUCQvu6MUix3duamXKJ4v49TLpuCFKl0Dnwh/Tw3vNKYb1Y4AcLYmQbi4LE9k75tNutZTKkPWQFpHTa4+EeOesekVmeYk3xwTdfKRk/HmG2/GwYMH4vHTpxsTPebi1i2Omkr98YoUt7fi1trN+Kf3XkVUaIRhYW4+nj35TBxY2R+vn/tNPH/y6XjiyOM6fNO7BYYXRYvWEjT1KVdZVT4eq6bxd1TM6Dx4s/h14prvGTO+FXHluGhpjgsz6n5U59TaRcBFZ6THrYJmtvlkpjB83gmH78GQPuz3kdrt5koaJDC7lYcYZscs7YiNvQPFU0ihdcJcar/S+U4WVv5VeEjOdRtpr3neBg1IlyUrSIo2gMd4xI1CZQLTJB72PWTgAEEFkOA1/myuE8sR2DyvDcyFM76kpcv/qWGKSR9oQ/3Qe8b8Sx5AQvBqeHU5ny832awq/W+ux9ySK3WcnJt9asB73BhcT7ElBjJHFvN21qEQkGVi1Jm0WBW52NLoWdzRZK/8ox++gt9/6aWvIMLNySo/fuWn8dxzz8Vjpx/nkYWCpdpeIuK1V1+Ld999J777N38TP/3xT+LQ4UPxpS9/eaJJ+re/+W18fP58fPsvvqO5dvlsG3Hu5pX4xcdvxKlDj8SFGxcxgeWZ40/E0b2H42cf/Bwp5jPHnkSUtAAvP3lU6qAqSsU77g8cXlzrgyz1hlEvSPyEYvw8TNNnV3jgbg21/k40fuf3C6/jrbBd0jEasn0a017Xfez20PaE57MK6rjZcNWrcC013u5mZB7oZ9hoon3gF6f78wjDMjXjKPrx6NZFp4r6+xuBTeNKsTouAOVfg6nNkNQ4j1pD3H8jtJ88EpYQ7WVaNKGA3CE1clOB5CbJDXJZnTaF8vJV0mNuVSiyhycM1MQBMAaQfB/q2TQBNvc/icxYjZmclmHqwbw1jdJYbW6wuibSJcurrL7xMLrNhOkfIyRPOqFiIDWVlBLgILmy17ysFSs//OBc/Pznv4g/+/NvYCTUhx+ei5+//ov41ne+jam+H37wISKd/Nnt27fi+PET8c4778R7774b/+X//D8wjilHMB0/cSKuXLkSFy9ciOWVlbh+7XrcvHGDBqkGCERcuH01fvrBz+Opo2fi6L7Dce3OjTiwZ3+8ceGtWN1Yw/M9e+Ip/P/kVfUWgsDsPabKKhWCYJurkCMRgiu6jFA1ZnzsIJeT20VYDR3rwp+64koFYLKrFnRzaDiB3Q2rht17nRlF2QGRYSUQejJNc9z8QAao+3BfESckYM2ucdUlr2ueU7y/wR/3mxLTlOxI95mKHlOSREbpM4+QHB2ppi0hMR5mo/d8ULE3cZgVDQC9V+laHfEkrJAI6eoUv8MTF1QNxGZkisL/5N/bIAHNGTNmUJiEu60dkVi+Nhe5AYGY94W/SlGyCIAu7w+Y12lMgB9RBSArKiRTLpWWNzy5R/uosZbIklKPWjPm9CSy6fsULtsY5TLmeKV//IfvxQtffD6eevKJ+NErP8bzv/THL8evfvmreP/99+ORRx6J1dU7cfnS5fjqS1/F5N00SN/9m7+O7//L9+Po0SPx9NNPx/e///3Yv28/5sedP38+Dhw8GN/+zncwNBDOYX4x1jbW45/feSU2tzbj9JHH4+i+Q3H24jtxa30Vz764sBh/9Pjz8djBkyqXa7daPbIO6uRm78vQ9ZOpAyHvayNj6ZjRg5NDbnK/7D7oEe8XSp4yWMOITlYJ/4zxXbNxMX408aKsutLxjIPXrEgTLyKkcT8IUeFMdU+82dbF5qvAm82wYfp0icJN4412tgDIR8TZKsr1Wg3Wn1riOjc7KWG7/dkytctbdYh+RQPGhxT0EqE3V4eHNxdgXnPQqIedrGoma5Mxv1ot9M9gbnfTOtBoO8/0B2E2AFtraeeBJ6MYIT7Qf1bHkGLh72rU9AAAe1+7yuqLUzqXGsuLK22+lsBwPqKm9AKgZ8mUM7zyPzWvLuejiztkg4sN7z67OsSTwxI9ZSI3ew7gfP31n0NG5mtf+1r83d/+XXzpj74cTzz5ZPzf/+2/xXPPvxAvvPjF2Lh7N/7ub/82Xnr55VGDlEbod+/9Lv70z/8sVvbsiddffS1u3bwZ3/mLb7d+PLXLnL38bpy99K7SkQWUvP2mTh04Hl95/IVYAiPdUqgdzkMVoOlUzk5KBQpEleMYMUvsWRkVLjjmx/HK+vc1djzdq2hwoMvsfdCT1sFglQd8LGrwpVmxkm2bhS3B8dBgDHf3rCioGRzpEoFmwPmFiFLwHAabtefvEVIBepDRQGw2YtRJjFS0PvI82X0xoT6qo10ZEO4haTPxWRok9q5hUSCPwBzbfVlmBeNlVQif0Y9suCeDIjXJjcroYi6Svcy/uxmCeavrjsao1OSqCMrDBzl+BqZOetn8OxTy3MmPfpzGvdrOdMsStCJ0snNdmkt4gZJWwCbVxBBU23JQ5F1Kh9hvwfux1QXepqv+YTMCsPcmTva3PLAbQeVB2xBI4y2TWMkHH3wYr7/283ju+efizTfOxre+/S1EOf/9v//3+NKLL8bzX/xirK/fjb/7f/52JEL6lzhy5Gjs2bsnPvzgg/izP/9zTOh9/bXX4vq1a/Htb30zFpaWJ1Kv9a2NeOviu/HRjYuxAV7NDvhHh/YcjD969NnYkxW2boPjMCO61PudYWiY0uXnUtFg/ESZ9V+neexUQ42Tu8b9WMMIBPu1pF/GZ9HhneWVgC21VHvWWd8ujtHsIQB23n1xZzfDZLCbPo4OlcY60y+3B7kFqiuSVGVytmWiiZ2ce9h/ukWtHeWl+wAN8ECYTRaZLH7e73YsPES3f/KQFruJFfewsA3mM2eiWVnIJtCfsOzuioklchGN6EEUXfJ/WviIahT4FDRynK1GBL9aRQAcq9Rd+I6uUdU5C52Jweswumt5gIHK+0H5ngaHh4PTQxhudbPc8mXLeFiErdoV1DyLkDwBb7G1CaZnypqqkWKad2J1vIeuDQOVKBIuMRZp4k8/+CAAZP/Lv/wgVu/ciUcfeyy+/vWvA8T+0Q9/FFcvX47TTzyBseLnz30UL738Uty4eTPefccpGw3SmSfOxCs//BHGjO9BtPRe7N+3J7757W/F4lIyzif/5Du+tnojbq/dxvvYt7w3ju0/HFlxm/hj+ZiOWjF1MTP8J4ifZdcrUjLGV1Hx4EKVtqu5e3Q6iE4/8LtOXaIu5Z/DAsjpidsz60gUZKFugxmmVGqoRot20XliEZ5uTSOfqohzr3NZDefaYyX7PP6L1EHiQIKe4e1PG3D3z4dXIV2ga8nqPuCxXTlp+oHL/scO7xMxcoZrGnkeP0BawgbsasGJyqoEbVtMo8WeH0YnUIZAupbM6KxWCV9y9UVAsECiVncTa7VFYAaH24umAdPzYLhfhxPkYYewvGoLzuXd2oGITjPO8lNSLhRI1bymxyfVyB0RKjNi6mUf0KEuPMneTrpATCulRzNRsuf6TUcL3b8BftuJt99+BxjR5z7/uTh+/CRuc3V1Ld4+ezbuwFA9GpcvX44zp0/H6t27cenipfjKV78SZ988G/v274szp8/ERx+dA+a0d8/e2LdvL8aDP/vccxPDFto2oAe0XjqZ2JO+3mkw0/RdCHodljJ82LqicQm6jfF0rooeHHYwFmVZ55nVu/HUkSk3U3qqc842Hvc6sO1gU8+KFeSRJJPADY2CddRrKs+9W0ymjXz60TYCiU3742e7pYQouUx3asjIDTlljqCoF8bKMjFdKU7TpMbm1kasrc8/HA+pD9PGbWp+qSsS9OoJ3s4v0IsiMkDZ0AQrW3uLY/WKtwLlkPJR5oOlco6RWVAbAltSuFDoqRF/pyj9hQepmoaNmXhTs/qwTf1G7htl0/ggmuG0VBhHaWAXUK8Kob0hqme4KPlNnNBAugK6VQSA1ibQPXGvNzpDI9XlcMBMDWikiz5RRq1/G5MGCZvAAwkpITB0+JOvcoRj0n8ArS6YoDKZqk1cJN8RKjYaGjBGp4OhIZludksFn1XncfzMqFk5Q3+9xXGDhL65/IhpF9M7mG0eGxK4H4eSWSmyrvtukUz7nCupY2em0sx7RDfWklcqcK9YaNefy5VpXQkNUP6nGSXsw+p3U4fEAGDHuayOCgUUE4atOSGc9IkKNvGsra3NWF1/QJH/o0cPxFI/MmfG4/YGi5uIN9Tzj1jZIGmML8OVovyc2zBUicKkCIZ8fvh6gZ7RpRweKpH5ZzgoUGCi62s1ZFJGkY2yajXR7+OQmHGqDJIgoSolosLzhSV/KA9fqkaqMge9J43ahv1rshm4RE4OSflev/86wJkCpsYTn3sCa0mVRDiyHIckvkveh2gFEyZpFsgySH2Hr5FGdJco2LhV9Q12V/De64zrmKFxuivUdObBwXtOwz1r4oiiPza4sjVo9I8NPIyyS9GDZ9Q9w14l0DpjCWiMOLtv3IjyDlpkNIOvo6OP1h/RX2ai9Liexet2oyc8vI2yw+LrHzeynjJCAcKpNml1/3PPj2FyxI0TM5r8Ocv+D9g6cr8GacKTSsbAwmsmVVWbgzFop265CdQawTHUUlnMl+FDp7ydlpapHvCmntOSnhCjllWJAWDaSW+K68LFb9hMeQNsEG0k3IKqdTDIxo86Do1HInvQgPJ6TA1RCgoelgFyAd6NTKlNCQCQXopVDs+i0wav+epORBupccqw/B4Mkg2vp/aqdjP51ZquyvWbiTyrCjRrfI4cmQyOq4pTx63K+93Y8+kPNfVIV1zHrVZwijGLHP5D/EMMOhgj0kv6oaXDyxnMhXGbAR7TWWt0Fi6wW7pE2gsN3UOkZ/dtpyw7oknKg99rzrZhSsPzbux4+O5rTaw40T3uZ2iQqHJIxiorSds76zlnh/B0hb7J3KTVzO5fVD/yRQJc4LA5V7/gTbJFVdNdTUabUPxzZKGNhRHHqobB6PTpkzGpQZhZ6RZknqWLhIpfjrCmLpJRMBYSGl2ArCF176dL3dqi/rHGZ+Or0DRKwTJHlbwFGbq+J04e1+N0OHKafW2sXk57tF299wP0sk1sOIHoia05nJ86jCKPItX00INBmF7p1zCE7y+mcU5Ou8fOFFJClPfF0xk706qWMXrWBxrwpMvqwA/VD50+IydhUYPR/nQE0BuwpsbQ+GHD+08H1aCLGQYJqVA6pnSI98dFqmZeUwwEQxAGGPa/tbuq4FbPyOSgX9DuE4o0p4wOggPCKS0I6b5DVbeisujyn5lBqhzLr916yCIGekQMKlcJXie3SOV/zPwW5G2gmPykDLuzy1qd+y6NFx4kqU8bIwBorXROI0gsxvgPyund0Enm0w7/bTCyeidmtgYHOLRNA4ffz9+pjUviF/6IQFlDDFEhSyOX1TGSNYvjhB43hsPJpSm+FAy0NJ48FsrSI929e5M8rEHiNlT0WfgBckw15c4AjPFu3Og67sXxFjLtBHl6LL3SplcRY3wEEj/j8Ue7pTmIZHKtZ0xWZWk/n41l++p3HLF+aEmSosPo2gqppfRMMlRmpT00bC3yGrWiioYUFs2MnlgoaFFTbm5LkDQeHWkp5tC55YrJ6ew/nrU2jqNRzaLv1WsGi5U5F3wmvwFONDHmTv/qoQ3SYo7Yuc/wz3yKnsmJfLlrDeGlJG6gRle8KKdrouy3sSrGZzpeiKtszuBAfuy0lDc3OS66yIQWbmt4UH4nZ2EJv8LaqndN8h6tomYGuTyuGObJJ4INRPsUCY40cm0KKYEfbUilhfw3hGElswHeMyLB1nisHaoIqmzpzEjlkxikZpK6qg7ub1ofqCIlHFjLrMxIP0QGxbOMTES18SboPsvw2cCPjCyaCOcoT0y1kXG6CjrxwUPUwR9NMQkgFsd5ViVK8IQj59GITgUZPP4svMsFfWCOyBlGT1yDij0NpG/16Oe6ObKrGI4FDlRu/Z7G3hfTSVdJhzcBbqF08cfwol49dTo6pJ6Xq6EPb5AWPFjx3lZp2iBRpMqz16m7S41pyxVgcyCMT/yIlSaV15TCNQ/g6IZi4vS2BtEJPmuRB/gRIxM3M7ZRzwAyJWXC3xShUlFJeWuAkLLwiFryW5OwKEG57TSw2xyHbCOI8T/qqYJRZrRD0Xs3tboEm/fBcTvmOflZMlU0+I5LwNhxHE6rxvHdfBKDNAGkG9PjRccPhyIRtPPMmChijhCnphgMwUXrmuZqMb0WvjcE9q3esMv98J00Dz/w0foreVwY2W4drFEroqrwbkMtAX2mE5okR7qS5ctSu8rtS+MRSpEJsfdnVR9dNdX6VVbRrWWtbDNd7fEUVZWM84xigLBORkKThtEYGPZKVWXbeeKz5r4ckkDFS9Q5yGDhoQ1SjtJOo7FboFelwkEjIwwNRgCJyg7DzQhArWlKSdoUEWYzrVTIBkeF4HB96kXL6pavh4OqsUJlMNrmJtenU6NMfEhTYhlKp/Igh0DCyFUEpp66Sr/IF2EashZzi3sosdtJ8tahynFGOiBsLcgIKNM8sbYlMJYHGpFa8rBU7ZgDV4SbgXgC2eA2GlkyzUggeV69MNbuFaDZWMKEMUNqucEIc+jRtc/hbY3JjWBZXFNFgJ7WOxHJuLIhHGds7r0zF5X305DPwrC4UIktRWxLXnhqLVxRQzSuPsWpEMBTZwdSLmXOZPixr8dxPF8SRkYKAGOREd81CxTAxcYqmB2eRWC9Y2XfOz6Y8Yk+dZSD0yfbGe81y5Qu65UBCsVoqwVGUuWw9Dmlry4WTTg6wCgMJh7aIGXKZp+2m1HCnlB3P/rOFAXgwNC1K/rJCjev1KZ0aKgjPIS1Z/oR1H11y3PN2DxLcmIn+DbFxm4vgNYmfycrch6umMYlF0n5L+RpiZ3AiLmqo+ikSJfgWZGTQ47SesyJd8Xfcbm+8xYYqOfnoiG0kgBvbV5VH9MPPDzTNH2nUxKsm8Asxkl/7YDcn0EC32tCa3ywrwVSctrLeFWtlfjHI6wC9HtNqhHjwAqItMXV6zftGfPwQES4DQaduhajJ2b4s9NCTiVJdcXx6MHRD9tBUlhtxud0KNE4vgtVoPBJJvuClidvHt+pCIvn6F6n8H4tlTsNxigF9AZM35RmVbDRehBbBbmpx7poxYyFtqOP1/juM8KfiwdWjDx2ZH+UQdqlpOyoosJVhXPQfsmbAmjLkic2hY2csV1hKnwlYnIDXyL4SCxH4aMmIzC9cm9a22TmF5EAaS9NMTT/oXRtGzAAPElhKAwrNGuS96MZcngO6R3hYdl0x5SOoTRAboeqQOCbyqX3Ext9OxlelflLOSAvhsije5nytH2XOJfSrTh+9k9mkLhzJDSnSS/TW58ANXunptwqL4H96uvImQ33jkv7hS+OHLIq79NQzwrRs2yP4wN9IbrxqYRFVStXPI3fTxaU1BakKHXsWPd8u90mznK4af6/XdjcAB7bWKDZZsQp34O0cO1mlHTGkKJoH5fh4MohqkFW4HHkNFAZFWXQgb0PjiAjOw6eANOP6bAJpDr3Zn3ndRP8Jjt9Me7c3X4wpvakpnbZTD2tY2rtAgFz7nz2y9tGT0zXS1bd2GYeZnrGzcSpIdqAbggxe7rKt5lOpHGRVwS6b8Oge4Fqo1Ir9JeZj8RQ22OzmX5x5JCNC+2NgXhVJ5DCpIFzBU0C/gVgc8IsjI0JZEq1Jqps0GVK9rraZEo7PJtt5U0wHJCpDGHVLsTuDjbxmab749L0rK04SzGyjDRs910yy4cYgDJlMN1BBp1BEERF1Zt3FvaktF2edzq1cjrHSG2q92zS3aKfMZ0FyhYjhg+yFzgok1rY/TpV5Xe3VhZjRjqAY+lj7XlBALvyjBQpDKWFXafhu/XDzlhL+wR8jIbGVrn4Q9hXxmXp5Clfo4jZjlP7j/iQhmDYwuPr55out76F1JjEB6meQZpBPwCVxorfpwBAGUwirqsPapCSGJkRUi1HuXobp0nbxFC/b80wDd1eSw13cqW0lGa1KhQE5rTU0juGItUBx2Paj0bK8n2mTsIjalyQ+CB02QU2Y94Z0jGL/++AYwS5EZ+FzOt73RoYSs9u69MxR23UsJmXCFsZNXxvAzJhREATEFCdH0SrBbv/EfOg0tYqgDRMxGQmQGz1cbW+tntESLt5a6XT5PfMKN2K2+PQaAyvYssQn3EWnsUGVk9vsTPjPvK5YozMDc7nGwC3WJOUG+mY2iNnlv2RlMPAFUeyNYuHeX1He8p0c9Z+H3123JMjjtlplfWsWlvJLMOtPXKPyhzXiRU0nCez+POBoJQqZ5+YJvBLOwxlGG5ET0zMQ0i56YQPUVoYihc2opI3cZuQ0oQmOqgeT7w9ZUjFiVJymhjSA0dIR48ciIUFUsZ5rMp+TzliTApBJ7w9PfGgSnu05SwFYi5FQ+t58Mrrw+jzpWyb7Wwto4qEyU2pcmJhUJ0Rre5t3dd2Hva8LD0H19gApVQIYFjTSOgxBeAWh6mqcA6jNfOtB85RZaPOEb2p2j5wBvPCxuYo9M5Uw+OZ6MG88X3QLYPi08vN7Xt/eINEA6kJLTOIjcDdOl2msUgsNy424YySO4oTcGozKklyHugJdBPp6BcJ4MW6zdBIEohNJ+8XOUjmOlyTKda4cUClU88+y9R4Uo4bhscBeBvZ3fSJ2OfZ7mXsG4W1av9S8E8TgjMDAOcvjVMSc5ck+TFHx1f8PBowEicZxaBtCTAFIy4XcHayn1KKpZSyFekZEayrp8YozZ1TZFbP0lK8/KWt7a2H62XzGKSibYxtENyTZV8bYA1Wgyoa6N7H5shql/L1BCy7WWTNKsuQGyQvcXwBqVUNUz9Thdosm07YTaRSLf9OrGc+v9PTQ2TNGVrm3s1N45ekip8Po4FHRWHsWxOTG7i4J3wIj8Hzks4AcBYeK72UTHxhXNJUstqhiKA+SKZTeLAmA0wZ744CAQOGJRD5rzMuNHZqt+GOk8EVuRGHuxsVZA+Jl0YD4Dl6NF5tmSvKcDRToWY7WogeLHY3AwwmhEgSZaW6/X5TOshwcQTEUjSJeFoTPWrKsa/T2yTRG/A2duEaQfxNgnr9x7xfMk1tZmPSgFRDa7UasV9z+Ie3pVR+NHXUz7BnaGwQibolKvcioiNVggFVcP8RXCc9oU2wIR7EZ8/PWL+MJF3AGhItJAtdGYI0yio1c1W7mr9l3ATAswdwPnZgJNu+S+f14BFSpmyKeJA5aRWHNpueOg8+NXpKZxgAtg0UwgUysYGn5X9lysZ0qypusOKy0DhcjsrMPO1SQix0K9e7IgaMSbT5ijx178BAgJMIiNM1mqyupDYL02m5eTG9NeQRv6MqG8DoBSoD4MA6N1czMflVcxFYz24FwT0ii9kjngEc5zoNmM0oNWOT6fcRlicGx4iPqb5Z5o5raf6GjaOepAIahr7b01LKuwugBtIGECZi8/aFSI+5dPR0vSeMwkGqxtaaqcNmVfyiX8zwasIXJlqChoYk8TysjUZKDS7FrdNGFuVzT9xTHxV5P08ZIx0c9Z0V0Dt128kfy4PMLoDdCI2IMG30x9aIuYD2Bm8a6a/01FM9IyubmVKnc49sPhbWU6A/8D1NVVa6VJy3dJaiGKA67EbtSgmpnlGolekcBWC72knHle1e1DjzvbLwQxoMWfAZfGwnbop9nzAMzxYwP0jYPuAYJGBINkjCzUY3XMdYbd6bjaXsTyNgjX41zWlvZdgW2sHqO+cVGMmXaKNmsLk7kDiEctlu81B1jN/ZtXPw5kTqygVL4ibDZ94mQ2FqGmcXv8J4l+tpDWjsEDL2VTbqP/l3EA1NVJGYUkFOpO9kl+cka7zHpBQmd5sX4myDtIl8Fx2IDhjfvP5hbFx8K7bXbkJCZfHok7F08gv4b0RXeX9iYpPewPSPEZ1GjAPT2hCRk+Dw3fd/Gtt3rsb+F79LbAuHRtiYjKJVAXHr+b4VHTt9H4tG0Hqg9hw6kW6nVUQh4ixe91gFi5EoDqH2HT3kwAIIXphVtjfiSUnYDuPsLsS90uNGZkpPfpf3FOOf8bQQn9HYcH8eQyikvAlg38oRSkW9P+3MPBmHBqijhQiS4FAI84vcPcBqGReotShBJRU4oAFpJpBcDzpzQyWGPthmlOfd55n/66JC9dRJUyx//4HL/vdtkKoexEONL9dhbP1qiS/IuPBkCqxWuGxKQJX3JTlaFtw4jcSx7L17cpZDeoeRQ04TMoLkD7V2CDbNegIINxMjDWMTLMVPEAXhyY0zMYJr0UsjSrpB0icCDcJJD4BipEM299kN+CDSpO7HYRO81LZ2JAYb2h2cuYjNO1fj7js/ivl9h2Px0KnYXrsVm7cuxcqpF2L+0KOxde392LrJoY6Lhx+LxSOnY+PK72L79uWYW94fO+u3acROPou12bzyHn4WS/ti+/al2Nlci/1f/M+xtXojNq68GzsbazG/51AsHnsSBmrj4tlYWDmAtV5+9IvaC2N8FzkIpCp0EF6rCQwGBsn7YRBhKprGUYcz4fuc0ODpbAS7BSbXcCqic/9gBaPTbrjA6Yl2DF6pZayKrrEPpzlLtLOKLt03iLS+GQNgaQlIo1FbGYgwSKZSKsHXqK529rAzq0sg/6beRDWbUwh3kywAACAASURBVBu773PrcFydhD4ip+GU01Kmwyq1Ino5M2QNabiUTgLjdbdEDTtN+ZFPGCE5betfDw0wdZ+5wITCGImwGgbisdsenIHBG3ble40GsudDCocNSvnYhmM3TgrTr/yJ81v1ApVRawCqS7LNe+eNzEdsrrFKB+6PZWvzR20DFZHPmIxSVIS+eOT8PUdEGboXIsCKniM8rFU+94BaX6CyKiLYUxtMPdAvZ3Iaq3KAUAbpHJsbuTnXP/pVbFz9IPY8+Scxt7QSO+urmPU2t7gXRmL9/Z/GwoHjsbO5Edvrt2PlzEuxef1cbFz9XSzsPQKDvHXnWiydei7mV/bH3Q9/HvNLe2JuaW9spdGaX4i9z/6HuPvha7GzdisWDj0am9fOxeLhR2P+8Km4+/YPGL4vLsfe5/+ySr7Dg4+/Fy9lenJsgaulADHSDGvjgjXPKEvl/ZFQnhNHtEdHMCO/tZzEm/tqVrMsb7sdQkNz/fMx2lSa3nxPB28KU0Okym4G9zjOLdIIods/97dVELDXWfFlJCQCb3F/5jiIs28sL/Mo3FHnj6whcf06J2fVAthttEeRkV3p2c4W7yDTLlfgtQDYl8BXXZE2Zymj7oQmMkNiBI6U7WEE2vqUDa9ypI0ELwfd+yklAgCFg+WgDZQGiZWDyYNIK4VmQoG+NAJKz9zRL04MOErImHpDoYZBhTXGh5jitajFkGOTLVENIz+3tR07C4vCSKlmCO/cCaBNU/tVhqcF4Hcl7uOJvNL4Jlmy22gyaFQa6DwmDhWNb2UF1T8nQ4lN7TlxHDzZ/0GVB3jDQqx/8BqipL1P/kmsXzgbm7c+jrnNzYi9BxHJbN34OBYPPYaK6MaV92P51AuxffdGbF0/FytP/SlaYlbP/kMsHDgZcysHYvPi2dj35e8Cw1j93U8i1m7GytN/FmvvfD/m9x6L+b2HYuvWRdzO8qnnYu3dV2Lp5DOxdPJZEUp3oQGYWT9FflSsDSxQm3wICBqXQ6oup+hUbcQg4X2oRchFmkkjqSqYWnW0rSY+ArPnwQujFtbkUIK5rcKnXjTsy00RYLMCm+9yGVCFxx/B6Eiqxpy4ipSrMAGzSEAaiqzS3kI6LsBb+KbTsiJ2Ysu28e1920oRwXWd/N7kDHF9uSItes0gJKWC/O9i+Scs4HPss2lqiQoyec7urD8gMXKYsuHIDAwS7kWNfjb/5pAgaioAO39RISfAra5zWyF5Y2NrsfPlaeII+3hYESCQrEF+lQNPlpSZapMx6+uSeElBtNa8ypdH7N1lWbJS+YcNmXjxIj0iRMkIJtUfiaS0NEDsbf8eK1diqmMj5EsTd8ob2jhQRXs+TcRoSMMHO0nej8MkWTkx7pTRNDGWzWsfxvq5n8MgLOw/Gtur12P90jsxv/8YDuTWjY9i8egTzBY2V2Pp6FP4nfz3lc99Ewfkzht/H4v7j8fc3iNIwfZ+7ptY9/UPX4/tjdXY89Sfxtp7r8T8yoGYP/QIvmN+eW8s7D8Rq+/9KFYe/VIsHn9KoOeYdegqYSPRSpWijK3sqgypCi42//R3OU3D/jUOOGJMGmbEiHR4JWJmknWtfcc90gNVbo/Q9mFUg8jWrQliaAPozZvKQo6AeNAdPH6nOSpmIE222ThR4TxIodLAdfhRp1MElnSlqoqWdHaB9Qj64POxdcldD9bwom1Rm4h+pxk5lE7KWLWsglgSW89FVwDGOxd3VtcfkKmdrSMdqO377+dQkbzWyYQKwIbREAJfkYn0jyMyvWG0Q+iA42dKjpZWrtJAkqpa3s8ft6ZTWmM9bLdRvKHa1JBO4BxGLavZ0s1Wqgno1m0h3mvantj28MBuLtXkD1SglDIoIvI9s8FSus82eiYG2sMjzyBoPMmS1qggadAQF9GGENjc95NhlTJS21qL9XO/jK1biQkxTUvcavn0V3Aw1j94VXIv2/z3My/F+oU3YuvaR7H3899ECnvnt38fiwdPxtKJL8Ta735McHphObbv3sJ/73vuL2Pj/G9i6+bHMbe8L3Y278bSyc8Dg1p95wex/PiLsXz8mRFEWefXrG8LwQ8NRL1zDVYYr9+JSOoxzYOL2E4oChvrUSPMICyrYxSPBT/EjWj0hp1nZWyEURVQrVI+ZE9yXp8MxtwcpY8JHmc5Xg4XLVEcKumCQClaIhPJ756P7a27qF5RQllgtTAc3qIAaRvpolxo/iDOnTMJR1St6ZgwrIY2qOiBZcrz5Q4DcJxkNA2T4BdV6hedghwnkmGJN6WJfogxSH3riDITzbPzTbTmT3b+yhlsb8QCqjn1tlnyVwmWTR3yQuLMkOFryQOP9yUFwAYI26AiAl1cqD7CY1SNOiwCOTb5F8BYOg/aFpzgNF+NlAWy8rboihmrCznKJw0C+T8Cl1Fx4AgmRk2aINHpMMHgqQkX3wFAn021TlGxgbRYJDrS8Cg+a9NWh4Ls2hgO5yFhospYvvIEorduX435pX2xcORRkj1zmVZvx9a1DxEpLh47E3NLe2Lr+vnYXrsWi0efRul449LbMb+8D4D31uo1YETzew/TuG1uxMIjX8B6b17/KHbu3oiFA4/EwoETsb2+FptX34+FQ4/Ewr6jOusDnXBUe3Sv47lTRwtpKg1DI0EBNaVqA8UA2yK3SszEg1C+bvuEUcD0nyTyEVj3kMTJz3CPsqeR6VBWH4Pl+bxiYlJZuXVfJMLT7FtsXDZAGigUsoUHfWFIxRLaWMQ03ZLuScczn+0ci7p/9oiOCGDyPvCMxEar8qXeNEyDVoWUWU1eh84XDg6zEaVYKohFjVnmebd2k9KyV1eGRRQr5iS8kXv1Uyn7lzeZeB+OHPwqCVjzjCntQDe90wtFPMJadPIUbhsUV3uBo5RaUOtPt34cv4QicJXHY4hcbHE1xdLw6cCrAuJBA3UvvXqksIdGf6PlxTWMceGfVMUw6XJMggIGKTECKg705McJLK0va+ezA1PInjxiR4zA8lIsyyfIXTwmSE7ysFosjwAo09eWjAjGxYXEfi4ukdYHDsNcE5PzaEycHbXKKit+u7WOIL2H4e6YvVPnP4XWmAqjhWcyI2L0XEbNw0aHBmIn5rf0/k2HGCRiZUTc8tQ5rP5qLTIalu3piBxJuHJMsUHieZlGARBGlLHF9N9VVhz6jJ4JkIv2zDYkMPwZS/SN5WzPYvM1xzqpZQR7MceJKdIGHyivn/tUFWMi1XTqivRogA05KFCAYVPamK9aDdV0oN3LAGyRBtXwhqkj/H1Eg7mfcC1rgbGws7M1F3fWH0Lkf5iywchW5EOgDn/VQ9qvN6XEHmOSuFkZBj4I0jXsbpfaJbnQ6RM1CQYuJjganYYRT6m7p2UYnTOnh1FkwwiEURQzpaZF46iJm9GLr1RQXk6nmkYlvw84APuksCFx/c6rY8MaQPR8NmFJMhD1irGQ9Na1Ccu49pIjXaXR1R5dqzXpSs4UihUqHHRjzScPHKtdxNtmsJa3t3Wwduk6d8Wsw+iGfqswDjzjIBaRA6tG5SlDpX8whpeHblSPiefGvVezOvOpgEjzPPszXX+e4mimYzpkqIDpWVAMyTHqghdKg1337bQsIyU5CKRrqKh5FyiyAObSuGGMasSYVo8fnYudhLh0ThwqdvFhlcggbkV4jqexSBCPjsKBg2AQ/I/hkEVOWja2q2d32shHEJCvUWggC/NwqtROrthDyY8MQW3vj6FBgo2t8UHZPLkTO2BcCwCEwFqvC8RFolwnx0fTICmCEqYyoXmtEJJgtDzTgPJvDkoF3XXIGokOFALwJPrOZ1UIBWo70vGYb3yjmcg1L0xJp2Vvcw1Q6WrNsn4PBAcztWgtK7mhMQcdDY0M1WFTxNBlpW9AD4AhpzTKFC1BTblWxuQu0GZ1damuNxlyOJ0lu3Y6YWEEoJlzs9o+FLUVQDo0JkXgZErA/Tl5H+yPJriLliL1APaXQqIvTSYs2QwQm8Q9OrixFAymH1XQLO/vpp7IPew+w3SEHqNdeIIiHlRO81rGaxClkInvPxzJlHvPo67p+Nx05NTJ+5ObYiciKRqAXZdK2sZAN4yVOUAItER87AtHOja4nIwD7b8wYNAL8hsIYdCBi9ycK1jCitJ3wTUUqQL34rXYAaE1w/sjWRJE4o4FsbO1E3fWNh4M1J5lkPrSP7yFI4TCQrJVoVn4xBx2ksfiPSj+hMlrzkcF8qjRT42Bli8VT8m9ceCU4IK9sZEH8dsXgEYdHO0KlVOB03RGuwAwGJ8mWO5Ib2d7nfPl4ZHzgGJLVxmZ74OGkthzd18GAdPgGl/Cr2flJQ1Ygp0SCEF1gxKqU4L38PrZPtB7dKZPwFLMTDcjPu9zk1K6LHe7DN0ZgsRQ3E5jHHBgTPxcZTG7n9e6on1iNt5DfMWMbpuIYS5mY7Ob/lG2MLD7vDvnE3dscf7EjZhtjpskc2tczvZFDFCjvI/0d4upsapWIBQu7sHhZcbvFC1xRx3erHgp+per4f1mZuXOfKeSiqwRbcM5mzFPowAnAynj9EWNGlOm1rgNGmqtjtoxplEAEg3HiqAZJSW+BTvhNtq8YkfilLRLI5zmMwmuANxC3IzMfk2p9RlAiMo2EuK4eQZTaSO5UguxDYP0gFW2+zFIBgR50NjUWb014tdwCoSFycwZMc1cqU6Fioru8ED02KVX07GyR9soyjMpNeQJIijY5frJ4XGdBMalxhP1LQs6vE4jer1mnyMvdj+9BGxhTe3FOWjpInGFNimU1IWiqAmTknl2mGyPh42uCKrY2XCZggM6YS2M8Db3p/VHUdRNhk4Cd608O5D5ULprsbV+rt508COgf5cuf0Zr4xENrgfeleWNp1M5NgzrgMKwTxsZ/AuqPjIBo3QCkRqTM1dOQ06VN8KKZ65h6kNZCNAFhQSSk2DqNiVHV9D9UoNrXiOLHehJZGTMgpYjCEUXqoRx/9nQ8F7ca8loixw+prs0CGTHKtJMFjQ0v9jl7yZrrLnA6Ik40XiiDRE+Y6oBnSzaQPJZEdWQ7kDYxIZO7TkwplS1wM5Vky0ZDrn3qTsOo1q9gfmqt2L17qeEIfURkr0MvbZbQijdwZtSya+8p72g8+58UVKWdCjvHhgYDkce3fQSVJIyTB0cItHTCw8YVE+YegykPWDhyU1qWacBYJX1VQKdmDaqlIgREY2XIwkapMHI6S6nZhqhWqOMS71U4Tg+pJD0cPXR6YcHXWqDknRKRjhTPh3cqjr6/iRGJ+yh2Ldm3A4OMP2J+gFncYWwno5oxiMResn8I/yp/1gZfBmlmXIiTSzfkfTQMNKTM1Ub1yxi9OqRPeR26YjDIG5yZHsytdVygehhcYkRkbAWGJs0VrmO+Z6FZ7JK5vL9HCJPnFaQbDXJBEZE4nrqO8NySKbG1VfcmSp7MEYdV4hAutIrKUSwxKJIuSKvxLc0AFLrXJ0QNmyWmhW/qvGKxMVTSudUtEnLGBmyoVKmpgqxeXKKCbQ/ZRPm5mJra/vBeUj3EyExvCWoa48/0Qemg9gqC8aYmqD+tNKf8lexpbH4ZqJ6sdX7tmvKZr0XNduygVOERuBXNArusePAX6Zs2Ih1OGTIINKffWiqOuWnLF0rhQHn0pVzF2AqzysOSzWHirfl1JfGbZBS5RpjDpzUHB2iy+ui1CwKgjG20sbGZpdaX8n+smmWmFviWi29vHTpMvL6o0eOqEStNoUxW2NBNmAnXM/x6Mls2pYm+3PcM5T23dkR2KrUpq4FpyGwX6Orht9V/ZOKIseQI7DZUYwiBw1kQawDsTlEKo5iFvaw0yD3DCgsuXdYxMCe19pxSnHjmrE1SDgKcEc75y2kahNpDIo5CxMKnKyMCdvBdyhS38osg0+N+wQGyxYOYnLaQYWxIlwUYVftJuYGuspZOKWiHniz1hsJeERwg+QBWLhZlKpFQR7c25DjwaO7aqeIGDSXxJWlwqHzePvOg6ZsSYxclH7LYK+Z30HH13VeV1inX1CO2bSk3buz3CqIkgDpjYu5Su4vQ8WhVB7zpTBMnRCAE7HNaZ5CNBkXRTDJC1pK5N/9NnwBuTHcB5S/z80rT0swoHhGDEP8b5RAQalbBo6lbTW8Qg6iKzAAl0jcaLlAfWyu/AwA0Ezr+DN7ZB8AnFOH9l3EYo0b4kg7ceHS5fjhD34UL7/8cpx58gyuc/vWrfj+93+A1/Wf/uo/IQLYKj0g4gh5El758StxYP+BePHFFxzDgeGLfSB3ByOiQzNRDRxYIzgSp8N9hGV7y4dWhNpjI60o4woPcTlDv1NfxHXrKA3ykzI8dJamSGC9t9ZZqNB7zKhofmmlhOHmF/d0aRYxIh96p852vEwSvd/1TB6U4KkrMjRwOMKiaFVIW8DeUTc9+T8pDyvSpKI1miPJCGsqTPVmArrisAriWOKzKcod7k+8Pqy95GWtH5+/2zk4ZtkCpPPB4RhZcOC9c5ZhFrJSWqfoNFgSGVDQXKhewWSVfx7OIOlLhsMOmkHSkEd9CVsd1L9Fc0sMyCBfdtpC5KkZujygZHW3dg2EfJ7V5ZK9oiPnpr00CRdIDbvOcwVkT+AfEpjieqkR0RFHktGI8tFIIS/uS+wMk22oEEYbdFfoK+hFqYO+o+NfkUTpqSaTvA720VkITcbHxiy/S9NdsYmg4NdFmdjb3Kwff/xx/OP//Kc4ffp0fPPb38Zzvn32bLz6s9diz96V+Ovv/q9x+fLV+N37H+Kt7d+3N26vrsaXXnwxfvazV+PAgf3x4osvxo2bN+Ldd96N9fWNOHL0cDzzzDOxtMQ0toGVu0zesOzIaPVOXtS4kvA2mxraCa2VnndghuqvKHA4sumitMoG1a4DQTJMVZHHzoaGpb0V3fWKDgRhTcEgmZA4WJsAQ/yuG7aAoIQcqybDoYEN+H3tpTSGcKYiG8Kc9TrWMmo2dCINA4+EJIkwG5wr/a5TdVoaScKohK+UuY2WbzgtiaV6h3pG4y2sMkt9EueTxmpeZE9H9XYaZDEpOKlqGx0dQztFTEjZdmJ1de3BqmzHD++P+UWxPwe7Ade3U+i8HyeHdrKibp6cALUnjViVT3UdU83Z4CphftHRi2cjnz6hi1PKdu51Y0LW63zDc+Y9SVkPh8shjCqDsBm61nafihhnKJ6NDZoaa6UG6TSWXjUNzDLZ1xlkucSrg5HpQGEZ2xkByBN7ogNaA2gk4R+rh8/VQLUPwPXwAKdB+ud//j4ivv/4H/9D7NmzEj/5yc/i8qUrMb84F3/xnW/FK6/8FAzfxx99ND48dz6uXL0a/+V//5t4/bXXY/+B/fHCF1+If/gf/zMOHjwQR48ejTfffCs+//ln4oUvPq+dMJyEOrlBqL0jZckpMWsd7BTvms9GzBlVNTwzQdF8D10iyy9zm5KdS2+MREIEBpcVUoVMZCKngdHkGRBKRb1QxEK2f0YyxmCylL9eTtMle2BJnfRLvhvgh4iuFCt42ETJxRLHQyncrRTCMEEpSFIkCJWiB/ie8O7t3HnIUXE1JKCGX7cX8Xy2gpB1omDUynmqf86iiDoJWFt3TqhVhBhWqhAIO4PIoSkAeh0+6wDYPXmHFWc4+O3NmM/3jWguFSMfFNQ+ciCWe43sbs+hNOlw0C/Y+auANu4ZMZq1WawjYyE2cppaJciG1Jbf31PciYo21C+jcUcFxmlzKjjCPYKtbCVFRD/ZzpGyHurrUQUOusEKKq2oSA5Fn5JKpaAOARcF43isa9xjKdY1MgdICo/ETsRYVipKKoEC2iJTqu2iQM8CSbixDXbCe7KZ+MKFS/Hqq6/FytJy7Nm7J77whc/HL3/xSxyAmzdvxMsvfRUG6T9/969iZXkp3nrr3Xj11dfjr//mf5NBOhAnjx+Jf/n+j+PJp87E/v374qNz52NpeSW+8Y2vxfIS9aRmyb66NWaCe1ahD5qoBJMYexnGPpLgFWEWK+KxWJKkadUwKR/IiezsbEDREqmiYQYPnjDgnQcQmliWVTXNw/KrEluTVDEcBkBsY3hMcyjfIdwx18PgPbCnHFxJPhV5Qoxkqru/EuLm/ID7IcrP32Ek5+ETLq8zaseCkB7gMFApVDWUY88Ls6nKWBelqIOCl7K8sXhb+QUS9ncBgZGhKSmkFrhqi3vqCypK4yYwQQD5VhXNXrytuP3AZf8jB2JxcUyZTw8mfkPfEAruRvVcecgdLTo9nKYkVDkyX0gTG28Ri2n1LtD7t9WyIPyjr7QxsnI51C9MHBxLf8B4aDBkbXR2nu/EYszDQrqBVQzrrlSPeApAdmv7sLc2oDllwNwoqibbJvGgKpb6sZgmMBRylMV0hGG1caXibynlZCgiFYH5hfj44wvx6ms/j2effTZ+9tOfxenTj8fefXvj7tpaXLx4KV5++Svx45+8Gt/59jfj0OHD8eYbZ+MXv/hl/PV3/ypef/2Xsf/AwTh16kR873vfjyeffCIOHToQ167diKNHj8TnnnkKYXZPzJwwJy7twiOYB9R7MqXxRaadBCf5+Gq2RgjURdvG7bBAYh67RSH5Vq6M+f0qpCIwnDhfRqPSFHI6ghRIUaZSOZao1c6Bypk0rGsajsr6RdIktoOYKB24XnD1e8nh9XgRuXHaX3l/4p4RN9LfXY3FpJaNyjzIwWNUWVLJNZ5JDeRA741XsaoLB6YuApbwHcL6/ZhywsETtY8RCGkWH7aa2p688WVo2S4ymdLyPPcwjmzBznbcvr36YClbTh0ZM0gOnZnjN91shnrEWEoAsIT62dvWSxDUNq1k37lmR7ZSzxTZzrTmTnGoXtf1VNXB74yoZV81zrulYwaIFW5i02To3tVnxAh2t74+qTFGko3oT6M3dMewNuHRzY0IexUGMlVUubsiu96g6+I2UqgSUhuoyHw1MUJtEHNzcf6jj+K1138Rf/qNrwMTunXrdnz9ay/HBx+eg7H6j3/5H+LHP/5JrN1ZjUOHD8W16zfixvUb8Td//Vfx+s9/HQcOHIgXnn82fvijn8TGxgYipKtXr8WXv/xiPP7YqUaAHDaZSf6XRmSsLKcIsCbFDFI1nw9JjmCmH5yDurzAedG8NqQAbsnR1jAmCEMmqAFANYcXYriDsDZy09To7Cqkm6N90M147lI6ps8m4LbKKRuus2NBAn3AQJugP+GTRntAjIgCBz9HXIvSyYVVSdYYVUh8Tk3g5iNJz9ul/Wr90J6a0PTKswGDJO1vR+fZEpSpFDSMWG2TxpsPhooJInwaS7Lj77AvYkhSUjVuJIC9/kdZ1PbWdty+84AY0qyyfzMkIlNNVNnyp24BQTlDoJYba6WU52kjsNJK2brUCIZLKRX5TZbn6Kp+yXTuDZQOOEJjpDKslrnBtLAqgDlbkcp8Nj/gKKEz32xs2wqiPiZ+CfHWEshLqYRMY+dO/kwJdQD9NhAmm7mqcrDugIar6WO7qZR9UfJwOgw2YqX9XT1SXJubt27E+Y8+jieePBN37qzG5UuX4+knT8f5jz+O27dux/Nf/GKsrt6Jt95+NxbmF2mUrl6L55/9fHx0/uNYXpqPU6cejbvr6/Huu+8BfHz88cfi+NH90A1Hq0ViW5awcERnj8+SWNsmNiiOfCCIzwi2KkL6O7lEbC5NS5RKl8YfWF5XLyMCALKDAVQjIMurzjMdU86OWXlGCXVflAJmqsQKqagNknilv/D7aDw1pizWilfKKqfVV5fodKXsAGb0OnhpjvHBVzKpsTKGrm0H965PpxGR7DIrwZqmbLneIuX6rCVArRYmFIWEIxXXzMRGFlwAoUjQjWiFaAvq1WOvZjcXEcc1he4yGmTRh5W+vJ5Gh810Rs1757l88AhpIPLfBwPl2fPGS5g/S6uy8n060W9QlU8d8tP5W//FxkZeqMdkDApVyV2hoy0+dhE7jJ36FMZhOkCZaTHKh8RKhMVJkOwOkyo4BDr5spl20qgxBJ4cpkn8INdlkhxJ3KhV6iq8teAcno2HxRUh8liU7pYOj1I6b3w32PZs2MIPdOj1WW90rxUONegG2TuXVAx3i1tWRfIeiX2lDK4bh4GpJGmQnpWvxdyuKqk0uwSDm9ENSagKVbpIWuuS+uXq/yoOTBdZAPezJIb59rgeUzFGKfn9omKIE8T7a31WdHaiE8r4URGFuCLIv3oml8Z9z2VrMQElA5xcg54mQidSIDyiCQPRGnYhDNHA8wQNpCvuEDtS5mC+lNNYzT30q2XwYcKtWNXqCxVYUhEZ8SU3xnsIJO+aToL70FpilErJ37GGEKO97k3vEhVPWQ4ECp+6QaLzlvyDyrQUFZfnUtXHoWwZMZX0220qdfGb1qFl+OpIRRrGXZOuQ9RmeGjIHDXVL4M7QcNh8Lttxr4XjkatVBirOirw0JwLRWJkfSsiNMscUQPTS0Rd2CUtxXLKivoftJubpIietI2LqehJeInlH5BaigwHo+gRSMJWsNFUAUktY3BhdBhhVBWVOmIoadc2oICgpUaGW+xLRDq8Y0STlMhI0X8UBICBZTojI1rRsTWgBOLLuSD90cgnPLsMKw1/AUB1/icmwxb7mcMjPNqqVbek/WNWu7k+Km17mi1MKN6TFUcpnUEeWgfcyxmpN8K7UpGe1h2hbP4+02f+yfWY7vHzUbZaBj/tySXqJ0uDl/sKU2NxcfGQct/0h5yRDlNCybvk5xHtq4m8q4AR4pL4X/5eVgUdZaP9Rcx6VRtNHzaaa6B7VlI+bX4+NYN0MBYXdvlapxl9qoWX20lUeGCfow6UYzNdkkC+DBnPj74LwJhBbR1TsVOpRc3PWWKzNyDEsAZd6wI7q6qm32VlYLKdAd4XHfiTCgEs1XJKA0cgKRFQqheLK8Xn4HwttSjYQJYhZZ5tT+Y0slcTGK44jJc3nCJMKvcRU5mbT8kLVaKajyMmJlEv4m6ODGEt4bXxLnCOcuPOxRa+R5EOvsuSFL2Wchohhu14ZyDxqarTjX9ymdUBVgAAIABJREFUmw65aMIWfc2MVjJl9nuVGBgMdDoPc67qXqymqbYLgH16R3I2lYble0LKb/a4Hd488BLESqkVjWdNYyFyvP6D12kpF95RddOraFJgOAd/2v7ra+myML2YAoF0UJ760aRRKNBmJ9H2lGEKOnylWRXpa+y101dF7GSgyynbOJakiGy8FU0BWzgKIsaGX0GJnkMOdiO93o/R2e0zDxkh3dsgMZyd5B2B59FxS8y6lhVROdRkLOa+ABmNPRmc1lhfhqLMq1svDg0SDm8RKkXYg0GZJOw595dvKP/lMLe54abNzRfUetQILE4qBrI/LtsCcuS3yp9uQVEHP7SMUfIkKMl7bq+r8CP3Nimnd7hczZLAajTIEqE55NfR/Y9raM6a+UhUB8w0mlFfyXuo2pdRDtoRNNGU9+UNmX9LsDUNTx7ClL2wZAYD9TQ486n+l+RZYw7moEBlgEYSKSwwok4rx2/b1S41cDJVUPuMwHF4b3fVAzfK/WXtKxU5XHUrEbF8lG5wpdJhgstyaMaQsLfUG6mqZlbkQMwVsO4KHgyOohBGWclRSr6SyIoqtDDNFrI00VbFtaPCgomLbLtIhQy53yZjY/4UnKgUMk3QzOfLe4BK5Q5bOtAyp6mzqihziKun4UgqxDPWYMy9HpPKnp/U6PyeDFIDwSa/wGQ9iZMpZnCVrbgNCpE5QtuGZXAqFcF0gIOqdSo9KlHFwlZUo2xX5eUWIXs45KCdBWRIGgz3C7l1AD1i8nIt8pqswjFPF6EPXq9ZFKaBDptdTekNziS+5c3d83iKNyXPVZIQwgl4npQCMk9SSjG5rsXHQmQ67PYWo1mLxebaFlnl3yGNgfWW4p9TcXtPA8I+PJvZwkO8Bv1decWsaOZ6o3LEFB48MDVw4j2LVGdlwaI1iMxXzdOqkE2k5Zmu9Uz/vF6xmY1nEU+xGiOMIVLTxpC2wXSxE1GOnEgrdkiWuIuIWdVSRG+sFGuW/5jGU5IhdmhqZmYW2o2admuFXr4NnTWR2MGvMyDHZ8fmShxbSQQyl9OYHGRBoMvnoWUhPEvTxkg28Pdpjx4WQ8oIacwgKb/vXp65NRBnswxFVQv69Ms9YWo0VBqB11uz3WS4Ot0fg8hMpxxdKfLoy8wiyGGhe7Rf4W6bSS5gGBNA2hQSGiSNldHAvv7NUFJCTHNr7Xg5em6UIb8+/1KLSlMcIE2idI9w7+KH8HS09DSxCBgk6UxZKlaG0MB6XVtpXslaqJROw5lVKXrlYoGr4tIO6XZVHUHjQPVQuY1JhxNpjNKOjp5BrpAjmbxyvnMxuB0F00vVQVW5RrehNZD3Jw7WKTyIcIgDJyOAFLzSTENRQmwq2iDm41J8qVji5zQAZXAKmjY2Q+Y/IZ3JCbB0IgKKu5/xYiqG5Ppv5ZTjrLR1c/icTis6rgKIeShaxzIWGvBoJ1Az2ibUSo2DWQfr92pjHujinyBlUxlx5OuQNKQgfhcmV4TkiMMcozIOOzG/vcNZ886NEVrSqxS87Q1T+bc4TE4DLAXhzuW+58zNgT2pCFUxESJdqSvoVDo1DpjRU9ZATTs/2BZJP/A+U7hdh6YzfkjR+pls4FJ1xkWVE/yLwESnShNNkOJg1dIjMkoTQuKaUwI2yLjmQS0fRjpN86e0dPIhEPq392Y5YNyDhcD6w5bHDCoJmnSaQHqC2pkGoPs9Nb/JRoZHN44hY0t5X5FWcwkhGp9DOtdpjsyGl8IiwdOMojJyZUrOabQCwTvdJYL77gyRt3e1LX8XURsuwvXolUv1744yaLzpgIk3NnGxtv2JEFoEX13RTds632cqQnQ4ar17RNleB2YWFthHyobhoDkYQPiqKlpsUm7jrZmCs68MVW11Hfg7PSTC7OoHshSf0Yd/LwYJpWJsHnm+fBiMnSZ3oVK0NBC1yHibLKJ0aVKxkb0gZoF7OmylS/amDd9hUbwj2ZkZ20mMgJO0mTpFbvwta1QNkQ18bKE7MBSJ8TPjFKANA0fZDE/9qFvH9/cES6v46cBYRMy2zAYlqzs+EgPjaVAalH41b7JAC8uuh8mlpUHqBb/qc2pjMf+kAFenzODMGChX9GTwGEaM8+moMSHVBoCkEkZTSl09VABNVT+XPEthgT7UoiooXGnRNbCrrDCpxUfGo/j+MOqcVLuTQvaIkgUeY12YoqAy5yi0wouuSVaGlxG19qQ+Z75S/mA7243mNDnElWXgeIyK+GUW5Nf6WLnBdXmzufuij9aHGQBTSsrRiiBrblt+Uy9xA2Obn2cbjCEHl1uG++IzsjP3/TW/B4MkWi2qNV0UBVCvCxFFdOtZo9jMEHOR2iFDBXkZhykEsUv8zKkdIql+1JElFAbsYPenDatlhEx4iL1BOy0ZHlZuZWacUtCbyLf5c0Yr3IioTHVDCXQa9HON2VHoTo5Ml8s5LCRi2u7Nr1ea44R2PLGDfVGsiHUzuLqDQZazq02M+kx3wJ2LP0XcRJUip1kWqC8ipwh5qqLltN9S8sTvGpugASBckmvc0qMqo+PdMMrzxOPGaCEYzeZcFhGwInnvOpBcIpL1CgTHvxHH438ydcOTjfTd1ZKDVJnyrhnp8b26ZaLwFay7pqkgWmSrE51xXakr7nBvObIml8jv1tpD1tKmQ/G75BoRL7SfAUbkCTV4Po1ul0Bcj0Xet0X4V/7gwxskHP5Jin49ixdadHccUvfZdBESX0x/AK1D06aMEAMYauKQ5wOv4eY+vZDeI3im2WTEJawKOXVbfYpxTetVG6Min8VGSY4P3kuVigmGLTdjaVkXYa1rgO1fvIZJqk7TPCq4KyTMMfqhsW+RjB5BXeLcse0gFKcFzbb8wwiBqRlH6uTRcROzVDutmYzIj2uCKSy+trG66vEyTpQOJSd+KBmqAydGL0YYdbrkiizrukjtOL2UrTDstjfu57ib1ASlZNWkbXDcL1UDFWlKOhPhicMeoiDjVJpaKsbIcKQRohwz146YmcmRdiBaabPnmYu2yifSTNFIhEfhXcmJoCKWEIerxSa05ny0HPyIaDDXhQ6bLS9ustWQSZwDvy9SBiZoL//KhuZ+v/6TGSS8mc4TeIPhMHp4o8h2OLiikMPhqBnVs6gUXGAOGqIUP0IbkFiVIkuDduVblpBZYvUvu/2AnlFpUQHqI1rRJYTeLBX2vljKtanarWnjmbk6IKUW+Ky+IFSd2mABUwcqMrMB0PXpPMlRYY+TOtURuhPHIL7j2fQkLaLsryGYDHhaJYVlduid1FjkIjr6/RSZjgqSnD6SjaaKUHAfFgnLg+HKnhpUAeK3iTNzKfWBqM3NtyoOYFyR8CBEJDI0biTtIiziku7pGtQlsF6MTGu4YWe08FNHfUpkpZUo4Jz7EQx7VQnhgBBFMRmkQRKp1QJmghdYfOAnqldT6J05dBUzSQ4E1UWIkyVrX8THwjCdOiqKFK+ImJNJjhQA5CCBJuaGZ03jlmn0Ug4c+MP68/AGCUTE/DMdJbXm2vYZjqi5V8rWpVnYjMaUKp/iV8pTT5IUjQmo/UA2bQ6iV+Rl1J8usukrbjR4TlP68MkpmPgYXVTnxmjO40o5TvU/TaQ7CtPr4PQTHASSK1xjhccHrIX+jcFbKk3VkAxsgcehUgVegikQNq4Z3IULmUDKL2zBFb07G5R1M7Ve9PIk2Sm1sqdH6pSRnIS7nN5WaTsjC2l4q9vcuUelFiYCqu2mIlh8P4XQJkZAFabjNEhz5rq1NDZVYDTOtBjO1ZrTVo/9k1xLV9YKBBau1EDh4ijnPGAaxK4hFiB24aFOXRUJWTwftAg+m/lhXLqm5OBv8Y5k4cE9c87km1qG09psjP1D+/PwBqm8wtAg0fvSBZtcJWOBtKMnJgpvaiutdEXVFrwZsXkXliTCTkuTFSU0cxZG0Q5qn6JNyH/aSOCsWmRLaZiFs7Q56FENaMoOogtbU1Pre8t1Vk3LjcMIsxXfdzFXb1PVTiD+iuVWcOgdhbi3qtNu8pFJgTGkc8TqqgeuNJMVLMIWe3ig841cR+IkxnC4kTt8TkA2J5UY7ug4TyCgSthLh2harZN8HRAtYe8Vb8DYdXPCrAsul9D8kWKMSnW6IyYOmDE0YnUTvRPNByFqV+uDDB9xNFXPOq2uxty3U3RKqxFVGH9tSgjrmNohiIvYKaBpI0jDnO55r5iZ7Ypon2UYkEdpgZc1fumpINp7+PkA0KZDkJMZmcDyb91APbxBAg8JW6FSpP7tM4JVmVYVDYbkHbfHOinFnnZvmL1Jq1QQa9KLE6eIAmtdKwdwjggAq/2+dUTlkLi0gL2VOsMjuREaVOM1EqFSClakPasKDt+yvCzTrExVW8vMEGis7YyooxnVvjTbl98LGNZ6ME1No0WvjhUzl6fCLaaMSLMKdPe9pYdmNASMzLPnBJAi1RKATF0pi5CpdC7NFKReeU/gIik9zn9Dy42Z9JrQmxrP+rca2tix+rEKmXbICpphzELG9JEiN0dcrCkVSkabNLywgs3RmD0dWxAGw0/REO4eQ3PtuO+KHKl2G7TXqLO9GSSpSZQypPBEOxlFmLgLd907vZMGdcqrlLN1DmjJGz2B0zSmmpQ33sE0WHUI/AFGRwg/Hq65NomRTee6A3xqt5isx00gQTbEC33aNt2/VnPQO0PTrt9wIGyVjiCJDSMGMLGKPuXSGJyBHhFuFrhRV/IvoLV1t7e0ThW2DrCeYIibA8UzwJQz8RNFAxOHWVGO7PZE1FTGyIa0M/lMxTi22JNVfWDNheJapGHIQ5iAqKLKpF5gphj5UBhnvLy3QNriPFVzsDCM9dv8bOJ9ZtjjO7qG46ygYc2zLUXFifwM9slO7KzfiY0Lb8b80r5YOvkFYEc7q9diZ+1mLB5/qvg5MEab67H29r/E0iPPxsLhxxUl0PEAY1y/w/tZWIqtmxdiZ+NuLBx6lCoK/Tvgqqoyl+keu9JbhVEviuCQthnT3tKTxs/ssEgbcMWVfYRMcT1CicWCNsq7KpXGuPAQVhdgFdLriGQOcq6S0x1iUjVhpUnt4FlQbUtlgTa9d2rc1r/10Ej39ykZpC6kpSvRxtUgOJdhle5UXCLMxkAiX56ihN4gdVpC9kTca520QxmSDvuwO9XBZsAw6WI5fICecyLVK/Db04c6UX+nHTIOFTrrAPB/XC7vql6WdcB3SRKjSv75efU/Caw2nlGD/pDhStMZOIIIoxZkN/hekaujSj7z5vVzsf7RL4tYOLe8PxaPPhkLB092eFOu0WLsbNyB999eX4u7H74aiwdOxeLxpzGLDIZ/c41FCmlHATcUR8pd/4jIUJaOWP/4N7F181IsHX86Fo89hahu88LZ2LzxUez5/DcZEamBNsHejY9/GwsHT8X83sM0oHjW7Zjb2oy1d34Qi0efwHU2zv82tu/eiJXTX4HxBfem61dkicTvYEY659ajSvdGIiIB90WgrKC6DRut6A3P0joZ+iZYVOoUqTaFUDE4dZ/sTJAj1zkgejHJW6uEYSd1olhxxn6WDO+/r7K/IySc8nFgu0VDNFDAcwD0yel1oGv11BTGMBnhsGWUWIb/0Jggzu6aXXP/DqIeA6zgjBhzYbLkVIdY0yCykpGrkHjIW9F1W/icRiYjE4pu0aMPcgyH3qrQ4DN9W4Eag9Fmg/Qpj6P4XKI2MOI0+t3S5h6/MBmQzGF+y8b1c7H50a9i6eTnYm7P4di4/E7E3dux/MTLcAN5uHMdFvYfje0712LhyJnYunkRUUgaouXjz8T8geOxcfHt2Fm/jYO/eOJzMZdGQ5WgnbUbsXHl3YiNNZAXl44/gwhl4/wvoSCweOQ0IqT8/Oals7F5/aOY3388du7ejrnlfbF86jnskbV3f0jDBUP6Ycwv7ydesrURm9fOQRVi6cTnY+vurdi5fQm/i0hh5WAsnnxWFabsm1N7klOoYaQg2kOpO0z8nI4DUZZIlSDSAutTimqmhYxFXzHNyJWRsqqPeA1dw3k5zBb1Ij2u4opuxntmAu7gXXmPVdEDlTv19A2f9Q/g759ChIRwYApHIkwzSYwjiU1VMPxafiLBWPM0xKNAw2vTPMKiD6Iprq0QmGpGJPeHxLncBD1LO69NaoBlUJzK4DrghOR/qSJVVq+9+Oo7qgmo+ZDqQNfz5KdrAkjeHtLEBnwyOzAfqcxWMb2b/UqjoxTVTBqQE9mqweUQR8sRKfgsJlu2DnFPwNi8+XFsfPTrWD79RzG/73hsr12Pu+/9OJYf/WJsXnkvtjfXYnHf8di8cw3TNGA4tjdhgOb3HcbfNy69DeOR0cv27StQblx58k9iPg3C/HzcffdHSAsXDpyMrRsfx9zK/lg8/gwinryP5ZNfiMXDj8FI5Xfm9eb3H4u5xX2xdeMjRD5Lj3whVn/z/8bSYy/ivax//FuMt54/+Egs7j8Rdz/6ZczvOxpLx5+KrVuXYvPaB7Fw4BQUCLbvXImlR78US0efGAD9I+BT7VvzvGncTQlAxIFR3Rp26Ood3h/TN36aBp/p3PSpB48psbWFFPlLXpO6CRyZd5mBlS1arYY64sDIko9k0q0nh5Q0rHhIaPHJRmYNbfwDMEL9LX76Bsk2orgoDWuy2HcpA8rQMFjoQx81bJrRi31iQ0OSpHGWIh8O2dAde6SPUliyNjmPG6n+IO0QF8WaORM/9mRST6VoHq8ImiwBNrY3AkhiPhyzYw1wSoBQilYeFCkZqYvFWM7vhxIioyRwcdS2geAQHlshfyd8VsxtyYukBctIY+PjN2L58S/DCGyvXo+7778aSyeeAb6zcOixWD71fGzduRLrH/4ilk59Ieb3HUOKtHT0TCweezrW3v4+UoKFA4/E9vqt2NlYI9az7xhIfMB+jj6Ff9u8+n5sXnk3lh//Smxeeiu2N9dj5YmXGO1kGpcp25Xfxd5nv4P3kN+Z6pMrZ74aq2/+Yyw/9iIM7MbFs7H8yPOxeOwJrMvqb/5HLJ34XCzmfZ//dWytXo2V0y8D41p94+/1s8+JcT5miOTOrB+NCuSMPyCG5k+n0z1GpFmtzd5Ai9CZ36YrAp9PsTwZLDguSutSRqZJ4ZYD1RmqPd6nnPo8Imi9bzTkSnbGFegcI/XvM2WrQGWQtvX9bPWuM4RWk6H9ilo5akqIdWUcRdTcLefZ09366BnSRJMiT+KQarzKhNtqTF2Ws00jULRS4nIuuk5+X7u+ZmGBR9LaNhi42Sp7Z5UT7So1/py9K/WMXASo8nv64NzwaFL19VrFyFU8MM3VQ2dMzOOP2C6xHRtXP4jNC2/G0qnnkdKkwcjUbOnMV2L9/Z/F/MrBWDr5+di6fQmGIlOi+QMniNkcTAzpqbj7wc9gEBN72l67iQOVxiGNzPbWRtx9+59iYf9JpHKbl9+N7dVrwHc2LrxBg3TmqzG3cgAGaSMN0uU0WF+GMdk4/xvc1/LjX4rVN/6hDNLm5XfwmYy68pnyZ4tHHo/Fk5+PzQtvIdJbPv0Sfnftjb+PhWNPxVKme9B9nhUZceMiIh61Reb1aATQjOukg0j8hk6yw1Jd6le1dip0cgsJWm4yk2OLimkUDOXF9+o69b3/2J6TEISKFvh4N1rMVc9/nxGSrZLL9gpie8kRVaZgwSdIiupxUm5dvUuaWuuSM1PAZmRaRiUio8hitAcSU1M3fT9+iOCgp4paRbKV5flzAevWC+4AdrOr+zQMxkPEQMp8kkflsjU3vYDSFo6poYFr1yh2jXfD2XUER/Owo/LjFhWBqkz/WGHENQD059dLCkPl7LxqgtobALUXi3WTQPXCsSdi68r7sXHpLeJoSWfYXGekceixWPvdj2FMlrMatrQ3Nj7+TVWK0khkJENAfhNGLrEpKgxux+KxJ2HY1t//iSKkl2N+ZT+eCRHS5Xcn2PVLj74YiwdPIGVzhLR56Z1YSoN06JGY29qItfd+wurcic9BJjcjveUzL2HabEZIMEj5sxS/nzqQwjNh+9t77z9Gs+/eNzOhO16QTBkMyUB/vfYfGPbqXbOgXG/5sGfogIQEiX3PooLNJRwO0q8u8wd4TZzUbdStFYXcrl559Q/JJn1KKVtnkLqnh77LfE5YdUlCUQWyFDVlWngLgUJ7Y0xz+Ln6Y9U+aTb37SAgvVkGw2AzjIvbGjhr3Jg5yrOJX6EypEkg5s+0D4lqpUqNFBWRfikK4q/0BE9THNKucWgliXZi40oriClZkzBlZUgqiu7d60rYNjwy9Sr9M7oqKY3eU+fvpmHJdM/9aht3Y/v2RSJaObRg3+GYW8hpquIv3b6EEnqmc1u3r8bc3iOxsLIPmND27csRK4diPqObuzdja/U6DMv8gZNdUEdjunXnaiS4nZFQRlh5j1s3z+OeMy0EBja3E9t3rgOPmt97KLZuXwEOldhQpjIbV94ntpTKlmvXAXxjvHWu0eYa729pH9dhax1RWRrSrau/i7k9h2Jh7xEhd8P4x2PJhyRKnni7DabD41U5fE4GoegBg1NPGoAchCVd3BFl/EezCtuUZZftScBE1I9Ip8casQKiJkgLvqRlRQfIPZ9jnv6QLJHu9dMxSDYAg742VomyzNkAVqRRMEgDcBt59hDwVl/bBL4kAL1K9TqiasYcMucIAhKAZGVfPJQKsVSFKs3tpmPMN+pUrgRAagYaOEiIyPo2l0mSJb7G3k3fCS5NscZ5d9xk3EIkL/LDHI+U95hro255hkQaiUywXg+nIYA2fnhgDTQ0HUIcGKyLWkbcB2gWvXqj7CCsY0QFyAbSV2ro5lOkht3Ddu+N90jR/dbvpWfUMzvTVWmRwLHXAc6FvKde0rh8HVZNmkIzIh9Xy7xHxtK5uoZ62abPdMdFA5ZXMUp9NN8tZpqpKtbDCDB53Vy3YX+kqS8WsKteui7irmIGqzDcC2D2i/IgNYR/vxiSAsw6Rf1hd6uFD5sMEiQj6ryrytURF1naVn9Y3+3v6hJ2at86gh0rAzJQwmMexjYN5dy1SXAPxgvyZFjtr2FHiChc3XDqWfwhtcgY++qNLx6w8VF4EJwuChOTXAZYv3lNCGw1SV5Kg4ioV7iC/bhSWHxnG+VDHgsNN5nXTQWgZryjCbeKxfyvtAjWMAcrW9Ygf79rOiW810UUhaH10hl9ddIkaRrICahMRgd6Sx6b5VaJ3sHJ6Tmq9NaxITd1gk80Kzbo1nJm9CDWOjr7B83SKjYgeRP7fhShkhPMilr7Q0NG2IHvhilXTwMwrmjoQyoJbu/JH2sPEBDXe5ABxDvJNBVNy2p9+gOLkj6dCMme39KhnUHiMLucfuFXR24Io6ZWJsWIGUUxpbqXLy0naKJS1DYyPTarYeg5E9aL6EIYDpjAOlD2FG3euvR4Svqou0A+Q95zicazF4n/RwGHjFjFfQiQJF8iY5CtCCTRuUs98Yy52JLYFrv0Oc+MYb/DctvpDo9DuZ+elRETZS9wW5LHrfTAUU9eDtMtLKvLuWVYRbfcJHMbdp1YCtcH4au0sLdARIyl7Ejvole9X64vy82uQnUrqU9Z9ncwYtyQCCro+e45N6+2Dgx/eax2+Dpj075L+wEB8ECqpoNe6LBmpWGMNHrm/fAsk3hIcuJQfI9bQtH7Lukeo6d1TcslR4pQuBxg12jbfz+HMlAd0uqhFUVb0gV65dsxt7Si6PcPL2n7dAySd4b4GfXXXJYtDWgsg5Sym9RTdtMmznkuuBnH9VmXs0VuEyrAkN8v34ZqIFniFGhQYeN3kbCW0xycJDFAaP1TVeWoNEGRVP87NsSVbol9XclXB31bfcBBB3AobzmmTiTSkeWb0ycwRdeHdKLaSFqAyjIVvUBVGzwkbXFFGn0yaFEwqzcWZ6vXbEKK6KmtNDbT4b9aMkr7e/KgFw3CPWSeESdjXqmz2N3DRubeMlGxQIWCiein7bSacjMWEWCh6cCsGDllbBS5oIt+KsLqvkc54vAztJ0SmEPD60hXQFmQ1oqCXVxES+ot4dumJHWVRaBynCB3xwQH4Vi8PXH4ZuNf/7ZDpk/HINljTtD0GZ6yw7sDp+WFiZo04iK94UAI3akGJFI1WsZGH9eVsL4nl/S72JU0GD6FNj4MxmhwfY0InoU7lNWwup9TulYZs7CWRwu3aMdtCw3UdvWpQnb1jWVfGo2JwH0bXBJWhDnpvy3sD6zAqW8j6MEgZQ9dRlEG0dHO4HTGGFZn6BWBWZkwR23n+OwnzpyO5eXGrm/bmQ4EGt0263Nz8cbZt+KRkyfi8KFDTE+l8DBGGKwZa4MRUhNhUkWOu7R9KCKZRnMcbVrFoFea6A4mBgw4RZ9BFBBONq297e/I6Mnjguhghn/gcPB+NWrdyaUrbgbVoRIxMGhumDZNxWKCBij9hf+/QeqWvTg8eknCVejJtcgMUdi7lDalr6Lh19o4637zw+Mgc+redBciF6jrSES/XNNCixXL7yjgND1nVtxqsskg4qqvm0ypSMjU9M+a/S6Wtr7LfXJU+5OcbQeqtzTLhX9yScAod9+aDFRFNFCXFHbkRmVsUobrFMYXGRNGJkP8xKXyMNCAYeVr/lcXeSj1ym/44IMP4u133o+vf/3l2Ldnj6JHpq7EpxyFNUNx586d+B//85/j63/8cpw8eZyz2zAlVeqOHfZf/WWI/Dr+TNW5RL+QsuUooIOVsIJjMzauSNLpEbObzTeiBjWrWTMMFqIYFmhmAcWZTnG4w/g1CrPMSLhrY6m0E2k5uWiECyTrorSVI9iVjorWUlFlqVK09JhFnH+vKZsthwxSTg7xUlgDB4bEnl4GCYeoxPoVUUlLJvvBaDgMr6h83ZEZ7ZswGx7guXSW/e34delFKwKyWRl6II5J7igCPhgCud3h3V4xJTTY3uFKmRygI0algNUq0nI0/Y6iLKRqmcYSczKniNGPUqMCxxW695iDxLqgt5wTafPgiAWcGBylQeZje3Mzrt+4HhcuXY2VleV49NQ4Bo2WAAAgAElEQVRJHIArV2/gjjOyWV5KmsZWvPrzX8f21nY8/+wX4urVa7G4uBDHjx+LhYWFuHjpUly7di2OHj0aJ44fx7/ln7ffeS/ePPtO/Ok3/jju3Lkdm1tbcez4sTiwf1+srq7FuXPn0RV/6tTJOHhgPyKKO2trcfHiFby/kyeOxYEDB+Lqtetx+85t9fLNx+LScpw4fiwW0cjbuanqtp918JrEcEPSJ+MWGoRJkbxhZEO1S5FopwMf8d7IoC8syHug9kJHZu19qh2nsMCaSmIWufhckJZRWuY9DGqMdL+ZAkt3DA3Nu2BlI8/wb+WfPtWUjWfYc+3bG2FhQGCqKk2wNfo3h/z8fZMfO3CyrEgb3zy1rYajstVtX4RKXLq1bdh0VIPiRHWeG5npBkvs3ijYADIGRUIsMX3pJxmYLJkJclosNE/AyCqBApRNalTUBwwGRsVpn9SO0KScHj3F74gjVCUNyy/RNZWtjR/lVW7cvBk/+NHP4uCBA3H7zp04cGB/fO6Zp+PXv/5tXLtxM/6Xb/95HD1yELymv//ej+KJ04/HyUdOxE9++npsbGzEn33jj+PCxStx9uxbcezY0bhw8XK89NUX46knsm8s4p9/8Ap0hf74q1+Kn//qt/HBufPxtT/5ajz26Kn43j/9AFHo8spSZDr4F9/6RqxvbsUrP3419u7dg9d+Z3UNxuzCxQtx/vxFrP+1/4+96wCTotjW/8zsbCIsS85BREBRiWIAEcw5XcQcQLlGVBAVEyYwYg7PjFnMiDldMwYyiEgGJWfYZdOE9/2nqnp6ZmfZNAuzS/V7XGGmp7vqVNVf/wl1zqYt8KWk4LB+hyAtSnVk6lxdMTiOV83ITW08OkVssVWnJtaO7C3KfqVYS3GgihixxSwdh5EYG5EyW8RhLUaLEFh0RY0LIMmbteMg4ul02mFO90u+dxWI6hSjjMkJliyAU1o7EgtI2jgti8S9aXGR6ZzaKjReDaRXDNnGjuGiVU7OYp0RL2pb1KlMdX0x91eq1I/KUKj0dBOwqImx0eHFoRI5E6Zmpf4fx34piKnD912lhE2wjE6ozh+ydrqTd9qcT5LHqRP7yg4aSUcry0C7b52EaCbzgQ5oVKqRtuVq0HHKDDlGdLMIlAps+qEWo1JvTUpZNju/oACbt2xF/exsLFn2L1asWIVDDuqFVWvWYtbsuThUAKkuCosK8fU3P6J7t33RpHFjrFqzBrPm/IUDe3XHPytWICMtHW3atMb3P05GndqZ6H1ADwQDQXz6xTfYs307dNprD2zdloOv//eTAFJmZi389NNk9Dn4AGTWysRPP/+OTp32RGZGJqZOnYE+fQ8UNjb51yno1asrsurUQZCluMPAjz9ORuPGjbD/fl1caWLcx5TisyMDJCWpYcq+6SqYGGelFD9NX/wmKX5g6sfFeYZKlqdrzsX5XnnPAvB6/OKql+nnnoOS2F8fLXHsSsoDa9RIBbpmruqUP3EiyEsDg2T4PrGA5KB9DCCJO964+rUhwTF406ug3ffagyFgFQohaBZnrGfFZCV0RU5HTD0hBRDaIxdx87qCSoytizXo5XCqqqyhuIg56ME2qSyC0QqZ4xh3HHEOvsREwEgJaq2mqllFgCKDCYh6aQz+jl1M531SwX/mUK2yW8gS1G57k6JClRDXu6jZLXXZJbHwMNbIy7gUc8QgLKrUzDnz8M+/q3BAj/3Rtk0r/LNipbCgQ/v0FkBauXItZs2dhz4HHYDatWph/fqNmDp9prCXunVrCVvI2ZaDH3/5He33aIuOHdpj/cZN+OGHX9CnT280btgQ2/Py8NkX36BHj65oUD8bX3/zPdq3a4M6dWph9px5aNeuLTp23BPTps/Els1bxY1eu04munfbH6mpzHzowcpVazD5tyk45sj+yMzMVGY/JRgd6FqCWqJVYEfGMXZHZT4wViVjE4gGNnX8SKlq8V38ImDJ9lCSqUZCcsVTql37rhuFMBmCJYUtTHYKZUMVs4dUSmaAJYNJldHdOE6UuqbUOGHeJo5L50eXumzVz4SUiIyR8XC1eH4ko84phqRdlnonIFipMz1ur5t6huxSUR4wzXocw66msprhRDx72i3uirhVti09SjpEQcDEGAlN9j5hVyYaWv9GB0Ya1SsSgKcyS6qc1coo6QQmymFHE6Ro7BSmbpg+L+eouTw2osvtmJ1SjpLoz0ztd4mi1jI37TaqnQAU224Mq6r2mMhRbGQhFAWCWL1mDZYtXyELv2e3/bB67VoNSAcgu142/pg2E3nb89H3kN4CqOs2bMDUaTPRu1c3sRtR5Zr9518oLCzCwQf2FBvSgkVLMOfPeTjh2P7wp6bLPQaQ2rZpiSWLl2PJsmVI8fuxZfM2tGvbCi1aNse0aTORVbeOyHvz5q3o0a0L6mVnIxgMYdr0WYJAB/Tq4Zpk2ttZotFWrfIdGrFNzvES7ULmaBC1rJKM1CrzQiS3dvF1IA4Kw5TjgYMOWg2BsWjGLqGJrsmBZGyFOvbObJw6XYA+thOxlanpFITXrwsMJAPtKUcbEsuQ9ItVTa2YVhiPGFUYMWRHQMukJeFupDwQHqXOOROHqOGeGHqrlPgN9Z0aeCfSUW+lWl0yh2VN0n0DSu5zCVqFMmxHHblwu9Ij9oYoW5BzwtvstCqqWnnLXDKQx5mUpyYyXEXbGsO1Ijsqe4A6MqCfaVKvmKA+QT2tEprS4mbiC8ibNKsRRzhZ2dr167Fh41a0a9taDNUzZ88VQNm6NUcA59C+ByIrqy4+++JbtG7VEvt26SRjsW79BkyZNkMAye9PFeBhE/bdp5PYoXhNmTYT+fn5wpAIwmRin33+LXr07IrWLZtj3t8LBXiy6tXFL5OnoONee0q58XnzFqJfv4MRDAYw+depaL9HG7Ru3QqbNm6Wd/bs3lXsVepyHZ2JZzcS1m1iluIBiVbCxKsabZNxYtB0XJCRYfF4IzUq5qxaSfYnU9ba7RVW79AzTHBT2ybdBmijrplEfU7VXe2g0XF0pl6d4JR8FlBMSapDq5JV1fFKPCDpBeZ4yFxSUTTV0FPjdYh4qtTS5IhpBuWcZVK/UbqyQjo1uHrF6xJE6lxQRD1xDOy6TVwoUvrYSbBuEMPEoOh4FEf1ihyuiMd/za+NzcbpqmExokbphGoSIqAT0Rs1UJ8nE1lJSWZW51B5kpxE/Y4B3KC9SgoWiU43wMmkXAQz9zQ0y0kB2JYt2/DT5N/FW0V2Q/XsgJ7dhCFNnz4bh/Y5UNSTr779UYCKxmjKe70A0kwc0Ku7qG40NKempSEtNRXpGak4sGd3/PrHVLRo0Rx7dmgvI5ibm4vPv/gWPXrsjzatWwngrVy1GqmM+kYYh/c/FNtycjBlykyk+FXhBwIa7VFZ9ephwfwF2LBxE3r36qG9aypKWg5Qx9VFnJWsR8+9I5rNwhTILB7Nreae3hxETVKBhlG5tMz3Os1HSWAkm5FOJRsVpiLzVme/0oGTYueLQQ5T+VexXYcOO3GwKkyB4RSyK+myVPrgunhYaeQuOYShMkDlBu7KPKek3+5UQIp40Vz5pI3A9RECmRTeFFEnlEw16zH14CVGIxKcaDpmDqQaQ6SKNDaTzEy3iL3AySejK4HKSjZVYaWh2tjuJNAyJXs0E1NWRR3KYNz2qqqHnLCXHUpNGLUT6t85CfTV0Q7VF5I8U5/L3Kd3emmJibVRZ5VkEoox1fw7stNGqvUqyYh3U+eFomxyc3Kxes06pPlT0bRZY/j9fmzL2YY1azegZfNmWLtuHabPmINjj+ovoMNre+42rF23Cc2aNRGQoDplLp/Xi8zMdAEsgkkdql9MO1tUhCVL/0GTxg1Rtw7zH3mxdu1abN+ejyZNGivPGoCtW7dixcpVCAWCosLVq5eNUCiMlStXolatWsiux/S4evy0vOMaRwyLjOMNi0z+6JQixY0/Wo02kBfPayaxQjqDZDw1zJx5FLU7Wg3Ts1k5OpzsqdGVVOSRxmOsk/xrHNTApdmx9jDqUdb7v0mvywiSxNdko6MhECATK96vRIFT4gHJaVkcO5JaIa6SzNp4q3/DxeT3p6BT532x3/77o25WltaRtQfOcb+bl0ROxTufaDXLnERXU9klQLORuj5ydkHzfKNeahXQuODNAnfC9p0F4mJaJY6MfrHrGISZTI63xGQAcKy3CvSUFmZA2KimrhftyHhpGGs8y6uRhetR27blICd3O5o1aaw+VfqJE12socHBCP67oLBQvHcMhhRVSF/O44uNWxwhKeNbjFsgduKX0lFnPEpbHhHWEX1nHIG4+IvazmL08GKv0t87TS1mu9DmBM3KY1/paBj6d+6flzTNnM8jh6irIihyy5YtmD17NubNmydhIFVxJR6QtIDj2pHcM1W7XZ3UJHoi77fvfjjz7PPQqFGjquivfaaVgJVABSXAjXnDhg146623MGfOnCphSlUASOZYhonjidn0IlQmYuTVGSRTUvw4Y9CZOOywAdUyH3AFx9n+zEqgWkngu+++wzvvvCPqW6KvKgMkFbsTndI20nj1uSR2NZHJHg/SM9IxePBQdOvudvMmusv2eVYCVgIVkYCxHc2cORMvvfQS8vLyEk4cEg9IbguC9jaVpPnTUyQmCm33ycjIxEVDLrGAVJHZYn9jJbCTJDBjxgwBJHpFE31VISDpxFvuEyExrVeAFDmRnZaWjosutgwp0YNsn2clkEgJVFtAUm7xkl2EhiEZYaWlpVlASuTMsc+yEqgCCVRfQDLxPDsQipzn0Vd6erqobF2tDakKppF9pJVAYiRgASkxcrRPsRKwEkiABKoxILH3Ouq5BEFYhpSAGWIfYSWwEyVQzQHJVLKI72tz25HStMpm3f47cXbZV1kJlFMC1RyQdsyQVDySuiwglXNm2NutBHaBBKo3IJXiaaM8jdqmAOlidOvecxeI2b7SSsBKoCwSqMaA5E4JUXJXjdpmAaks08HeYyWwayVQjQHJCK6Ek//6azcgXTj4YnTvYRnSrp1y9u1WAiVLoBoDkjvXR+kBkmRIFpDsUrASSG4JVGNAMoLdsWE7WmXj0ZHuyT0itnVWAruxBGoAIHH0SlbbDCCpSO2h6GoBaTee7rbryS6BGgJIJbMkC0jJPgVt+6wEIhKoIYBkGFK8NKHK9W8Zkp32VgLJL4EaAkil25EyrMqW/LPRtnC3l0DNACQhRjtw/4eBTAtIu/1ktwJIfgnUDEASOe84HikzLR0XVlHGSJN+011nK/mHvnwtrOqaWeVrjb27pkrAAlKCRrYmg5K7VlZNBt0ETQX7mEpIoOYAUinn2tLT0jE4wQyJC5XFCLdt2yZDkJmZiaysLKlHX5Mu9m/jho3w+bxo2apVTeqa7UuSSaDmAFIpahu9bKrqSOICI3/84Qe8+867WLBggby9VatWOOW0UzGgf3/JLlBTrk8+/hiPPPwIGjZsiDffeitucdea0lfbj10rgd0KkIYMTkxgJJnR8uXLceagQcjZloO+ffsiIzMTH0+ahIYNG+D/nnkG++63n64iaspjq4GOKhXsVJFldRSWos5BZq1M+FjnW39HFcn8JhAMIm/7dtSuXRteXW/OeSbvC4Wwfft2qVfPHOK8zO/lvwDy8rbLb1n0QOUl17mkWMUlHJbS13Xq1JECCVIZ3gN8+MGHuO3WWwVwP/ns0107Y+3ba7QEaggglX6ujQwpkYDEYnY3jrweAw4/HOMeeRh169TBo488iq+/+gqXDB2Kw484HMcefQyaNGmC8S+PR+06qi79sKuG4dtvvsF114/EBRdcICDx3f/+h3vuHoPFixcjNTUVp51+Oq66ehiaNG0qpZxYt/6Jxx7HG2++IaDTtm07XH/DDTjyqCMFXFjeZfas2Rh9262YM1tV/ew/YABuuPFG7NlhTwEl1ru6d+w9mDZ1qoDQcccdh+tvvAHNmjXDxg0b8PTTT+O9d97Flq1bsOeeHXDrbbeiT9++0uZPP/kEN426Ce3bt8d7H7xfoxeE7dyulUANASS3EON720RlGzIU3bolRmX79ttvccmQi9G6dWsMu+Zq9OrVC02bNoUvJUVAJCcnB0f0H4DGTZvi9TdeF9bB6/JLL8PXX3+NG28ahcGDB+OD997HqFGjRB3ao317bNm8GXPnzsWxxx6Lsffdi0BREW656WZ89dVX6NKlCzIzM/D33/OxadMm3Hv/fTjttNPw7Tff4vLLLkN2/fross8+KCwsxIzp0+V5Dz40Dm3btsWJJ5yANavXoHfv3mL3mjplCv4zcCDuGjMG//f0U3jowXHo0bMnGjRogGnTpklbJ338MRo0bCDtvX7k9di7c2e8/uYbu3bG2rfXaAnUQECKHySZSEDiG6hePTRuHCa8NUHUo7067iWAceJJJ2HfffeVypuH9x8gDOm1EgDp1FNPxX9OOx0bN27E9TdcL79dt3YtXn75FRQUFGD48OGYv2C+AF/37t1x3wP3C7B9+cUX+PXXX9GmTRuce955GH7Ntfjhhx9w+x23Y+DAM1AUKMJjjz6Gl158EbfcegvOOfdcdNl7HwVQ4x5E0yZNMPHDiUhNS8M5556D60eOxAfvf4AxY8fg+BNOwC8//4K/5s7FqaefJoD7/Xff4dprr0W3rt3w/IsvJLyiaI1eYbZz5ZKABaRyiUvbgfRvWF1z7pw/MfHDD/Hxx5Owdes2WcCPPPaoqDc7BKRRo9CzV0+cf955yK6XjfGvvIzWbdrIk/Pz8hAMheS4y/gXXsTYsWNx0y034+KLL5bvi4qKUFBYCK/Hg1WrVuHKy6/A/PnzhQllZNCY7hEW9O+//2LQoEEYc+89GDniOrFx0QvYuXNnYVYDjjhcAO7TTz/FzaNuElWPYHXk0UfhjEGD0KJFC1EJf/75Z1wz7Goc0PsAPPHkkxaQKjBn7E/KJgELSGWTU/RdYRqH88QA7E9NRVbduigsKsINI0di0keTcMnQSzDs6qtxxIDDUa9ePUx4523UrVtXFjzZDtkMVbaePQlI5yM7K0sAqU3btsrwnJuLQDAk6tn4l8Zj7JgxuOmmmzDkEgVIgUAA+Xn58Hg9WLNmDa684grM/3s+DjvsMNSpW0eKsRDQwqEgDjr4YJx19tnYsmULvvryS3zy8SdYuHChsLIzzzoTt40ejaLCQkyfPkOA9ffff5dnNmrUCG+9PQGNGzfGX3/9JWxwv/32w1XDhlVEYvY3VgJlkkDyAVK9OkhJqWwcT3E7UiJVNi74n376EeMeHCdqEA3QLVu2xPPPPov777sfQ4cOxdXXXI1BZwzCkqVLhDEddOBBYrS+5uqrsXzZctw4ahROPU2pbBs2bMDI60filFNPFQP2+BdfQmFRIYYPH4EFC+bj4iEXo2vXrrjvwQdQLysLn3/2GSZP/hVt27XF+eefj+HXXosfvv8Bt9x6KwadOUjqor/33nvIzcnFCSeeIGBIYGvTto0Ys9mO668biXXr1mHKtKl48803RVXk+7PqZgn4vP7667h7zBicdfZZ2Lx5M6b88QcaNmyErt26lmli2ZusBCoigeQDpOw6SKl0YGFVA1IY6zdswBn/GSgqU8eOeyErqx7+/vtvBINBPPr4YzjggAPwxOOP48knnhQ7El3mmzZtxPLl/wjDuWHUjWLUnjhxonjrsutno3Wbtsjdtg1/z5+PE086EXfdfbeoZ7fefAu+/PJL7NWxIzIzMrB40SJs2boVD4x7ECeddJIwrkuH/lc8eWxLQX4+Zs+eI4zm/gceQKPGjaStK1auwP777Qdfil+8bR06dMDb774j9qannnhS7GBt27XDn3PmYMWKFZjw9gTs37UrPnj/fTxw/wNo2qwZXnjxBdSvX78ic83+xkqgVAkkHSDVz64rEcGVu4obthPJkExcEJnNHaNH43/f/g/5BQViw6EqNmDAALGzbNm8BY8+8oi46/0pfpxzztn46695ohbRJX/R4ItEjfvuf9/h7rvuwtKlSyWGiPabYVcPE88bL77n0YcexlsTJsj9NGaTDfUf0F/FKHk8mPfXXxh1w42YM2eOePn69e+Pm2+5Ge3atZNnLFy4AHeMvgO//fabtI0etdtG34aOHTuKR/D5554XIzjjmBhuMGzYVThj0BnweLz44fvvMfza4ejYqRNeGv+ShCbYy0qgKiSQlIDk9XoqaTglIJElRQpIJhKQ3ANBQKBHjK722IBFcx9VKIKACVaMN5BkVjRE16pVq8QFz+fwD1Uwd2CkeR7jkXjMg+9hf2Mvc9SFoMf3xF58NgGJdi+2131uLTc3FxkZGfJee9C2KpaifSYlkJSAlOwMKRaQynLgtCyLuLQDujt6hvu3pb2rtOeY/pj7Yu8v7fl2aVkJVFQCSQhINGqnRB+xKE/vnKSR0XakqmJIpmmlLdLSvi9XF8PhHTLIsgJOWd/pfl4i+1HW99v7dh8JJCEg1RUvW9SZrwqNR3CnqGwVapr9kZWAlUBcCdRgQIo2bFc1Q7Lzy0rASqDyEqjBgEThRNQ2C0iVnyz2CVYCVS2BpAUkdrzyapsFpKqeQPb5VgKJlEANB6SI2mYZUiKnjX2WlUDVSMACUtXI1T7VSsBKoAISSGpASqTaZhlSBWaH/YmVwE6WgAWknSxw+zorASuBkiWwGwCSsiNZhmSXgZVA8ksg6QGp8mqbBaTkn4a2hVYCSgJJDUjus1QVHzALSBWXnf2llcDOlUANByRzsE2lg01kkv+dO0z2bVYCu4cEkhqQ3ENQuSBJC0i7x3S2vazuErCAVN1H0LbfSqAGSWA3ASR62dKsylaDJq7tSs2UwG4CSEB6eqoFpJo5h22vapAEdiNAIkO6JGGVa4tnU1QGdOdzliaRdNeRNLrx5s3OTnjmZJZket8dN60GTfPk64rbJlqWOWJ6wHudwvHMp66v0p6RfBKI36JqA0hsfmUM20plSwwglRSOIJPFlc2xNLBZuXIl5s2bJ/XUPF7vTsEHtmn27NlIS02VKiY1ZSJXlwVn5vCSJUvw2quvovPee2PgwIE7bD5/EygKYObMGVJMtFHjxlizejU4f/bZZx/JwV5TxnH3AaS0dAy++OKEMSQm5L/jjjtw7jnnSvmgu++6G8FAACl+P1JT/VIq6MADD5RKHXWzsuKCzTvvvIPRt96GmbNnwe/377Q1dcVll6NBw4ZSejtesYCd1pDd9EWLFi7CsKuuQrOmTXHO+eehf//+pUqChT0vufgSXHLJJTjm2GPw0cSP8PaECVLzr0GDBhaQSpUgwCIYubl5kiKbfwjiZv57hgy5JEzkZ7UN/mHVDlbvYBmkkgpFVo4hMQ4pcYC0fv169D2kDx4cNw4HH3IwBhzWH4f174+DDjoIeXnbsWbNWql91m6PPTDyhutRPzu7WLUONyCZPOLOTkdVT7Mt6bf+tzDFqOS8DmeX+2OveDvnFZdfgYYNG2D07bdHT2TXO81z5IlRz2U1EhdbNSqpuYfVSvSPnfHSn3FCuNsTr23Fxtj1PKdv4bDIgJdipUYq0SpyvPniLmCgHxDpn+4L2883mJ645R/b5kgfpTXR4o8ZD8Ogv/ziC9x373345PPPkJ6WJr+KHTlzr3ngpk2bMPTiS3Dx0EtwzDEakN6egEcefRQNGjZwHiDtE2tB9VTndh+GJIGRVQtII0aMwDnnnStzKBAMYu6ffwpzIq0mG4m9DCB9/OknePrJp7Bo8SK0aN4CQy4egq7dujm3k5q/+cYb+PXX31CnTm0pDsnaaZMmTsRVV18tO20oHMYrL7+C77/7DsFQEIcPGICBgwYhMzOz2HsJSNxVjzvuWLz26mtSOrt9+/a4aPBg7NWpo1ogGgw/+eQTTProIxCA99hjD5x9zjnYf7/9pYw37/nnn3+kbdOnTRPVoW+/frjwwgtlB2K58fvvuw/du/fA5i2b8dknnyA1NU12+FNPPRVpGRnFmCOfyYKbb735Jv78cy5atWqJc849F927d5dN6+2330atzEycetppDiAR6EZedx3OO+88KWzJZ7D892uvvIL58+ejceMmOP7EE3DEEUdIgCy/L8gvwHvvvouvvvoK+QX56NypMy4cMhitW7XSIBfGt998g/fffx9r16xFixYtcNY5Z6NXr17OrsqCnW+88QZmzpiJ5i2aS8ly8/3ixUvw1htvyFGI5s2b48yzz5LiocuWLsW1114Lfn/IwQej1wEH4JRTT8GDDzyAk085Bb1793bGa+7cuZj44URcccUVMqbFAEkzpA8/+ECKj7KKcaYub8VN/oH775finhyP6nJVK0BSm3VxFlAWYatI7aoFpOEjRuC888+LYjC0E9xzz734/ofvncKPpr0GkPbaay+ZmM2aNsH7772PYCiEcQ8/hL333ltKa7PsNW0Og848U4pofvLxJ8jOzpYKtuNffUXA5PbbRssCIggRLF4Z/zLOv+B8XHb55fDFVAImIP09bx4yMjNw+OGHo07tOvj8889l8b7+xhvosm8XYa1PPfmkgNyJJ5wgBSe///FHLFy4EPfffz8O6H0Ali1bhhuuG4mCwkIBmHXr14kqwUKWz7/4gtSQO/3U0+RZrNw74PABWLRoMT766CNcddWVuIDA5UuJIhas7HvNsGECmAMOPxyTJ0/GrBkz8PZ770otORbUrJdVTyr/um15Pbv3wNh7xuLoY47B/L//xoUXXCiVe/lOtpntuuLKK3Du+ecjf/t2jB0zFp99+qkAbMNGjfDxxx9j4YIFeGPCW9irQweMf+klqeh73PHHo1Onjvjt198EXG6/8w6R2Yb1G3DVlVcKwB177LH4Y8oU/PHbb3j51VdQq3ZtDLviSqSmpcnvp0yZIgU6x49/Sb67d+w9+OWXX3DxJZdgzz33RMdOHTHw9P9g5PXX4+RTTnaAlgU6Wa792eefE5U+GpAmYsKEt/HoY49i5owZAmgPPfyw2KR4zUGJWdcAACAASURBVJnzJy4dOhT33X8fDunTp9rU0rOAVBY0i3NPPJXNAJL7dk7GwRdehMefeAL9DusX9SQDSHfedSdO/89/VLXbLVtw5hmDhBWcfc7ZwhQICpxY++2/v/x+0aJFuGbY1XLv+FdeFkA6tE9f9D20r6hhnLyTJk2Snf2ss88qVhSSgDR71iyMGTsGffr2lfeShV034jqxg/GZXMSnnXoaxo4di/8MVG3bnpeHe+6+G9tyckRVfe655/DLzz9j3EMPoXHjxtK2adOm4fxzzxNGeNTRR8szyOpefuUVKXDJ6+mnnla/ezjyOyMYGtyvuWoYHnz4IXTt2lXY28vjX8axxx0ri/euO+9CVlYWbrjxBkf9IzARkMbcMxZHHHEkzjnzTLRo2VLAg+8ke/jow4n4+eefcf+DD+DXyb/i9tGjMfbee4TR8KJN8Ibrr8dBBx8sTIa2wSuvvBLnX3iBvCcUDGLcgw+KXNhfjv+Qiy6ScucH9+mDDevW45VXXsGhhx4qpcsvuuBC3HHXnejbpy/Wb1iPV195BX369JGNh4BMRvzZF5/Luyl7A0hkS+YygPTcC88L4yyJIdEOMmTwYAwadKZUG6a69sJzz+Prr77GmxPeEkZXXYzeFpCqGJDmzJ6Ds88+G+PGPYgjjzoqLiD9PPkXYTziTQkEpCR28xYtcOVVV+Lqq4ahcZPGuPmWW6Iq2j77zDN49ZVXHUB68fkXRH04tF8/mfg9evVAZkamY7xzv5iARNAaM+Zu2bHNRep/7z334rXXX8NPP/0ki3/k9SNFDTDWEaonnDRcTP+9ZChC4RAOO6y/MDdjynn80UelrywrTobEv/M5ZlH88fsfuPOOO/Dk00+hdevWUTIhAI2+7TZs25aDfv0OxcGHHCKqIqvx0sZoAOnGUTc6v3MDElW7ww7tJ4A48AyWAlctp/q4ZctWNGrYEG+++QY++/Qz/N+zz0i1YV68j4ZjXt9+8y1Gj74NV1xxpYApL/Zt4YKF+PGHH/D2u++IXAlqBP1+/frhoEMORocOHaSdOdu2YfTo0Vizeg0OlT4cjD337CBsimy1LIDEPvFdZEilARIBmmx21qxZeObZZ7F582bcNGoUjjzyKAw8Y6CjVVQHUKp2gCSTowJq285U2dwrjDaKa6++BhPenoB9unQpBki33XobZmkvmzHyU/3iJLv62mswZPAQdNlnH1x/4w1i2DYG0PfeeRePPvKIA0hFgQBmTJ+Otye8jR+++w516taV3fuggw8qBrkEpKysurj9jjvFI+jekUeMuA4vvvSiLIaHxj2EI488IspYyzZyEd97/3045+xzsHXLFrRt21apXdraHigqwoG9D8TAMwcJQzr99NNx6eWXOaA2ffp03HbLrXjiqScFkNwLhc/ngvr8s88w6aNJEhZxxJFH4q677xKwpk2ubt06uHHUKMfWQ5Wwd68DMGbsWHTeuzOOOepojHtoHI497rgoFkX5kem88MILmPL7H3j40UeEPcaGZ1DNpkpHcHfM1LQVh8Jikxt9x+3CvMhQv/ryK0ycOBF/zvlTGDDZbp06dbBl61Z8/eWXYgP6c84csa3xO45rSYB03cjrcMqppzpt/t+3/8MjDz9cKiA1bNhQVNtRN47CK6++IsA65q67RYVr1bpVBbfcXfMzC0gVlHs8lY1G7XPPP8954oYNG3DH7Xdgxb//4t333ytGm+O5/bm4Rt82Wib8Nddegwfuf0AMoXePHSNqERcPbTO33nwzfvvtdwEk2nf+nve3qAp05+dt345777lHVIF777uvmO2KgLRp40b5rnWb1vJMGoy5GxNA337nbUydMgW8j0yow14d4Al7xLC6fPlyhMMhtGu3B2656WZhCjfcNAqZGRni7crJ2SYgQlZDFnb6aafhtNNOx2WXX+bIZcb0Gbj1llsEkGhvcl85OTmiptHmxN9zgpIxXvLfoTjxxBPFUPvvP//iyf97Cl6PYmVzZs3GRRdcICpbv8MOw6GH9MG5552Hy6+8wqmCTHsX3e0Ejc8/+xzPPP00nnvpRTRt0kT6T6fAzz/+iKyseti8eROGXTUMb775Jvbuso9iSNqAT5ZGz2lhQQFWrliBlq1aCSv6a+5fGHXjjaIynXb66VixYoUYwjMyMkDj9E03jsLpA/8jhnc3IPG5BLZTTj5FbHXDrxsOeLzyzvEvvgSy1tIYEgFp29atuPaaa9GseTOZJ/TK0SbF91enywJSBUcrHiCde965OOHEE0U9WLduHb7+6isxRo8adRO6de9WzF1fMiDdhqy6iiH9NXcubhh5Pfr2O1S8MGQT//v2W2EPubm5YpshqJx1xiC0bN1KDKWchK+/9posirH33CMGYvdFoPn9t99kgZ986imyoH755Wc8/dT/YciQwfjvpZeKTWXoJUMlXOHCwRehaZOmmD//bzz77LPidh48ZAh+/uknAbFTTjtNPEZFgSJZQGwbjdotW7YsNyDRtkXWSI9V7wN7Y+nSpeKp++9/L8WJJ52IiR9+iAcfeFDUWdrUuJhfe+VV/Prrr2LUPuqYY/D8s8/iww8+FBDcd7/9ZCxoU2E/yYoI8DfecCM67LUXBg78D2rVqo0ZM6YLKxp10ygcffQxGDF8uBjrh/53qAALvYlPP/WU2IAuv/xyAcURI4YL+BAEuenQsDxo0CCxQQ2/9lphO4cNGICV/66Q7/4zcKDY9GIZEr2Et9x8CyZP/gU33Hgj2rVti3///RdPPvGkOATKAkgcX3o777//AbTfYw/897JLceSRR1Zwdu+6n1VLQKqI2rYzVDayBTIbv5//zULPnj1xwkknolOnTnEDEMsCSFQzvv36azz15FPYunUL0tMz0K1bV7TdYw9ZiMaovWDBAjz04DgsXrxYAsAYmzLiuuvQo0ePYu8mIBHY2rZtgy+/+FKAJMXrwxlnnYlzzjnH2VVXrVwlaiEN1UatIiice+65qJddHwWFBfjqiy/w0osvCYDxovubbmouXLKd8jKk/Lw8fPjhRAn6y83NEXWR8V30kFG227Ztwysvv4w3Xn8DqWmpaFC/gcTm3DzqJgVIRx+N7du3ixGZ6hIXtNiYevYUoG3brq18RjXqkYcfwdIlS+BL8Ylczzn3HAF9Avrq1asFEH6bPFn6xTAOhivQM0gGQkb56SefSDu2bN0iMUu0dxEoqbJ9+vEneP3117F5C78DDpHvrpJxMYD06eefybMpW3pTyf5ocPen+iX8g4BMlbCsgLRx4yYcMWAA2u/ZHs889xzq18uudseDqi0gxQbZlYbpiQak0t6X6O/ZX+707AftELGXsatxMfLvtI2UxYjJhUV6T6M644jiXXwmAYcLkc+MFxxIu4UB5LK8tyzy4TPZj9ijEcbWRlsTZVFSlHtRUZHIjAyR7CjeRdCkGsb+x0atG/WYfW/UqFHcvvOZVM1pV3O/w4yH6QPHrSwXWS/HxDg5yiNLjmO/Q/riymFXiYpbnt+WpW07455qC0jlNWxXd0AyrLAsk8wdn1OW+92Ms6T7jbx39LxY43AiJnBJ7y3Pu8pyb7x73O/eUf9Le355ZBc7r8s+fhA1/aFxD+LjTz9Fs2bNLCDFTMCEHx1xP393A6SKgkxpE9r9XKM+xMo5HiMqy2eVBaSyLOTKvqOk38e+OxFtKQ244rHe0sbP/IZsccS1w8Wrdvsdd1SVWKr8udWWIbl39bJIqSYwpLL0096ze0pg8cJFGD9+PK646ko0adKk2grBAlK1HTrbcCuBmicBC0g1b0xtj3ZTCZikENW5+9UakCj4snrbrMpWnaepbfvuIoFqD0hlNW5bQNpdprTtZ3WWgAWk6jx6tu1WAjVMAtUekMrqbatpDClu1shdMDmdzI274N0lvbKs7vVkkWESiW6XN8UC0i4fgvI3QKmpajmVNU6l/G9Rv+ChUx59iPcet7rMoxOS9rWUKisVbUdZf+e0STIjhOXAb2w2Af7biSvig3dxm8vat93hvhoDSKXtijWJIU2dMlXSr9586y3Fkq8letIygyUTpe3Rfo+oRxMOt+fmysn5H374Xs6Jde7ceZcCEo+4MPHZPvt2wdFHHy1HQnJzcnV+6bAcbcnMVEdReP3+2+9YvXoVTjzppF3a7kSPWXV+Xo0BpNIGoSoBaWdTfx64ZCZJZjxkEFxVvv+I/gMk6wAXrfviBvD999/jvrH34KRTTpGskjzvtSuvjRs2ygFVpkthNgLmE3rppZfkUC5ZEZPIMQPBySefLCf9mVtp8i+/4KOPJ8Hr9VmitCsHT7/bAlJlBsFV/UIYmtcbt/KHM9Od6hiROhPuihNGlXCrFA7zowqiq0nw8OWWzZulPpdccSpzxPU+mrpxus/u9xQXg2rZEQMOx9XXEJBOLKb6PP/cc5KvaOzYe1A3S6WndVdHMc+MfU9UlY2YqiWmyomoWa5KK/w3c417TWWQOGoW+8yDrkyixj8T3pogWR1ffe01OdHPPFFM1+LzeiXVL1PwTv5lMiZ+NFEyOTKERB2wjVRW2ZGMotRT11yIPMeIxFWNJKYiiIxdTQggqsw6cv3WAlIFBcmT1WcMHIiLLrxIcvEwbemLL4+X1Bevv/a6JInfvGmTqA/MbsgqInJSHpDUFnfefoekiU3PSJfMhkzZYfJSE3BY6ePpp5+WvDgd9uyAq6+5WpLec8EwIf8jDz2MDz+aKAcqWd1k3MMPOz3hwmQOIZ52Hz58hLyDxwqY+J/Jz/bZZ29cO3w4Dj74ECkIwIunzJ975lnJqVNQmI8jjzoao++4AyefcKIkiotlSI89+qiwDxYwZA26W2+7VZLl3zNmDB5/8kmMHD4CLF4wYuRISYEx4a23MP6l8ZI0rsu++8ozDz74YOnPnNmzMWbMGDzwwAO4adRNmPLHH5ITm7mB+vTtI22iKsY8U5QVs2eSjcWq6ezDNVdfIyl8WeCAFUpY9272n3NEXePFcTvlpJMlt/Y3X3+Nn378SfImMcfSqtWrceihfWW8mL/bXKxgQuY1ZcpUZKSniyxGXDdC0pRwTE0+8lNPPQVvvsFqKX9in733lvYfcGBvB8h53uy+sffiy6++lOyXbCfv4fmzXW17q+AySPjPagQgUSqlxSMlWmVjgrYDD+iNvffujM6d95aF03/AAEkEz4yIzGXMhcpEaJMmfYzbbh8tydv++vNPSUvLcjdHHn2ULOj33nsXGRmZuPvuu1C/QQO88Pzzksvn1NNORZu2bSU17ceTJuHiS4ZKVROW5mEK2OkzZ0iyfCb3euOtNyXLIhnG1s1bcPxxx0mS+lNOO1UW5Zw/52DgwDPQrFlTTPljioDh8OtGSBIvLpSxd4/B1KlTpVwP1ZppU6dJ1kgCGPNXxwLSnDlz8MzT/4e169ZK4jGCC8HzuuEjJAskk8Ydc8yx6NGzh4DUzJkzpXQRU9b+8ccU/O/bb3DFlVdJlQ0WQuDBUKYJOfqYo9GqVWv8/PNPkujtiCOPkFxDBGOmAWGeJJYVeuyJx4tVU2GupHPOOltS3l417CpJ50uGNGvObCngSehduHARhg4Zgnvvvx9ffvml5NdmYQBWDyY4vvv228LMmM2SeY1++vFHkQ03FBZRYBuYJC4YDEmyN8qK2SiPOfpoKXd1yimnoGHDRtK/n3/+Ba+8+qrY35h36crLr5DyVZRlOBSS7JwEs3vuvcepFpLwFV7NHmgBqYIDRkA6qPeBshNfN3Kk7JbcGUeOuA633Hqrk8uahlWmk+WCfP6FFyTXMZOovfTyeMl5w4tZEWmkJmBk188W5kUbCBcw1QsyneeefRYvvvAiPv/yC/z4448OIHERshJtly5dcNOtt8jzyCie/b9n8Orrr0nK2QvOO1/ebaqesE3M1cxslkwKT4Z36823YNTNN2HAgAHyDL7z5fHj8fhjj+PuMXcXAyTe88Rjj2PJ0iW44847JR8QS/2MGD5Cqqsye6bX58NPP/wg6WAffuRhyaxIJlCQny+VR7744gtMnPQRZs2cJRkaL73sMpx51pnqnoICAReyxQcfGidsi5sOgZmlkCZOmoSmTZtGjZ4bkIZdPcxR2Ziq1+tlRZet+OLzz0XGt99+O55iGz7/HP/3zDPYR6eq/eP333HD9Tfg8SefEIBnfnPmZGIebVXME1ix4l8MuWiw5Apncjhmj2T6WRYWYII3AhvzMP136FD07n2gFDh44vEnwAKRTKhnMnjm5OZg2BVXoUfPnrj0sksdFlfBKVkjflZjAKk0llQVDImVa1lKiGlMeX322We447bR6Nf/MF3NQqlDy5YswQLWM3vgfkmT2rdvH6XKaHc6bQ5Ml+pPScGC+Qtw9plnSrUKqkDmWrliJb7+5mu8+dZbAjKGIXGREKy4wL//8QcBxkH/GSi11W6/806wOgnzcrOskkpkpiKHyBQIhN/98D3efmsCJk36CI8+9phkYCSV4OInKLG80k0334yTTo42au8IkN577z00aaqM7Q/e/wA+fP99fPv9d5LAzKhZBFWyqbcmTMCGjRuEIbFvzDhpLhqdly1bKmWHTAklVtYgAD/+xONRxTT5m2KANGGCsENmzaSNKDu7nhRaYMkpstcxd48RhvnBhx8gTReQJNshqF555RVSBp2VVbjhcDzc180334RAUVBAaP269Tj/vPOksED3Hj2c4gNkRATURx9/TDJaMrc2mbRzeQBWYOnUsZMAHoFvd78sIFVwBpic2g+MexDHn3CCqAOs8sryPn0O6SOAFMk1FEK9etk45rhjceP1NwgLoefK2A0ISEyrSkYxb+5fOOfssyXlKZO3m0sZzT0YPHgIpk6bKknyZ8ycKSCzauVKHHH4EZI/uwVTyF5+BV4aP14qcDAPNKuHnDloEHzajmLAu26dOhhx/Uix77DtBKT62fWdtKcEpH59D5U807EqW0mARJBhalZTXuj+e+/DRx9Nwnc/fBeV2ZH5uIdfOxxvvPkGNulcPh9M/FCAwrSPYMYadA89/JCUYqIMuKgvv/QyYVzdunePsr2UBEi0IVFOsTmNyLQmT/7VMWpzPJg7m+3673+HihrFvOI3aluW2UAItLfdfAvyCwqk9tv6deukDttDjzwsIRJm3K8eNgxbt2zFE08+iZtvvlnyo1NVN+Mu5a7DQNduXWUOlZTVsoJTtFr+zAJSBYfNneT/+BOOl6fQOMvk8SwQyF2ZE5Ng8+mnn4rqRdvG8GuuxZq1azD+5fESE8OLdhraS447/jixWwwaeIZUzDj++ONl8vIZZBTMcc2qFiy7YxiSSd9KVZHVSFq2aol5f83Di+NfkmfTBkLDO21MzHNN4OSuTWbg86XIjk1PE20tTOwlZZN0uSDaa1inrTwqmwEk9oP9p53k+pHX45lnn5Hk9+wP309Wx+KNH33yMVgckgzJDUhsOw3JrHT70EMEJFUSfO6fc3HZpZcKIJGNuK94gESVizakeGluxe0/eTI+mvSRY48iIFF9HDr0v+jZq6dUVmGSfxq6QQdAOCz5rwlAtAlS1eJv3IBk2nT1sKulTNQLL70ouck5hvTyEawph0CgSCoV08i/q2O4KrgMEv4zC0gVFGk8QGIpmnvvvReLFy3GBRdeIHXVaZN45plnpEQNa8NPnzYdQ4YMwUknnYgTTjhBmBG9cnRJs4wPXflM6E8PEA3YtJ3QgPzsc8/h1FNOkUTxH374YTFAYhls2oro3h49+nYcedSRTskkghU9e6zCypJJ9GKxDPNll10qRuWNGzbhjttvx9/z/xb7T4tWrTD19z/ExsN+suDjSTFxSKUxJAISL3odCTbrN2yQAgIEzF/pap84USp60CBOY3oyAlL/Af3xxedf4KFx43DUUUeh76GHipduwoS3sGnjJjGssyYd1bwdARK9ryzTTVWT5dFZDoneuo8nfSx2N447C1zaCxJGQu8tN9dEX1WawrakxpbkbasqGxJLShuGRCq/bcsWPP74E1IZg67d5s2aSR3640880Sk6yLplN468QTxfvOjpokGZRlRedG+/9upreOLxx5GbkyO11siYLrhAlXV2e9nMzs93sWQ3AYT15U2QItvE4ogP3He/1Bnj82ibYpsIiLRB8ZlMRk829P5770k7e/bqhccef1xUPYlDOvmkSNFELfx4Ru1YhkS2lZebK251VlkhQJFxsBQ2K4Tw/ckKSIcfcbj09PvvvpP6esuXLYM/NVXAiSy4Xr16IrvSAInqM4W3etVqqd1GdZWLo1PnTrh7zBjs37WrdfvrOWUBKdEwrJ9HtYRxMTTG0qAae3FCUsWg3YB/4uWoJsjQzczKGiaOpjLN5a7DNtFOU1JObIIhPVxsd2wVjsq82wAt30/vYjyZVPb5VfV7s8lxLLgBMOiytKNKJbWF405Q5mXsbFXV7ur4XAtIu2jUIgbvsh1IregCiO1eWZ5TlnsqKrZYw3JFn7Ozfxd1kLgSh3ET9Zyd3f+d9b6kA6QG9bPkzFFlrnhqW6JVtrK0r7SFXdr3fEdZ7ilLW0q7JxYgqwI4dlZfSutrIr6vSX1JhDwS9YykBaTKDHiyAFKiBsk+x0pgd5FAUgJSSoqv1KMgOxogC0i7y/S1/axpErCAVNNG1PbHSqAaSyBpAcnYTyoiWzKkWJVvV9iQKtJ2+xsrgd1ZAjUWkGIH1QLS7jzNbd+riwRqJCDFY1cWkKrLlLTt3J0lUGMBKRaULCDtztPc9r26SKB6AFIFk0a7vW0WkKrLlLTt3J0lkNSAVBnDtmVIu/O0tn2vrhKwgFRdR86220qgBkqgxgOScf9bla0Gzl7bpRongaQHpESpbRaQatzctR2qgRKwgFQDB9V2yUqgukqgWgBSZViS8bRZhlRdp6ht9+4kAQNIzMuV6Fp1FcoYyfQjPFwbe5WUCXJHg2Xd/rvTVLZ9rQkSmD59uqSwZZLARF+7HJBMhwhMliElenjt86wEEi+BadOmSZVlC0iJl619opWAlUA5JWABqZwCs7dbCVgJVJ0Eqo3KVhnDNn/LRPqDh1yMbt1suZmqm072yVYClZOABaTKyc/+2krASiCBEkhCQKqHFCb5Z3GwOFdFvG2WISVwxthHWQlUoQSSDpDq168Hf4pXap67QcldFaMi8qCX7aLBQ6zKVhHh2d9YCewkCRCQ6GVLnsq19bOR4vOw4GlCGZK4/QcPQVdrQ9pJU8u+xkqg/BJQDImAlCSBkfUJSCleeIQiJQ6ULCCVf3LYX1gJ7GwJJCdDkkjtUElmpAqVSLKAtLOnln2flUD5JTBDGNKLyM+PidSuRLVg04oKRWorhuSDJxwGPPFZUryqIqV13QJSaRKy31sJ7HoJTJ8+DS8+/ywK8vMRJiWR/6cJh9Ws1b/5uTnnFlVdqJTMshUGJB8BSV6bOLXNAtKun2y2BVYCpUlAAdJzyNdn2YgAXpITlpXXP1ZkiZ54/kWDkwEqfV88E3SFAUkdrrWAVNrg2e+tBGqaBKZPm4YXX3gOefn5xU/7a61JKU6EHE2JNDARoBST4tfFIamSgKQwsSSWVN54JH+KHwPPGIR+hx0Wn+5VcGSVSIpzxQrWJYjbikS+wy23eOkdYgtsliSWsCLOFZJa7DuMrIq/uzJSjP/bMvdPJj+33XDC02BUSGgV/FFZ+1uWxyfyWVHvc2QN/O+7b/HOhLdQGAjEmV0cU848Zc0xs09YFL8xTMrrE2BywEmDVygM5OZuR0pKivzh/Pd6FYB5hgy5JMwHBINB+VNYWCgnfI0NSTU4cYDEp+27774466xz0KBhQ0ce7kVZcYHHAaSknMis6Ouss5iFVpnFX5bprEc0jlxKl3vZ5WsmZSzYlv6O6D64494SnZen7NLa9Xe65bYjGZZGEHYkQ/PcdevW4s0338Cc2bMRDodiAhE1CsWacbQep5Q3BUp8l/qYNif+UepdOBhGbl5+JQBJFg8bFv8qTQjRKAykpvrRqXNn7Lvf/qhbt67WPyN3mcVarmlQ0o9cqF9BIlF6w5x3UOgl29tcDwJCYYS5e+jxcr7jBBC6W0Zg0rtRiQFjsUKU5mk0LPZdCZ/LTwwtj/lRCe/Pzc1FYWERsrPrFR9GZ6ximJ18HisQ3V55fcWYYLnmUZXfXJb5EU9kYRk2Z1a4NKXI3eZDZYBWkot+3w5BPRzGli1bMGvWLPz111wUFRXFkUYICIt5Wzzw6k2RtxiWZH4YASbTcg9CYQ+25xdWApD0hBS8izMnygVIuqUUDOmaUDX3RCtx4psf6v+ahcUGhQKAPEfrrebWUFA7BHwiOqPueuRfXPg+5UFwpBezWB3rHUdWA7KoDxp4zPfy/hTdD0fxAUIaXOQ3LnVbM86wEFzXBsT2iox9rmcpMBCckx0n8m61G4VVYIbzDjVrPQJs/Gt0kj32Xaat2b2c+RqGh+/38t1ehT8auORzaac38n7TbJkSSnF0gDQcQmFBPkLwIT09zdXByOKIXhgehB1ZuQQijdAgSbtEpXeUKkcbt8lX9dvMG4RcYTIVAdYdA5nZF6J7GGdTK+XVoWBQgKjYmna87Yr1eJ31F4EEw6VK610oFEZuQbBygCQTPN7m5dIZyzvcsZ2WaR1v95RJH1I4rBeFdJoLlQss7EHYy8XiumQRhzVQqQ3eLDK9rGXxRYcuhIFQEB5filrqzo/UbkBd2LzDoc2Ui7zHLHw1CSivsACVPwK4ehDZLrY3GgjNwtbAI33zCPZ5QwH1XoKeA566Q2SuHvfnGkg001KuWQPilElImJn5UI2BB14E1Q7Mdgng6uHm/QbwIo+BJ6zA0+NN0Vir71MoqPBRu4rlZ+xzOASP2BUiU1ZEHOROHIYnJV3dKv8TkrFQ3U4t79TaZfdH8F3NP/k/B5Qol9KWa+lNrwgBKP2pO7hDpgjXvwY4+U8YXg6w/tS9d5fWw4QAkkwY3ZB4Ta+okJzfGTrKie5aMOZd3KVlgguIRC8w1GgpBwAAIABJREFUWTzCdtyApABUgYimsrr9DtvQxtKITs5GEHgizxKsIQsJFcHrSy0WACELM/bdepjUW5VB1mEwXPgCNFpdc5iTBjZhR1EdUSDiuFdN33k/2Y4HIS7yCFIpINYBG2bCyDowTCcKPPm5AVsFgM6zNCiIzDkm7vHXfVKEXf0v20Omw/sdtuqAof7Op4yYCqP0oAtI+uAxIC0LWAtGjKKlTfFKLbeE/lj1Sc09A0RV0f5im3lV2kp1f9QGqRl4XN4bV4EqJt8EAVJEDShpBCsDSgIKjk6lYhoca31YKTdUM8znapEa/dXjTGa6FB39ls/0kbkYtsNpTkYVclgQ+yK/0eCkXJauBaNXtCw4vWAiICrbOzw+v4vimgELOYzGYWG6f3y+21TI773hYHEWxE+kP2QuMfnNHcYao6byOQ5jiyxktVvHscMI6JDJEURcLE/sBJSxUtUcG5LIQ6moUQtNuq1YjWwCAiQaiw0gi2FTj5ms2wA8ZHdmAxINjapNkWwK8PmTVklzG+3V3FUApDa3hGJc3IftCJB2ZPQutWVRm46xE8kkMNZqZ0zMXlre7lYakBzXsgi7ZF22MoAkgqIdgYCh7TEOIJEfkCFpN2LY2FoUNYrsrG710ezgUbuxVnMIIil+B+ONahYOB+B1qVhmBxd11WXrciaje6G53i02F75Xg0gEkLQa6UuJ1tEdVT9G5xd1kHYdtjVyKQALKGbmtpuJ7agIIQGDCIAJGBmgiFEVDTSaaFzzFsVIXUxOcxYBTs4Dr19ZjszqC5HlaDDXzIf/lvYLpqn2OCZQWcRUXZV6rCiFAkA+UzaVnbGyS12hxW9wAi0E5BXzM+GCVcGGYse+Ak0u8SdRU08NgsPm1dzQo8a9Ua99tepcAZLlbFClAcmh6sLnE3u2TURgdDACBbvqXsiirvKdytgr+7yRIgMaKDTXbu3YfbT9qJh6YBZRlB1Du+H5fmEKbpUiAgrRz5Lt3Flo0f1Qg+q+39hFRMGh3SWid2rjN+/X/TMD7KLh7m1AAIbAQDXH1Q/DGgUYomaxUu+UXN2sSYELQSFqn6G9IEgg1LY0IzPHA6hAw+zEoppwUQrY6Rxa/Le+XwBGB83J+Al46fgUI2sCpsg/RW08em0kH0VyqZlGNXOIZ3m5QvlWsltjSBjwOSYDZ9JpZ4gBInWD4wyJUdUMMJWn5+UCJMYgMRYpOg7J1diIRabYXKkIQ4qwIAKP8uKZQKoIs4gYA8UwaozL8ne2LdruIjuWMItotUIWUJRHTG/MyrIqgBcbD+UE5LkWfkirWPJrl6HZsR+4VMUIUEVG3mm/AKq2W2kgjIAzf6n66jJ3mwa7vGrGtGMAIAKoES8Pdzr3GSQFSwSAiHdMj7GAP9XjWKM7P9e2nqjvlOHWMBoFvLpPMqddEbvqS73pUlVTjNWtYhgmVb6luhPu1h4/NT7mj1q0O+OqyNoqS7siDMntQXfxH/2xce2X1NvyBOhWEJDqiVuu+JXYIElnwRpQ0GqZA4HcTblz6h02aoFqliGfuSRlJg19R7GfxwMkWRS0Z7iNsZq5OV4/eX60bcnZHVyMyhMOKPbjS1XrTW5SdqtoAFMLUTFk3XjNOjhJeG5I7F06BMBRE8XjRttYqmZZekoZQ7B43NSCEXzXKpMAp1sjNAwtKuSCGFjkuP7d2xDloIZAAYwyNZDtGPtTJJmfsqkoj6jqmQchqrHiZVMMyAGmYECA16s9bGVZRFV5T4zSrACTLFzmiDpoLkl5doI6WVUg5JafYzIycYZhlXJIhcnQxMB/l6wVReaI2mjKEppRLkCKH6kdPQUiumX05xUVoExgMQhG1C9HHdAT2asNpWpV6CAxvRgioemqPeJGjgE29YUxhLtdSepztXoV04p+t3Lpq/kXsXUodcTNRoxRUzE8tSB1pKrjrXLZXbQRWNmbIl4pE/qgbCn077mVNW3kNvYp7VZWfXOFHjjqoFJ3HbbjqLqKQQo4RAGS3vlj4rmModoY9bWUlZwEPY1VwXjyPNqZoGUpgBRQBnqGVOgx5NIWeIvjVa1K0NnRs41ZUBnxlSoq+wYtCQ4QRbO6qmyroyW4N70EgaEDRu4OCAgxaJehK9osYTbiUvhgWVlSBQGpJIak9sdEnW1zENblNYpr/5BJ61YjdHyHLP5ogAkHC7VhPNoDFQ7oz92G3Sj3bMz9wmy44KI/52JW7m2zuJRMxHDMvxZjIwYII14umQzGGKrDBpRXSruNJR6KMUwKCI1tLIqlGHVHg5ZSdxQzksuwPglccNneXLYgZy661NZoY3JY7EkRIFHgR9YqDMiMiTzeBFdGjOrK88RbDXPjz4OqbeJJS0keA7aOlTKAqza+mM2rKtEn5tll2eDd6m75m2YgxEwYh9Jrd1HkibHMsRiTNKy5lEYogIUERvr9fvh8ykxS7CwbXd+M0OQfsqTs7CykyG4W5w0yw4x7PQEsSXuBjFHUbAAyINxZuSS5OF2Xo+54I8ZVwxRkkNy7tjGcywJ1g4gBAOWxcjMtBwCcQEEurGjXp4lvMiEDYcYqeaiSxACYZmyOumNUzRgvnSI6mi26PFPqcx0o6GJ+6l5jk4l4pUzbJe5Ix/2o2zTYiZGZ8VxkSnr31zFKUeEFxqYX6/GS30UzRHPmyTFgC3sjwlLF9Cq5C+iZ4ynGrqU2Fq9RTY3n1Jl3boZY/iUX7xfmicK1jfw0Q3dUDhFnJPQkMW8u+SkOK3exW5n3DBHRYSlV0h4XC1Kaj1eCPQznjZJVTPPNEJWVGckeqTfR7QWh0gEpEAgIINGwnVW3DlLTGCFbHAvZAMmNEgesyoLqpl+Re83OahiB3qO4SOQ4Q4oATGTt8YBeoTZau2wa0uMiHUQYCahz7B1qhF2LQi10ZbCLDsBTYKiZgVsEtCOQIYknyJxdM6AoL3DDpmI3hg04tFupUiGGGfhiopCpIggpi/a4OZ4s7iguWxZtYuKxMp5JhV7aQaAiyx3mJR4upaqJOmlsWOy/drUbWUkAnHjavEpl1b0y4QNql3DZ1LSsDFuNZkZKLhK5TlkwvkgYkzoXpVidUpsF3EXVNTaoBBuNjZqro/+VX0GBpFfeLRZ9bb+LthlWjo2UHdLKuoYq1B4HYfRf2FdR01QAMPtO9348qbs/i4CWOThU+jiZfgVCYRQUhcVGvUOGxNP+hiGlp6WhVu3MEqRoIjHiH7gtq0BjgUnp6Gbma6OvzBGqaxFUMCzCOT2sv5KfBou00TTidpcncjHEqn2OuqZDMl3ucod9xFHXlL0mYvCXoRUmp45kRAcManUtJsxABSpqtS8iCB0vxKMwruhrrcYpV3lk4B0GWcwRYM7E+Z24scjxhZjATx3rpADCpdo5aqCL7Yk9RbNMzZoizChyUFhouYAZo699jtdNMWBtq3NCGrTxXWO5AiZzaNMY+42ASi7LJXeYM4aOPOVD9ZVhiAJ+7lQmqk2K5SpDrrk3lpFUCADKiEMlrZnEvzOacXIle52jLcq9r7y66iq+vWqyUAH/ouljYVEIgXDkLGuJKptbbePfqbYZ3S5WrqrJ8el0eQFJDIeumB6zW5rwK3WkwCUaPWFjA+dk8Fw7t9Nm0RSMzcP9HHZBqWvuZ5mFHqsmKjNM/Lw8EqzpTkwlq0B5CBmWwD5E0XJ9RMUNtGolKGYQRUyDyrMWFcagqW8UAMaoZW6bW5jeLOHhkdAGR7VThi9FDqTdkcO0kQ8189KGehNVrzygSt1VdqpIH3iwV/bPECOvaegu25k0erMUUTHPc88+ZeZ33u9aOFSpowJ33dMzagOP+ILMYWU5D6mZQURr0ik0YtSoMmJMuW8r97op9xucAXY2eKPyx/KbeIBUkdepzSAyEFTZ8gro3PAhxedzGJLZaJ18SPwRQciobUwdkZGRhtq1ahVTzdSEUC+pjHHbNFS5xNVpcTWpTfyNMYiqQ7BOoKFeXGpX14gtRx3IUsypc/OF2SW1pusYqDTGkbOLvSlyKXZkvF+u73QkedQhV2P3iQOEasHrYEsXoCrjtw70VAiqFqDYcVS2PTfwiVoprExHXytKptTZKNuaZpVxch2L2igMTrEM00fxshFQtNoin9P1T1uYc1RHv8s5b2aAwpUZUMtBjn1IZDlBVfVHjN+icu+4rJYTbGm0KFk/xtZknHOawcSSJ72dG+O9cca6UDay6YhKFn/uKgO8kk/i2Un8JV0eIIpaB2U+vxZrCVIH0mVl6NiUGKtnFNUoXRnbMVS5N+L8ogACQcWOqK7xj1o66i2eiy8eKgnaCEb8LwHJ/adOnVpgHuy41w6OkpRHyM6uqo6xaqTQk9cxgroAIy4b0bYdOUoSfe5LPGIEPTnFrwFMRkOrBjFuVAUAkbNzzm/k+EUM4MniUSfl3bYWNdqKHRk7TtRzNOtTrE5HfuhDro5XTxiZenaxPmmDtHMgVfcnFFQqVeRzF0jJBNTTi3KlsV2M3no6mkVIgHbUHwKJAkQa6wU4xadBoCW4mYPIBihMKpQwEChS3jnxpMWzRhafVZFNyn0gOfo+w5E0BilRu86QqabTLqbVOJnwES+jbNh6I1AHlE3+Kf0eZrQhS6vsStzxOo3eZEtgYY48KtUYN1U0RELJKCSyKjl6KGIoKaUzJXztbn9hURD5RUH4fBEwMkDkeNkMIJkdwbAkY0/i55mZ6UhLS5MBMgGKehZEGFLM4JnnudEvPqipBe1eFDoCL2L3cU6Ba5XJxEnEDlI8Vc5R16J3c1keAcYr6fQgUbYrpYZEzUgn5kefszJzXTQU3X4xFEd28lCwEN4U5gOKoKBzAtyocM5SNYawGBuRHKehYTmyhylDvLjhIqvcsCZpl/pcgUd01LpRayM4bwy5qh/yGB3QaGxjTsComZ36XWbMJOiRl5eHYVUAoTFORwHmDuZ0FBuRMTOeUnHNlPjL4kxHA5EyB0VEb9JIiQE3Qq/UgomjsMT52L3JJuLoRrxNu2pYmVajzc6oVXt3r+OrbAa8yorMejRiwJV9KgwEURjgvPCKd40AxD8OMzIMiSlsnfWimRJBiYBkmBIfSGrFTI/8YyzjhtkYL07sIJXOkvSuJUxC5xpynehXC90FDCanjuzW0cc8nEA216HSSL+MChgzr82BUFErDGjoYDgRVjQI6IAa5Q5W27KazBKBHBurFMn/Y97KV0iAYCyLc1z60SEJUTYlV9PFW+UcKtbU2xxMltPz6mYDPo5dynxmPHNO/JOJ6tbEyAC9sGadTkQeyoOkQXidgEo1dZQqZtKQ0DNK4qTPzZVxZ3dAzChTorZrQ3OUQU33zVG53IvFOFkUGuuYauFmYUYcG5Zk8kE73krpRUSVlflQWW6wY0YRC26lr5UdPy/+t3ppa0+m27wSsf9rVSlud92qXmnv1yG8htiSgDOUKBBEUUA5dghAJimjAaNigESGZCYv/0swMn8oJANM8lmQrmqT66XkXcsE55W6ixjW4agRWjhaL4gwa73oHORV30R7s1zCKwb3hn24dkxN8Y2D08VLVGyOS691sEctv+j4FINlYpdQND8qIiI2wjZmjB1gczDRoIlig7yKBX6atpvIC+Mmdx9DcftJoozxWuExxhJ3LLhum+NdcohEJB7HkVO8LdXpu0tBK+Pm6p5Navj1AWVjh92RV0ePlwMi8tPi0TGGDcl3bnuWDHa8+VzGxpe2VvW8UV1yydJ1QLkkB1GZHl3STdIlvXZcVqEo+1qlXhDvxwyfYD/pyNEg5PPBq+1FbmYUC0bSWgNIBpQMUruByQ1Qxt7kBrGE98k+0ErASqDaScANMCZA1gCQ+7+x97k7WgyQzJdum5L77xaIqt08sQ22EqhyCbiN17GA41bPDFAJG4qjzkcBUiwYucHHbaS2oFTl42tfYCVQbSUQjynFAlBJ5py4gBSrvrklUzXGt2ore9twKwErgRIk4Aadkv4e+9MSAak0FmSByc5DKwErgXgSKJH9lMHjukNAsuK2ErASsBLYmRKwgLQzpW3fZSVgJbBDCVhAshPESsBKIGkkYAEpaYbCNsRKwErAApKdA1YCVgJJIwELSEkzFLYhVgJWAhaQ7BywErASSBoJWEBKmqGwDbESsBKwgGTngJWAlUDSSMACUtIMhW2IlYCVgAUkOwesBKwEkkYCFpCSZihsQ6wErAQsINk5YCVgJZA0ErCAlDRDYRtiJWAlYAHJzgErASuBpJGABaSkGQrbECsBKwELSHYOWAlYCSSNBCwgJc1Q2IZYCVgJWECyc8BKwEogaSRgASlphsI2xErASsACkp0DVgJWAkkjAQtISTMUtiFWAlYCFpDsHLASsBJIGglYQEqaobANsRKwErCAZOeAlYCVQNJIwAJS0gyFbYiVgJWABSQ7B6wErASSRgIWkJJmKGxDrASsBCwg2TlgJWAlkDQSsICUNENhG2IlYCVgAcnOASsBK4GkkYAFpKQZCtsQKwErgYQCUljL02PlaiVgJVDzJRAOAx6udq78xKz6hAIS2EA2LDFtq/kDantoJVCdJVAFDCShgBQuykeoYBsQDlVnMdu2WwlYCZRFAh4fvKm1AX8aPMKUKn8lDJDCgXwUrZ6LwOZ/gVCg8i2zT7ASsBJIagl4vCnw1WsJf5PO8PgzEtLWhAFSKHcD8pf8jHCwKGFomZAe2odYCVgJVJ0EvClIb3cIvLUaJOQdCQOkYM465C/+QWxIiSFvCemffYiVgJVAFUnA2LTT9ugLX+1GCXlLQgGpYPGP0qjE2dwT0kf7ECsBK4EqlEDSA1IV9t0+2krASiDJJGABKckGxDbHSmB3loAFpN159G3frQSSTAIWkJJsQGxzrAR2ZwlYQNqdR9/23UogySRgASnJBsQ2x0pgd5bAbgVIVXBcpmrnTjiMMI/zOQ331NwwiDBDPHjAchdFnzlnJ5NzlnhSM+Hx+BAqzIE655ngSwKBTJxN9CFXzj/OQ15h1yHYqogS3K0ASUtUSdaXImGX4VAIYYSSMwDTLBK210wIhG24aILXool286bWQkrDPRDavhGBTSsU+CdJZG56+77w+HwoWPoHQoW5CZcAPF41yXh2NByGx+tDWHfew40xFJQNgx9xBrqmZELbsvsBEsXpS0V6+z7wptVBYPMK5C+fkrRHVFKbdIK/YTvkcSLmrk/o4CfTw7y1GiK97QEI5qxFwT8zdu4ZRs3OfLUaImOvQxHYsBQF/0xPJvEgs/NRgM+P/AXfI1SQk7C2kfHwMGt6+0PgSauNwuXTEMhZh8wO/eDNyNKnJcIIBwpRtHU1itb8DRRtd0ApYQ3RD9oNAQnw1WqA9D0PlYEIhwLYPvcL8ECvwz24NXq98KSok8eyOwQKFMGSIVL/6/H5AV8qgBDCgQAQKjK8Vm2tHj4jVah2OBxAOFCEcDgo/Jc7kCfFL7tROFgIT0q63I9gkfxbdiCfH6nNu8DfoC3ylk1BKGedTIzoDAgeaaeoOzz75/MjFAzAw/eoh8j3bA/PBvIetldxcKqEHnjZB/YlHES4qEDazLaEi/IAttOXKnIC26XpO9srstHtESYvMuNvfSIzBAuAkEsV8FJmqYA3RcmhqEDvul6kZDVHWtteCG1bi4IVsxAuzFPtNRTFvNfrg9eXpprPd7NBfGYooORm+su+hILqfdzRAwUIhYMRrURko8ZY3hEogDejHjI69EPRxqUoWD4teq2xb3wv28RF7EtR75NsFB6A4+z1I8x/i0wof9NoziclRxkHtjVQqFRxw8D49xS/bm9YniEyl7kGBQ6eFITyNgNev8hayV6PM+ejP03NTs5Vyt/DeeaXecbxkbabZ8YcgUjv0A++tFrIXzYFwW1rkbFXf3jT6yKcv1X1yeuHNzVTtInCf2cKg5R5lOBrtwMkLtz0Nr2QUreZOrzrzxABF21Y5MwO6uv++m3hq91QUddAPgLb1qJo3WJngvjqNoW/Xit40mrJZ9y1AhuXIZhDFqNYWEoDPqOxXtBFCOWsR9H6xTKReV7H33hPWXj8ra9uM5nk/Htw4zIEtq0TZpTauCM8qRkI5m1BuCAHBavnIpy/zZkGbH9q8/0EHILb1shzCtfNl3dxgfnrt4Y3I1smcKgoD8GtqxHYuFxNMq6B7NbwZTWHNzUdCBQhmLtedko+N2/hT9LO1MYdEMrbhMJVf+kFFEZam96yMIvWzEOoYKsAagplVqeh6m+gUBgd+xsKFgnoiTxqNZSFQxkEt66R77nY0pp1kXeFgoXSv6L1CxDYtFKDqt4A0mrB32AP+GrVl8UWzN2EcNF2cCyC29ZJW7iI0lrujxAXUigIX0Y9AZ5g3mYUrV0o9wsW+TPgb7QnfJnZ8j3vD23fhLRW3eICkq9OYxmLwJYV8KTWkoVeuGauAHhKdiukZDWTcQqHwgjzXRuXIpS3Rb2L7a7fVg6NynziOGxj35focfQIIKfUawHOPV5sT2DTP2o+hcNIa91dQK1wxWz4slvAX7c5CtctRHDrKsEsT1omUpt1kecXrJyFcMF2aZN6Zi1R84MFW2XsOcaxdqh4gESwzl8yWdIAeVMy4MtqhtRm+0j7CVxUbRN97VaARDDypqQjc+9j1IBvXY20xnshmLsBeYsnA+GA7EKc0FyooaJcWRxkVGRMhav+RtG6v+Gr0xRprbrDm+JHMHejsBJvZj0Et28Wqs9djAPHCR8u2IZA7kak1KoPD1XETf+g4J9pSKnXEqmtusJLQyVZUWEuPCkZ8KRlIJS3DQXL/pBnpjbpCG9abZmYnBhFaxdEUXaCR8aetC+kye7H3TBv8a8I529BWstu4EIiBWd+KV/dJmrCrvgTgQ2LpI/sK/sW2r5VwMabXscB5txZE+Gr1wLprXoguG018pb85iT1y9znWGE/+ct/FxnwOWRyofxtCG7fJDJju7kA8v+dLt+lNd9P2kG1jO3y+NNFPQvlb0Za030ETAn+/H3RhsUCWLJwNNvkouQCo90P2zcDaZmKpXpTRPUWmdXKRmaHwxAOhgR8CEQEMK8/A0WbV6Jg6e9iP0xr2RX+7FYIh4oQytuqNhaPF96UtOKAFA7D16ANMlr1VGzW50cwbxPyl/4uG05aiy4IB4PSLy5i9o0bQt6y30H7SyrfVa8FggU5Ms7eTAKTF4Ur/0TRukXw1WuGtJbd4fF6ENi6VsYopW4T2YTyl0+VsczY63B5b96iH0FbV0b7PiiSuTQVCIXgy26F9JbdZM7mzf8OKXUaC7iKbLaugcfnha9OM3lW/vJpimm5WFJ8QEpF/uJfZEzlXq8Xaa17SF8KV/+FwjXznQ06UcC0WwGSMIKG7ZHWcj9hM5wQGR2PEPUmf5laWJyYmZ2ORGj7FuQv+lFoM3cvf+MOshAKlvyqJlj9VjIghavmyFikteklC7Bo7XwBgFp7Hyd0V3aSwhyZROltesCbWR/b530Nb0ZdpLboCi/tAsv+QNHmf+CFD2ntD0JKnSYoWPUnitbMF5WNDGX7op9EnYm9mNRKAMmfiqINS1G4+m9Z1GQ9GW0P0DayqbJDkkmIWrR9k7Qrvd2B8KXXRsHaBShaPU/UD3/TjkhtsrdMtNyZHwoApLbqjtC2dchbMlnb2sKotc9xsujzl9PImiP/DhGQl/0hoONJr4301j2ln+wvWYS/cUd5DxkcmRJ38CANyBuXw1enCTLaH4LA1lXSNqVaRi6OSy2OS1Ee8hb+iHDhdmFyGe16w5uepRanAFJ9ZOzZT8C7YMlvCBZsExZEVuxNq4Xc2Z/Am5mF9NY9gJQ05C2ajFDOWllsNByn1GoQlyGl1G8t/QkVbpf3sK9Ud0W1EWCdjuCWVeISTW2hwDl/yW/SzvS9DkModxPyFn4v69qf3Rr+RnuIalWwdIrMnZSsJihYMVsYIwE4tXEnpDbtiIKVs1G0ZgEyOg0QQMpf+JOAqNhA/RnInfu5YlDNugjjJtsv3LgUaa17wl+vOQpWzhHQI4P2N+oAf9POkmuscO18YcnGU1YMkDrq9y3+RaltWtklC+YGVbRxsbRXVMMEXrsVIDEJVPoeBwkoFCyfKgngyHS4UxasmouidQuENaS36YnCNX+jcPXcaBsIhyU1U7731WqE7Qv+JwtKzACi6quUu2RQGe0PRqggV9NaqkdeoeycRLLrhUNIb9VN1EbasJS9AcJiZGFu+leAqjRA4qLMbN9XJjFZntBoD5DadB8BF+aWIn0Pe2i8ZBKs5gjn58iETG22t9i38gh23DEJWlSf2h0o7IWAFGFIa5C/9Dc19cJhZO5znNgvuDiZ5S+jHfubI2AndhWyjdoNVX+X/i7MIrX5vuJIYHoZMggyU/6hLULJrGRAIgPIaNMLResXoeDf2Y79Iq3FvsJEizb96wASGRLHVthXsFAAgzt7Su0m2D7/G1Flyegoh+3zv9VdCot6S+CKZ0MSQGrVU8C0cKXahAiEbDPtb1TBHBBNqy3AxjlElTytVVcFDGvJKPRlMjTLRtVLgJTqF+2MYjYj06rdWMCajDqjY38HkAjKqU07I7XJXiJbUTVb9xJ2u/2vL4UBmmeGtq4WBi6z05cm8yuwkcxqSsT+BWBHgESGZIhqSv02AuYEzsKVs5WtMIHXbgVI3JXJEDgwavALZIH46jRCYPMqFPw7TRYGmUzhmnlCSyXugkZMDTZcqBxs2ju2//2tXsgqPkPZXz2y26fvcQjC1NlF7SAgKcAR28fmFUBa7eKAhHBkYW76R5hCmQBpz77SRgEWqgUII63p3kht0lkYB9VTjSTa6Fkon6XTLuHxIn/Rz6LayCLLyEJ6u4MEkHJmfCCqJScg7Q6k7+aqte8JsngKlv3uABKfQVsO++u2mRIcqBaRLRHIaZvz1W4g7LNw1VxZIA4Ql8CQyLAELNYvFkAKgwZfD9Ka7ysM0s2QCEhFm5aj8J+ZwiaoRgkgZTXF9nnfKpsV7UwFOTKGxrickt3jcsp9AAAfa0lEQVQS6W0OiG9Dqt8aGa17omDVHGGuHG8+J7N9H1GL+D5xSOjNiXOBMiMzpnpIQCKjVnMkEutE+w69i97MbAQ2LNHOk0i8GTeKos0rkGkYy8KfECzMFRbNjZFyLVjzFzLaHaRBeLrYx/hMX6Zie8oho98Z9oiKHNiyMsqOtGNA4vxhwz3quVnNxJ6oADaxMVE1H5D0yuB/UhvvJaxAPGT0dhgiyi+DhWLEpfeHqgHtQfmLFD3mAJDucicnDU8jJa/fGgVr5qNo1RzZPdLImjLqyGSlQVpUmPytsmAZN+JJrY3U+q1lN6WaJ3aoll3VrrfsD5lMHo9XqWy1G8suXLh2IVKb7yPtzlv6K4L0bMQExjgMCUDeoh+ElbFfAiRU2ajKLJ8qE4c2Gj8NwPnbRGWlp9GbXltUgoLVfwmQpDXtBH/TvcX2kTPrQwHXNKqaHh9y//oSoUABfJn1kUk1pCBXVF0u7Fpdjteq4O8I0V6VVhdkFV4aYlfNhS+rqbAALrpg3jZhpbRx0GbC7KC0u9AuQudB/tI/lEfPdYlq2vkIMSKzn+GCXFGR09v2hie9LoKb/5XfKRtSfwQ2kwXMQDikPJhUYbiIyZAk7KNNT9mYKFfaEmnTyWjfV2xfVHkKl01zxX5RzWqF9Na9ULBqNgJrFijG6fWLykbwzv9nqqhsnEppdETQWbJuPjzeVJEVzQFU2XiJ+tpoD5ET38NNknIuWDETgfVLxIOY2mhPATMCXSh3IzJcgCTzSUCnl7B9jjGfyflLR0LY41WOG9p6VswSVsnx9zfsoMwKm/8RhhqJhNQMKZVetj+EwZr35WkbEuemOFlo1A4UClsWNpzgq+YDksZwGiupntFYmLfoZ4fZUJ6k/KlNOzk6PIEipX4rmfTiAaNR2+MVxlS0bqFM7NRW3WTnFRXJ65NFSvWj4N8ZYowkQ6FOL16z3E1C4anuBTYtl3u4G6e16Cq2CwQDylCdmgFfaqZ4ZzgxSJVJkWmc5gIN5KxVXq38SByKY9QmIC38AcH8HAFbb2qG2LpS6jRVRu1AIVLqNkI47EER1YeNS+DPbiP2Di5Gshv+joZ3Tj7aR3JmfigqF4GDAEqDLEGWTIefhwrpbfld7CMSnsBFJkbtzUihhzI1Q8X0rJiFlAZqMtPmENy6Ujx/NNrTSF+46k9Z1Jm053l9MjYEe2WTMQPoVeNXr6WoCfT60Q1NQCfAENDzlv0h9qLMvfprOc9UKpBfM6S6TRSrLchVRvjs1qIyh/K3KE8Uwy786arNBHEX+Bsbkth01i5wwj9kfJrvK2BetG0dfP4MYX90nTO+jXZHyo+GYMqGMiNo8tlFK+eK8Z62vfRWiq0SkOksIUBz3tBoTRaU0fFw5bDgpqkDI0XmjTsISeE8FJsVw1fCgL9uE6S27iagyWfSg0tDtzheaNTOVx5Ac3Fz8qXVEZuguP07DhDtwajgyvNKT2wBClfPc2xdCcYj1HhAMoFfnHBpzfeR2S07sIrCUXabzCykNttXGaFXzpaJLm7/Wg1FH6ebM7BtdYybtilSslqKoZRci6yjaOMy2c2U298vYMKdT2JdAgUI5K5D0bolQu0FkFp2lUlKVzIN5wQ2GmMlfGAbXbMhWdT+Bu2E0tNmQ7YhXg99cZIIqACy8Gl0NVUbCBziis9Qrm16najCcUc18TMp2W2QUq+5nmyFCOSul3AGMicCEi9Sf3/DtmJE5gKmust+EVwI0vQeMTYopQH720i7/Qtkp5VQCcb/UB7ZrVR4Q0qqAgJ609bTFa9UCvmeIQg+GuiXiEHerWqK+9zl9icQ0mhM9iVhGav/hiejDtJbdtVhGgt1LJJfvJUEK/GCFuRIf/0N99QhBMrtTzuQv2F7BLasFm+quwaXuP2bdETh+iUIbv5HzR8516PYE1m0158pcqUHLrBhmaMqK7d/O/Uuuv0L1XziPSqWhw4H5aIXLydVXs6nDUvFRmnc/rSB0pBM0OFnZJxpBHmPB4HNK0VmysisbZl1m4pMpZoHQrKRBTYu1XY7o2ypNUCAZvtpquCGQBDleBsdlOPFsBPKyIQiVEUYe40HpMjK1UF7HGwJqHNdZAYEDY4NB5uXDmQTtmCC7mLOEKnASL/YIGi0VYFs7udGAgUl6NAV1MidnoPOnY3GaBWE6ZWFagIjnSexLd4UFVQXGxhp2s4FQltB7DknV0CeBA/G9p3qqwT1MZgxJDsp6b4nI0uM2g7w6b5ywqtATi0vJzjQBBqqwEhzX1QQJ9vK8ASyQjMOMWWuVOAk5cBA0zgVZySglAGAJjCSiOmPvM8EO+p2qhvZR78K2BQZ6YA+fa+o7zJ+IfVsGe9oL58TIOoEF0YNtHo+x0gHuhbzPpU6DqofMqd039zzSfWZ7XSNsYx9urqf8yaOvMwcde6J7ZfuhhM8q+eX+jePk/DiBA+pManismS7DyBFQ8Uu/5diSBqQFv28y9tjGiB2mTiAlDQNtA2p0RKwgLSLhtcC0i4SvH1tUkvAAtIuGh4ecZCYoMLtEmuSLJccecluqaKoV/6ZtIeOk0Veth2JlYAFpMTKsxxPo+FRp3sox6+q9lZzGNTEwYR1fFWS5OCo2s7bpyeBBCwg7dJB4ELXp8V3aTtiXx7JacBvLBwl1eDU6MZYQKrRw1vezrmTq0SdvSzvg+z9VgIVkoAFpAqJzf7ISuD/27v28KqqK/87j/tI7k1ubhIChFd4CPISxYjK01pURLDafh1bZ+xjdNRp1VY/8VGrjrbzjXY62mG087UzWu1YdVoHURytAwhFQJA3giICQl4kIcnNvTfJfZ5z5tv73HsTUJLc98k9a//hh7ln7732b+3zO2uvvfbahEA2ECBCygaq1CYhQAikhAARUkqwUSVCgBDIBgJESNlAldokBAiBlBAgQkoJNqpECBAC2UCACCkbqFKbhAAhkBIChiQklloi9PkH+q0XsaRnKY2OKhEChMCQQYDnraphGV3dGZFZuOWWWzOSPo6dKmZJ6KPx1BQUmZcRBVEjhIBREWDZBeTKSZArJvKME5koGSMkLkzs8r546thMCEhtEAKEgEERiN0Zn7ipOwNiZpaQMiAQNUEIEALmRYAIyby6p5ETAoZDgAjJcCohgQgB8yJAhGRe3dPICQHDIUCEZDiVkECEgHkRIEIyr+5p5ISA4RAgQjKcSkggQsC8CBAhmVf3NHJCwHAIECEZTiUkECFgXgSIkMyrexo5IWA4BIiQDKcSEogQMC8CREjm1T2NnBAwHAJESIZTCQlECJgXASIk8+qeRk4IGA4BIiTDqYQEIgTMiwARknl1TyMnBAyHABGS4VRCAhEC5kWACMm8uqeREwKGQ4AIyXAqyZdALLU6JULPF/rUr44AEZJZZ0L8agfGQfzfGiAMjpA0TYMW9EEL+SGWjgREKTNUFufEJOUxqwoLcdxESIWo1f7GpKrQVAWAqltEgghBkqBpwqD4iJNRNIhIwx4oXadgHTmD3zqRNiPFSCiWNz4mm9mUQ+MlQjLZHFB8zQjX74SqhBMcIkhWSO4xkCvPgWApgtCfpaSB142e+hSqvxVy9XmQnZUZWO5piLQfR7j5AOTSathGz6b7/Uw2N2nJZkKFM0IK1e+EIEqQy8cDmsItHSXggaV8PCwjZuh3bDFLKBKAGvJzi0q0OSFYnRAEEZqmQg10Qgt3QSodAUG06uTB/+6BFgkBkgVikRuCKCesJ25d8TZ9vH3R6uTt8gWjEkWk9RNE249BdFTAUjUNot0JdvcXFfMgQBaSeXTNR6r4TnILSbCVwD5xEXcdKUEPQp9tgOCogG1MLUSrA1FvAyKtnwLRkO5fkqyQ3eNgGTaZE1Sk5SCinQ2wjbsEkqMcargb4cZ93LfESA4QIdgcsI6cBaGoDAI0RH0nEWn5mC/5BLY2kyyQK8bDUjkRSqAT4c83c2ISBAmQ7bBUz4TsqjaZhsw9XCIkk+k/biEx0rExQoIGtacDoWPvc8vEOqYWgqYheHg9NGZFuccBkgy14wTUSADWcXMgOasQbtwLpbMetgkLIRa5EG7YDaWzCaLTDalkJFRmdXW1QnIOg2VMLaCqvE1mScmlI6EJEhRfE6BGYa+ZB9iKEW7YA7WrlZMle0YqGw2xqMxkGjL3cImQTKb/uA+JObOlslF8maX4T0GL9sBSNRXysHMQadyLqOcE5PIJsFTUQIMA1d+CcMvHEG0lsE1YgHDTXigeRkgLuGM8XL+DWzf2mkshSBZoqopQ3Tb+N+vYWijek1A8x/nVy5bhU/mSUfE2Q+k+xS0syTWaL9fCTfshuaphGzvHZJqh4ZIPyYRzIOFD0lS+pFIDXjCntqV6FqSS4fzfgSProbG/W4shilYeFaCpUWiRbrBr0u3TliLctA+Kp45bSOy3cN0Obm0xwhLYleoCoIa7AEXhVlek/Qi0oB9W5gRnVpfAFnHg1pi+2wciJBPOxzOHTBaSySZB75LNCevo2Qg37IQS8MI2YT5k5zDuLgoe+wv36TCnt+RgO2gxhomFKbFlGCOkaMcJ2CYuhKApCNXt5A5oy4jpOqJ9Lnxnzu1Iww4o3R5Yq2dCqhif2JXrG/lEFpLJJuOXDJcIyWRzIL5kE2xO2CcuRKTtKHc0sx00O1t+yVZE2d9O7uc+HEvVuRAgQvE2QuluheQaw5dUzIGteGKEJNv0UIKgF7aaudxK0oJdiLQd5laYXDkZSlcLXwqKJSNgHTENECRE249C8TbxcAO2VGRLOkZ0zG9kHX0hBNmu7/hRMQ0CREimUbU+UE5IDTt1App0GXdUh45vhxr0wDZ8OvfxaJqCcP0uKF3N3MHMdr3UoA+ivVR3ess2RBr3IcqWbBMXcGc4s5YizQe45cMJKdzNl3KWqim8Tear4m36m/lSkPmdGGkJDjdso2shsuUjc67X7eB1BdbXiBk8rICKeRAgQjKPrvlImRWjdBzXt9WrpoDFBrGdLaWzEcxqkstr+HY82+5X/CcR7ToFQVN5TJHkGsVjhzQ10sepvZATEiMcLdCJiLcBCAe4pSW7RkMsLo/FIrEYpCAnRBb3xPqVilmb1TzMgBGZBhVqjweqrxmqEoHsHssd3lTMgwARknl0naGRCtCi4V5CmsgIqXJQx04yJAA1U8AIECEVsHKzMjRN4yEBzP/DdujsU67kVlPaZ9myIiw1OtQQIEIaahrLs7wsvihw4A1OQBI7czZmDiAOLktAnkWn7ocAAkRIQ0BJRhKR+5x8JyFYivlZM7CzalQIgQwhIHg8nnhmnAw1Sc2YAwFK6GYOPed2lILGPnlUCIGkENBicY+0VEsKNnp4QASIkAaEiB4gBAiBXCFAhJQrpKkfQoAQGBABIqQBIaIHCAFCIFcIECHlCmnqhxAgBAZEgAhpQIjoAUKAEMgVAkRIuUKa+iEECIEBESBCGhAieoAQIARyhQARUq6Qpn4IAUJgQASIkAaEiB4gBAiBXCFAhJQrpKkfQoAQGBABIqQBIaIH8o1A4nQTu1G3n5NOZ/6sX8BLx1vyrb9k+idCSgYtejbnCPQ9aslvvg16EfXUI9rZCDXgh2Arglw2EnLZWJ65kt2s27f0ey14zkdDHQ6EABHSQAjR73lDgKe87elEuPkQgp9tQvD4Tqj+dnZ30hcsH2Y4ibYi2MbPQdHEubCOngXJ4dbT4+qmEpUhgAAR0hBQkhlE5JYQJw52t3cEwfq9CB7ZgtCx7Yh21Ot3uA0SCA0a5JIq2GpqYZ80H7ZxsyGxiwdi9clqGiSQeXiMCCkPoFOXX0RAX5pp/PYS35YXEW7Yx2/U5T6jZNjo9PUav+bbOmo6SuZ+V79+ibuV2HWXVIyIABGSEbViQpk0VUHw6BZ43v0l1K72GAKp5V1KJPjSNOjWkMBv0i1bfBec51/Ps1ySlWTMSUaEZEy9mEMq5qRmdlGkB9373oR/8wtQQ13ZG7tsg+P8a1F66U361U3xJVz2eqSWk0SACClJwOjxzCHA83OHfPBtfRHde1YDkVDmGj9LS4Jkgf3cy1B2+Z36nXHk8M465sl0QISUDFr0bEYRUCNB+Lb+Dl0f/hFQwrpDW3fyZLSf3saYRSbw0AD7OfNQfs1D/JZdKsZBgAjJOLowlySaiu6D76Jz7VNQg905t1QESYaj9ga4FtzMrwZn1hp3dWeLC82l3ZRHS4SUMnRUMR0EIm2fo331TxBtq0unmbTqiiUVcF+1AkWT5vN2YpSUVptUOT0EiJDSw49qJ4kA395Xo2hb9QBCR7fFaqe6r59k52c8znq1Vk/DsBufhSBb+IqRfErpYZpubSKkdBE0cP38vOb9A8Jk6jm0Hp7VjySNHF9WZcEJXbr4TpTW3pBF31XSQzVtBVMQUrZdpbmePdHOJu7z4EUQYCmr1n0gfV7WxO9KGNGuNv3rD3a8wgGxuCzXIif6U4M+tK96CKG63SnLEB9rfIzpkpRYVIKqm/8LsrOSSCllrWSmYsETEt9aDnTyM02CbM0ManlupfWl23tPvQsCqv7m38/6IoVbDqNz7dOApnKp7efMR+klN+VtBAEW/Pj2E1C7O1KTQZTguuzvTxsvIzd2zCSd4lr8I5Rc+E0695YOiBmoW5iExALuYrkowi2fwPvuUyietQyO85bpUbqJc1MZQDAPTTQ8OR+WyvGwjb2Av0Bli+9OWEh9o5SZaEpnI7p2/om7bLt2rYJj1jK4r34gD1IDmhKBd8tz8H/wkq6DFAr7qIy6d8NpNf0fvgLve8+k0FpvFduEi1Fx3c8hWovTaifTldkHVfE1I9T4EUS7E/ZxF4HtEOrHaQpvS7AwCQkaNCWK4PEP0f76w0A0BEgyXF+9C46Z10C02Ia0ad7wxDw4LrgOlpFTEW07dtpRL9dX7kC46SACn+ovre5HEuC86Nto/vX1cJx3Td4ISelqQ8dbP0Po+M7Uj6dliZDk8tEoX/Yod3IbonC+1tBz5H10vvMk1J5O/v/Wmlq4lzwA2TWSi5nuctUQY+0jREESEgu46zn4Lnzv/yeU7nY9voQ7UUQ4L74RJbU3QHL2Hh0wmlIGkqf197egaPIihBoPIOpthm3kVH4QNVi3B9X3/B+6961B9/ZXuAWlRQII1u3GsBt+Bc87T8B+zgKUzv3uQF1k5fdI+3G0vfpj/dBsipSUDQuJvfuizQn3khUonro4K2NPulENiPpb0PrC38bIKIaYKKPkkhtROvf7gGwtuLCpAiMk/TCmf9vv4d/5J2jcT9HXrNUA2Ybi6VfAtfA2SI7yIWkpRdpPQLSXoPPPv4BUMQ6uRbcjdHwHOtY8jhF3rEbPvjUI1+2Be/kjiPpa4HnrcbivXMEnMPOl5YuMQ3V7ceqVOxP+rEG/pLHtQh5nzS2kjadp1b/9ZXg3PMN1n7LFIAjcN1Uy59v8w2WE0nN4Azpe/yl3/3EPRGy2sihz99UPQioqK7hlW8EQEt9x0VR41/8KXexclKo7cb9YdEvJznwGX3+CL+WGWjIK3ZrX0LHqAUiV4zm5hk7sQMebfQipfi/cy2KEtOYxuJfcB7lyQl5Tb3QfeBuet/4xqXed6VV0uOG++n4U1cxhi3EIsv30HUU1ypfoTOcdb/8MwU83JddH7EV3zvkWx9IImx9s3KH6XTj18o9YrgI9Y0FMzuJpi+G68l5I9sI79lIwhBT1t8G/5Xm+XInvKJ3pu9a3i0V9UmsarGNmwr3kfsgVNV9IfZrUjM7Tw553/gnBz3f0fiU1DcNv/yMCn6yDb9Nv+1h/Giq/+TTkynF5MfHj7msfc2i//3xKaDHZy664B/axF36pVcBCG7wbViJwcH3S7cdOuKF4+pUou+pePcukAYqqhNGx6kGEju+CGg1zEhad5XBdfgccU6+IncsrLMd2QRASy6XTc/DPCHy6EcFjH/JI4MEUllHQOmoGnLO/EVu+DaaWEZ7RX3F2/ELt8Z22KmWpW5nfTPE0nCaoZfjkvO0gxTfUvGt/ia7dr6cMoFxZw3Ma2WsuPu0gbtTbBO9ffoPAx+tSbFu3PeyT5qJ82cMQ7aUptpN+tTg5xq1gxd+K7v1rEGn5DKK1CPaJ83joxplWYvo9G6OFgiAktnxRAl4wYmp97iaoAe/A6AoCRvzwDf2rYy8BS0sxdIqeRTFw7AOwIEm96AdDHedfh2j7cZ7kjKVu7T64FvbxF0F2VuTtrFY8PW3nuqfRvfO1tGCWSipRtuQ+2CfO5ctWNehH57qnEDi0kae+1TR2mj+1LtiLXn7NT/l8yGfR8Yp/ZwRo0TDUcA8ESYJg6c0RXoi3qhQGISX2bDQ0rVwOtceTmE96EJ1efFtfgBYOxN5fAaPv3xSbwCnO4LzNWt153/76Awgf3wXB6oCmRqAGfBi1YiN6Pl6LUN0ulMz9HjreeBQl829G0fiLeAxWPs5rxSOr2WaDd+Nv0kZNcldzn5J1+FR41v4CgY/WJpZxcQsj2U5YPcd5S1G2+J78WZJMOZyLBLDlGr/kwNcEFtyqsp1Jqx2SaxSsVZMhFbkgWIogiMZwwCeL99meLxhCig+waeWyXkISGOlsToy96d+W90YIn/FbpgDNXTsa2v+HObVr4Fp4e8yp/RhG3PEGtKAfgUMb0PPR2yhd8Hfo3v8WShfeCtk9OvVdqDQHxkiJxUZ1rH44zZbYO6vBUjURUulwBI9shaDFHL5pfVc0lFz6HZTOvzlv1jJfOGoawi2H0PPJegTZBQdtxxJpouJObWbBsTzh9smLeKYCfbe4MEqBE5KI0fe/34eQroXaHcvXLJz+21BSZ+DwRsiuavg2P8e3/RnZhE7s4tv+I3+4ml8ZxMIA2PKNbYc7Zn8D9glzETz2Ab/DzDp8Sm6Hyz/8Gg/YPPWHHwCqom8s5MXFfpahs23/y+9CSW1+j49EO+rQtuonfNnd36WYHD/JCufsr+skai3O28cmk5OJCCmTaOaorcZ/uRyOWcsR9TUjeGQ7BItVf8mjYVSv2MC3v9lOm/e9Z1F540p41/0ryq64G60v3oziGUvhvureHEmqdxM/BMuOsbS9tgLR9uRyIMmV4zHsr3/d7/JEd5xrCB7dCs+ax5MbH9t9dbhRvvTBRG6k5BrI3NP+D19G53vP9k/VibgswFo1CeXLH4Vl2ITMCZHHlgqOkFqe/16vU1sQMPIHqxLwtvzu+4moV+b57PtbHnWQdNf1T86HY/pVsI27EIqvBVJJVaKN4plX8xAG5uwONeyDfcKlCB7eyHcTGTb60ZEHk+4zExXYZkPHO08geHhTUnHactkouJc9xOPH+rOqGPGF6/fwHbdkizxsAsq/9jisleOTrZqx55nVw84ddm1/ZdBtWirGwrX4x/xsYyGUgiGk+Fc43LD/tG1/9tLGC/uNHfCMF+vY2fyfKUf35mkGNDw5D5KjEuz8FXtJK7+18qxjYA5R7/qVXNJQ3Z7Y4dr8EBLbBfXveBW+Tf/Bd8SMUhgRFE+7AuVLH8p7UGTUexJK58k+YQ39o8Qc2ywcwmiHglPVbeEQEvdJ9B4mHQgQ3Ycx+OcHai+Xv3e8+8/6bdLMEyMA7ivvixFrrxTxJUzUU4+uHa/GHKMCDwZ1TF+SS3FP6yvUsB8da/4B0c5mw3wIGFYVX3sMxdO+muejRPruqf6R5P8dUE+J3FBG88kNKPmXP1A4hJSI3RhYiXEo+K1g6Zx/ShH0TFTrlb1vaqTesScStMUmd5x+8+1IZhZq+5uPJH28IxOYna0NqWwkht/yMkRD5MvS76pLRk/xOK/Bz/xsople2wVDSOnBQLVzh4CGUMNHaPvvu3mcTf6KboqwiOfy6x9H0cT5X8i6mT/ZzNszEZJ5dZ+3kTNfkm/zb+Hf+lJsiZKdXNn9D1C3RIpnXMV9RxCk2FKpEOyMvKk27Y6JkNKGkBpIFgGeVjjczbMVhE7sSbZ6xp5nzuDy5Y/AMnwKP0tvsMiojI1zKDVEhDSUtFVgsgZP7OJJ45TEebzcDVCwlaD0stvgnHUtBFG3jqjkHwEipPzrwLQSMAd3z6F18K5/Bmq3R79IW0jGnZsidLIdpfO+A2ftX+nnwVJshqplHgEipMxjSi0mgQA7RBo8ukXPGx3wJ1EzhUdZRLatGKWLbuWWEcsemgP6S0FQ81YhQjKv7g018lD9bnS89XMovtZ+z3AlL7Qe28OCX4UiF1yLbuPR6gLLfEDFcAgQIRlOJeYUSNNUfsq9a9sfEDy6LbMhAbKVX4TgvPQm2Gvm6EdQUk2aZE715GzUREg5g5o66g+BeCAnu9QzeGwbuvf/L8KNB9I7YiKIsFRNQPHMpSia8hXIJcP0MINc+KlI3SkhQISUEmxUKZsIaKoKNeTnSea6dr6GUP1e7utJpHdlvqCYAzxxhfgZ96WzfEmOC67n10WJRaW0RMumwjLYNhFSBsGkpjKDgE4yseN3moZIRx0CRzYjfGI3VH8rtEgYGsuoqKr6jUWSFYJkg1hcCtu4Wn6jjHX4uQDbzuepYFlj3JGUGQGplawhQISUNWip4VQRiOeU1uMA+haNpyBWAx4oPR5o4RAgW3g6V9FRAdHGbgv5EtKhJVqqqsh5PSKknENOHRIChMDZECBCorlBCBAChkGACMkwqiBBCAFCgAiJ5gAhQAgYBgEiJMOoggQhBAgBIiSaA4QAIWAYBIiQDKMKEoQQIASIkGgOEAKEgGEQIEIyjCpIEEKAECBCojlACBAChkGACMkwqiBBCAFCgAiJ5gAhQAgYBoH/B/k3gJISlBrfAAAAAElFTkSuQmCC;" parent="1" vertex="1">
          <mxGeometry x="350" y="70" width="194.01" height="345.48" as="geometry" />
        </mxCell>
        <mxCell id="Aaq_TbK8YNV64IDZXaT_-4" value="" style="shape=image;verticalLabelPosition=bottom;labelBackgroundColor=default;verticalAlign=top;aspect=fixed;imageAspect=0;image=data:image/png,iVBORw0KGgoAAAANSUhEUgAAAPAAAAIICAYAAABQC2PPAAAAAXNSR0IArs4c6QAAIABJREFUeF7sfQdYlce29rsLvfeOdFFURETFXqIxppho7Mb0Xs7RJCfJvf+9J+fce0/KyTnp1RRb7CX2XrAgIIKCKEVUQDrSO7v8z1rf3oAEdWMg2ejM86Cw93zzzbwz76w1a9askX377bdaiCQQEAj0SgRkgsC9st9EpQUCjIAgsBgIAoFejIAgcC/uPFF1gYAgsBgDAoFejIAgcC/uPFF1gYAgsBgDAoFejIAgcC/uPFF1gYAgsBgDAoFejECPE1ir1UImk3UKUfvvbpavF+Mrqn4HItCVcdvVcd3V/D1OYOo/Qyqlz0P/8wb1DUh/B44H0aReiEB9fT0aGhpgZWUFMzOzTserRqNBbW0tVCrVTVtIY16hUHA5FhYWXUKj2wlcUlKCVatWoaKiAvb29njiiSfg5OTEjVAqla2Vo8Z//vnnkMvleOONN/jzU6dOYevWraCGDxkyBA8++CA3SiSBgDEgQKRNTk7GoUOHUFhYyIKJxm9QUBAmTpyIAQMGMBEp0RjOzMxES0sL5+sskZBycXHhZ9RqNaqrq+Hq6sq8MTR1K4Gp0n/7298wadIkjB07FitWrODKL1q0iEn6wgsvIDg4mOu2du1amJqaIj4+Hh988AHnW7JkCecJCAjAu+++i2nTpmHUqFEGSXBDGyzyCQRuBwEan//7v/+LgoICODs7Y8KECfz/1atXmdAkaSMiIvD888/zeK2pqUF+fj6++OKLG0pgIvBf/vIXHu/6lJubC19fX4Or2K0EprfSLEUzCv3/zTff8Mw0bNgwZGdnw9vbG+bm5rh48SK+//57vPnmm/jwww+ZwET+l19+Gf/+979Zjfjuu+/Q1NSEV155RajTBnenyNhTCND43LFjB8LCwmBpaYl9+/bh2rVr6NOnDyZPnoyUlBQm7pgxY/j/qqoqJjsRmKTrjRIJNr1Qozw5OTnMBT8/P4PGfbcTmCp/9uxZHDhwgFWCp556iiujT1S5Tz/9lNVjd3d3/M///E+rBP7nP//JawovLy8mOeWlGUokgUBPIZCeno7KykoMHz4c9DupvAMHDmTydGa7ycjIwMcffwwHBwf+IZJSeuedd+Dm5tZaTSrTEAKTECMVXJ+IwGVlZYiMjDSoyd1KYGpweXk5bG1tYWJiwkRev349qx6xsbEYNGgQg/TLL7+wZG5ubsbevXsxe/ZsjBw5kgmflJTEJKZGkHryzDPPGDQTGdRakUkgAPA4q6ur4/Xm8ePH2V7z8MMPs9AhzfGhhx5iLZJI3NEARWN2+/btLHVJQyQbDY3Z8ePHX4ftbyGwtbU1240MSd1KYJq9aO1KZJwyZQqWL18OMmrR7PTZZ59hzpw5PKtdunSJ60aGrJ07d+Lxxx9HeHg4/v73v+P+++9HaGgo/uu//gsLFy40eCYypLEij0CAEMjLy+M1amBgIOLi4n5FYCIzSVciMAmSziQxaZFkpCLizpo161fA0pqYJPCyZctY1e4s0SRBfKGJRJ+obj4+PgZ3VLcSmBpKDd61axdX3sPDg1XlG80mNNtt3ryZiUrPXr58GXv27OEZklQaWk+0t1wb3CqRUSBwEwRI4tLYI5WXbDNENlJZz507xyo07YCQFkhjkiR1RwLrPycDLBmzyBLdPumtzmTEIiF1szWw/jmaLOiH7ES0xjY0dTuB6cX6PVxD9n87VlTsAxvadSJfdyLQ3g+hN/kgdCuBuxNQUZZAQCBwawQEgW+NkcghEDBaBASBjbZrRMUEArdGQBD41hiJHAIBo0VAENhou0ZUTCBwawQEgW+NkcghEDBaBASBjbZrRMUEArdGQBD41hiJHAIBo0VAENhou0ZUTCBwawQEgW+NkcghEDBaBASBjbZrRMUEArdGQBD41hiJHAIBo0VAENhou0ZUTCBwawQEgW+NkcghEDBaBASBjbZrRMUEArdGQBD41hiJHAIBo0XAIALzYWfIAJkW+RVaHDqvxiORSliZ86edJ4qFK4Kz/6aOv52ACL/pheLh7keAQkLLgKb8c2jMSYSmvgJatQoypSkUVg4wD4iGqUsQ59H906U6GERgfYmXSjRYHauCux0wf5QJLE07p2+LCmhSa2Ft1u57rRYaioPVDJgpAaXihtTvUgPulMwUPI3Cr1A4FYqVpNFoQTGCPTzcuxzcnqJ5XrhwgeML29jY3CkQ9cp20CTckHEITQVpMHEJRHPBOVgERKPhcjxMvQahpSAN5oEjYREwvAcIzLOHNIUweU+oYGclw7MTlDA3+TUBSU6fu6rC/lQNtBrAxgJYOFoJSxOgrBZYc7IZzSo5TBRazBimhJc9xRKiu5OAVSfUCPWUYai/FNmeGv75PhWen6SEmVJ617FMFUwVcgwPvD4GUa/s2XaVphC6a9as43hMlBYtegw+Pt7461//hpdeepF/v1GY0/Zt10tsipz46Sef44EH70e/fn2hvxigTSGS8Gy7MYDiMV2P4sWL2Vi/fgPeeutNpKamYv36jRz7iaKNhoQEc9B9W1sbETH0FoOPJG/9hf2wHb4ADbnJ0DbXwSZiBqoT1sDE0RtKxz6oTdwAq8EPwtQ1pMtD+aYSWEvkggyZRRpsjlfBzV6GBaNMYKLUqdQdXlffpMXXB1V4fqISZiYyFFRqcDZHjUkDlPjxsArzRylgayFHQ7MWy462YNEYE9hZAtUNwNcHWuBqJ8OTY01a1fL/2dKMMC85ZkQpWB0/lqGGqRIYHiiR/E5JH7z/IUaOGonBg8ORlZWFHTt2MXH0BKYwvSSZTUyUOiIDtbU1LKn1AdCam5sglys41CklkuAWFuaQyeRoaWmGqakZR0d0dHRovf6jsbGRQ/uSlKbf29/Lk5V1EevWrcc777yFlJRU7N9/AM888yTUai0HHszPL8Tbb9OVOEKTutE41LY0oPLIV4BcAZmZDTT15ZCbWkKmNIemuR5QNUFu6QB1QxUUFrawG/UUIOuacLqlCp2Wr8a2RDX8XGWYHqm8odpMjSBifnOwBXNGKOHpICfhCrUWSC/QIPWqBnOGS7F2KZXVaGFpBliaAmn5WtQ2anGlVIPhQQr4OUuNWB+ngrkpEOgmZyIfzVCz+n2nEfj99z/gsLrjx4/jmysoSqKJiSneffdv6NevHxrq61FQWIj58+dyEPAffviRsW1obICrqxt/vnTpUqhUGjQ01HNUxZiYo5g1ayaXs2zZcvj7+3G0T5VKjddfX8Jxug8dOsyRGSlqKMU2fu+9/2sdi6QVrF3bRuDDh49gyZI/8/c0Sfzzw48w/eGHOAi6SJ0joKopQdWJZbDsOw7alkY0XTkF88BRkClMoGmqQeOVRFgEjeKHGy7Fw2Hiy5ApTLsE500JTCQjyWhhJsPL9yhhcYM1r/6NpGyfz1fjRKYGCjng7yJjsqXmaZjcE/q3XW7WvpZr41SYPVyJy6UaZBRqMC1cyrchrgX3hivx09EWPDlGiTN52juSwCdOxIJ+qqqq4eXliYkTx8Pf358l8KOPzsTQoZHYsWMniotLsGDBPBQWFsHNzRUNDY346KN/4e9/f5dJSunpp5/iYOTvvfdBK4GXL1+BN954HZaWFvj73/8Xr732Kt9bRVfejBkzGvHxCdi6dZvBBKb3LF36Pby9fHDftHu7NODupsyqynxUx62Cw71vQl1TgpqEtbAb9zzkJhZQ15SiKnYZ7OlvM2uU7/sIDpP+BJmya5f53VICr41XIStfg/sGKzA04Oaqa2toThIPWhnis1W4XKpFiIeC1ekHB/+awDRJLD3cDF8XBWRaLUqrgT9NNZEIHK/CrOEKlFQDu1NU8HeR31EE7hhCl4i3a9celo7vvPM23nvvfbz00gvw9fVBbGwcTp1KxMsvv4ilS39Abm4Oq8IkUd9997+xcuUqvsJm8uRJaGpqAUl1vQT++efVePvtv7B0pzIXLFiAlStWYvac2QgKCkBtbR3+8Y/3u0Tgjz76N6KjR2DUqJF3Eye71FZVVSGqTq6E46TXWOISme3GPMdqtKq6GNXxq5jAtAypjPkGDhNfY+t0V9ItCaxSa7HjrBppuRqMCpVjXCiRuPPto5pGLWKzNJgyQM5GkWY1sPyYCjOGKthI9fJkEyglzRq/nFZhbF8FUvLUUECG/t6S2hyfrUaQmxx93eXYkEAEVrIRZscZFS4WaTEyhIxYd84amEj89ddf49FHH+UI/aTmvv/+h3jttVfwySefsRFLIvBJJjBJ4zPJZ/Hc80+jvLwSH3/8SQcC34Pm5hYm6s0ITBLXwcEe90+bhm3btyM9PeOmBCZ1+/XXSYWW4ciRGBw5HIN3/uOtLlvIuzI4e3teTWMNE5MGsJZ3Ya/fWtVqtJDJZfy93NwW9mOf4/VyV9ItCUyFEeF2nVEh+bIaY/opMSZEgQ7B6PmdLWotNieq2axBxqkrpVqM6ydHqLscSTkaJOdo4OsoY4u0nQUwZSARW4U50UpYmLA9mtXooxfUeHyMCTbqCExlqzTAT0eaMaiP4o4iMLVty5ZfcO7cebi6OrN6HBExGFOn3ttqxGpP4LlzZ2H58pWwt3eEg4MdkpKS8de//lc7CWwYgeVyGRumyIhFt2CQwerGa+AUbNiwiY1dpCXQ3T3jxo3levamIOhdIUb35NWi7tweqGpKYTNkJupSt0Nh4wbLvhNQm7IDWq0aViHjUJO4AaYe/WARNLrLrzWIwFKpWuxJVeNUlhbjw+QYFaxgg1lnNsjqBi1qmrTwsJVuaeAtEGih1shQUq2FnYUMVl1T9bvcsN72AF31UVpaylL4Vre00z4vWY27cgVHezxI6kuXyFnzPTzZ2RdZdSc1W6TuR4BUZTJiWQRGoy5lJ6yHzkJt4kZYDX0U9Sk7obDzhM2QR27Lom8QgfXbSRqtFjHpahxPV+OFe0zhYk16wQ0aTGpDu2tWKCO5csi0Mkmd6H6cRIldQIBumKd1c11dA29PPfbYAr7rVqTuRkDLnlf16QfRdDWF1WWZXA6tRsNbo+TUYR4YDRmrzl1nhUEEvn72BirqtHCwvokbZXdjIMrrEQRIEuuvyBSqcI9AfF2h6rpyqGvLAHULoDSDwtoZCku72yKuvuAuE7jnmyneIBAQCBiKgCCwoUiJfAIBI0RAENgIO0VUSSBgKAKCwIYiJfIJBIwQAUFgI+wUUSWBgKEICAIbipTIJxAwQgRkH3zwAW3XiiQQEAj0QgSEBO6FnSaqLBDQIyAILMaCQKAXIyAI3Is7T1RdICAILMaAQKAXIyAI3Is7T1RdICAILMaAQKAXIyAI3Is7T1RdICAILMaAQKAXIyAI3Is7T1RdIHDHEFjcIyQG892IwB1BYCIvxYgyNTXV3Suk4UgTt4otdTd2uGjznYXAbRM4Pz+fbxCg+3Iosr+joyMjQ1ELKV6xPkSLWq1uvdeH8hLZ6H8KzKYPeEe/0+f0nD5WMn1Gf1dVVaGyspIv6qL89DklKoOSvhy6ScDT0xNWVlZM3ry8PAQEBLSWq89Hz+iltQgjc2cN5ruxNbdNYCIIRUV0cHDgm/DoChC614fIQ595e3tzlMWioiKWjEQaImFZWRkHT8vJyWHiE4mys7MZe7qNgC7PyszM5Pz0Nz1Pt/ZR9ETKS++lFBwczHmIuERm+o4Cm+sJfOnSJSY3TSiUl+pC4VDpnenp6UxuqpdIAoHejMBvIjAFISfy2NnZMRmInM7OzkwWFxcXkJTu27cvE5CISCSkC7aIyHR1JpGJoiNKF3eZ8HNE/KtXr8LDw4PjEJOULy8vZ8IR8UjSE3H10p/+JmLS5EHl6glMk0JISAi/u6SkhOtD5VIdqDwRgbE3D1tRdz0Cv4nAetIFBgYyUYiA7u7uqKmpYVJfvnwZ/fv3Z7IRgUmikgSlC7pIynp5efHnRDqaAGgdSxMAqc0kyZVKJa9jaWKgdxCBiYh6dZjKpffY29vzd0TK9gSmyYPy0PP0bspDkpreSzf+iSQQ6O0I3DaBSXLSXTskgUkSk8QkwpJ0NDMzY2lIeYiM+jUvEYrykFqrJxKRkSQ1PUdl0LMknel7IjMRmNRtukWP8pA0pUSSlP6mCUG/lqZ3Un66beDKlStMdPrRE5uITBNGWFiYuFGgt49cUX9G4LYJ3H7bpuPvXLDuGlG9hZgIFRoa2gp7ewNSx0u+2v/dcXuos7wdy9Jfht2qZujqQmQntZyktjBgCQbcCQjcNoHbN/5me7D0HUlEksYkCTsjTkdS3gjYG00ahtSFrOEk2UlKk3VbJIHAnYBAtxD4TgBCtEEg0BsREATujb0m6iwQ0CEgCCyGgkCgFyPwmwisv7WwF7dfVF0g0KsRuG0C51zJQXxcHGbOehRycnGk28d1Lo56QxXdeVtUWAgfX1921BBJICAQ6F4EbpvACfEJ2Ld3L956520cOXQYMTExrX7OEUMiMH36w+zmuHLFCix54/VWD6r2Wzydbf8YYlHWS35xAql7B4MorfchcNsEJqeIy5cuI3JoJA7uP4CEU6ewcOECkNTd+stW+Pn7IyIiggn84ssvsZeWXCZH2ICw1m0c2to5d+4c6uvq+XO9d1RGRgbo9mHar83JzYG/nx9cXF1b0S0rLUVmRibsHezRr39/safb+8adqHE3IXDbBE48lYjdu3bhnf/8Dxw+eAhJSUn4yztv8x3jK5avQF1tLSZOmoQVy5fDxdkZJqamKCwqRHh4OGbNns3ult9/t5RdMC0szHHtWjkenT0LgwcPxpdffMEnkGysrdHcokJNVRWefPpp+Pn7Ie5kHHZs3w4fXx9UlFfAzt4OTz/zNExNzboJElGMQKD3INBtBD558iTGjBmDuro6JCYmIioqCkHBQVi5YiXmL1zAknLHtm2Ii4vDf/znf+LA/v1ISkrG4iWLYWNri2U//MiHDWhCWPrtd+y//PY774DU5Q/ee58PJjw84xG893//wJDISNwz+R6UFBfjxx9+xNx58zBg4IDeg7qoqUCgmxDoNgKfOHECAYGBMDczw6BBgxAS2hdZmVmsQi9+fQmfPMq+mI2ffvwRf168GMuXLYONnS2ee+45bgodblj+0zK8+tpr2LRxI+QKBV586UX+7qsvvmRD2YPTp+Prr75iFVx/HrilpQWjx4zG1Kn3gcW/SAKBuwiBbiPw6aQkvPX2W9etRzPSM64zYrUn8KFDh5CRno4lry+BuYUFfl65CnSG9+133sYP3/9wHYG//vIr7pLHn3gc7/3jPYwaPQqjRo/mY4E0SZDRjCYIkQQCdxsCt03g06cSsavdGpgJ/M7bFO+CDVCUbkZghVKBb7/+hqUpnSAqLi7G/Q88gBHRI/Dl51/w5y+0k8BksSZj2OFDh3HwwAEEh4SguIhORFng+Rdf4FNMIgkE7jYEbpvAdCzvyuXLGDZ8OPJyc1FcUoJhw4Zdh1/5tXJcuHAekUOHwszcHNWVlWx1HjIkEhaWFiD1l7ajaN0cNXQoHJyksDxnkpNZkocPHsx/n00+w/+HR0h/FxYUIOVsCpxdXBAZOYSOPt1t/SbaKxBgBG6bwHr89Hux5MbRkUYdP+voudXZMx37hU8qyfQyXfpW/5whz4t+FgjcyQj8ZgLfyeCItgkEjB0BQWBj7yFRP4HATRAQBBbDQyDQixEQBO7FnSeqLhAQBBZjQCDQixEQBO7FnSeqLhAQBBZjQCDQixEQBO7FnSeqLhAQBBZjQCDQixEQBO7FnSeqLhAQBBZjQCDQixEQBO7FnSeqLhCQffbZ51I4SZEEAgKBXoeA7KuvvhEE7nXdJiosEJAQEAQWI0EgYOQI3Cx88g0JTPfqarX0oxVhW428g0X17mwEKP6bTCbvtJGdEphIq1I1Q6lUCvLe2WNDtM7IEZC4qIKJSecho24igVWtkR+NvI2iegKBOxoB0oblcqXhEphyajSCwHf0qBCN6zUI0A0mCkXnd4sJCdxrulFU9G5FQEjgu7XnRbvvCAQEge+IbhSNuFsREAS+W3tetPuOQMCoCaxWqaDWaGBqanpDsKkBmVkX4e/vBzNdvvb70xw7mrxSOgnwfrN97I7fdSXvjSpLsa85QnaH/fPWstsFs+74PmpnZVU17O1sW3cAuroPf6P8eoz09e6IVWfPdcSV/q6qroalhUXrhe36cn79vB6HTgKGd4FWNTW1fLOludmvx0drTPJ2WF9fDy11A+rq6/kSAQd7u1tWpqt4d6Ept53VqAl8NvUcsi9dxozpD3baQAKUfvYdOIyR0cNhY23VI3vT3dVxVVXVOHQ4BvfdN4UvetOHod+9bz+GR0XB0d7+hpew0d3Ky39egwVzZrXeldwelM5I2JVJiMq6Uf7OJsGOeckaSvUbMzIawUGBNxiQEnGPnzgJdw93BPn78w2T+ovdO04cV6/m40zqOdw/dUqn/bpl2w6EBAUirH8/ft+tSPvrOmuw9MdliBwyGEOHRFxXj87Kum2W9eCD3U5ganhzczOD2VkiBxD6MSQlnTmLrIvZmPPojNbsOTm5OJ+RAf8+fVBYVIyxo0fi2ImTGDQwDMlnUhA9Yhjfp0REGTliOD9/NT8fbq6u3FH6RLNu/KlE1FTXwtfXB2H9Q9HU1IST8af4XuLgwAAEBQXg1OkzsLayQk5uLtzcXBERPghFRcU4k5LKEj9q6BBYWVnhbMo55BcWwsPNDRGDB+Hc+QtobGhkqUTtHRU9HIePHMOFzEwM6B+KSRPGM0aJp5ORcDoJfXx98MB99+LKlRykZ2TB1MwUI6OHwdzMnKtMBF62cg2ihkaArqWJGBwOV1cXbl929mWYmZthxPAoZGZehLm5GUJCgnH6dDKcnZ3g5OiA2LgEKBRSPejOZUo1tbVISEjky9DLrl3DoLAwpKSlwdrKmuuYmHQGY0ZFo6W5BQmnT2PCuLH8XENDI07GJ8DT04PrG9o3GD7ePli2ajX69Q1BbW0tXyg3ZPAgLjcp+SxLu6FDwqFWa7B91x5YW1tjzKgRcHR0RFzcKTQ0NjDx9eRvaVHhl+07+V6sUdEj0C80BKcSk7jORNqgoEBs3roDfYMDGYe08+k8FjIys3D5Sg6cHB0xLCoSFy9dQmVFlSRpVS0YHT2CxwdhfyTmONIyMhA+IIxxSTt/AXlX82Fna4vhw6JQUFiIvKtXWUIPCOsPZyO8JK9bCUzELSgo4MvHOlNZqfPJc8TBwQF2dqSy3Dx1JDBd/L1i9ToMHxqJiooKXM7JxZOLFmDZytW4/757ce78edha28Dfrw/27j+IqVMmY8v2Hbhn/DicPnMG4QMHoG9IML80JfUcTief4cFBxKfn9+zbz7ch+vp4I+bocSycPxeHjsRAq9EiNDQER2KOYcG82VizbiPGjBrJhFeaKODm4spaAA324yfjMGn8WJy7kM6DLyoyEjHHT2DS+HFobGzEoZijuG/KPQgJDuJ60CDZsWsvoiKHYEBYKH5Y/jOGRQ5BWXk5SkpKMH/OLFaZmcCr1mDwwDDU1jfgyuUrePrJRTh0+CgCA/1w4mQ8Bg4IY+zPnknB/Hmz8dOKn/HgtKnYsnUHhg0dgtr6eu6fWTMf4TLLyq5h9fqNGBU9DJev5KK2pg7R0cO4nZMnTcDBw0fw4P33oaysHOfTL2D2TGkira6uYbIO6N8PJkolMi9m44nH5nP9XJ2d4OHuhpMJiXh8wTxs3b6Tlzc0iV1Iz8CMhx/k9rq7uWDY0EgkJCajsrIC/UL78kRMk7W9vS1oYMaeTEDq+Qt45MFpqKmtQ2FhEby9vUEay1OLFmD3voPo4+PNk1j4oIHw9vLE2g2bMH7saKScS0NocDCqamqQnpGB6OHDcPR4LEaOGMY4EYEzM7Nw6Ohx3H/vFJiammD7rt0YPWokkpLOICQ4mD+LjU/g/ugbEsSTjrGlbiVwbm4uXFxceIa7USJVKy8vD35+frfEoiOBc/OuYu+BQ3jysfmg9c+Gzb/gyUULsXzVakybOpk7ZfuOPQgL68cThZ2dLY7HxvGajFQ1Py9vTJt2L7+XOsvD1Q1DI4dAK9NC1dzCg/KeiRPRx9cbn339HWZOfxAJiafRNziYJTQRgt5zIT0T59MzYGtjjXsmjMeFjEykXbgApW5DPXxgGKrravkmximTJmDVmnUYMjictYCf123As08+BgsLy9ZJ7oflq/DA1CkwMzPFqrUb8PLzz7DkWrN+E559chHjKUng1Vg4bzZL9W07duO5px/H6aSzSM/MAk1uQyLC0a9fKNav34QpkychKTkFE8aPxqo162GiNOH30Rp1/txZMDFRMoHXb96CJxbOR0rqeeQV5GPWI9Px89oNrFLW1NagorKKJZCjowNGRA1tJfDPa9fjuaef4Anj6+9+xMJ5s7B+81aMHRkNT093/LBsJWbNeBgbt2zFKy8+x3dYffv9T5g942EcOXYcgf5+TLofl6/CtHsnw93dHRu3/MLSdRBfyK5FZlY2Dh87jmefWISK8kocOX4C5deuob6xEQvnzUHMsRM67coFs2ZMZ83lwOEYqb+1Wp5I3F1dca2iHPdPvRcbNm1FgH8fREZG8F1d1dXVWLdxC5558nEcPxGLuvoGTJ0yCecvpLPqHhYaivTMTMx+9BHIQP7Gxnc4r1sJnJ2dDR8fn5sanWgE5OTkoE+fPrcmcPJZZGW3qdCkPi1ftQbDoyJ58JG6QxKYPps2dQoc7O2x9MflrCJOnTyJB82efQewYO5szqtUKhAY4M/vPRl3CpeuXOGO37v/EK+ht+/cwyoZqYQr16zHvFmP4uiJEyy1SdrQYCPJVFpahoAAP6SeO4/CoiKW7KeTzmDmIw/xoHN2ckRK2nl+DxF45ep1iIwgldcVq9dtwKL5c+HgYM/f00D7aeVqjBk5Ar4+Pvh+2Qo8+sh0FBYW42R8PJ57+kkoFJIEpnyP6Qi8dccuPHT/NBw8HIPZMx/Blq3bWfOgdqzdsJkHW7++fREcFIDvl60LlLAEAAAgAElEQVTkycjU1Aw5ebmIjBjcKoHXbdrC0jM1NQ1XCwrx6CMP4ec163lic3d3ZW2DCEGD2EYngUgC/7TyZ0yeOB4mJqY4eOgwnnnqce4HUmM9PNwZK1qvb966HRPHj+UrXrfv2MX5du7Zz8a4cWNG8URkaWnJy4VVq9dh+gPT4O7uxtiQcfJQzDHu4wMHj8DayhKDBw/ifHNnzUTM8Vj4eHni4qXL8PX2QmjfEGz+ZRvmz53Nyysa3DQR0l3RD0ybig2bfoGfXx9ERUZw+VVVVVi/aQueffIJtrWQhJ43ZyaPGVtbGzg5OjGB2y/hbjlof+cM3UrgixcvMjGpw2+WDCWwtH4twIRxY1qLIyLSuovWTifi4lmV2nfgEIZFDeW1Hs3K1TU1eOC+KdBotLz2Kykt5XUsqVbm5ro1ZUMDq8kkyb28PHkNRKpibFw8q7p+fr4YGhGB43Hx8PH2gn8fX+zed4DV9yu5uSBtQKlQIHzgQPh4e7JUoUnF1tYW48eOARngKA0dMhgHDh1BUGAAPD3cEXP0BFRqFU84+pSYmISCoiI8OO0+XltnZV+CqYkJk9HVxZmzNTY18bKASFNXV89tJ1Wc2kuqvJW1NVydnTEgrB9ycq8iMSkZE8eNgYODHS5evISz59K4vmH9Qnn9KA3gaq73vZMn4dKlKzzYiYAHDh9hrYMkGE0ahGt7QyIReNXadRgSHs4TI00SJDX37D+IQQOkteLuvftxz8QJjH3y2VRoNRqexAIC/JGXdxWnk88iInwg43X0+Ak0NjaxdIwaGtmKC0lIIhWVR5NfckoKnB0dWQMZP2Y0zqamwcfbg/v0VGIyJk8aj6QzKSgoKISlpQXGjRmNKzk5PB5IhT5y9Di3SVpGaRlH+mzaffdCpgWOxcYiv6BQ6sMxo3lyzs3Lx/ixo3rEONodXO9WApME9vX17TYCd2wgrbFJrfTz9WHVjtRAIsKN1tvdAdDdXAYZjU6fOYspEyewxqFPRGDSJJ596nFWoUX64xDoNQTWm/Wpwg2NjSxNSErJ5J2fhfzjIL1z3kwS2srSEgrl9UZJ6gvJif7Gxso7BwXjbkmvIfBNYWy91VvnKtGJ04ah3dB+/48sHddfH955Kbp7xvlL6Xn6reOV5obWQOQTCBiOwB1B4PYb9Pn5BWxEc3Fxvq2IIfqyaHuH9jv1Rq9bQdpGfCD5zBl4e3vB1cXlVo+J7wUCvwmBbifwrazQNNBpu8kQK7S+ZVIl9apyO39DXQayGpJxgrYldu7ZBycHBwwfNvRXa+Pry5Eebk9+cuKgFD08ii3NtXV1bNmldLNn2SngyFFY2Vjzvm/ymbNsFXXWGaBu9CzL6d+gLfymnhcP3xEIdCuBy8rK2AuLLMQ3Gpi0X0meTkT0W6Xa2jq2/NbW1mDwoEHsbUV7lLSl0dLczGSdMmki1qzfyOu00dHRyMnLg5WFBQqLi9ld8YH772NldufuvSivqMCwyEjeJ962czd7W5G11svDgwm/au16tlwPHjiAt6Jq6+qZzLSVQZZTL08P3kZqbmrCtp17UN9Qj4H9wxAaGsxbKDTJjBgWxY4NkRGD0MfXFwcOHkZhUQm8PN0x+Z4JOJt6HhUVlby10dzSgpkP0/bOjX29b4WR+P7uRqBbCUySiDykaFvjRq6UtMVkb29/S0s1dQt5DVVV1/A2xqZftmP+nEex/Oe17NzQ3NyCdRs34anHF2L9xi3sCEAkJPc4cssjL59tO3Zh7uyZSElNQ31DA6KGRGD7rr3sjHHk6DG4ODkhMCAAu/buw7NPPYH9hw4z2WkrhVzzqmtr4enuhoTEJHYEoK2hwAA/doagPWmlQomDR2K4DuTtRC6VY0dHs6WctqXImSThdDLuv3cyjp44yRMAeSRlZmRh/PgxvC00dswodl4QSSBwOwh0K4FvpwI3e+bKlVx2dyTTFG3Mz330EaxZvxnPPLUIzU3NvAlP3kAbNm1hf+bhUUN1KrQ9RgwfhhWr1rD/7qnTp1FZXcOOCFQWucbR/vDo6OH83DdLf8TjC+fxZ6TRThw/DvHxp1BVW8tWWHLhe3TGw9Bo1GybuppXgNPJyeyhdK2iEi8++xQ7JNDmP+01f//jCowaORzFJaXsg3v/1MmIORaLa+Xl8PL0RGVlJe+9khbg5+ONQYMGdjd0ory7BAGjJjCRwsXZCf379WUf6AVzHsX6jb9g9KgRLN3iE0/j+aefxKYt22BjY41JE8axM4GTQzsCjx/LDu6k2pNXVGzcKfTr1xf7Dx7+FYHjEhKZXOT/SwcBiMCeHh6IP3WKXRi3btuFkJAg9qMeERUFE1MTlqLPP/Mkdu7Zy552tC9NXkgkgdUaNWJj47Fw/jxs3bGT/XYVSqUg8F1Crt+jmUZN4OKSEvZM8vb0QElpGavF5MBBPtIB/n7s+TRu7GheT5KaTJ48lZXVrMoGBfrzwQJyJ7SyssSZMykou1bOVmVyTCfyhwQGwtHJCYePxGD0yGi0tDSzb7GLixPvMTc0NrF7XtqFdPbo8fX2xsAB/fkdiaeT4OnlwXUgV0Fa19KJJF9fL+RdLeBTNS7OzjiXdp69try9PdnlMic3j9X5gWH92WvIxcnBIHvA7zEYxDt6HwJGTeCOcN7sXG7bd7SKlc4J38iQ1v676/Z9b2EVbttubitbWuvLdHu/v7Zs36wevW+4iBobGwK9isAMXmtQi84dJm5EmF9vPv26K25+IJwmBXLr0PIhibYkldz2Xv2JlY6OHK30v87JQxDc2CjRu+rT+wjcu/AVtRUI9CgCgsA9Cq8oXCDQswh0mcCk8mm1anG1Ss/2iyhdIGAQAoLABsEkMgkEjBOBLhOYmqG/ndA4myRqJRC4WxCg2wnVUCo7d8Xt/G4kLaBWq6DRqoUj/t0yTkQ7jRgB+Q2jvN7wfmBxgsaI+1NUTSCgQ+CGtxMKhAQCAgHjR0AQ2Pj7SNRQIHBDBASBxeAQCPRiBASBe3HniaoLBASBxRgQCPRiBASBe3HniaoLBASBxRgQCPRiBASBe3HniaoLBASBxRgQCPRiBASBe3HniaoLBASBxRgQCPRiBASBe3HniaoLBASBxRgQCPRiBASBe3HniaoLBASBxRgQCPRiBASBe3HniaoLBLqVwMYY/5jrpOtn+u32b/rUB6uWQj63v/Db0GF0O89cVzZXwZDo1wbUqJuK4Td1Hg7bgEqILL8VgW4nMF3dSUG49MlEqfxDL7JvamrmS7zpKlEzuuKzYyx2AxGkMapWq1FTWwcHO9u2QWvg8zU1taiurYOXu9tt14FeVV1TBzMzU74W5nYnIyqDrn91c3U2sPY3zlbf0Ai1WgNLCzNU19TCztZGRDP9zagaXkC3Ephem3XpCnKuFkBGoWkBvog7fEAo5DK+70CKsXXdxQbt/9DdgHDdvQadzPAdpEd7ycal8VUo0oXdMbEJfFVo32B/2NvZtYpO5vGvJFq7gn/1Di2T91RyCiaNHcnPUgupPfr3X/8I/UUXlktXwBQWl6K4tAwRA/sBWpmOxFI99bdBaGXSrRD8dycTDU1GsQmnMWp4FExNldf3cseq8zt05Wu03C/UfldnRxQUl6Cyqgb9QwKkGyj0XUAlSrfWSL/onpfqyPpLmwaga3/Gxct8O+OgsH44EZ+I/n2D4OrsZPgIFDl/EwLdT+DsKyi9dg3hYf3QolLhbFo6/Hy80MfHCxWV1SivqIS1tRXcdJ1Ml4CVlJVDoZDD3c0FJLFbWlQoKCrhhrm70SVkFJFPhsLiEr40zNnRAfZ2tmhsbEJZeQUc7W1RWHIN9rY2cHSwaw3El3u1kAeut4cbvL08YGFujoKiYjQ1tcDZ0R62ttZMShqAlhaWLEF8PN1bJWRFRRUqqqv5MnFXFyfOm5B0FmOio5BXUARnB6qHDQ/44rJrqKurg62NDZydHDgvXV5OV5dW1dTCxsaSL1Jzd3FGQWEJbGys+NpSMxMTeLi7MjmqampQXlkFVycnlFdWws3FGaamJq0dfPpsGkxNlBjYry9z7FpFBaqqpIveqFxKV4uKYWdjjcqqaigUCni4uTDu59IzYWNtBV8vT55Mm1tUcHNxgkqtRn5hEdQaDb+P2lpaXqGb6ADSHOjictJeNGoNk5/61dXJEVaWFkjXETgyPAzpWZdRU1eHqPCBv0nL+E0j+i57uEcIXFZRgeihETwoTp5KhqebK+xsrZGSlg53dze+etPZyRGBfXxx6kwKrK2smJg0yw8ZFIa402fgaG8HUsdpsAwe0A+p5zNQW1fPBCkuLeUJQi6X40xqGhwcHPheXyLN2BFRkgonA9IvXkJ+QSFrAXRH75Wr+axOW1tZ4lp5JQYP7I+q6mpcyb0KS0tLHuChQSSVJFX19Fnp1kQiAw1uOzsbJCadhauLM6uNdIvi8KGDUVVVg5yr+aw+0n3BYf2C0djYjOwruTzIbaysYWKiQFl5JYZGDMTxuERYWpjD1NSUJ7vBYf0hV8iRnJoGJ3t70AKEbkIcPmQwrK0teUgS0ei5IP8+8PZwR2FJKdKzslnaUT3ogvR+IYGIiY2HmakZv5cmCFLZ6ebGrOzLMDc35wmKJqraujqED+iPxDOpMFGaQKmU82Xn9M6M7Et86bq9jS0qa2qY1KQ5nDmXrlOPtVzG6BFDoZfAkYMG8P3MhNnY6GEwMemgIdxlxPq9mtsjBM4rKIS5uRkam5pYCgwNH4iMi5d40Pfx8QRJNlInRw2LhEqtQXNLEw8YyjNy2FAkEIEdHODt5cYSjNTU2PjTCA0OhJurE+JPp7BE8PX2QMq5DIwcPoTzHD2ZgGER4SzdKJHKeSLhNAYP6M+SLD7xDEZERcDS0gJnU8+3SiFS+ceMiJK0SZ0+TKQ8ffYcAv184eLsAEtzC5YupELTJEED9GhcIkIC/VmSkTbQ1NyMC1nZcLCzYwJdzr0qlQsg+0pOK4FPxJ9GsH8fnhSOxMYjwM+XtQ6amEYOHYLGpmacTEy6jsDNzS04nnAag/qFsAYSc/IUPFxd+P2EZVp6JkaPiMLJxGT4enrA388bGRevSJNMZDhPpKThBPTxQXpmNmrr6+Hv680T48hhkSzZTyQk8YRQ39jIsYhJqhaVlOJ8xkVMHB3NnzU1N/FEmnohg9tGbSQNJjJ8APfv4RNxGDEknLUskXoegR4hcMm1cgwZ1B9xiWfg7OiIgf1CkHg2FXK5QmfE0UIuk8PMzATJKefh5ekBhVyOSzm5GDdSujSb1Mz84mJW5UZEDgYN+v59g+Hi5IiklDRei5FUpQEYHTUESoWCB8/QiEGsQnYkMBEuISkFI4dFwNzMDOfSs1gKebi5orCoBNFRERJ5det0+p2MTvn5RSguK4ONjQ1CAvrgVJJuDSwDjp08hWAm0DU0NjbAy90dufn5cLC3Zymfl1/I5ZJ6fB2B4xJ5MnJxdsSRE/Hw7+MLVUszikrKMDJqCBqamhCXmPwrAp9ISMSAfn3h4uiIw8fj4OvjyVpMWXk5L1VIItJzVB6RmDSAkrJrGDF0ME6eSoKbqysC/doITMua8+lZ/E66yDzuVDLs7e14IqL2Dw4LZXWaMB41fCjiE5Ph5OQIa0tLXLx8hSeMyzl5rQQmgh85EYfhQyNgbWkhYor3PH/RzQTWIis7lwcUqdCkwp1JO4+hgwZyJ1OnB/j5oba2FhqtFk6O9riQkY2ggD68Dqb18ahhQ3A+8yJLAlqn0UXatOZMTE7hm+9J+hAZQoMCYWFhxmo5SRAi8KHjcYgiAtu2Efh4fCIiBvZn9ZYmFLJG0/o592oB+gYFsJSmtXX00MHXXSlaUVWNy1fy4OXhjoKiIjQ0NWNA32DJiDWOjFhaHItLRHCAP7IuX4GNlSWr8peu5MLd1Zk1h6uFRRgZFcHdmH05h8lA9Tsefxr9ggKYwEREksC0fqeJyd7WFjK5jLEYNmQwbDqo0KQReHu641JOHq4WFLFtobikjMkSFTEQR0+eYgs1lV1UXApbWxteMxP5SE2nd5WWVaC2rhaD+oci9hRJXVprK3E1vxBDI8J5IqXlC6nNZdcqGONhkeGIP32WJTgRnN4tSeBc1NU1InJwmHQxe0qaUKF/B+LqX9G9BNYCRSUlLLmCAwMArYbVYhtrazam5OQVoKqmmiVgoF8fKJUKXLoi3WZPa82rBYUsZSurq5FfWMyqp6ebGxO9qaWZ8xLhiIwkferrG1qJSBI9LSMTgf59eH1JidRSej8Z0WidTQMv63IO1CoVHOzt4OvtidJr5TzwQgL8riMwWbBJPaR1NS0Hgv39+Pnsy1cwsF8ol0/qMqmxJiYmPOgtLc0hg5zVdQtzM1aZ+wb5c16SrjW1taySU5083d1ga2ON8xlZcHF2ZkMcTRo0adlYWeFU8lmWjDTh6FNy6nleg4aHhbKF/VLOVdYiLMzMEBzox1pNzEmS6D6orq6FQq5AoL8vq/u0ZiVjla21DWRy8BqdvqP2UTu1Gi2r9O5uzsjJy2cJTLhRX9JkFxYagoLCYlwrL4ezkxMb0PoFB7F2Qn0S4OeDtIyLaGxsxJBBAyDrrv3q35EMvfFV3Uvg3oiAkdSZDGUkvexsbXmdSWo3qb7tb8hobmnhpQQRm/aCO0sxJxMQGijZCn7PRMZG0iwGhoawFV6k3wcBQeDfB+ebv4X3VMnoJhnCiLS05fUrS65Wi7qGBpb4pCZ3lmjryszM7He3ApNGUFdXz5oOLQGM0SvPGLq6u+sgCNzdiHZXedc5u0iFGuz9aHDG7qqsKOePQkAQ+I9CXrxXINANCAgCdwOIogiBwB+FgCDwH4W8eK9AoBsQEATuBhBFEQKBPwoBQeA/CnnxXoFANyAgCNwNIIoiBAJ/FALdTmB2k2w90C8dLlUqlXzax9j3Bm9WP/1358+fR9++fdnLqX1wAEPbRticO5eKgQMHcZ+3d9ToyiDIzc2Di4sTLCyk00oi3Z0IdCuBKWLFunVr+VxsXZ1EZGtrG7i5uWH69Id/E4FvRBBDidNd3btt21bcc8/k256QVCoVPvnk31iy5A0m7+0SePfu3YiIGAx3d4/ualq3ldO+T0pLS5CdnY0RI6K7rXxRUBsC3Upg6TSP5EWQlJTEJ3RGjRrdesqnpaWF30yeRJ0NXCI8+dJaWLSdZNGfEKqvr+fP+ayvLtGEQd5LJN31ifLTD31O519v9B4iEp3HpdT+HVSWFGVDirbRvlz97/rv6W99m/Rl6ctrbm5mj6iO5UgE/hhLlrzOz9Jz7d9DbaKfjuURNq2fa4Hde4jAEXB3d29tQ2f1JRyoHu2/o7I64kP1JOzpvXQEtH276fP2WLZvU2ftozbq35mVlYnY2BNYtOiJ256sBGFvjEC3Erj9a5KSTnPcJSIwDZZVq1bCy8uLB2FZWRkef/yJ62oVGxuLixez0KdPH1y4cAEPPvgQnByd8OVXX3IQAF9fX6SlpWH8+PEIDe2HPXv2oLS0FK6uLvzcwoWLWPKvWLGM1VMahJcuZeP551/kaB80qdBgIwlKfsbWNtb8nqeeehpXrlzB8WPHENovFOnp6Rg3bhxyc3MREBCAgIBAVFdX4ZNPPsFbb72NNWtW44knnsS+vfuQX3AV3t4+qKqs5AMMDz40ncs8eHA/wsMH86H8jIwLeO21PzMBKOklcFBQMBwdHXH27FlMmDARYWFhWL9uHSwsLXiiuno1D0888TROxsYiJTUFAQH+3D4i/ezZc7B7125EDBkMKytrbNq0Afff/yBcOCqHNOnk5OTi0KED8Pf3w8WL2Zg06R74+flj3769KC8vZ62I8Jk7dx7np/4JDg5BRUU5n6qi/Hv37uW/3dzckZGRjjlz5kCt0uBE7HE89NB0fm758mUYPZomaeDEieM8odAhk6qqCiYt4Z2bm4OIiCEYPXqMiJfVzbPR70Lg5OQkHgCzZ8/jcC7bd2xDYGAQ+vfvz82hgfnPf76PxYvfgJ2dLQoLi7Bhw3o8++zz+Oyzj/GnPy3hGT07+yIPSvr8m2++xtNPP8PRJA4e2g8bG1v4+Phi2bIf8eabb/HnmzZvwOTJ98LW1pY1Azpw/umnH+PBB6cjOCgYBYX5cHFxRU1NDczNzGFpZYHTp5Nw9Wouxo2biN27d2LevPlMaiL0lMlT8NOyH/Hkk08xgc0tzDB27DiQtKVy//znJfjuu2/w5JPPcBwuUh9//OkH/Om1xTDXnSrSE3ju3Pnw9vZi/2GadJ5/7kUUFBbA08OLzzrTREHkiouLQ/m1Mp4ciJyff/4pnn/+BRw8eBAhISFITDyFUSNHw9vH+zppf+3aNViYW/CEQBMdlTNy5EisXr0Kr776GmQyObeJJrXY2OPo2zcUQ4ZEctick3EnERIcgp9Xr8Jrr/6JjyGmpJxFcnIypk27n4lKSyKJwD9h1KgxTODTp09h3tx5HD3kX//6J1566RUUFRWCJueOE3Y3j+O7trgeJ/DIkaNw+PAhHkzRI6O5o88kJ6OkpAT3Tp3KwJNE/uKLz/Df//0uz9BkCCNCvPrqn7H651V44cUXOR+p0UuXfoeXXnwZH3z4Hq+v9Vru4MFDEBwczGvwxYuXcP59+/ZhcHgEXN1cWtVMkga7du1kMkRFRbFkKC4uwZEjB1FWdg3NzY0IDAxmCfPFF5+zhN6/fz+mT5/OdVu27KdWAnt6eWLAgAEsVT/77BMm4bfffY3Fi1/n99GZ2o8++gB/+tPiDhKYyL6YjXs0sZB0f+mll5GSkoIzZ5LZfkCTGk1ECfEJHOBg7NixXOa3336DhQsW4eixGKSlpcLb2xuzHp3NZ6Xbq7MkZffv38c4U7ghX98+XNdjx45xm/SJ1OmPP/4X5syeq5sEJMOaNFkewrPPPMdCvaCgAGvXrsaCBY/h5MlYPPzwI1wETZgkWalfi4qKMGbMGP78008/YZyKi4uYwIsWPS5U6B6YZnqcwKRCnzqVALKazpw5k5tAKqajoxOTh1JNdQ3+9e9/4i9/eYutqhUVFfjxx+/x8suv4csvP8Prr7/Jai+prNu2bcMLL7yA7777jiWwPhG5aADdisA0OGnQNjc14/sflnKddu3cibnz5jPJSKLRYH3kkRk4duwoTE3NkJp6Fs/QQAbw009tErgjgV968RWs+nklSydnZ2dWzdevX9sJgf/Ng9vJyZkHPk1eDz30ELZu3YoXXngRCrkSK1Yuw8KFjyEhIYGXHZ0RmAh5Pi2Njx/SkkO/zqX2/fvfH2HO7Hnw9PREYVEh9wFJ4I0bN7BkpLyEMy1v9u7djaio4ejfPwxarQZZWVmwtrbG5s0bW/NmZmYiJuYwSHOg5cvs2bN5wli69FtMnDjpJgQu1q2BBYF7gL/dHZGjrYrt18AkTWiNRWtKGlx5ebS+e4oP9FOigRATcwQFBfnw9vZldXvihInw8vLGF19+Bg8PT14b0/ZLdPQoDBo0CL/8soWNLrSuTk1N1UlIRecEdnVhKUJEWLlyBZPL3t4eiYmJLI2OHDkMtVoFOzt75Ofnc5THGTNm8uD++usvEBU1AqNGjWoj8BNPsXTvSOAXX3wFVVWV2LJlC8fdIpX+1Kn4TglMa2Ai8IUL51l1DQoKwg8/LOXf6UggaQrPPff8TSUwGbGcnJywefMmtguEh4e34rlly2ZeL7u6uvJanDQVkpo7dmxnld/Z2QWZmRmYNWsW98n69eu4jKqqKl7PT506jfNSGVTP9PTzeOihh+Hh4YHvvvuW+5ICJpAWMH26JI07k8D0Lpr0hg0bztK5vRGyJwb03VZmj0ngysoKNnjQACPyUFC2CxfSeObv27dfpwfSSWKROu3j7QM3dzeOIEnrQ1K/zp9PYyKTRNGTnrYnaMCR6mxrY4uGxgY2/pAxhiYFUh/t7Oxa1Vf9cxkZGWhubkJISF/+TtWiQmZWJksfT08v1NfX8f9U10uXLvEkQWtwSlTHPn38UFJSBHNzCy6fCECGtMCAII5YQXGlKBRufUMdvvzyCyZwe4s3WWa9PL35nTSR+Pn58btoLU6kIuLTwKe2khGJVHEXFxdu0+XLl+Dr64eyslJ+lupFE9nly9kI7StFt5SSFtROWvcTPqUlJfD08oJGrWYJSwEH6b1kH6B308STnX2J2+Pv799qiae8pNL7+wXAwVE6qE9Gu4vZF+Hq4sqRR51Jk+DzzI08OdIfWRezuHzacSguLmZVesCAgYLA3TzD9BiBpTEkBQK/Pii4Prb6r7doJBWQTrdzeHMO1bJq1Qo888yzrYNSb02W1r66Mm5y/vVX+8SteTuEYW8X0E5PdOkNunfoX6XVR97p/KUZ6RnYvmMrTyI0mQQEBGHq1PuuC9TeVqe2MiSMKByuPtj79dtY+jq11UcXBF+33dXZfvjN987b+uH6fB0PIl//Hv3402+9XRfsvf3gbBdY/vpA/t08gu/y4nqWwL8RXJJsZNCSrMi9J1VXV7P6TdKHJBpPBLd7D0rvabao6R+AgFET+A/Ao1tfqZdsv7e3WLc2QhRm1AgIAht194jKCQRujoAgsBghAoFejED3ElhnCLrtey97MZCi6gKBPwKB7iUwm0o73g36RzRLvFMgcHcg0K0Epgu+Tqek8R23IgkEBAK/RmBI+AC+maS7UrcSuLsqJcoRCAgEDENAENgwnEQugYBRIiAIbJTdIiolEDAMAUFgw3ASuQQCRomAILBRdouolEDAMAQEgQ3DSeQSCBglAoLARtktolICAcMQEAQ2DCeRSyBglAgIAhtlt4hKCQQMQ0AQ2DCcRC6BgFEiIAhslN0iKiUQMAwBQWDDcBK5BAJGiYAgsFF2i6iUQMAwBASBDcNJ5BIIGCUCgsBG2S2iUgIBwxAQBDYMJ5FLIGCUCAgCG2W3iEoJBAxDQBDYMJxELoGAUSIgCGyU3SIqJRAwDAFBYMNwErkEAkaJgCCwUXaLqJRAwDAEBIENw2XleW8AACAASURBVEnkEggYJQKCwEbZLaJSAgHDEBAENgwnkUsgYJQICAIbZbeISgkEDENAENgwnEQugYBRIiAIbJTdIiolEDAMAUFgw3ASuQQCRolAjxKYbqZXyJUwMzeDXCYzSgBEpQQC3Y2Ali730wINjY3QajXdXfx15fUogelN99wzCYGBAZDL5T3aEFG4QMCYENBoNMjOvoQDBw72aLV6lMBE2nnz5sLW1qZHGyEKFwgYIwLV1TVYs2YtiMw9lXqUwDKZDAsWzIONjSBwT3WgKNd4EaipqcHq1b2YwCSB58+fKwhsvGNM1KwHERAE7kFwRdECgZ5GQBC4pxEW5QsEehCBO4DAMsyfL9bAPThGRNFGjMAdQGCxBjbi8SWq1sMICAL3MMCieIFATyIgCNyT6IqyBQI9jIAgcA8DLIoXCPQkAoLAPYmuKFsg0MMICAL3MMCieIFATyLwBxOYTlToTxBppXZ28USRXK7fRrKmh3sSK1G2QMDoELgtAvNBJi3IDZlONEHG/9ywbTf0hdbSc1wYOWJTYTJdYYbjpJArMH+BOMxgOGIi552EABF41ao1t3mYQQsZ5Ey9m8nNNgLriE7E1Wr4RCOfZaQzvXymkaWxtkuClHyhH3/8Mdja2t5J/SLaIhAwCAE6jbR8+QrDCaxTdImxJIH5B3JIJ3FlkMl/LY2vk8BEXo1GC41GrfvRQK3WQKvRsFgnMnclyeUKPP/8s7CzEwTuCm4i752BQFVVFb79dqnhBCaSksRl0sogVyj4HD1psvS/TC593z7Jvvzyay3xnKgpkVcFlUqFlqZGaNQtMDW3hIWZKRQmSkkC81JYIWnUrFrTJ0Rw/e+SDk9/EoHnzb2900g8WchkUKvVpApAqVRKSwIj7dsWlQpqlQpmZmbS+kWkux4BUqHXrV0NTastidVaaDVqyOQKaWXK/7DaK0lZmaQ207hvbGiASq2FQqGE0kQJhUwhkZiZKK2TWQLTsxqtBhq1Bi0tLWhuaYJCoYCNjRXPBPwC3aJaq1VLRFY1Q6Y04Rfz13KlpGqTvOfscp5B5s69fV/on378CStXrGCVfvK9U/DmX96EiYmJ0Q0Mmmw++/RTbNq4CUePHzO6+okK/TEIMIHXrdNJYIm4kiqsj04jcYs4JZNJAlISUiRINSwA6e/6egrNo4VSYQKFUsGCk3jOwpQIrFFrmcBE3qamRma/s7OjJO0MkCZcAcpLBKaSuaKAXKHE3PkLYGPTdRU6MTER8+bMxcLHFsLJyRmff/YZE3j2nDlITUlF+OBwWFtbo6GhAclJSQgLGwA7eztueEJCAgi8gQMHws3dXWoogJwrOUg7nwZfHx8MGDiQPydg6mprkXDqFC8Vho8YweVSqqur47Ipz6jRo6XZEVpkZWUhOzsbffv2hX9AAJf9r48+wo8//Ii0C+f/mNEi3mp0CNTUkgReB7WqWRqBpAbrR6OWOEe8kQh9vSQmGukYystaNWrrGiVJrDSBgtVpPYG//EZLqrNKTeRtRmNjA5OXVFaeHQyChV7/65ykt8+ZO/+2DvQvX7YMf/vru1i9di2ihkUh9WwKbOxsUVVZhUdnzsS2HdsxYMAAXLl8BZPvuQcrV61E/7AwPP/Ms0hNS4OFuTkaGxuxYtUKRAwegp9X/4y//td/w83NDaVlZZg5cyb+8d4/kJeXh8cWLERTUxNjTO1etnw53N3dce/kKTyx0ZLC2tIK23buwMYNG/DeP95DH19f5F29in+89x5mzJyBb77+Gt99+x1OJycJFdqgMXPnZyIhsmb1Kmhpkcok1W/ktFOj9UKSCK1Rs9SVZLDEKRIeJDg0Wi1qaxpgakpSWClpxpTzSyKwWosWVTMaGxrRomqCu7urDl2ZAYYr3bq4EwLTi+fOuz0CNzc3Y8K48SgsLERQYCD+8f57iBw6FMlJyUzg7Tu2I4wIfOUK7pk4CSt/XoXCggK8/Ze3sGvvHgQEBGDBvPn8/Nbt2xA1JBKPzJiB9//5IVYuX4Hvvv0Wu/bsxnPPPMuSlvJQemDa/fD28cH/+3//ifHjxmPD5k1wcXJmCbvk9dfxH++8w/k3/bIF33+3FFTPV197FStXrMRXX36Jk/Fxd/7IFC00CIHa2lqsXdsupA5bidXSMlMnQiUTkqSx8rqY1UL+kJekvDSVVEXU1NSyBFYqTCFX6AxeX37xjVatUaOluRn1DfVQqVrg7uoIudyEDVptKrRugU3zgm5LuHVrWKaFrNVCrYWWzd9atpzNmUsq9O3FxKqoqEBqSgo2bdqMXTt3YvHixYgeGY2ZM9oIfPnyZUy5ZzJL4D179mLTxo2IS4iHlZVVK8jxcfFsTNu2fTsGDBzQ+jktFUjKlpSUwNXVlSVwYWERgoOCsHb9Orz2yquIO3kSffz8MP2Rh/HUU0/haMxRvPbKK7Czt0doaCj++92/wtvbG5s3bcZnn32KIzExUmcYsPQwaBSITL0WgdY1sJq2YaWdHMlIJUlPnfGJDVPSZzrzFAXB0/1N44gNuhoVqmsboVQoYWJqAjkbtFgCf61VqzRoam5EfV09r389PVy4AJ4BqEzeF6bfFdBqWgD9glvTBE3TJcjNVKhuqkVVvQ9s087AbvgkaJpUMLW1xdzHHr8tAieeOsVkWLTocdg72OPeeyazVP3z4sWY/tBDWLZsGcaOH4fjx47h8UWPY9Xqn5Fy9iw++fgTHI45wqry7l27UFtbxyo4Sem//u1dLFq0CBfOn0dKSgoefvhhzJ41G+bm5nj/g/e5zSdOnGD1edCgQTiXmgoXV1ccPHCQ1+Cbt2xGQ0MjT0w02f3zgw9hb2+HVatX49q1azifdh5jx43VedD02nEnKt5NCBCB165dw7sTHFZZv3AlKnOkSrb+6mwrOgs125H0wlJPcjIOK1BVXcNx1k1NTdnIzFtO7QlMIp/Ww15ekuGHJQlZndtLE50i31Kagca8eCjtnKH0qAU0DZBpo9GQUwRtUw40zeao6TMJixe/Ckd7uy5DUpBfgHunTGHpRqry9m3b8Mabb/J6k8hIE83oMWMQe+IEqqur8fOa1XB1ccWMRx6Bk5MTPxcbG4sXXnwRr7/xOl59+VUc2L8Pk++9FyeOH4enpyd27NqJ7du24y9vvono6GhWh8l49sGHH2Lo0KGYOmUKhkRGwtnZGVu3bsX27duw9PsfsH/vXjzx1JPYsnkL+vXrh6U/fI9//N8/QOv2+IQEnnBEEggwgdes5jWwfv+TpSlbna8ndKuQ1K2B2SKtC0erN55WVFazCm1qagaFgogvayNwY1MDr+3Iiuvl5dGKPr1Qzv6YUtI0a1CfWQx1+WZA3siTiHlgILSaPHbb1KoVaMhthMLeB7tqh2PFh2/A282pS72pdxjJv3qV1xClpaWYMXMmIocMgdLEBBWVFVj67XcwMTHF9Ienc5758+ejT58+KC8vx48//IDS0jI88OADGDNmDDeUDFr79u7D/gP7ERERgVmzZ8Nap2ZnZGRg1YqVfHvEgsceQ0jfEFZbcnNz8dNPP7GlcNbsWUxWIvmOnTsQc/gIooYPx8wZM2BpaYmM9Azs3LkTf178Z2nTXajQXerzOzGzJIHX6uxIOkKShFUoeUzx9iv7K6slK7Sctoja7xWTqVkubTNBhsqqGrZEm5rdlMBqeHl5thGYi9AFptYC1/ZeQEN6EUwdz8HUrxklTXI0OJrC0UYDV0tpF6v+gjOacp1h2t8NL3zyLuzt3e7E/hFtEgjcFAHJkWMdyMbEUpd8m9vdUCK5KEtL01YtV+e+3KZua3Q+0TJUVlZJBL65BFbD091Zp6/LJRWaxDpvpxSj8kwyypMUyHKxhdI+FxZ2lbCxdICVmR387NSQqatRulYGdYUFtBYqvH5iGRw8vIzWg0qMQYFATyGgV6Fpe4jsRpJSJmmzknpM20t64xW7QuoMXWSNls4htDd6GUxgLw+yyOrcAalQcu1SNSG3bB1M5Q1ILXZEftMEaHENk/po4e8SCvKzprmCVIL6zFJUbD2NaqUMbx3/Ce5uTpLbpUgCgbsIAYnAa9tO9Okch0gag6zIbGTSe2O1M16RFNZoeVup3fLZMAlM7l6tRiyd8zEZti5XXML+zIMwkWnhXidHsSwag/v6YpCLueSfqXej1KhYt1dVFaO4Zi9e+csuuDl6iDXhXTRwRVMlBPTbSOzPT0RVq5gHWrI867ZjmSw632jJG0vFi9Y2d0upLFoHV1XWQHErIxYR2NNT58ihP1wMIPFqIs4WpkDbqEF4VjVs7J0R9PBj7NalW3e3yVjezlJDXbcJC59dDVt7oUKLQX33IdBqxNKodeow6aeSysyCt9WBg84PtHldtd/1kazWkg2qqrrWsDWwl4eb5PPF8ltSfQ9nH0NqYTostBpMyq+Gk08IbEc+cNPzQdrm01jwxP/Axk4Q+O4bvqLFLIHXrGEjVttaVudfwY4dZHkm7VV3oEHe4aCO7nNWt2UGG7FU8PRwg1bVBJlCCbmMXLk0uFh0HLnlGVBUqzHYsRlWDsGQO997U9U461om3njhLXg4eRrvOUAxzgQCPYRA6z5wO/uP5FWlO07Ixiydeq3fQtLXhaUueTWShitZkAw2YnmSEaudayT9fqU4EVdLzkJbpUKYkwqWZnYw85/POruMZg6ZnBfe0okL6TzwjvS9WPr/lsLDpW1fuYewEsUKBIwOgeuPE+rISpZlhXSwAWr9ueC2k0dMWtpa4jWyFJVDWqJqUFVZfes1MJm8mcDtEr3sWmUWcgsPwU6jgptchfqLGlj4T4BN2CCdaVzLi3QoTKBVNSOvtgR7c45i+/9tgaezILDRjS5RoR5HoKa2FuvWruWoNm0ejURe2v/VC7u23Rl22GDDsSR1JddoXUgrGVBVRWtgBUxNzW/mifVrAktTQANUlT9Do20GmrUoO1QPbbM9nCc8DFMve4B8M3VHkksbVNieeQgNLdew98PN8BIE7vHBIl5gfAhIjhxE4GY+sE8mJS1boslTT4rIoYscyVZmWuvqk3SIQc3nENhDi9bAFSSBicA39cRSwd3NGQrdKQgW9brwOZqmM1A1xEGmlaH8eD2ai0whl0fAxNYSKicr5FiaotTdAVXNGjS3VKCxMRF7PlgLL+c2zy7jg1nUSCDQMwi0XwNLJ4/oeGCHo4REUnbYoD3fdlJXTWeD2/tLG7oGVrfAw8MFMv1pCfLCItVYTgf8G6Gq2wWtqgz16Y2oSSaR74zMZm+UqmQoNgdk9pawHOgPmYUpFDINNv6/V+Dp3DVf6J6BU5QqEPh9EWhdA6tapMP87Y4Sth1WINKSRNbVjb2xyKlDkrrtU0VFFQecuLUrZYc1cKtY16ig0TRCVbkXtYm5QJMGpaUanKv2RbOJB0ohVdQs2BNmfq60HY0N//kSvFwFgX/foSPeZgwISBJ4FTQaXUQO6fSCbtuojaTSx1L0V95WaqdKS8ZkaR3Ma+BbOXJ0ZsRqA0MDOQfAU6PxYhyac5KRV6ZCZqkH1EpvFKuboZEBJn5usAj2gKelCZa+9RIc7GyFJ5YxjChRh98VAf0amE74SSK2LbCdJGHbSV1d9I2OHscUGZbXzHKlbhvplmtgOsygs0JL75SSziJGm84xJ07A0sICA4L6QFt7DekZLagoV6NRo4LMxhR9wrxgb61ASkIcvl26FG5ubeeLDUFQcuJub53Th7PtIX9qKWaJtAbpxDWlY30MacPt5Pm93nM7dfsjn2mPC0VpoWgrdKj9Rql9/PI/8lhne1dKKb4VnTzSW5j14WTJeCWtdfURKfmEoc77SnKplMalYfvAtAZ2tYdMYdoaq5ZfoIsUoFa14HDMcT5Ef628HAPD+qOxsQmODvZoamxEfWMD3D08cC7tPAeg27FzJ1xdu3ackDpg/fr1fG43JCSEK3/x4kVkZmRi2v3Tum0s0XsoquXOHTsxa9ajHAEk5WwKTx52dnYYFD4I4YPCdSdG2l578uRJnIw9iSWvL+m2ulBB//HOf+C555+Dn59ft5Z7pxT29VdfITb2JD7610ccceVGac7sORzEsKCgAD98/wP+9ve//SEQUAwrishBoal4e0gf80p/GokEFRuqdHu9LEf0Rwz1n7cJLQMJrIK3u7N0tQrFxKL/aUOZPEYUSjZoqTUaVFbX4uzZs7iQmY2Fc2cjNuEUysqusfU6KCiID9BTvT7+9HMp3lQXEhGLYlGtWrkKX3z1JfuRLpw3D3Pnz8dD06dzSRQ9hN5BIWApJA4liixJ5NPPzhRNkg7g04F7yk8zN83g9vb2koUPQFlZGV584UVs2LgB7/71r7C3d8DIkdHIvpiNVatW4Z7Jk/mQfvuZPCYmBjFHYvDGm29wEAS6OoYCuusTvbeyshIWFhb8Q6GKrG2suR1UDwrfSxME7em1Ty+/9DKWLFkMD09P1NfXc7kdJU1lRSVHynRwcLiuTlSPhvoGfo8eD/qM4mg31Ndzn3X2Tno/qXhVlZUc7VB/DQ69n57Vx+EmbCkftYcSYU8ShjAlfPWJHPepLIoJTu9rjxvlp3Lat4sxqalFi+p6TKjfamtqYGZuzu+gtsyZNZuJaW1jw+XcqH6T75mM3Xt2c0CGLz7/Ah98+AHXt31stv/P3nWASVWd7Xf6zPa+9CYqxYoasUti7D1qjBXsLfao0RiNmsQWe8PeOwqIiB0FEaV3RXaBXcqyve/0+Z/3O+fcubOssKAp/M7k8QkMM3fOPfe8X3m/RgXEs2POwRYcz25/1PKB2ZVSojq636Ruv6ySNXTik274Lu10bF057D/WbQD3JoCZprmJEkBuPP3lyjVrsXJVBXr36oFgJIK1lZUYPnQYiovy4PO4cdqYC5GTs2UtdYwJdNrvT8W11/0JAwYOxBmnnY733p8kh+zDDybjphv/IpvPDh18qAMHDhRpW1BQIG13+JozZw7efvMt/POuO3HmGWfimGOPwR233S49s/g5bmoqgG/F7iN2x3FaSPAQsbPlNX+6BiNH7mPtJQE8ccJEzJ87FwzWE2TsaslWPlXr1+OE409ANBIR6cp2PuPfnYBX33gNb7/5Jv5+x9+FSdz/gP3xwIMPbgTgY489BrffdrsIHq7vzbfeQr/+/cDJD3+89DLMmT1bBMF2222HF156UcD6xdSpuOKKK+GXTg0uafEzfPhwXHXllbJfn378iXxn1KhRuO+B+1NAxd8575xzwa4kFDw33nSjdD+hMDvwwAPx69/8Rj7PzhLskHLNtddi9qzZuOSiixDICEjPsbvvuVs+x9dZZ56J75YuE4Ex6tejcPe990qnk9deeRX33H03PD4vMjIyMe7dcSgoKJSWM3fdebfsyUEHHoh/3X+ffPf4Y47Fhg0bZN1vvPkGnnrqadk/gve1N17Ha6++igMPPAi/OUT9Lte3bs1aXH3tNegM4DFjRuP666/H+AkT4PF60d7aikN/e6g0OSz8N0ZIUjKxBLwcWaTKBI1ilNkMAt64pC53flmtaBNRNDSprpSbZKGpdXv3KO6WlFG+CT+6sb8q9r7LgdNOH42snNwtqgY2Pg+B8srLL8PpcGLMOedg7733xg8rfsApJ52EiZMmoXfv3pg7dy4uv/QyvDd5Et584y0B5u9P/b2snw3eX335FTzw0IM46cTfYeQ++2DMOWMs8G6sgVMBzHU8eP8DorX/dvttKQC+/to/4b3J74s2f/7Z57ChegNu+svNOPP008VKOOHEE0SzXHvNNdL1ksKHbXInTJwoB/+uO+/E6DFjpHeXeVEDV2+owqOPPY6CogJ88tHHeOjBh6QH9rvvvos5s2bjlltvEcHAqRXUrCedcjLOP/c8PPv8c+jZs6fsxzVXXoUpn3yMq6+8Ej6vD/fedx8ikTAuuuBCaZT/20MPtX6TbXnPP+dcvD/lA6xduxZ3/fNO2a9b/3oLRv361zj0MPVZWkOVlRX484034qgjjpS+YezwuWrlSum3/dyLL+DP19+A3n364OJLL0E8FsOVl1+Bk04+SdZ1zphzpAcZn8/nn3+Oe+68S/bv8N8eivHvTRTN/s9//APnnncevvnmGyxeuAg33fwXLF2yBJMnf4Drb7hefvf9DybLem64/nqMGvVrHHb4YfL3l156CZWrK3DjX27aCMD33HuPNC+k6U1l8Nmnn+LF55/Hc8+/AKfLTEno1pHfog+JBuZkBpYTSjtZ1fNZ81lJUss0seuiDZOqWFJx4sam5s1XIykAFyknWnxftWZjCjFKpZW+BcokyWAqmNTEA3YQ+cPpZ2uzbOsIKPZt5iHhw6aZykZyy5YtE03BF826gw44EHffcw/mz58nUv3HAPz0s88I4OyvTWlgfm7sE2Pxww/Lce+//pUC4A8mf6A6WTLNtK4Ol11yKR59/DEce/QxMl7FmGbfffcdrrv2T5gw6T386557MX/+fBx/wvHSRI8CyP4igM8880zsPXJv2W9qxEN/+1s8+dRTYjkMGzYUefn58kg4TYJruOTSS/DIQw/j9384VfdecuDZp5/Gh598jD/f8GcceuihIkz4euD++6UZILWoedGUvOC882TCBIG93377iUVxww034Dejfi0jbbgWA5AzR58lQH3p5Zetc8FnTU2+1x57SjveYcOGpdwXs5E4duaQ3x4i79Ocffyxx/HJZ5/ilZdexqLFi3DCCSeIgGWzQe7nuWPOEVfmoINHYc+99hTLYrMArqjAjTdtDOD77r8Pn37yCd5+62089sTjuPaaa4VrIL/y7yS57B05jFmsNGoyPdIitWRndAG+Li1U6ZbJDpXdM6HjUfRi3DYR0ckbpou8G/FoGLGEGjgm09OcHt1B3mSQ2EexqJjXWaPP3WIT2jx9MZ9efx2rV1eIBOZr0nuT8O033+C2O26Xv3MtB+y7Hx585GHMnzdfHsh5558n/8aHxq6TRgPT9Oo8W+nHAGyE0h8vuwwHHHggTjnllBQA02z96y23yHtspHfJRRfjqaefwuGHHY4vpn2pJlsA0ur2phtvEi1Kv43AfvWVV6Qp3zsTxqeQMQTw7353omWOEsDswElTmdrp9NNOR4+eitGPRWOSFM8xL9TGIkw0e8nf4ZSKyy69DMccczSOPOoo+c6jjzwiVsH1f77BuhfuH03WqnXr8eijj2DmzG+k8d+tt9wqwDnxROWOjH3iCQHWeeefL9d986031ZHjaJq2Nng9Xvxqr70E2DvvosbWkCAk8N6fNAlfTf8KF150kRroFSd52I5hw4aLP8+X2pOnMP69CYqjcLnw3bJl0rq3T7++uOOOO6TpvtHAN914ozT677y+HwMwraj999sfb731Fm7568148+23/63g5T2Zjhy8R0tQaHNZ9YQ10wZtyk0ncpjMLLva6xaAf8yE5miHufOXYM3aakn9IhDUDFOmQXP8oUs2XeV5KqOah/je+/6J4qKiFIm8JX95/bXXULG6AtdpAHMUyqG/OQTvjH8XQ4cNE4380AMP4IMPP8S3s74V7TDlww9lbWecfrowugTwySf+Dq9uBsC33HILRowYIT4wN//uu+4WIuTpZ55OAb4hsf56y19TAEztc/2frkNHMIh/3fcv6aZ56smnSBP48RMn4HfHn4Cnn38WhQWFuPD883HGWWeJn2le1OL0cV/SPj1b1XIG07PPPYuvZ8zAPXffgxdfeVnGxlx91dU44ogjcMCBB4jWH/vUk6JRpkyZgmeefEr8xD/+8XIcc8wxFnP/yMMPo621LQXA5eXluP666wR4XO/hhx6G6TO+wqRJkzDh3fF44603JeJwykkn49e/HoUbbrwRvzvhRJxz3rk4+uijMevbb3HvPfeK5n3s0cewYvly3HP/fTIogN+5/oYbxE04+qijxITm83jrzTfx+aef4eFHH5WunjT/aVqfM3oMzjn3XGGPy8pW4IY//1kiDxddeKHwFkYDU2iQYJwwfoJEK5qam3DKySdj1MGjxIRmo39O3VAk1sO47/77RdDceMOfxcVgh1EKon/3ywoj0b81hfn2bCzTMIOAsTKwVEipK3t1iwEsk5G0Cb2yYg2+njkfbpdLRo26nS6rIsLpdMuoB4LYTE8jhF0uBx544B4UFRdtkQ9s39jPPvtMfMhTTz3VenvWrFl4/rnn0NbWjt69euHyK68Qppvs7jPPPCOHnQeCPhKJF/pkt912G2666SZLM5qLcYbrgw88iJv/ejNefPFF6TOthJMTI0bsjt+ddJKwl3ZTi03hF8xfgDPPOlMuwwf14AMP4C833yzsM03VleUrZU3HHn8cPv74Y/ztttvksL/4wguigYYNH4aLL7lENLIZncHDtvfeIzFu3DhUVa0XE5vjXEiOURu/9eZbQljxoey6++4499xzxdxlS1tqV5qx+QX5uOiiizFg4ABZE81Scgd8TRg/XhrTn/qH5F5yzzgWZs6c2cI1cL2HHHIIQsEQHnvsMcydOwc9SnvIegP+AP5w2mlYUbYCTz75JBrr65GdkyNgGDJ0qAj2Jx5/AnNmzZI9/PUhv5H9o89uogr0xdk4nz2+yUbPnDkTL7/0krhCO+20My68+CI5zPfffz8oXHh/3CcOkqPW/fs//iH7xTFADCt1Xt+pp/1BCKt//vOfcm54z+wNTgBTC9Oi+fTzz4TF/3e/rK6UTMYw0Ryrubt2MwVjyc6Tmxom2C0Ax2NR9OpRqEceqml8fM34eh5WlFVY1D0bS7PFJYWHaF+nQ7rGy8wWPZTY7Xbh/gfuRnFx90ixrjZUewXWPxmGWmj5TSVd2P7RmMNdJYgIMI3rYQ23UGVchvpXJEKqTNzoWmYtlhtjvq9Gs6o8mOR7m/K9DKA7f8+YrBsludiubzbqx67f9Z6Z3mq2hBmaerrhmtqHjZNp5D1NYtrvz1on/6D3196cTf7d9uw676UZqtfVPaQ8/y72c1N7PGnie5i/YL4I2v/EFaV1RgAAIABJREFUS5nQrODTedD2H5XBgYz5qplIapjZj/FEdGMT0hd687nQAuACJGLGB47DEYtg2jeLBMC8gIcamGMOXXqSuC53Yn8sp9slkpyL4VDihx+5TyYb/DvJgv/Ew0j/xra9Awzr7bP3SDz17DPYdddd/yPnUZnQHG5m0hnN3DI9jjeluKFr9SUstAhKF5rY2H2zxQwawNZQbyVO8cX0Wfjhh5UauC4BMn1falmCk6ag+MLyZzVJnJ957PEHf5IG3raPTXr1/ys7QKKNZBonVP6nhsSbMJIZkWKBUU/u+FGda2lnXWaoLRma0BxutulqpFgEvUoLkh0B9BOY+sVMLP9hlYBSEijc1MLqz4rEUtkm1L4yWsTpkLDPY48/hJKSrTeh/1cOQHod6R3Y0h0wGljayooWTYaEzLX023oWt4QRrLhvZ3+4mz5wBD1LmaVkHBVll382dQaWL1+pp6IZAGv2WUCsgEsAGyKLJvSTTz2G0tItS6Xc0o1Kfz69A/+LO5CMA+swkoAqNemJgxkY4TE96NQg8K694W4COIyexbnSqI7tP1RnWSc+/3w6lq+oEIqbmpfvkWUmkaW0sNa8WgtTA3s9Hjzz3NhNJp7/L258ek3pHfg5dqBzUzt1zSR9Z2oNTA+sTRObCdXUrjsmtGhgplEJN6YSsD/5dDq+W14Gl0vFf3khxUQrH9gAmESWigU7ZBDx8y88ndbAP8dpSF9jm9uBLgEs/q3SuCqSohM6NnV3/CyABg4321wuNAuIe5akxsj45Y8I4O9XwE0A01TWjrgCro4JS+yXZrXygamBX3zpWZT22LJywm3uSXWxYFXsEd+o4qi790a/qXO1Une/m/7c/8YO2AEs4S3EVTGDFOib+t8fWas2qw3Y6dOqjhzdIbF6MJVSSpCtptJTPv4cy75bAY+YzMpspliwfF8L0BrAzMTyePDqay+ix88AYJOyd+kll+C555//t5aB2bf0lZdfkbzjCy66cItOxcMPPSxJJHfefZckWBCM/I9pjmedeRZee/21Td4Ds51YOdS3b180NDSKFeT1+yWxgYKRh2P06NGSGvjvLInboptOfzhlB1g6yiqpGHvKScqoJrG6mh0tkSY1kdBYvk7d6M54zd3zgaPaB3a5pGu8KUSe/MEnWPp9ucR23U6PJGxw8rjyfwlozUIbf9jBMJIHr7/58s8CYN4eU/qOOvIofDnty/9IHI+/+fBDD6GpqRl/ufkvW3Q8mQXEbKa+/friyiuuwGGHHYYjjjxS8oMP2G9/fDPr201qWDYw6Nevn9zzCccdj9PPOF1qhD//fCpu+stNGLLjEIw66CDMnjc3PVB8i57Mf+7DQmK9+orip6T+vKs0GlN3Tw2t5wTbKvzs3+gegBkHLi1EwqGzRPT9Tnr/Yyz5boVIfzGZWRolMV8V91UANky0et/j8eKNt15BT52AvyVbR0n05NixmDdvnhRes4KGhd1HHHY4Lr/icnz6yafwB/w4/4ILsPPOO4vk+ujDjzBu3NuynmOPOxbffvOtHHZqPZbl9enbB2sr1+CGm27EJx9/jHFvvy0pivvuuy/OHj1aAMXyOtYVr1+3VtIDCTjelx3Azz37LA4//HDpPMLPP/Tgg5IqydRAroEplPUN9aitqZWKGhai87MsDrjyqqsEwNddfx0++ugj+H1+XPrHyzCUqYi2F695yaWXSmqmaTjAe2RVz9Spn+OOv/8dBx94kFzns08/gz8QwJVXXoHtBg8WVvPjDz/E++9PlsqfPfbYA6PHjFZhvUcfxQEHHICnn3oawVAIRx99FI4+9hiJHixfvlzer6+rk/rq8y+8AMUlJVudBrslz/v/42c3msxgz9azaVupvNfFDZvah24COIJeJSSxmOilMkgoQd6b9BEWL10On49d4WkOstpGOeISPrJMaFWFw78zY2vcuDfQs9eW9cTi93ko337rLTz40IP4cto0vP/eJNx6298wYrfdpRMGgcvKpHvuugsff/YpmB/NQgYm1ffs0RN/uelGfPzxJ5gx82uplhm590hccMEFUg9btmIF/nbrrVKRQpOU5X6seGHi/XFHHyM1ppdccik+//wzXHvtn3DiiSekpN8ReKxTJRiZn8xyvrFPPyn5uqytfWzsE6DpXbF6FW75299w6cWXiPY9+pijRYseuP8BOPe8c3HhxRfjoylTcP9992HylCkpGpmFGM8+95xo4IsuvAivv/G6CBsKDxZ3sKKIAL788ssx+txzMPm9SXjk0Ufw/uTJWLRwIa668iqpYmIeNXOI+/Tug2v+dK0UDPCaL7z4AjZUV+O0U/8gRQYUJCcefzz+fuc/seeee+KZp5+WcsW33xmXNtG3UrpsRGJZfm3SnJZuN928fvcATBO6h2ahdZowETx+4mQsWrQUXm/AysZSoE2Cl+ugT6yqlAhgF8ZPGLfFGpiahpUkrOS56957sf/++yMcCSMcCkmx9tczv5ZDRZJo771+hQ8//hi3/e1W7LXXXjj9jDNkO6g59917JGbO+lYAfPJJJ+PTzz6Vf/vTtX8S35IdOrhWAvof//gHXnzpJakmeumVly0T/a833yyZL3YNzGoZNgj4asZXcq3zzjtPSvDOPOssCxAvPP8CKlavxi1/uzUFwMaE/mzq51b7GnaHIKBY+G5eZ5x+hlQhEWxMATRta2gVjB07VvgHApiVQ7RQuBe/PniUVA+xdpgFHNTqvD/6YmwmwIoelgLefsftUiHEf2P3j1GjDkZ1TQ3eeXsc7vjH37XQTmDM2aPx4ccfpbQL6uZZS3/Mmg9MH5iuqFKHyXY5W75F3QNwTPvAdKDZE0vyNYF3330PCxd/B6+PAGbrFhVGUo650sIGuMqcBrxeNyZMfCflYHZr2drwX7p0qVTfTJs2DUceeSSOOfZYHH3U0fjiyy8srcBifpYW3vyXm6V4/bjjj5N18EDv86u98eVX0wXAZ591Nt6b9J6Y2mw1E43GsNNOw/VyHAKmkfuMxJ3/+KeU5pmY3J3//Kd81g5gVvCMOvhgPPHEE/jXvf/Cw489IsC99NJLMX36dNx+xx1So7spABsfmOs55qij8fgTT4i/3BWA2XHjyaefkhTAnOwc6SJB05oAnjNvrmhuXodldM+/8Lzsxe1/v8NqGMD7J4AJxquvvEqK2k1vK1ZiEeh19XV44bnnpbDevHjd0eeM2aiCq1vPMP0hXQ/8qpxF1by9u7q2683rJoBpQrPrgy07BAm8M34y5i1cDI/HJ/+pVEoVEzZtQpQ2pklAmhxiQr83aTx69dqy4WY8jF9O/QINjQ04/oQTUFdbhxOOP15Mvc4kFgH87oTxmPTee/joo4/xzLPPiMagf3v7327DN7NnpQCYW8M2O9O/+goPP/KwHH7WFLOX1UWXXCzlZvf8616pC2ZPptFnny1dKuwVLJQvYx9/AksWL8ag7QbhiiuvFI2ck5MtZXLDd9pZyh1Xr16NW/92K6656mrss+8+OOnkk7sksVjn+vjYJ4S0Mq8zTz8Dz2gNfPGFF+GtcW+nPFU2jjuoSwC/AHbNZFua226/TVyEDyZPlm4UBPeY0WMsAHOfSdINGTIUg7cfjCsu+6PUG7PUjvdGN4CCIB3O2jppZPWFtiZ9bt11zLe6DWCViaU7JgqOE3jnnUmYu2CRVBsxFuxxe6RBmCkptMCrzWcC2+t1YeLEd9G7T2rrmO7cBrUcQUGw1NfX4ZprrpUGZqf87iRM/nCK1vYO6YDx2muvSquZa6+6Gl98+aXUArMrBOtk33n3XbS1t+Gi8y/A62+9qUsEE7jh+hvw1fTpclg5gPmtt98WM3XKB1Pwl5tukjrjmro6IaHY15pkkf1FYmyfvfbGq2++jiFDhkhN6yuvvILJH3wgH2Mvr4qKSmn9wzpgElFsmPfwI4/gt7/9LaZOnWppTvb4uv+BB4VkM6/zzj1XtDJN6KuuuBIvvvxSyu9TAx95+BGY9tV0uQ6l/PHHHocnnhwrfu9FF10kxfXs6siOG+PGvYP8/DzpHHL/gw9IMzw+VwqiHXbcAaN+/Rupnb39ttuw3XaDUFm5RgrhaZX8VM3Rnef9//EzXWdibf5OVZkmB38zmquTPiSRozvlhHYf2FbQ//Y7EzF7znzJc5bQkdMtIM8IZEhwWY8m1OY0GWq2C20UP7GfzTTc/PLVJ3gTjJ/yANN0ZItSvhgTLSjIt2prWaRN89f4xOxVzXtmYTs3kO1ZeK3mpmbk5Sf7YfHAsxUO/5/XptY2taT8HjtX5OblWnmqZMDtL36W3y9ge1enU9ZKgsqskz2yo7EYsjKzJB21pbnZ+q36hgb1PW1SEYxsGmDXdE3NzcjJzpY18bvs6tHV7xOsJtRg3wtaUPW19SKcKKRMe1o2MOB+mRpf+uSqRJTtkYDmpiarBavxu9MA7u6pTf3c1gBYetGZ3Ggp/leJH3w2bGrXvWokmtCxsCrG5pyWeAzvvf8xpk7/Sh1oklUOFzIDmcJKewMB1aBap30w0SMY6kBjUy0WLVyQYhpu3Vakv5XegW1vB7oCcEok2F7UbyUt66Henbq98u67Z0JLIkeOmhCuVKH4w5Mnf4wvv5qJtmCH7CRBmpmRiYDXD7/RwlTDUpFETUlNGMfsebPSAN72zl56xT/DDmwMYNWiSlouM0wrM751j2g90DuF5uqU99E9ALMeuIT1wMaUZV9aYNLEKZg1dx6CsQgyMjPgcXvR0tyGLD9NaA9cHi+Y+gVHXOKVTU2NiMZCWLx4Efr37/8zbEf6Eukd2LZ2wPTEYldKVcyvhpyp4d5bzkhvJYAZdE5g4ruTMGvOArQE2xGTSWou5OcWIBGJSad9VikxvBFHHM0tTTK1IYEo5s9fgP42dnXbegTp1aZ3YOt3QNUDczZSTPmxW5C00dWvdh/AxSSMVDGDqPsEMGHCB5g7bxFcXo/0I+a/BztC8Li88IK50C7EHFG0R9vFB2dVE18LF1EDJ8MjW78d6W+md2Db2gErjGSNF/1p6+8+gK1yQtWNkCCeOGEy5s5dID4uCauMjCxhdr1uHzwOt5jPUWcUoVgQHcEO+Q7HesxbMC+tgX/ac0t/exvdga1hoTd1q1sAYLsPTE86jvHjFYBZzyjaNhyBz5sBr8v4vg60hlrQGm6VMAW7ADKEMX/hAgxIa+Bt9Aiml/1TduC/BuCexbaYo6a6J0yYgnlzF8r9sPNkLBKD1+OH2xWAS+z7BMLxkDKhVZ8BKYfgCNI0ifVTjkH6u9vqDvwUAJtGtLbJwWjsdksd8YH50l9PxPHe+CmYP3eh8m/ZaYIZWU7mRPvhcHBkYgLhaAi1rfXw+zMQCrbB7fFiyZJF6TDStnoC0+v+STuwZQDWkLVaSJtKQDU7iq/G7owXJflkDyPJN1mN9M4kzJuzSJNbMakf9XgCcLv8knXlcMQRdyRQ21Irn+FsHKbxLV6cTuT4Sacg/eVtdgdMX2gqPFsvSl3XT35J1dyrnElyTXr6hQxK2Hjs6Vb5wGr3Ehg/7n3Mm7NQp+Cpekaa0ASxmMyM/yZiaA42IxqPIRaJCoAXkMRK+8Db7CFML3zrdyClJ1ZcJUSxL5bKkOIIItXQzuoNzciPbnbX1a92D8C6pU7nC0x49wPMnbNQqo1UqmYCPtYGiwmtrO14IobalhpEYjH4vV54vAHMmz8LfW1J+lu/Helvpndg29oB01JHjVAlWHW6sZXEYWsx28Wcr8532z0Ad2VCQ9UDz52zwKq1pRTxCwvtVy1odYPqcCKItmALYokY3G4/Fi6aaxWPb1vbn15tegd+2g6YODCrwX6OgpCtBjC17fh3J2HOHDVAW8WGgYA3E16XTwHYqbRywplAU2sDHG4OOnNiztzZ6Nc3Waj+07Yk/e30Dmw7O9B5NtJPXXk3AcxihtTSNfGB32UcWIWR+KJjnunPgtthA7D6F8TA6WtRZGd78cFnU9Fbt2/5qTeQ/n56B7alHdgyFnrzd9ZNAEfQq3jj4cfjx1MDL5BfEU0bBzL8mXA7mMjBOLCeBQtlLgS8Dmw/oAiPv/YWevTa8oL+zd9O+hPpHfjf3oH/HoBt1Uhmi9555z3MmT1fk1jSKkBMaJfLBxnHJABOOukeZwIH7rUD/j72KRSVsivllldf/G8/nvTq0juw6R34uQBsmOlua+CNTWhg/Lvvp/jASDjFhHY5vVL2wGSOhMxTUg0FXE4H+pVm440P30dR6S9vtEr6cKd34OcCsNrJRPczsXpZmVjmqwrAxgeWgHPCgaxADhJxNnlnjaOKchlpwUB0hjeBj77+HD1790pr4PR5/sXtwEazkTrVACvE2MeNmqyrZFaWmfJLC7apqaWbs5G6MKHfJQs9e57FQjOMlBXIBRIcNcoCB2peVYLIRRHAAZ8TH07/CL369k0b0L+445u+YfYo4+yqZHak9Sc1ZkUUoc7E0u2oEroPFt8n3jWaxAPttgndOZWSWtUAmM3jRMsmHMjwZ0sISUaryKhENh1QXQeccElj909mfrRVXSnTjz+9A9v6DlRWVuLuu+7CTsOHWmMCrW6vxIruPLlZ7aZTtboH4GgYG5nQDmD8O5MxZ+4Cq/ujI0ENmwnOA3Y6PaYpJRIcn+h0wO1wwutzYsp0AjjZLnVbfyjp9ad3oLs7QACzUT5H+vwcr+4BOBZB7+JkPbC4z5zMQBZ6DlloNdKEJFbAmwG3bi9rzzSRSQ0JB9weJz786sOUiQM/x42kr5HegW1hB9jY/+BRo3DDdX+S5aoBZhsXKXT3XroN4J7FyZ7F5uIMI821ZWJZAHa7ZSyiPUgkA8C1H/yvx+7B4UcdJmNJTZdLS13ri5vsLnOTVlWGbutjri3ugvYLDN2tBIfKKTXfszZE9yAyxFrXwx01UbeJJHKzbsVBaKJOj38zo2XMb6qJFvph2Z6MdU86k03dh3xb3Yqm+VRTb/VG5/Q7dR9qDXrVZgdT7t3sp3xflqOG0KkOo52uy/c69WqyCmS095Zyvc57rZciXUzN1HlrL1XGnv0+On/Guiczj/on9I2y73FXoLDvceo+/jiEOhcX/Nhv2M+W6WLz0Uef4LrrrsWlF52vCxh01RG72shEQpfae11fkLrPKt/CvnfdBLCajaQOSRKWExhGmr1AoCq5nU4X/J6A1AWzd7RqPq0OL81q05Da62VT9jzR3BG0IpDhxOA+feCOAmtbmpCR4Yc7EYffzc/lw+/z6RGmbk5LlcYBLa2tqGtqRGNzI0LRCBIup3T7cDg9iIWjMiazLRhGWziEaDiKvMw8uBP0y3VMSyMiorsCCgpoRZiXAVUK4ICzxpyE/II8vQ1GUOhHZUrB5EdUa1Bh4nUbXvMe94GPS2Y98ifl8wZ+CSAagUMmPeq1GqYyEQOcXgvMsp/xKBJSamamZnAt7BrKQ0ABKc3IFJi5Px6flviKs0jEIwDdHUsQxQG+5/LY7tyBRDQCp8eHBK8tGTpMsIvB4fbJ76mqNz0xwOmVe5PhXRxkzWtZRAwz8tiCydxfHEzsl1I5818sjEQiBier2nT7JiYG2TWVHGQt5qRHm7leJ9ypz6lnoPIS9D7ZP8d1yu/w3lIBwluVedjWQANd3mfTmnznu+++x7TpM3D+uaOlCf7Yp5+TEbYEG5vzX3jeGGRmZODe+x/Cr/YagT1HjLDGD5kIjvohS6RoIesCaNHK73ExqTfYTQCr2Uj6KVlXeJejVebMlwtLQb/TDR/rgT2MAyvWWQeSZPM5lZz+MCce8BA4E05EnSG4vFEUZvuxw4B+qK6pRVFRAQIeD/wup4xscbJFj8cnAiKWSCASDqEjGERbezva21vQEepARzik2nPG3Whpa0dDaxtaQmG0dQSR4faLaR+PxOAR4aK1UCIhZY5qAFuqto7F4tJRkwScXeJdeOmZKCrKU/toRs0oqCLWWo3whh8ATwYCfXaGgweXZ5oA4k/aHrpgNhZD3JRtEYxyNlSVinzWrlnlkDsQbVwLZ3YJHC6vOmyyDh1rN9dwJBCqmA9/390V1hSTqNZLsBt1LoLFVhGjUKlVvTHr9OE3wtsSJmY6gC4yF+GpBbfMuaUgoOQmeCXPVi+EGFLzs8TtIsC5ficFhnSG0AMB5Eu6KMYcXH16NaiVgLSboEmrSz1PtQ4KSyUcNOStSQd6nfr56YXajBk+E31/lhWge6Oz3XkysiPDDR586FHsvvuuOPjAA2T21qqKCnmmnELCaZFfTvsK38yahasvv0wPh1PWSNcvVWpoxLpRniKouV8yGI0D7ZpklBGnZVpTQB999PFELBqXSQpcSFcF/bz0O+MmSjWS9LhFAl6nVzQwzWUZs8KHxA3UDysciUiKpUzBS8i2IpqIIoIO5GW5MaBXMfKzs5GfSSJMPcyOWAR1Te2IwIWm9hAcMSAWjyAeiyIS6kCGlwPV3NKmkzcVCkVR3diCtkgMTa3tiEfjKMzOIy8ujfX4qxxFYTTCxlUh6iFTevLhe0XYJKXyRZedJQJGbWBy62PtjQiWz4Rv+/0R72hGeM0CZA47FPGORkSaquDwZcGd30dATg0bD7bAnddb3o82ViIRaocrtycc3gzEmtYqq6VwIGL1q5GIReB0++DwZSNY/hXchf3h6TEEidY6xDsa4MwogCunFIlwCJHq5XBk5CJaU47Ajr9RgikWRqylGrG2erhzSuHMKVWf42GIReV3HG6/0ry6QaFS/gmaOwqYTjYpZItgvhcVASMKzXJfaBe7lKBQyLKK1C1t7VJnwkQmEtEQnN4Mba0wFVd1LTXa1M7OKh3IM6G1lJ63tdHht4rgk/N21b1oAaJHelruiPIijJRTVqKu9DPujBGClpOitbLdaeGfV62uwBtvj8POO+2EvfYYgXwZfcNkiybMmjMXCxYuwsknnYDtBg6QZSfdu85X0kLD0vqpMFa+lBJITS1BGSjYDQB3zoV2QFIp5y6UGTrUis4ETWg/nBz27fToPtAxIbU4y5fal//G9jqigcUgiyHqiCMYbERJQRa261OKkrw8+DwuOFxkrl1YXVWH5ZVVCCVcaKdZ4ozDEYugJL8ARTkZclZCQQIugea2VtS3daChJYhgMIqsQBay3EztdKAt3CEKhpKLZn48FhctQAFgYtVGInKuES0GDvyS7gl6XOpFl52NwoJsON3elLMTqpgLd8lgwBOQAy6ZaG4f2r7/HP5B+yC8YbmAJ1K1DN6+u4p5GKyYB3d+X8RDrfD1GIJ2fna7fdE68xVk7n0aYo1rEQ+3wtd7V7Qv/gDeXsMRra+At+/uQCyM4KpvkTH0t+j4YRq8vXZC8IcvkbnzEUiEg2hf9gmyf3WaHFxeJ1K9AoEho9C25EP4+uyG9u8/RdbORyMeCSK8Zj4yhh2qNb9NAUXCcLg90l1UwSaOeDQMpzaJJd+d1kU8Aofsh85/j4QAF60wFRYxLwJSQoo0VbUmESuNoIu0weFWwl9Ohihdm2uR4O/EZfpH0pRUyUPmY6JxxaKiS6EPvXyP/ciVwFUxVBNrVR+iqc+DoXKR1BhcdV1jvugGGZY5rWWUTT/KdfScrpdffR11dXViLfKidBULCwpw2h9+j6LCAuU6Ca1hLIKkglBaV/MExjJQppkSNNKpI8khNLWExOLdAgBrn45tZSd+iAWLlyEY7sBOO+2ClctXApE4XSOl4BzK9+WNKB+EetCJAKfgqWgxXDxgzgTa4+1wRILo07MIfYqyUJSbI4PDvU4gknBgxboNWLG2VhoGdIRaxUfu3aMYAZ8biEcRDsXQ0NaB2uZm1DW1oKMjjIyAD1m5RcjPL4Db6cG6NRVIhGMCSGpmsb7gEJOemkVAqpsjUODQvKbBSYDzYHFzL/njGBQW5nJquTZ5lfQOrVkoABbPNhxEeN0ieIoGIlgxH67sIjkQnsJ+iDasEUBTqwZXzYbT60ci3KH6bUc64Ou/Bzq+m4qM3U9AeNW38PffQ0AYXrcUzkAuonWV8PfZGZGm9YjUlsOZWQBEw3Dl9UJ41Sxk732mHLy2xe8jc/iRon3DVcvgzu8NZ1YxIhuWy++Eq75D1m4nAi432ua+g8zdjlMmvz5AZoyOGvOhzFE2Z5BBsTbfWu2bMp1F+3J+tLG++OlEBHBoM1qfAeWzKh9b5k3rv8ssLa2h5WjLWeUD0bN0xRS2gdqcag0UASj/4zX5WQundjKNADUdMGgix7VrYwSBEQob27b8GX2sEbeZ0EZAGYKJw7ubW1oQDIbkJni+cvWwPfUZXjvJPJtfUjSMOpey5+ISGU9fvaOZL4sAa2oLw+3xbR7APXUmlvIJ1M1O/2o2pn4xHS1tTRg+fGcEW4KoXlclmlbznOIb0IRm1w7xUQEBMF8urxslPUqke2U0EUKkuRF1dbXIzcvBkIF9UZDplfPQ2NaOutZ2BONOlBQUYX11FZoam+TmPG4HAgG/eG7VtQ2obWpREwAzAvC4HHAFslDaux+cLjcCXg+aGprQ3tKGloZGJKIx6Z4pXfLt0t4BBDuClgQ2t8w1X3HVuSguLpDDrubDqb2kSdxe9jW8PYcKQKItG5A5cB+0l8+Ap3RHRGtXwdNzqGhgX/+9xFQNls0UkEcbKgVgBLevzy5oXzwFGbsdj2jdakQbKuAtGoRg5XzRwDSFCWRXdilCFXPg7bMLohtWyP8HV/F62ymBtnaxAqXbi2jzBhEwvl7DEVq7CIGBI9G2ZAqydjtODlLbwveQOeKEZCBADpmaOKmwQV+VxJpH+aeaxRag0BentLaNCVFEkTj/SVZV+/yiAbWgSMRItsXgYP249uPNhirg6pGaehJfKsFkzGk15V6ZoxYULJvTWPJaWuh7TJ5hdS9K0yajFynGlVF66tjrgEDqJ5J/s8g1UyOvOUq7r9s5XVJhxXANncxlEzFQpkIq8Dmlsi0MV3cBLN+3+X1zFvyAqg01mDH9c+w+Ym+sq1hkku2rAAAgAElEQVSP1oYG5UyT2ErEwZm+fP40s91ulxT3l/YoQXuwDSP22hPrN6ynmgYSYYSqq+HzubC8vAI5WZnYYVAfVNc1oqGpFYHMbEQiYSEDQsEwGlpa0N4RFiLI6XGJoGhpbmCuF/LzsoXYjUSiaI1G4PZnoe+A7dCzVw/4vX6RfVVr1mFVWRlCrR1waR9dhJMmldTExQRCYZrmsMzsP14+WgoxRBLbiC8lBBII15SJH+ujaczjGWoV8Lpyi+HMLEGitRZOamSSXgRjVjESbbWINm2At3gA4PKLyesq6CMHmJ9JhNrgzMxXJqYngEjNCniKB4E+ZKRmJTzUroEc8R2pWZ2ZhQJi+sVi2vI67Y2I1K6Ct3g7EQCRunK48/sBiSii9ZXwFA1KMsV6crxiR5XpyusIMZlIIE7mmwfeRQZamAwkxNz2KYLFaER+Shhyst2GkKJQiCnAu5xwyjWMuWsGyAs1nwJq69FoplsIMBvIxZbqRERaekwz0YocVOm9ooXlKdo1re1wa0LQ/g6vZ75lrblT7nLyfeumbC2V1XsiLvT5EsALLrV1YUgz/fXOYcPOgqN7JnQ0gp7F2Tp8kNQ6yysa8f2KFZjz9XTss+9BqK6qRVV5ucSw7B30LGfd6cCgHQehV99eqK5dj8E7DEb1ulqsXLcafo8TrpYW9CvOFQ26dOVq1LayCZ4PkTglfBxedxxtwYiw11xFxEFfOCZnIRTsECa7ICcTLsQRiQHtoRiCkTBaIjH0GTAYI/fdR0Adi0YRiUawsmwlmqpr0Vhfj0QsDhfDKiRELSmrDp79YdEHLiottgAsGjgWQULH75SboqyOWDQIp5vuQjI44CABJCEiw3AmQE0k/qGwuNo34ueU5LCmQpqwDAktw1BSCwrpQ9Bpf5DrUcSrRx0M4iISRMKt6rSVNooiTtAJiaQPlZBITh3CUr+gqCphllTMOB5Oal2+HY8q3ly0rgZEtANw++WexBSX/RFWQEXM+MBIdtoVAl2peExN5tMEWefDqvxt8gua0bfUaxKESgPy5uNwGEvQFoJKNWENW6U+b38x6cj0MjfANWA2/y/uQ4rtpoEpQkJZEJYXbVMO1pYm2M5OhbfUP+sNSYYONjvwrHsAZk+sHpTqto0CUL6uHjO/noXWpkYMHLQ95n4zWwgUzgkWc5lo4AN0xpBXlIuc/Gxst/0gtLercaTUiImYA4u+W4Q15WXI83oxtHcx/D4XInCgtiWItdU1qGtsQTjGB0zpr+KQHKZGX8PndSEvIxMFmQH4PW7EERU/IhwFmtpCiMSi0guk7/ZD0Lv/QJHSmdk5MiQ8Fg5hTdlqGXS9smwFYh0hdYvav5Hwklhq6r75MC7442gUlxQqD0Z2XoUi4jYAKYDow2EkqX5PYJESftIHWvuN8jHRYCY2qox7edCyNm2eapNLSBIRCPqoSBKGApylkQwpoderRIRiMk3tSyIatoCr0S9gYQhP1mS0Hb9JU1rWSF+TuHVr11mF5FQOAC0w+vUhODy8hixKM9eUklogaFPbrNeYeMnkDgJRWQGKYNJhnM7otqQs488qEUXdh4Gb3cQ2H06SVFqqKSFjU8qdNbD1MzoBxnAGmmGyLFSJsesjkmK2ys6rOL1mspLS3Qi0Tpau9ZupBrCch8bWbpFYUfTqUZACYF60uiWCGV99g7LvvxPfNdPlh9tBP0nHVLlGZ0KAu9Ouw1G2qgzbDRykWu9kZsoEQ4apsrKz8M2M6ahftx57DhmA/CyvmE8xJhhEHQhFImgPc7i4U5I0onH+F0d7RwfCsSgKsrPhdSlQs/tlNBJGRziO2oYWJLgWtxc7DN8VcQljqANXXFKESDCEBfPmi0DJ8gdQt2EDOto7lCYmiFOFsuzjRX8cjSILwKYTCWOsyjeUfthsFyrJEIqJVQBgjJo+o9KWVvYOD6c2M61DFGXCRtKEFE0gICQwyJhr85FsN01Qi3IlCxtVZrNSU6LtKPQIchXzVe8J0LSP69AJDBIjpiVh4qS8JwEOFRTX5Fb/8fcZv6Vmk1i3MrVF47h10gYtCCP2zN4IW82OpcayUX6nYYiN8FIsMe9Fx2ltsV67mayuY4Bp83/t8T21+SYbw3oaXeNfCeSkVtWi0wKWZffoa6qnq3IezOxsc2jsgkMJCmO7JudsW4tLmvI25lutu4uV2gRM008BcGVtM2bPnIMF82YjFokgy5Mp8V0+cH+WH4XFhcJQDx0+FLn5OaitrUXNhhoMGDBADnBTczP69OkrmrSxoQHTpn6G/oU52LFfKfweDxyc9EDQxklyqWwZzmHieSFDTFObZ8nn8YiGCkfDCBPg0QjaQ1Gsr2kQEzLi9KP/9kPQ0taCHXccgoWLlmDX3XZDQ10tVqwoQ0ZmptD8a8pXo6S4CC2tbairqRHhEgtFFADEFIzj4ivOEQ0s+2pMOqfHimYokBgdl8DnU6ejsbkFJxx7uJiYNK2D4QiefOo5HHv04ejft3eKRu7qmQlrqzPbLA0tUtxke+mUSAoN7asKAGJK6EnSh2aS6RtbbDMPXZSfcag4s/6MANgSCrRCmIiicsd04qWY7WRiJaoRC8vfGV6S+6dFQrBSgJEkjAThEv/YHkYis2+sBmVyqjhwkk6kWyJmpUmpFKPBnnBDwaYEjAl7dH3mjTWkALnRiz4xT5BYXPr3NFMtAoIuoW1lnf1SYy1IRpmVTqsEaAqjbFG7ih+S62hzWX1P+W7WPXR5GJKr5z83bxGA5eaMEEtg8idfYtbX3yIWiyAaSyDDE0AgMwN9+vdBaa9i0Wxtbe1CPJWWliIzMwMLFs4TMBQVFyMai6NHz15YW1EJt9eLcDiEeTOmY9iAHuhbWgivzw+fS4FTNJacU5UdFY1H5M8ujxOOGCebJ9ARCiFEX0/iwSFsqG+SDS3uNxhtMaCkKB9ZmTmYM38+9t//ACxbshhN9U0YMHiwlDkunDsfPbn2klJhymkphNo7sLayEqvLVyIUDOLii89ESUmh0hqyFyoMwbBTVVW18n+dDvTp20cEzfMvvoahO26P3r1K4A9kori4SATXg488hSsuHgOPz4+y8tXYYftBYIopzfry1etQWFSAgoJ8uV5lZQViCScGDugv1ywr+wFejxf9+g+wtIsMi5YYqpb1ctgZv02KcElv1P9TWlZZDgwL0eRjmIipj0zjTLLNhnxSHrGQWnKY+Ryi8h2XO2D52vFQOxxeglWFpEwmkwKYAZLJQNIa2LJuDfmgNJrdXLVcBPltleVF68qY5qmg1IdUmQ563fo9HVNVuk+5JSZVkmfIAM78vhEnPINGhG0sADpr0lTtqywmuwDUoSpjodiJtM4a1xbVkidgY6V5e0oDbzaMpE1oG4B5sfJVFWhqbkFzUxPWra8SAoJZToGMgJBPmRkBMXGWff8dBg4cjOKSEslrbmpuQmZGpoqTORJYu3Ydvvt+OY444gjMnjENjdXr0Lc4F72L8xAIZMFD80+nz7k4ttSjUip5KFyOBJj2SM3L9MooGwkwoN7YIhlZGXl56D9kVywvW4lddxqKYEcEHR0d6NGzJ7784gt4fG4MGjBIcrnXrVuH0p49xLz3sNAiHkdGRgaiEeXrbaiqwt4jhiE7O0sOpuQh65zh6poaPPHkCxjYv69o9JNOPEYEwN3/egSnnnQMxk2YjIL8fIw5+zSUl6/GhEmTce7o0/H0c6+gd+9eqKioxCUXjMZrb42Xe62ra8DRR/4WrS2tmD13ASLRqNSQ8ppl5asQjUaxy07DMOqg/RGPMbmFM5pVzFZpX5OnrI9qNCSa1xQpWIdXm8AEo8pdoJWgfGPR4FaetEoJVSa0YYu1SS4prFHJjlMEm9astJBkbrQ9a81uoSSVgQk7poZyOhVDmCwq498mId6FrdmFptWWtMnPN7pOMCOyQKu/pNOj/9SJ0LMhOJlNZVeXlp2iv6/zx+2km3G/LSbvx+xlm3Vt/iiPWO0yeZ5uAJgstGora6cQ5ixYgpraOhlUtmZNJSrXrBW/liZxSUkJMgIBkaTrN2wQ7TRy5EgZM9rY2KhuLAEUFRWivr4e33w7G063C/vtMxKzv/4KHXUb0DM/C7l5eciXIHhCWEofZw/r9ElqGArhUDgs/nB7ewi+AAkWB9ZX16K6qQ2DdxmBjijrkAMoyM9GsD0ooGSG1TczZyK/sADtHe3o3bu3rKu1tVXGvoj/xZTKYFAOdVFhkfieg/uVwufVCQ86wYC7whzusU+/gAP22QuFRcXYZedhWLN2Hd55931cfvEYfDljlgBvzNl/wKT3P4LP78Fee+6ByjXrBPQPPjIWp/zuOIwb/z7+dPUfMXnKx8KsDx8+VCyCL6dNRyQawyGj9kNbRwRTv5gm5vcB+/1K+6Yq+0jFVnUhgyg0nYBhmgvSH43RJGaSvUcLxqjKQZZsKuUji58u6kkVeYiJJ+SkssKoqZmNpvxzlUqr2HBV+CCnS8/zMdrMMjV1soIVM00hmwyoDc+jki6EgZdYcRdOoeXj2jWfFlyGlZa/KlArltr4r0mjenNFfWb9dg2cBLDNtNWa3BIU1rI6rd1mDaTIIlvUwm4w21IwLEtYJXJsNhMrip49CqyuGwbEKyvWYOWqVejVq6eYs/PnzxOyhLFfajkCgVqnfOUqbNhQg+ycHIzYfXdkZGUixiQKl0uyVBYvXoLahgZhhj1+P7br3x/rV5ahpboK2ZleFOfnIScrAwlHHG6HA36fH16fFx5J6UuAOdaNTc2IxRIIBAguF6rqGlDV3IER+47C+g016NO7D9rb29FQX4uBAwfIIPJVq1ejsakRAwYOQElpKdpaWsTHYpIITXySax38TkODbGlBfiGGDuotaZ4SXnKpFEM+lrraWjz7/Ks46KD98cFHn+Km66/G519ME4Fw4vFH48tpMwXAZ591Ku6+9yGcc/ZpQqRxHx574lkMGjQAI3bfFa++/jauvuJSfPbZ56irb8TvTzkJGzZU4clnXsQFY05DSWkxps34FtNnfIPjjjwMw3caqrSkZTrTfzWVSTEr00iZ07QoldlsElnj0agkbJBtNiSLCk1RCxOQJORIWLlVkEinKkrIS4grDQoBL8PPERUK0kx759isCAJd3GE3f+28k2LhFTFmyuusqozOGLBymbVGMNpfTr5JBklCU31dsdR2ttluBNv/bExnpXD0Dun0SGUV2tIgLTdP+beKUzCloIYwMKrX5BzYxYEdrtq0tzS1vj8Tc9IasJuZWNqENmpTuxOLli4T0zkvL0+S/leuXIWWljbRqjy4hQX56NW7F+rrG7BkyXcoLimGx+1BQWEh+vbtC+Ybt7e1wRcIYEN1NRYvXYaiggIJ5Ww/YAC+nfElom0tyPH7UJCfJamRzK7K8AfkP6kscjlF+xLA4RBZTh5UJ35YvR4777u/MNm0BMQvbm5GsK0DxUXFqKuvQ/WGavTt3xdevw/ZWVloaW6B28M8bhWqyc7OEW1Pi4IJ4yS1dhjQEz63qQZJEipNTc0YN/49/GrPPTBh4mRcfcXFeOGVN7DHbrvgV7/aA19M+xrl5Stx7FGH4omnX8JVV1wiB/nV18eJMDj00N+Iz/vwo2NxwH4jsWDRUgwbuiNKS4ox/r3JOOiAfTFkh+3x0SdTMaB/X9TV1aOuvgHnnHOGInkIJoJH4s58QExpVSWAltYytb8G7lqLqgw5h+Q5yz+5WS3kVASXMKyqRjXph+rDKJVEmvHWmliuZUx5E0k1BQb6MKdO2VMiUIFDkUmi4S27tusDnsL0GPfWcCU6q8oQiuazdoVnKiJFI1vl1upC9qy8zhrQLpCSGVWp5q/JZ9ZsZrKKr3NVRFe3poWEnWsSS8i8r1do5FRze6Q7JnTXAJ67YDGqa+vh9ngwYEB/rFmzFsuWLhNA00Tl4cvJzcHatevl34qKikSr1VRXo6CgAFk52ejTp7eUrzpcTqwoL0PZijLk5hcgJycbAV8A5csWSYpllteJ3NwseH1uZPh8Uivs9bjh8frEH+6gMGhvR+X6GvETswqLMWjnPdAWDCErMxPNTY1CmrG+uLGxAcu/+x7FpSXIy80VM53WQDDYgdq6OvTt3Vs0MeuOqZnXrV8v7DHvpU8RQ1ZUSNT0+uCREY8nMPXLGVhfVYV+fXpj35F7ClH1+1NOQL++fTB/wWKsW7sWAwcOFA19xaUXYu369VJiZupcDz1klGj72bPnITs3B4eMOhCff/GVMPQEUElxMXbaaSg+/XSqfOfgg/ZHP7LYut6XeyhZRsYKNVqAp0FylFX+saXEWCkm4SWlOYWdlqQHnVwi4RsTejJVRkrzqoKDZFhKYsYelSKbNJm1FqREFsI1GaBJaq4koaUSH2iq/0hWlV3bGmWi02SSikoljNgS1S1z05IJtjCMfT9MoOfHAKy2deMmEeZ71g+Z65tF2YFq3OwUQCqAGqM+xSw3iT0pYE+aId30gW0AlmeiVjjjm9lo6wgjvyAfefl5WLtmHcpW/IBQKIzc3FxkZWWipKQYbrcX33//PQL+DGFX16xdi549e6KmtgbFxcUYRDZVM4qVlWvk37NzcgXkuVl+LJk3D+3NjUJ8ZQbccDIry5FAVmZA8qBdHg8amlpQtnI1+vbphWgc6DV4GEIuH7ICfgF4U1OTALmxqQW1NTViOvfp0wcNDfXo07u3CAIyxLQK2lpb0atXL/lzfUOjmPmrKyrQq0cPbN+vBB6vMlkts0qS8VXesDkQ7R1BPPzoU7ji8guFuDNZPV9On4m166rwh1N+h0QiqsJDciFVSSOAoQakwSrA1HFdHV8QlpifFy1H81aDU4NPmagsATQF8PyMZpJN3TA1s+Qw6/CNAQ7ZaCnE15lEOuYrcW3+nv5cnGEjSYFMAJEOlc2lwazTF1RSvgaX0IpdHsRkeaCEqTTClAndlbtr3lRFCEpLMVHIbmea/KikI5nUsLrIyPac7LjYFICVP9uVpjUa24TYdIqtyLsk863i1eZl1UQpRSryRhdTyE+YDi86xTKmqyh0/bbdi/hJAP52znxsqKkTDdavf3/U19Vh+XfLRXvl5+cjLy9XCCMyxOXl5XC7XBi203AsXrxYqjNKSnsIgNqam5FXUIBBgwehcnWFJGn8UFYOr9eP3XfdCR3BMBYumIe999oboY5WyfaqrarCusoKycRaX7UOpaU9JKfZiSi8OQUYOGw3JDwZYu5ya1VRhUu04MJFi3DgAQdKWIubTA3LsA/LHunz1tTVaisiIJaE3+/D+nXrUVJagsJM1h8rH1NAyW4g0gPMNLA3XTI8Qq75fV4FTJZPut2IhMn2xuFx6IOmWWzlk8YlhGNJYEnjpElqGhDo7CydqSUjKqlFxWxmDNMkcuhuGuJGkn1mYoy+rk5XVMnz5vM6h5lMtGROcb4z/eRkkYekikaDiqjifyJsFGst/rUxQxmrF981NZ02eXhVZZMylbkK7Z92Tr6QDVaa1Pj3KkarKpOUCWxymVPBYTqG2DOdbZ6nLGVzhFUSalxnkhyzMte0cLJYf0ugqD0xDoFYM5ZZ/iN+r235BtBGSVI4qZTQrl9bDGBF+CkJuXjZD1i89DsBcGlpiZAhSxYvkf9n3JehmIwMaslM8Y/pF+84ZEcpll+1apWY1D1KisGMgNbWFsQcCZQWFyEYishN19XXSzucSDyKgvw8uB1ARnamJHPw/NBnXbu6HGtXlSE/y4+S/Dx4fD4U9B2I7OIeQqzZzgEaGhqxZOlS7LD9DsjOyZZ/Y3MBJm0wTJOXn6tzcR2ihbk+CiBq4NqaOqxbtxYjRwwT091oX6U0kjJRSB7JAaYvrgsBrH/WNan0HallTc2p5BjrmlpNUrBQQVX6KINOhADNYHuihvy0IqcMguzmMX1gF+uTJfNLgV0JeN0+SMgmzewylZJA1Ndzit+qM8dolksyh8oCE83K2lzNWlsmpG4fbN+PFA0niftKKIn5vVFiRudDqjWxTnpQCjcJpq6PdNJuNT6vXWP9KBJS/kGZ9Smmsdpk/Sn7GnTOtAkRGUUq2XyKvVcvY1XovyeNidQl8Yclf92Wc/Gji05gy0ksc7F4At+vKEfl2ioUFBagsLBAuqYQqOVl5RKWoamZlZmB0h49sGrVaqyprMSAgQOFrGltbRPN6eG4lT59kZefLwUG7cGwxDhJIBHo0m0jEUNDfQNi0TCycvIkTkst3dbWgezMABbPm40Nq1eib49S8R37Dd0FnsxsMQWZWklBwnjqvPnzUVLChJIsuSbju8zAYpMBmtSxSBQDBvSVTvdtrW0CXD9N8Kgq/K+oWIOdd+wvZJpoSV1IYBWfy3uMfWqAS/E6WV4WFWitbZLc+Rk+RN3NxLS6kUMjTK/OI7fSFtngQPeR4tfEjPVaSfDSe0ryqZO11wSudNFg0oukU/Lzqi5bo0eeZpxmurS/YRhJd+GgJSD53UpTW/2oxF3Q9b/6YCqNSnBpAWVTGCpUpKGgY/ddVQ0ZDW4VrGuTVZFnyi+3gJDCNHcGiBXpko93Bm9nt1TuT+QfrQ2DG6UpKURTem2J5WFa/shDUGmwhgDXeVh27btJgWHdkgGtvhAB/KNaN9WM32INbC0olsCS5WX4bnkZevboKaYmtdXqilUS191+8A7iAzMryeVxY2VZuWhghmz4uZqaWsmfjkZjkuDRk7OSGJt0KlaZRBcTImja0qz1Z/jh8/jkGi63Rz4TioSkPJB5uqvKfkBrYxN22XUXeLOzhZCJhsOSnRUOEvg5mDbtSwwdNlxMewoHPl42GhM/2ulEdXWtZGAR8CyCoMYuKSoQlpwhqnAohOK8ADIDPvUgXWzlw4J0HaeU0CeJIEWkOKhFrc4duoGc5Aszf1lzCQlaG8YEVyEb6TxhcpflZBtzlJKZVUoqy0o0GX+fQsNNcNOcVemRTpdfk1G64EAXGEiaIw8r1yB1vkzWYAiIAkV3yzBVTMxnZh0wTXQBKQsndHG+HifL86ASP7rSnioTi4LAaP5kkULqNwyQVOjH9PmyGB8FRdPrJkUTmgOt3Q2b+2wpOYvTUplWTPwRucB4uE75pLWi+ozxedJtocthUkqVGBBBxDi7PN8EnDqxRdJGub/yHSPr1HeUxdqFJOm0Trm+zNLetMmctALU/jW1bSkLbdPAK1evx7ez50mqJEksmqPVNdVYU7lGTOoePXrA51OFCStXlosW7dmrp4SZGG5qa29Da2u73HRmViYyAhnIz8tBTna2CKDWlhaUla8UQbDjjjuipaUVkUhIhAALHEKhINqa2xCV1jeqd1VLa4f4jIGAV5rYZWZlIxgKSyuTGTNnYvfddpMHQACzbllPIRcW2uP1ItQeFCHBhBNmivkDXhlKThaaoaTCTBcYRZIDZWlV5fcGy2cgHmqDf7v94fRlINZaA3euqutVfqEqUKA2DK9bDG+PoSo7SnenNMUOzKpSpImqm1WEkU1L6BJBqdIRPzRpRvNgOsXUVZ9XmleFheIiUHT9rQgKEmQB7WoqzatMdLbHUu101Mll7xQeHZXba2qlU8NBWj8K0ZM0Na2USJtJak/sUDfGxnOK5kuGq+wCIfWaIjAllpvUySama6ezVFM7K0akrQ5iVDPu8tva5jVgE+u1k3Cx1Rmr/GXty1pmrkKoqnNWcXZaSBSiAkj7dzSgrYpBw6WY291IEtrN9mQqqpZyP82EXl9Tj4WLl0kMlbFdFu2zF9Cqlavkhkp7lAqwqHGpMVeWlwnI+/fvD38gIEBpb+uQIgSvxyNliIVFhfIZIX8I4rYOLFu2TPxqphzW19ehT7++AkKa18RgJEwTMS7emUrwZ4dMpygmmunsPz106FAsW7pUUiiZ+EEAMyGEv8XEE5rtvA5TQAnWjvYgikqKxNSnRg7wfSeQ64UA3ZhWBCYPfrxpvdS4MpQSaVgja5D2OX1HiGQPrl0AF7tJsj9XIEe6bvgH7S3/5i4aKIciUlMmhfWhynlANARPz2FwZbCHkiZvCDCjAeXwqOwnw3ArppdgTghYmWklBQT2ulTrhCt+wMR/GbtVZJQ+MEplKiEiRBrBrHs5pcSEU4Grag+0xuqCmEpenz9gKzKwt9KxH+aUOt1OBnCn+K3lNyp7XtvSml+gULNSQe2Boq5sh07JGXI5VVpq2eSbMHGVu6xBHQ8rl0VbTMlOrepekgUUG5kwXbxh1qp5BOY2SBzYv/mWOlJOaPcoEsCGmnosL18p7HLv3n0ENCR/KteukYPPUFFhYZEAjdq0cs0a0XT9+veVnGkmPzBjiwCiv+nzepGRmSHVRIGMDGGy+Wea2WvWrJM4aE1NjRwyTjekYHC7HAgHg/D5/UJ4sW6Y4Z9wOCI+a8DvEYac169ar/x1hniqq6slvENNK1oxFoePrXlicUneYKYW3y8sKFKaTOkH5AdcoomVDUaTSvVVToRaEFw5E57iwXDl9BApHK1bCW/xYLQumIjM3Y4XjRws/xoZQw+VpnNZux+H4MpvVIudeAzBld/C03M4olVL4ekxFNGm9fD2GqZL97QZLRqcZrGquVVUC7UnzWJT2qd7TmnJL7nSuq5XkSkMC3lVeaPpT0XTW0JSmlXXJr7V/kYDW/2mHUj2VjA6hmvZjklwm2obVSpoQi6qgYE676n9mJO6VYPRqiIy5I46zLpYSYNLs9Ncq5Q7mlxqY8IrjWsJPIvfNk0AkuvoytTfiAzbGPsW6EwapSozjEn7JiY8SMRAiCpVr715sqrzjyTJLUYhWtqjcHs3B2B25CjJ1fFKY9vHRX2vq66RbCqaywE/fcUIaqtrUbmmUrRsSUkPZNEnBbVhlcRjqYFpdjPxglqYyQsEOeO+BBpBHQhkCIEUDndIi1plogAdHe2YP38+Dj74YKWp/Ty07H4RlS6SwWhMBAKTR1wuB3KyshXQ3W4BLat/aOY0t7aJbz1gYH9hnmlOK6ugTe4nP9v171QAACAASURBVD8PVes3iFWRl58jwG5ta8d2fYrhloQJPitVPC5ajndIK6CjDsGVsxHY4UBE6lZKK9ng8mnI3PVYsdY6ln4I//YHo2PJB8jclQCeCf+AkWKmdqz4Ev5BI6UFT3DVLPi32w+egr7K/9SpilLTIsSXLu6jv2sEiilN0z2DVfMDTZBIe1majrp+WAg2tXY5ZFH2AGNXEFXvK+a+blQnzLND1VKr9EGNOwGiJrVs+sICo6XMlW8vzfAsJ9FUInU6oJbTqPZXhcc0/E25npTkSHt4+VWrUohNHsJBaSBg6VhL1mwEP92kwFaiqLWsAFwiA4oDoFXFKjFjpSii0quevWUeKxdD7kY3hFCGv2GidQ654R3Y61xi61roWWa70tym91xcGunrGLSxLKz4shPNBPDmq5FURw7VW9c49MC6DXVYUV4hgCPrLO1ZEzEhsTZUbRBmmUkSNH9Zu1tVVSVgZZIEmWQeHIKNn2chAcM2OTm50vaGrC+JMRJMzMri70rdcGOD1BVTEIwYsYeYvKKFtMlCf7ixvlE2lnFeD1vSMH/a78eaNWukpI+foaBg4zo2b8/OytZtYyETHcIh1XuLoSUWM/CA5Ofmw+vzIMfPCihNHsnBVgkOsdZahKtXSL+peEcjfAN/hY7vp8I/YC+E1yyEK7cHYm2NiLfXI2PYYWid/RoCQw5BrKMJiWCrHLpIXQUC2++H0Oo50oI21tYgbWaNuS4+K8kSMXWZ5KHZX+mIoWK6rAZSGs2WB6yTKKyghmhw1dPKxIKFwVY2uPKNmV9taQp1KlWoU/mVapiETeN2ArClQXUWlhzKzXXTsGKrmtBRtqjWVDocq3OYU2DPtkpWnTOJJ40iO4ulo7HqisnYMjt6Mmqg2HbyDR7d4kglwiiBYwBl9lW7F2J9JfdeTalQVxfWQGLAqmTRyqIUq0DlBahqL/U8dbBQf1+761Zoyi58ksEt3ks3AdwpE0ubPGvX16FizXpwaDEzqpjpxNWSrKIvTBCyoIHmMDeCpBXBSm3GzzPlkqDkKAqCmwKgX/9+8j1qVJqq/HfGkrOyMtDe3oaWFk5j6JD0zcqKCuwwdIhq2elySm9o/rZMQtQEjEf6UJNZ9ki5INM0jeHJjDHGkhl6ymC4iG17yEwmEuIOMHGDfhMzp5gFRlemMMurSCyppbWFdcjuttXK4Xfn9JQnQFCzcbnDm4lozQo4s0rkXLsyCxBrq5MH6M4pQbRhnSKPSBZlFSPeWoN4RxPchcxQ07+hD6hKkDd1ux49WE77qbrdjjKx2U+LrKowUsIyi84W7aFznbWWoQUiTHEkqLt5aMrK1paH4FON5HSrU9s4GJvdqGFikjQUAbbxy8CP/687mRjw2kknye5KflvVwiZfKjZuShwN3Wv+3aAmeQEl5A05qEe+aB6h8xp1Dol+u3NM1k4smWw2JUylKQGFrLE09Eghy+2wWvEkb40NAaVNsfAMOt3UCpt1Aq+NYOP9tHTEuqOBuwZwbUMr6uqbxBSmycnm0jTbSAjRjG4PtqOwqEgK1QmAaIzathGRUFjMZTLP3E+W87GYgb40w0bRiOrQz9Epcg5dLmk1S0a7ubkNGzZswODttsPipUuFmd5++8ESDqLmrtpQJQx4PJYQ8oqEFA8fzej169cjOzdXz2miOd6Btg5lxhcUFEpMmP2xCGr+dlZGFgKZjAOrkFJpaTGyPKT5TQdG3RqGSRCmjY02cVXnC51CKV0jTJ8wFapJ9lPmAdahKN3ULpmTadIlk3FWk5ChUiF19wt25mQYiUKEIGRqIwFGv4uCRmp+dTN1qc1VFoTEOT0ZyY4bkg6qwzGmu6TmY/i+2cuuXD8DDtUhQ439UNlenWYN2YrmlTAwPrQmfUwSA8k4SYRQL5MOKRqUoFWBHOsfLX5J27CW8tUEoBJe3GcdxpOLqj7g7CyS4tYbRjqFjU4Sbkn/WOWHq7/rjCttNTAnXZL8eX9CPioBrbqQpJrzhthjw0PVSkk19jNWjGoIoBlzuwDrPoAj6FmqxovaQwB1ja2ob2gWAPBFjUX5QY3KThwsDqBWYxtZVgRRgjc3tUjT6+zsbGRmZUgMkSQV85NJUDFExDxqfjYYCkqyBRlj+rsyksUBlK8ow5AhQ6WzRVNTo5jUe+65p2hZglsaaefmScoj10JSi2RVWVmZXJsCxtQEh+S3qyU2TEuBWpzsNE36aCSGXr1K5Xq8H5rkrniHJHpY+yAdJY0fo1vU2MvpeHCiYelEqfxXpQFU4YBut2qKAmigEoy6wZ2YtwSkDCRLDuUypWpRjibRNbfS1lZak6qaXNP3yvicEjrhfClWKXFyAlvUGlNTCh3MNAPDKqlzJuaeBkpqK5kkJasGuJu/d/Y1jSOs39eVNVZGlqWgu0p87KQXGYOVRuy6r4hNSMjZ1KBUPJnOEZdWQLrE0mS1KTTYgJTMkhKT1/jNKZJKWS+WG0rgU4QYt0ASaLR7qYk+JQyVBFSy1jD6uvGCgWinsJVk3HF1Ol/dEugaf/YwVzdNaJJY+YqZt0mPNetrUFPXKJtFzUWA8Ybo77L0jsALh0OSouj3BURTc0JCU0uzADM7N1uqgXgwCDSmTvL7LDJQfaTdAjY15iQm8WFKpvKyMuyww/YCJIKffjFLBelrE6gyaM3lUoAH5PtcI/1van5+hi/639TA1Nz0qUuKiuDRYSRel3nLuTmKbDPfH9y/p2SYybPVB0p8KNEMujZWm36SHSVWJDthsJBezx7SFT9KOdAETBbjS18pDXKJHzud+LZyKVbUVCAUDSE3kIV9BuyO3lmcz6RCZqrlqzbpZSE6I4yCRPtpksUljeZMhRHXo5haQ2SllMppczPJOncCk6xRkUzqSJgsrB+jZvUUBOPtyYk2yRl28Kd+X2lObfqKoNDaXZOIKotG54obYJKsM907Lf8yqc9S8Ks1puouqn1j2UNtsXD/zKgXqQEnN6B6hFn1QxaqteAwz8MG0JROIzoZxEpjtbHw2g5R8kWEp0oOsseN7U9iEwCOiQa0hpuVsqDfVICoS1TXN0vTdYKMgCExJedaKHOhO8T85IFXA80IVJJEIekhRS1M4BNI9IvrG+ulKyQZbWpIXpOgIJlEgLKcj/XEDElRI9JfNpKU16AvTs1JIPOZ+v2qDpjrojAggJmjzfWqz6jmABx6Rt+ZvnJeQb7sHVsFra1cgx6lJUKksY1OW3sH8rNZk+xSvhd/3WpkrqYXGFPJ1HAqU1LFEBlOMAO7VPhJ90AWX1QVgVsldzJK1I35677H9PK55ihIrDw7kInDt98HRdmFuqCeM2xoJsclfqxixYp0UlpZMeSG5FICQqVeikiWpm2mTE6nTkqYSgsDWzzXaBWlcJOdLYxWEIJLTHGjeW0piiajzMpw+jGwWydfCSMhmmiCGhDqdWkmXmk3TdoZvWomPeiQlXw1xZVVQkF6gUn1lkd6XgthaHxl03HTIEYTWkIe6vsTrUzhKEk1egKi2ZtOMk8vwZI54mbJGUrVyNbXRKCYZBRTNJLqknRTA2/sA/MmN9Q2oamlTbbM7XEKuLh2ApSmCBlckk0+r08ocymYF2JKscz0fdmqhkCjucsxoVXr1ouZS4LLsJ0M8bBTJFnjHNYa+/wSStptt92EGTaajwPLaLLHRYCoOTPMwqIg4KtqwwbJ3urfr58w0dlZyq/mmlubW7FixQoUlhRLOiVDV0z1ZCya8WlmmsmM41iHMsnYNkZPPZC+0HJwk6RSLNQBdyBD6RumPwp55MMPy38QVn3CxPexx56cE7urVFfB48Pc+Yuxy/AhcDsTcHkzEIpFMXbGGzqfmVaFGycNPwCflM1D77xSHDBgV50Syd9gJ20CihMEdWG8idlKPyyfSrAQLaZCHmZfVFxWg0BzBilnz+BMm4QpA8tSpiEoBlYSSW1kjbIQ9PHdqI2MLmrQ8WxVZ6y+T39eQk/CEhvtphS+lGVQ+eoJDQShDD6zxrqI7WONXhWgaIEkmpNhM2HZtfWkhVhnzHUVD05+xoyE1RukWxopUOtsOkMsiqHQ2b1QV+JwAnFVTOZbJx9ZKQtaWF5r8IVZQzc1cBcARgKtrUGsrGQzO6fEXJl1xb5NzE7i8DCa0tSs1Gw0W7kZLFigFqEGpmlLzUxta8rx2GmC5jX9aQJG5d86RUu3NLeCyRbU2iwLVOGoDPl9an2CkswyRTWJMGpufp/fZSE/868zM/2iqRXAY/D5ldnPWDWtDfrT/fv1lzVzH+tq6qT4goeQ/aYLsj2qR7LudKEkewxTPvwMtXX1OP20k7B48TLpaXX1lZcJDyD5EbGY+NhvvvkOBg3sL9dk/XFRYT7qGpqQl5ePO++6F5ddcqEIDR625o4WvDznfRw17AB8s3ohRvQeim8rl6C+vQnbF/fHYTvua5nPJlYsB46FDh49VVGb1harysIF5jrbB1RbpYEbEyzKpGLSvtbSXfhhSY2hNZPOBU+eQ3NwjalsGs4pv9HGEyvSR6Ybuq24sdL6poe05puMianvLxUc6orGHDX3Ln3OpAWuIYlUaqh8zi5wutCcXb1lTO7kRAWT7qMjwtryl6ouCqaU/t8avIZXFwFlKs5sXVTsP6zz7sVl08KAAGbLXvI0ghc+J84H1i6O2oauBUc3bzP9sfQOpHfg37oDRruLR+OA4+GHH0u4mcDfVazv37qS9MXTO5Dega3ZAWpcoQs4Nvfxxx9P0CxNv9I7kN6BbWsHpJXR2LFjE50D8NvWbaRXm96BX+4OCIB/ubefvvP0DmzbO5AG8Lb9/NKr/4XvQBrAv/ADkL79bXsH0gDetp9fevW/8B1IA/gXfgDSt79t70AawNv280uv/he+A2kA/8IPQPr2t+0dSAN4235+6dX/wncgDeBf+AFI3/62vQNpAG/bzy+9+l/4DqQB/As/AOnb37Z3IA3gbfv5pVf/C9+BnwTgdBHEL/z0pG//v74DWw3gSN0qBMtm6O57//X7SC8gvQPb3A5IdxCnCwFO5Shkz7ct76ax1QBunPoY4kHVrib9Su9Aege2fgec/mzkHXzJVl1gqwFc/8Gdqr/QjzTv2qrVpL+U3oFf6A7kH3bdVmHppwG4U+/oX+jep287vQM/eQcKDr9+q66x9QCectdW/WD6S+kdSO/AxjuQBnD6VKR3YBvegTSAt+GHl156egfSAE6fgfQObMM78P8ewGaQx3/rGdnn26VOu/tvrSj9u1u3A6lPsutrmD6PWx6X3bo1Af/vAcyN4eR7ZyAHkZpyNW3vP/pKwJXXW+bsxlvr/qO/vDU/5s7tKROIYk1VW/P1zX7HlZmPrD1ORuuCiYg1rd9kEgIz9tz5vZC5yzFonfUaYu3NWxUy2eyiuvEB7ok7uxjOQK6cIzlT/mz1TT7b9mZE2+v18O1uXPBn+sgvAsC5+5wtG96+YhqCK2Z0sXVm2Gvnf/qx9ze3+/bvOZC7/zmINq5D66IPrOl5m7vCRtOkN/+FzXyie/eSM/IMmRvV/PVLP/kXO1+A+smdVYTc/c9F8zevINpQ2QWA7etMwF3UDzl7nIbGaWMRb2/cxJq6d38/5aYCOxwEX5+d0fTFWGTufCS8PYaoOU36p4OrvkHH91/8lJ/Y4u/+vwewK7sIufueg3DDanhyeqPhs4dkGjoTSXx9d4W/354y8S0RbEXrwomIdzSLZM3a9Vg4/DkytjK4dj5Cq+bA4cuUB+fK5MjOGMLrlqBjxVeSmJI78ixEW6rgzusLp9uHWGuNaBlfvxEIDN4fHBMZbalB66zXrTRSd1F/ZA49FOGaFXBlFqB1zjgEdjgQntIdZSh3rL0BbQsnIR5qgyu3FJnDj4DT40e0pRqujHyEa8rQ/v3nyNnrVDncbYunyHTB7F/9AYmORrQt+gBOf5bci9OfA84iDq1fgo7yr+HyZSFzl2PhCmQjHosiuGK6/F7OyDPlEMXaGtD81bN6/JcaE8r78PYYJrIlUlsOd35fdf+hFmTsdBRiDRVwF/SXQx1c9S1Caxaq7+1wMLylO8j70fpV8PXdHc3fvIxow1o1YtThgMufjcydj4IrI09GeYYq5iG0eg7chX2Rs+fpCP1fe9/hFdd17vs70/sMIIEAFSQh1BCqqKBmy3KN7LhdxyVxeS658U1yk/Xav/Bu1lvJy72JLTmJE9txLJfYsR232I66BBjUhVAvSEhCEkzvc85b33dmABUkGA8wM+y9lpcF7LPL79u//ZW9z/nO7YfOWcZjCx3ehOiFw2rbU5bDUDKVrxYmQl4ESIZhPycqt86+FzprkZp+9vIJBFs3QKM3wzp7DbRmJ+MRPl6PSPsBnpOtZg10rnIeZ+zyKQQOfplMEauaxOapK2Esr4Fn01peB2TVeev/zEm2jePnwFy5HN4dryHhuzhgIqb7QN4T2Db7XmjtxQjs/xT2RT+Ar/4NxDznoLO44Fj2LKJn9yHW2QZL1Qokwj74vlkPx6InIOnNCB3ZDF3RRBiKK+Hd8SdYpq2G1jYKwdavmMS0I/v3foLYuVa4bvuJuriO7YCk1cA0qQ7xi8cROr4dtnkPQw52IXyiEXQXPJVNXV9SCfvchxH3tCN6/hBk/0VY5z7Au7gc9sAy/XbEu07zwnOu+CESgcsIn94JvasMxrFzeOERwelvcuASfM3v8RicK/8VcqCTfyaNSvlsQ4c3Q+sshWnyYsaANgnj2Br4d/+NF6VkMCGw91OuT8SgPmMdR7o1pM5VyuSOnjvIczCUzoC+sAL+/Z9ADnngqH0c0Y7DiJ5rgaFsJgyjp6Br88vQO0thnX0fomf2IO45z5umzlEGb6NKYLUosNc+yptM8MgmbtdQOh3+pvWcnpXajpxrQezCIZgm10FjtIOu5OpHT4Jtzv0In2hgfGmjIIx8jW/BvuBfoLWXMNmpXfPkOgQOfAaNwQbjxFqet2HMdGjMdvib3oO15jvQFY5HqHUDZz20TL+NyR0+3pDMYHgdApuIwGSpKJzNsWD1z3iDpI1zqEp+E1irg3P5C4ie3c9Cdq36CWsGEqpx/FxYpt8Bzya6m+1XlxH5XLZCOJc/D9+u9xG9cJSFQwlMKddswaqf8gKJd57mhU2LkXZb3zdvw7Xqx0zCYMuX3I6NFoSrHO4tv2OTMeE+mzShewIc+pIpsM99EJ5tr3I7jiU/YB8r0raH+6UFSprZt/MDOBY8As922t0vQNKZkv21IrD3EzhXvACZFm7zX/k514ofIRG6jEDLV3Atfx6RcwdV81OjhaliIS/MRLAT1hl3sBkbPtWMRNdZJOJhOBd/n2fsrX9dzSWc1MHmyUtgmbICXRt+CyXih9bsgGPZcwi2/IM1n6P2e3Bv+yNk/yVoHSUgt8VT/wabnKR93ZteARJR6AvGwrbwMfga/9JDYEWBa/XPWEah4/W8waWu2pIGttc+Bu/WPyDhvwzd6Emwz3sYni3r2LKARq9aCooCQ9l02GZ/F76mt2Cb/yiC+z9D5Ow+dVNb8QLHIah9W/V3EPecQeTUTsS6zrCWpXWSCHsRpw1WAoxls1TZNr/TvYldo4F7EZj6cN36Y8R9F3hDGKqS1wTW2ArhWvocC0aJhaG1kTkVh/vr/2Ly0QLu2vhbNp9TmkBjLYRr+Qvw7XwPsY5jyQWsRheJwLHO00zU7syy0QDinW0oWPUTRM63MoGpkDlIBPZseYUJTD4wWQFqUYmhauCHWJuQ9ncueRKSwYzg4Y09ya6p63iUNYpK4A5O2E2LJXrhEAJ7P4Zz+XNQIiF4G//C2qJg9b8jQf21fMULN3Rse9KsU+eRCHRC9l2CxmRlTWqeuAiJkAeeHa/DufgJzlOrapZUUVjzEYFTYyXzkXAKHvi8m8Cera/yBqe1j4az7ml4G99UtXHJNHg2r4McJwKXw7Ho+90mdKqHgtv+HexDHqvvTs5NG4iuaCwctU/AvXktEkF38vkfwL3lFTaRNVo9PFv+wM2Yxs2BZcYd8Dath2PBY2wdEIGpHcJLjvjg3f4aJKMNhtKpMFUshhINwNfwJuMU85xHtH1/z6yjwe7Nmn7ZF4E5P3XStyezO3Jq11DxN1+j0GrI3zbvQVBUNXyiXrVaJcAy9Vb4d3/IRHAuew7R862IXW6DZUod+32+5nfhWPg4JJMd4SNbQX6qoXACL27LtFWsXUKHNkLrKmPTmkxYMg1Ju5PpSWYyZV43TZiPaMdR/rtjyZOs/cLHdyB6LkX+JIHnPAT3ppchh73QFY2Hff4jCB3bBiXsg2niQkTPtSLStpvNYlrAkTO72Rc0ls5QzbW9n8AyfRVM4+cjeHgzZ5snosUuH4ev6T04Fj4GyWBT3YGCcuiLKuBtehfG8pnQF09B+Og2GEoq2aR2f/1r2OZ8l/3Y0JFNbAlQGmrabnTOMXAseYrnRP4vEZ/aC+77lMlPJrCHtGSgk6O1jrqn4Wt8E5LeCtvcBxA7dxBxz1kYymugs5dcZUID9tpHoDUXIHhsK/SFE1S3pfEtNu2JjBzECrihKxwL+8In4Nn6ClsntrkPI3LqGzbjTZXLkfCeh6/pXdjmPwS9owTBY9s5XmCcMJ9loTFYYSibwb67ftRE/rf7q1/DUn0nm/00bzLbTePmInR0K+Of3MVhnnalD6xzjGEXiawmMsdJxt6tr3KC8KEqeauBKYjhWPgEwmd2s6mUKvb5DyHuvYDQka0wlFfDNH4eNHojk4N8Fzni5yCWtfouaCwFrLkjbbsQObMPGoMFlhmreQGSJqcgTfhUE+8MZELHLp2CxuLkenREEjjwBWsdY0kVjBW1HMhiP5Wy3RMpisbDOu02eJve4UAVEcU0aTGMpepioE0m0PIl5GgIOkcxrNNvBwxm1q5EoOj5g0xg0sjk60tmJx9VSXoT5FAXB7U48Dbzbl7sSjyKaPs+hE/tZE1PFghtSJTtnmIB4dPNvBit1XcDOhN8O/7EG5/64pgE46RaGEur6WVUxDuOQFc0gX1+NYh1N/w7P2BTnSwf+5z74d/3Cc+B3lslLaxARuziMRhGT4afiO9NHVVJkEw2Dujp7KMYM8KVXB86PbBW3wN/87tspeicxbBWr4Fv57tQQn6YKutgKJnCPihp/8CBz6FEgoyBtfpOaG2jOWgYu3iUNyvCirQ0zzseQbS9BaGTjZAkDccc9IXjAUXmTSp4eFN3vII1fMUCGIqr4Gt6B6aq5TAUTWRclESEA4sUZ6D1MpQlbwl8LYiqCu45jk/9nNIxPebilS9I0wkg/Sbpu9L/ZPDRQbc3Sz7cqp8ifKoRoeMNalAj9dfkMUOPP3l1f+x8JxtL+py9flZHnDK7k6OXJLhW/xyxC4dZq/Q2dXtG1WumbH6kXuFM/p7/p46F/smzTGVxV39KzoGSQqvnJD2vgPa0IUkK5O7neo2Ef9cz9qsv1KgbQ18XH9Q+aePo2UCo7WtaUZHurqT+PfVQ6mCJu+n+QW1HXQspWSR/Jt+bKrIY+r64ce1fev+mPxc+MkfxEUTgzIF2vc2BA2QnGvm/QS+ShILVP0/6wJ/cYKkN+khEB8OMgCBwhgRgnr4K8YsnELt0IkMt3qAZ8uXpiMl7HtEzapRVlJGJgCDwyJS7mHWeICAInCeCFNMYmQgIAo9MuYtZ5wkCgsB5IkgxjZGJgCDwyJS7mHWeIDDkBL782f/pddaWJyiKaQgEhgmBISdw5xe/uOJ2yzDNW3QrEMh9BCQJhXf+z6HNzODf86H6MkDydlDuoyhmIBAYWgT4Bpmk4feg6e56OiXt70Kn05l4RiAgEOiNQO8rpeld3RQEFitKIJDDCAgC57DwxNAFAoLAYg0IBHIYAUHgHBaeGLpAQBBYrAGBQA4jIAicw8ITQxcICAKLNSAQyGEEBIFzWHhi6AIBQWCxBgQCOYyAIHAOC08MXSAgCCzWgEAghxEQBM5h4YmhCwS+HYHTu38tUBcICAQYAfqGd/JD1+pX9wdc0iZwzN2OhPdcMvfPgPsVDwgERjQC3VmQKSWrcwxnf7wyEUH/4EmbwJQNT+saN4BE1/0bkKglEBhpCBCXKEdzOiV9Ane2QVeYXqfpDFQ8IxDIVwQozS3lNE6nfAsCn4auYHw6Wj+dcYpnBAJ5i8AwEVho4LxdUWJiQ4oA5aVO15r9Fho4/U6HFB3RmUAgyxEQBM5yAYnhCQRuhIAgsFgfAoEcRkAQ+DrCU5LJtbsTdA+xgIe7/35PN5Xjm3OTc7bufj86kIpXJvgeyJN91E3KV0kkIGm06hkqZQDnixFq0vNcibAKAl8lY5JtwnsWCf9lGEpnQNLoMrBiBtZErLMNks4AnaNkYA8OQ+1411kActpnkTcbshzywL/nY1hmrIbOMeZm1fv1d9oglWgQ7s1rYSybCevMuxBpP4Bg69cwjq2BpeqWfrWTDZUEga8jBW/964i7z8FUtRyWSXXX1FDk+HWJ3ffvE5BIO0maa3ujxZT8SHfqj55tr0JrHwVbzX19rxFF7mmP2lBIm1y72ShySsvcaLldq3H6nEsiBkmr727M2/AGlEQczrpnrtsBtyNpr6Ode6lv1npXaW9FBhFNDnbBvfX3cCx8DPrCCf3mDM+7T8xlxjxyehd0rrHQOcega8NvoDHa4FjwCCSDpd/9DHdFQeCrJJAIueHZtA4aawFo9y9Y/XOAiKEAcc8ZBHZ9BDnig76gDNY5D7DQY74OBJrfhRL28dU267yHoDXaIcejCLZ8gUh7CzRaPczTb4Np7GzEutrga3wLlqm3IHh4MyRF5r8Zx81D6PAmhE808Kg0Jhucy5+HpDVw/95GIksUetdYKIkYrNVrEDm7hzUHkcg4ZiosM++CpDVCjvjhbXoLsr8ThtJpiF08BsPoKTBNWQbPlt/BNud+GIqrIEe8cG9aB0v1XTCVz0LCfwk+mkvIA619NKzzHobG5EDCdxH+vX+D7HdDV1DGzyfCGFIeEAAAGLNJREFUPvh2vK4iqNOhcPV/70aTzNNQ69cIn9kNjckOy7Tb4N/9NziXPAk5EYPvm/UwTV6KyMlGnptt3oN8N0CCjEj7fgQO/AOSRgPz5DoED22EvfYx6ItUAifCJKPfwVp9NwzlMyEpEtybX2IrwFZ9DwKE+dl9bB5bpq+GsawGMXcbfE3vwDrjDoRONPA43Bt+A+OkxZCgQejIFjab9cUTEbt0Esayam6fxubf9R5inafhWvXTYbHIbrRJCAJfhU5g3ycsLFvNvfA1/gW2RU9A7ypn0no2/w76kkoYx0yHb/cH0NpGwzb7u/Bu/xN0rlIYJ9QidHiDqpGWPovAgc8Q7zoD25wHmLRETmvNGkhGKxNYa3bBPHUlomf3I3bpBKyz7oHOWQ5/89vQmJ0wVS5TycoaCvDWv4aEp4O1s3H8fCaWv/k9mKtWQOcohW/X+zAUT2ayeDavA2gBT7sFsY7jnMqGiGyuXK4SeO79nJZDDnvh3vgyrLPuZgJ5t70K/eiJME9aguCRzYh7zsO57Dn4d38IJRGBtfoe+He9z2SxTl8Nb/0bUGQZ1pl3dhOMhhs6UY/QoY0wViyA1lLAm4wkK7DXPcWbj7f+TegLy5nE4WPbEXe3w7n8BXUD2flXGEuqoC+uROjoNt5I7bWP9mpfYcwlsxP2uQ8idukYfE3vwVH3FPcZ955nudBmHGz5Craa70AyWOH75i1otAboy2bAXHULPBt+A9OkRTCUzYJny1roiyYy4cPHtiF64Qhct7wIORqGZ2tqs5il+vokjCwpgsC9BSEn4N7yO+hHT4ZlynI2q0wVtbBUrUTkzG4E9n8B54oXeEEmQh4osTASnnYEW/8J18p/g6Q3Qo4GIUcD0NmK0LXxJdbQhtGTWexkspFWM1Uuhb9xPWxz7oNhzDTOEeXe8go0lkI4FvwLPNv+yPVoE+ldPPWvQQm64Vz5Ipux3oY/I+HtgKliAVeLdhzlRWuf9zBvEHY2O8dDjoXg3vgSDMWVME9ZAc/mV7oJTFrUs/ElVdtoNAjs+xRmak+jhxxyI9J+EM5lzyB8sgnRC4dhLJ/FGlhXVAGNzoS+TGiaDxIxuFb+iE398OmdCLZ8ySQjAvsa3oJjyQ+gdZYi4b0A747X2EyOnG9FtP0AXCt+CElv5s2UNtLeGpjUIlkutPE5b3kR/uZ3IEdDsC94hLUqXe7XkbZWZIRO7eR5G8fOhu+bt2Ff+ChjQrIj+ZonLeJNrfPz/2Btbp21BonO0/A2rue6tIFFSGOv/NcrXIcs4S8EgZOSIJ9IDrh5t9UXjYfWWoTouRbyTnknjp7Zg0DLVyxI0nyIR6DIMSZNqHUDXLf+GySdkU1cJR6FxmBF14b/ZPNRn7xsTv6g1uyEtqAcvob1sM1/iMlN7PZs/T0kkwOO2kduSGAihXPpczxqz47X2EekQAwVap+0g6F0Oi9A5+LvQ+cqhxKPwL3ht6zRVAKvhaXmHpjKapAIullbW6rvZjeUNinj2FlsfpIPKikJmCYv47mRaRu7cAjxrnbWrLSx9UngzS+TEwDX8hfYv42c24/Ank96CNxIBH4aOkcxa13atIiA0QutiJ5rhXPFD6HRmxB3n4Wn/g04epnQNNd44DK8W/8A29wHETzwOY/HWF7DBCafVucsYz8XcpyDXxpLAZvQzqX/DVrbqD4JbJu1hjcYxmv0RNb+JENyGbJJ86Y2EEHgHq8N/t0fIdpxBIay6aqRpEjsS5HwtM4SNqGNE+bCNH4+KNBEC8w+X9WYhpIqmKfdwm3IQQ9r6sCejxEPXIJr2XPcDmkgMlUlixP+hrd4k7DOvR+R4w0Itx+AdcbtMI2fx8Sk/q3Ur9nRvXDIhJYTcbiWPsukj1w4yD65de690DvK4N7xGgyF42CefjtrVa3ZDguZ7+cOIHyymYltq74bnV/+khclabVI+z6Ej+1gDax1lTEpDOPnwFp1KyiLJC0QIhObn0YrbAsehb9pPZObNLx/51/ZTbAvfBw6e7GKpgKEjm5G6NgOdhGIQEQesjQcS57ijY8sBGfdU9DaS5DwXYJ7+6tw1H6Po8O+3R/BNK6GtSZZBHQicKUJrXbja1rPf5PDfjiXPcvEpI1QjgXhWPwUa/bArg9hqb6TzW0/EbjuaXZ95HiYyU4mtKVyObo+/wX0ZdO7rR7CJbD3U+7HufKH0Jqcg3ZM9m20uSBwEj05EoBnIwU1SKB0jMD7Ny8IOs4h35VMu9ChDWyuaeyjYJ99HzS20Yh1HAX5zkosxKS01HwHOmcpB7UCBz5H7OIJDsiYJtVxUCbqPs0EJvM8fKqZ+zJNXATLlJW8SKIXDiF48EsmAm0EHMRKalzSKM66Z9VRSwpCx7YhdLwBSMShH1XBQSzyn4lUgT0f8uLWjZ4EuvROpiT5hmSWBnb/DXI8wu5C7MJh9m3pCCV66RiC+z6FHAlCa3Hy7+muLT1Dv09E/OxP2shnLqqAHOiEf9cHrMkL7/gfPdthPAI/xRM6jkDSW2CetBiB1q/hXPI0WykUxKJ/ax3FiPsvwcsa+HtsnoeP70DoeD1vXDSm8KmdahQ6GcRKdUIWgX/P36EvHAv7oic4abwcCyOw/xPELhxll8BUsZAxJx/b1/Q2xya0tqLra+CymbDVrOm2ZtwbXmJtTpZBxs+ivw1rez0rCNwbyF7xCQ4csQGdClikjj1kNrHIpOwpdIxD4dEok02Rkk+pjTBRNFodFI2WW4t1nWIT2rH0GWgthWo/WjoCklSz9YojlZ5BdS+iq+IodGRCxKazY9XMS3ZMdxPkGEfR3V//J5uE1tlqLlkKxlDwSb3IcGWDfJEkHoWkN/QsXGqLasZC0PQ+ZrlBTIe3QGpH0zP3PuDuGQMPncZG7gBu7ndexazUcGiTgKTljTNl+l6L7dUs6plMIuyFd/MrHJ2niHSWxa66By4InKGdsN/NKApiXRSYeUv1x1JmZ78bSKOiIqMrSWDSwKL0jUCK5P6d77OcXLf8OLm5ZidqgsBDLBe+6eU7z+ecttn3ckR70IuiwPvNejZP2UwX5YYIKFE/H5sZxtbAWDYrq9ESBM5q8YjBCQRujIAgsFghAoEcRkAQOIeFJ4YuEBAEFmtAIJDDCAwLgelMka6ziSIQEAikjwAdetH5frpcSvubWNGLR6GzFWflzZb04RRPCgSGEgH1rD/u64B+dGVar1ekTWDI6vuYVLLnvY6hBF/0JRBIH4EUd9QWNMn3ngfOpPQJnP7YxZMCAYFAhhAQBM4QkKIZgcBwICAIPByoiz4FAhlCQBA4Q0CKZgQCw4GAIPBwoC76FAhkCAFB4AwBKZoRCAwHAoLAw4G66FMgkCEEBIEzBKRoRiAwHAgIAg8H6qJPgUCGEBAEzhCQohmBwHAgIAg8HKiLPgUCGUJAEDhDQIpmBALDgYAg8HCgLvoUCGQIAUHgDAEpmhEIDAcCgsDDgbroUyCQIQQEgTMEpGhGIDAcCAgCDwfq/eyTcwxQEvBk4WwR/MvrZX/orsW5cyVJA9OEhQP+2gK/aJ7sY+Cvl/dzYqJaxhAQBM4YlJlviNKmeBteRyJwiUml0ehgmbEahtLqPjujrATezS+rGRlXUFrQAY5LTnDKU13hBE5eLkp2IyAInMXyURQZ3u1/5BxOlE0x7u9A+HgDZyGkHL9E6ljnSU5PqnOVcZZAKpSdkfL5GkZNZgJT6s94Vxs0Fhd0hRXdeZsovy5924yyQOlHT+JcvnHPOfia3+NkcKYJ86EfNUl89yyL14ggcBYLh7KSeba/yqk0rTX3QoIG7o2/gWFMFcxVqxDY8wFiXWc4kyElCTdXLYd5Uh0/Qya0fclTiJxsQvDQPzl/E6VM1blKOVNf3H8R/ub3ODkaJdHm+gseQeTCYc4sSAnedI5S2OY/nEwuls1AjdyxCQJns+yTBIZGD+O4GiS6ziLS3gL7vAc4Pah3x+uwz38IOtc4hE81IXR0K+fB9e96P0nIR9H1z1+zJjVPXsaJtr3N78Kx8HGEj9ez5nYsf56tbF/zO9A6xnCeXTclSB81Cdbptyfd4YHa4dkMan6NTRA4m+XJBP4DlFiEU3TGA11wLHoM+oLxiJxsQKB1A5u9qXSkciwER+1jCLZ+zVrTMm0VvA1/gaQzsUnNKT9jYZgrl3H+YsqDbJujZjpUA2acy7SHwDNuh6JIFDMTJUsREATOUsGorOoxoSm5tmf7a7BUrYCxYiHinafg++Zt2OY9CJ2jGLFLJyFH/DBNWABv45usga1zH4Rn41qYKpfANLYGiUAXa2FKuB3Y8xHkeFRN1g0gcqIeGrMLhpIqlcBFFbDOvCub0RFjo0133bp1yUzSAo+sQ0CR4dn2R/ZfbbPXwL/rA0QvnYBz2bOQDBb4G94EaV2dYwz7rqbyGlhn3QM3+cDQwFn3NIItXyLctguGkimIdZ3lxN7Opc8gevE4k1hjckCBDCXsg232fdCPmgxv03ok3O3Ql0yBbda9IoiVdQujZ0CCwFkqHDVJNRBp28Ok05dUsXkbPtEAra0Y+uLJ/GH9yJk9SHjOQ19SCcOoSp4NEVgDCY66Z7hOvOs0ou0t7OOaxs3tnnEi4kXkZDNrYHNFLSSjFZIiQZEURNv3Q4lHYRo7D9AIGzpLl4nQwNkqmLTHpShwb36ZI9OOhU+k3Yx4MDcQEBo4N+TU71H6mt5G7PJpWGbdBVOWZ6bv96RExT4REATOs8WR8F+GpDdBY7CmgtMDv42VZ5jk83QEgfNZumJueY+AIHDei1hMMJ8REATOZ+mKueU9AoLAeS9iMcF8RkAQOJ+lK+aW9wgIAue9iMUE8xkBQeB8lq6YW94jIAic9yIWE8xnBASB81m6Ym55j4AgcN6LWEwwnxEQBM5n6Yq55T0CgsB5L2IxwXxGQBA4n6Ur5pb3CAgC572IxQTzGQFp3bq1injfLJ9FLOaWvwgokF566WVFq6UvFooiEBAI5BICiYQC6Ze//H+KyWSAVqvNpbGLsQoERjQCiUQC4XAU0q9+9SvxVcoRvRTE5HMZARHEymXpibGPeAQEgUf8EhAA5DICgsC5LD0x9hGPgCDwiF8CAoBcRkAQOJelJ8Y+4hEQBB7xS0AAkMsICALnsvTE2Ec8AoLAw7QE1ORllDRMoSyiXNSfRREI9B8BQeD+Y5WxmpQxkLIAIsVXzq6dyrKdsW5EQyMAAUHgoRKyoiARuIy49zwn2pbDHiAaArR6ziRI/2lto6FzlULS6IZqVKKfHEdAEHiQBNh9PzURRbyzDcFD/0ScEo+pxvJ1elXVsKTTw1y5FIbSamiM1kEanWg2XxAQBB4kSZKPG+s8heCejyFHg929pKzlK7tVf8t+seoMQ9IZYKpYAPPkpYAk3hYbJDHlfLOCwIMgQiJi8OCXiJ7ZC0VOpNkDe8rQF5TDWn0PNJYCEeRKE8l8fkwQOMPSVeIR+Pf+HbGOoxmLSmmsLtjmPQSddVSGRyuay3UEBIEzKUFFhm/vx4i1H2QzOJNFMtrgWvYcJL0xk82KtnIcAUHgTAhQUaBIEsJHtyJ0dBud7FI4KhMtX9GG1jYKjiVPQtLqM962aDA3ERAEzoDcKASV8F2Er+HPIBN68L4xpsA87TaYK2px/WBYBiYjmsgpBASBMyAuRZbhbXwTCXf7dVtL3dG4MenUg6eb6W6KTjuX/xAagznjZnoGoBBNDDECgsAZAFyOBODe9DLQR8TZOHY2zFNv4Z5CR7YgcnrnNb1aZ6+BftRkprCvcT0Svo5r6qSuX5omLYJlykpB4AzILtebyDkCK3IMgX2fwlBWDQMt+My7mv2XafISc/DQBoRONvbp9xonzIehdAbCJxqQ8F+CHOi8JkKtc5XzUZFlxu3wNb6FhPd8n+PQOorhrHt6EE31m0NA9oJn6++756y1j4J19neHVRw3H3VPjZ676IAcDSDedRb6grGA3pLp+ONAhjXgujlDYFowSjSIQMuXiJ2nKK8W1uq7YCybNYwkVvict+vrXwOJeJ/gGyfMg75wPGtojbWQlCz7yoH9n8K57HkkApeg0ZsRadsDY8UC+JreQcJ7oW9hShJcq37CzwxfUXD5s190d69zlsJR94NBCd4N2hzpsk3Xafh3fgAlHoakM8E270FVVjlSspzAPV6jEo/C1/w24l09fib91TLtVpjGL4CkGfrbSrSLE/m8W1/tl7its+9DYO/HoNeP7LWPqgRe/jw6v/i/IC0tKQoibbv60ZYCy4w7YBo/rx91M1tFvS2mvojR+fl/XEngJU9ycI3mlxNvVimAb+e7iF083j0PfUkl7HMfyixog9halhNYnbkcj8C7/U+Qg13Xmo2SBOO4Glhm3DkMuz9dl2xjk7c/xTb7Pt7xaZUbxkxFYP9ncC5/gW9t6QonIN7Vhsjp/hHYOLaGb2gNdSGvIdq+D0oiimDLl93y0JgdME1cyFaBfsyM7DdDk7rB1/weYhfp0o3qi+mLK2GfJwicsXUV95yDf9f7kMP+Xm32jueq0Vvyia0z7wI02iHd/aPnW+Hf/WG/5qsfPQlaaxGfEyshH2KXT8BQTi4A6TQJscunrhu8ul7jOkcxHHXP9KvfTFcijUVzJhL3LnTJxFH7OMhHz5USu3SC50JKQqMzwjb3fuiLKnJl+Mh6DRztOAol7EOg5R8MKi1+fmtHNda6j11sNWugsRdDZx89pOBH2/fDv/eTfvWptZdAY7KpVkUsBNnXAV3BOMR9Hay5KMDV30Iaz7XyR/2tnvF6scsn4W/+KxRZ9f01Rhvsi78PrdmZ8b4Gs0E1thLgN8Z0heOgMeTWG2BZT2DyuZRYCO5//pe6UMxO6EtVEy18bIdKYgkouuN/q3Ie4qh0tOMwB0FuWhQF1jnf5QsfVPSjJvBzxnFzAK2O/cbY5eNIuPuOPvfuQ18wDvZFj9+028GrQP5/F7zb/sjjdy57lkmca4WCifTWWMJ/GVpbIfQFFTl1XTXrCczaKhrsJrB+VAXsC77H66Tzi1/wwic2F975v4Zl7dDxg7fhzzfsO3W1Ug1ifcQ+sH3ho/Dv/gjW6rvZlKbFT+fDctjXr13INLEWlqmrhnjO9PkfCZLUk40ndvk0JIP5CstHDXNl710xUgrRjkMIH9mGBMVVep/fa7TQWlwwVa2AsbhqiPEdeHeCwAPH7IonEiEPPJvW3qAVhSPMutQxkt6s3pWWNKAAiq5gLPSjJ0OJ+Pk8kkh502MkAPb5D/Nzw1Fo00pROPlZr56fAegKyodjWP3rUwHkkBvuzev6rs9KAeyikMWXzSVHCBziSwNUyGe0z72fvV/3ht/wS/CkgV23/ngYotBkACjwbHxJ1Zx9vIHEFzmKKxE4+DX7Wwp9SueqojE5QG8cORY8Au836294kYNeZnDd9rPhOToDuq2hvhY2nVEPsSczAI4piHsvwtf0dp/PpOIr9oWP8WeOsrnkBIGJrHI8pp4vajTJt3EUKPQ79dgRGr1hyHFO3eaJnN2PwN6/903g8fNgmbaKtVTo8EZETjZdM1br3AdYo9LC99a/ccOLHLqiCXDUPjr081W/GwI5HmU34HqF9jC6r32zO91DPvhkh+rlOVo7V0bQe4+H5sAOgNYwpCca6WCSIwROZ2pD9wwFQro2rQNi12rWwRiFddbdyRto2avnBmPeos1rERAEzsSqUBT4W/6BaNvuTLTWZxukFeiYzLHkqaT5LAg8qIDnQOOCwBkSEr1S6NnyCuSQJ0MtXtsMEZhMZ33RhEHrQzScWwgIAmdEXuqRSezScXib3rnBp2MH3lmv2+AwTVoCy5QV4jXCgcOYt08IAmdKtEmmRc7sQWD/55lqNRV6gWHMNNBdakXSZHGEN8PTFs3dFAFB4JtCNLAKdMYbbtuJcOtGKDd4xfBmrSa/FM2a3VA6HdaaNXx2LIpAoDcCgsAZXQ9JNazQWeN5PmtUYvSNrHQKtaWBecatMI2bL8ibDoQj4BlB4EEUshzxI9K2G6Hj9b2u6/V6HYPvoFz/yqG+ZAoslcvUiwQZ/kTtIE5ZND3ECAgCDzLg/DJGNADyjdXXBS9CiYWTn55NXhggQ1mj46910Kd1DGNroHeUJq9ciqOiQRZRTjcvCDwE4mOdq16vZZ9WjvjYxFbCXkh6E/g1Q0sBv8vMt82SX7wYgqGJLnIcAUHgHBdgvg2/98fm8m1ugzEfQeA0UPV4PKivr0c02vd92jSaHbGPGAwGLF68GE5ndr/5k40CEgROQypr165FW1tbGk+KR/pCoLy8HC+++KIAaIAICAIPEDCq/vrrr6O1tTXr31RJY2rD8giZzVOnTsWTTz4pMB2gBASBBwgYVSfT+dy5c0gk0s39m0anefyIVqvFmDFjYDSKzIsDFbMg8EARE/UFAlmEgCBwFglDDEUgMFAEBIEHipioLxDIIgQEgbNIGGIoAoGBIvD/AWcnd9CxqqX2AAAAAElFTkSuQmCC;" parent="1" vertex="1">
          <mxGeometry x="90" y="50" width="174.62" height="378.34" as="geometry" />
        </mxCell>
      </root>
    </mxGraphModel>
  </diagram>
</mxfile>
